<?xml version="1.0" encoding="UTF-8" standalone="no"?>
<!-- Created with Inkscape (http://www.inkscape.org/) -->

<svg
   xmlns:svg="http://www.w3.org/2000/svg"
   xmlns="http://www.w3.org/2000/svg"
   version="1.1"
   width="406.59641"
   height="500"
   id="svg2">
  <defs
     id="defs4" />
  <g
     transform="translate(-819.10752,-1074.5868)"
     id="layer1">
    <path
       d="m 1032.9333,1568.3601 c 1.8998,-0.1659 4.7867,-0.3762 6.4152,-0.4672 1.6284,-0.091 4.0711,-0.302 5.4282,-0.4687 1.3571,-0.1667 3.1336,-0.3814 3.9478,-0.4771 3.5353,-0.4156 10.0604,-1.5865 10.3466,-1.8566 0.1719,-0.1623 0.8385,-0.295 1.4815,-0.295 0.6429,0 2.2047,-0.3041 3.4708,-0.6757 1.2659,-0.3716 2.7459,-0.7207 3.2887,-0.7758 1.6664,-0.169 7.2259,-1.5964 7.4323,-1.9081 0.1071,-0.1617 0.3291,-0.2559 0.4935,-0.2092 0.1644,0.047 0.817,-0.076 1.4503,-0.2719 0.6333,-0.1963 2.437,-0.7007 4.0083,-1.1211 1.5712,-0.4204 2.7953,-0.8638 2.7201,-0.9855 -0.075,-0.1217 0.2615,-0.2212 0.7483,-0.2212 0.4867,0 0.9408,-0.1675 1.009,-0.3722 0.068,-0.2047 0.2354,-0.3033 0.3714,-0.2193 0.2983,0.1844 5.4105,-1.5793 6.699,-2.311 0.5039,-0.2863 1.3447,-0.5746 1.8683,-0.6409 0.5236,-0.066 1.5918,-0.4534 2.3736,-0.8603 0.7818,-0.4069 1.5695,-0.7761 1.7505,-0.8206 0.564,-0.1387 3.9224,-1.5953 4.4413,-1.9263 0.2714,-0.1731 0.7765,-0.3588 1.1224,-0.4126 0.3459,-0.054 1.0861,-0.3795 1.6449,-0.7238 0.5588,-0.3442 1.8302,-0.9454 2.8254,-1.3358 0.9952,-0.3905 2.0315,-0.8893 2.3029,-1.1084 0.2714,-0.2192 1.4558,-0.8367 2.6319,-1.3722 1.1761,-0.5356 2.2124,-1.0562 2.3029,-1.1569 0.09,-0.1008 0.6437,-0.377 1.2295,-0.6139 0.5857,-0.2369 0.9953,-0.5436 0.91,-0.6815 -0.085,-0.1379 0.2966,-0.3411 0.8485,-0.4514 0.5572,-0.1115 0.9119,-0.3487 0.7977,-0.5336 -0.1951,-0.3156 -0.055,-0.3878 0.9023,-0.4644 0.5569,-0.045 1.1991,-0.6339 1.0176,-0.9338 -0.081,-0.1337 0.055,-0.1656 0.301,-0.071 0.2465,0.095 0.9574,-0.1675 1.5798,-0.5825 0.6224,-0.415 1.5388,-0.9351 2.0364,-1.1556 0.4976,-0.2207 0.9047,-0.5277 0.9047,-0.6824 0,-0.1546 0.1894,-0.2812 0.4208,-0.2812 0.5748,0 5.2094,-3.0268 5.867,-3.8316 0.2918,-0.3572 0.6821,-0.5558 0.8674,-0.4413 0.1853,0.1145 0.5172,-0.01 0.7376,-0.2746 0.2204,-0.2655 1.3844,-1.1328 2.5869,-1.9272 1.2024,-0.7944 2.6189,-1.8709 3.1477,-2.3922 0.5288,-0.5213 0.8331,-0.7301 0.676,-0.4641 -0.157,0.2661 0.3329,-0.03 1.0887,-0.6579 0.7558,-0.6279 1.3769,-1.2527 1.3802,-1.3884 0,-0.1357 0.1765,-0.2468 0.3849,-0.2468 0.6515,0 3.2297,-2.1179 3.0834,-2.5329 -0.076,-0.2169 0.038,-0.3284 0.2554,-0.2477 0.358,0.1332 1.7018,-0.8923 5.7462,-4.3851 0.7722,-0.6668 1.3327,-1.3981 1.2455,-1.6252 -0.087,-0.227 -0.053,-0.3831 0.077,-0.3468 0.7198,0.2021 3.8633,-2.4869 3.5327,-3.0218 -0.1168,-0.1889 -0.01,-0.2574 0.2541,-0.1575 0.4556,0.1748 2.9349,-2.0286 4.4259,-3.9333 0.4072,-0.5201 0.7403,-0.8186 0.7403,-0.6634 0,0.1551 0.4441,-0.2041 0.9869,-0.7984 0.5428,-0.5944 0.987,-1.2195 0.987,-1.3893 0,-0.1698 0.1943,-0.3087 0.4319,-0.3087 0.2375,0 0.8667,-0.467 1.3982,-1.0378 0.5314,-0.5708 0.7583,-0.918 0.5042,-0.7716 -0.3104,0.1788 -0.385,0.1415 -0.2274,-0.1136 0.1291,-0.209 0.4394,-0.3799 0.6894,-0.3799 0.2501,0 0.5603,-0.1709 0.6894,-0.3798 0.1313,-0.2124 0.091,-0.2913 -0.09,-0.1789 -0.1788,0.1104 -0.325,-0.01 -0.325,-0.2637 0,-0.2555 0.1298,-0.3843 0.2886,-0.2862 0.3899,0.241 1.2869,-0.534 1.0541,-0.9107 -0.102,-0.1649 0.011,-0.2592 0.2503,-0.2095 0.2397,0.05 0.3951,-0.1056 0.3453,-0.3452 -0.05,-0.2397 0.045,-0.3521 0.2102,-0.25 0.1653,0.1022 0.7194,-0.368 1.2314,-1.0447 0.512,-0.6768 1.4537,-1.8 2.0927,-2.496 0.639,-0.696 1.1619,-1.3869 1.1619,-1.5353 0,-0.1483 0.1348,-0.3931 0.2995,-0.5439 0.1756,-0.1607 0.2033,-0.07 0.067,0.2193 -0.1279,0.2714 0.1075,0.059 0.523,-0.472 0.4155,-0.5311 1.2339,-1.5084 1.8187,-2.1718 0.5848,-0.6634 0.9673,-1.3022 0.8499,-1.4196 -0.1174,-0.1173 -0.065,-0.2134 0.1153,-0.2134 0.1809,0 0.8255,-0.6181 1.4326,-1.3735 0.6071,-0.7555 0.891,-1.2608 0.6308,-1.1229 -0.2602,0.1378 -0.1527,-0.021 0.2388,-0.3536 0.8923,-0.7575 3.3588,-4.0126 2.7014,-3.5652 -0.3603,0.2452 -0.3537,0.2033 0.026,-0.1645 0.8566,-0.83 2.7159,-3.2898 2.4867,-3.2898 -0.1186,0 0.017,-0.2332 0.3025,-0.5182 1.042,-1.0419 2.5195,-3.4442 2.3185,-3.7695 -0.1137,-0.1839 -0.017,-0.2937 0.2141,-0.244 0.2314,0.05 0.4274,-0.064 0.4357,-0.2519 0.01,-0.1882 0.5331,-0.9965 1.1664,-1.7961 0.6333,-0.7996 1.1435,-1.5338 1.1339,-1.6316 -0.01,-0.098 0.4345,-0.9084 0.9869,-1.8013 0.5525,-0.893 0.9675,-1.7443 0.9223,-1.8917 -0.045,-0.1475 0.062,-0.2681 0.2383,-0.2681 0.4457,0 1.3963,-1.9203 1.1488,-2.3207 -0.1113,-0.1801 -0.018,-0.2868 0.2062,-0.2371 0.2246,0.05 0.5532,-0.3908 0.73,-0.9788 0.1768,-0.5881 0.4569,-1.0692 0.6223,-1.0692 0.1654,0 0.2093,-0.1481 0.098,-0.329 -0.1118,-0.1809 -0.047,-0.329 0.1451,-0.329 0.1916,0 0.3484,-0.2097 0.3484,-0.4661 0,-0.2563 0.111,-0.5153 0.2467,-0.5757 0.4283,-0.1903 1.7245,-2.7989 1.5016,-3.0219 -0.1172,-0.1172 -0.067,-0.2131 0.1124,-0.2131 0.4345,0 2.7878,-4.7285 2.64,-5.3048 -0.064,-0.2488 -0.046,-0.318 0.039,-0.1537 0.2313,0.4448 3.4025,-6.4463 3.2043,-6.9628 -0.1056,-0.2751 -0.026,-0.3539 0.2111,-0.2077 0.2568,0.1587 0.3105,0.051 0.1645,-0.329 -0.1192,-0.3105 -0.095,-0.4892 0.054,-0.3971 0.3428,0.2118 2.5463,-5.3562 2.4363,-6.1563 -0.045,-0.3272 0.066,-0.5035 0.2467,-0.3918 0.2912,0.1799 0.4608,-0.5207 0.4175,-1.724 -0.01,-0.2242 0.1011,-0.3361 0.2427,-0.2486 0.3851,0.238 0.6977,-0.8182 0.4767,-1.6107 -0.1543,-0.5533 -0.1236,-0.5939 0.152,-0.2004 0.19,0.2714 0.3478,0.3946 0.3505,0.2737 0,-0.1209 0.1043,-0.4783 0.2255,-0.7942 0.1637,-0.4267 0.1003,-0.5119 -0.2468,-0.3315 -0.332,0.1726 -0.3212,0.1169 0.037,-0.1928 0.2774,-0.2396 0.6988,-1.1018 0.9363,-1.916 0.2376,-0.8143 0.6192,-1.9246 0.848,-2.4674 0.6291,-1.4927 2.8106,-9.2542 2.8106,-9.9996 0,-0.3595 0.1286,-0.7331 0.2858,-0.8302 0.2363,-0.1461 0.5335,-1.2733 0.8744,-3.3165 0.03,-0.181 0.1477,-0.5511 0.2612,-0.8225 0.4471,-1.0697 2.8832,-14.0047 2.7404,-14.5509 -0.084,-0.3199 -0.039,-0.6517 0.1,-0.7373 0.1384,-0.086 0.3547,-1.011 0.4807,-2.0565 0.6482,-5.3794 0.8619,-7.38 1.0288,-9.632 0.1007,-1.3571 0.3233,-4.0959 0.4948,-6.0862 0.1907,-2.2131 0.3122,-62.183 0.3129,-154.3749 l 0,-150.7561 -198.0204,0 c -108.91014,-10e-4 -198.25409,0.089 -198.54106,0.1986 -0.47533,0.1824 -0.52099,13.3254 -0.51284,147.6323 0.008,133.9352 0.10456,153.643 0.79619,162.7299 0.20952,2.7526 0.80796,7.3619 1.17464,9.047 0.15748,0.7238 0.37913,2.4073 0.49255,3.7411 0.11342,1.3338 0.33948,2.7756 0.50235,3.204 0.16287,0.4283 0.38265,1.5577 0.48839,2.5096 0.10574,0.952 0.4061,2.5664 0.66748,3.5877 0.26138,1.0213 0.47524,2.1686 0.47524,2.5496 0,0.3811 0.16388,0.6928 0.36418,0.6928 0.2003,0 0.28531,0.2055 0.18891,0.4567 -0.1582,0.4123 0.8427,5.2418 1.33715,6.4519 0.1109,0.2715 0.22747,0.7156 0.25905,0.987 0.0316,0.2714 0.32752,1.3817 0.65765,2.4674 0.33013,1.0856 0.61441,2.0479 0.63174,2.1384 0.11279,0.589 0.96393,3.48 1.05835,3.5948 0.0636,0.077 0.34425,-0.1448 0.62377,-0.4935 0.48289,-0.6023 0.48969,-0.5958 0.13634,0.1309 -0.39897,0.8205 -0.12461,3.4674 0.33027,3.1863 0.14595,-0.09 0.3532,0.065 0.46056,0.3446 0.10897,0.284 0.0552,0.4222 -0.12168,0.3129 -0.17428,-0.1077 0.13407,1.0319 0.68523,2.5325 0.55117,1.5006 1.15498,3.2466 1.34181,3.8798 0.18683,0.6333 0.44612,1.2995 0.57621,1.4805 0.13009,0.1809 0.72805,1.6243 1.32881,3.2076 0.60075,1.5832 1.22787,2.8786 1.39361,2.8786 0.16573,0 0.21796,0.1349 0.11608,0.2997 -0.25987,0.4205 3.35562,8.0136 3.71109,7.7939 0.15986,-0.099 0.25023,0.1885 0.20083,0.6386 -0.0494,0.45 0.11945,1.0275 0.37523,1.2833 0.25578,0.2557 0.46505,0.6236 0.46505,0.8175 0,0.1939 0.16038,0.3525 0.35639,0.3525 0.19603,0 0.29332,0.185 0.21621,0.4112 -0.0771,0.2262 0.20665,0.9635 0.63056,1.6384 0.42391,0.6749 0.77074,1.3828 0.77074,1.573 0,0.1902 0.22122,0.4307 0.49159,0.5345 0.27037,0.1037 0.41856,0.3068 0.3293,0.4512 -0.0893,0.1444 0.23945,1.0115 0.73045,1.9269 0.61812,1.1523 0.98177,1.5416 1.18217,1.2656 0.18992,-0.2616 0.22222,-0.1916 0.094,0.2038 -0.22272,0.6864 0.5464,1.9873 0.95553,1.6161 0.14831,-0.1346 0.18644,-0.011 0.0847,0.2746 -0.16583,0.4656 0.58889,1.8689 2.28636,4.251 0.32234,0.4524 0.55527,0.9176 0.51762,1.0339 -0.0377,0.1162 0.2845,0.5922 0.71589,1.0577 0.4314,0.4655 0.84201,1.1106 0.91247,1.4335 0.0705,0.323 0.29905,0.552 0.50797,0.5089 0.20891,-0.043 0.30594,0.1143 0.21559,0.3497 -0.0903,0.2355 0.13706,0.7008 0.50532,1.034 0.36827,0.3333 0.66957,0.7978 0.66957,1.0321 0,0.2344 0.21618,0.5472 0.48039,0.695 0.26422,0.1479 0.83836,0.9325 1.27587,1.7435 0.43752,0.8111 0.95623,1.4395 1.1527,1.3964 0.19646,-0.043 0.27267,0.142 0.16936,0.4112 -0.10332,0.2693 -0.0576,0.4896 0.10152,0.4896 0.15915,0 0.56841,0.5181 0.90946,1.1514 0.56381,1.0469 0.892,1.296 1.57384,1.1944 0.1292,-0.019 0.14105,0.2095 0.0264,0.5084 -0.13898,0.3622 -0.0814,0.465 0.17256,0.308 0.23792,-0.147 0.31628,-0.067 0.20855,0.2142 -0.0949,0.2473 0.20019,0.8519 0.65581,1.3436 0.45561,0.4916 0.98653,1.1893 1.1798,1.5504 0.20093,0.3755 0.52046,0.5597 0.74614,0.4302 0.2171,-0.1245 0.2844,-0.1047 0.14956,0.044 -0.20036,0.221 0.98933,2.1613 1.71427,2.7958 0.10337,0.091 0.98501,1.1268 1.95919,2.3029 0.97418,1.1761 1.90773,2.0977 2.07454,2.048 0.16682,-0.05 0.20954,0.061 0.0949,0.2467 -0.1146,0.1855 -0.0269,0.3372 0.19487,0.3372 0.22178,0 0.31668,0.086 0.2109,0.1923 -0.2584,0.2584 1.97618,2.6041 2.48074,2.6041 0.21906,0 0.3983,0.1727 0.3983,0.3838 0,0.2111 0.77723,1.2247 1.72717,2.2524 0.94994,1.0278 1.72717,1.9441 1.72717,2.0363 0,0.2512 3.74469,3.6955 4.03005,3.7068 0.1357,0.01 0.24674,0.2318 0.24674,0.5032 0,0.2714 0.21334,0.4935 0.47406,0.4935 0.26076,0 0.57971,0.1709 0.7088,0.3798 0.15936,0.2579 0.0863,0.2904 -0.22733,0.1014 -0.39258,-0.2366 -0.39462,-0.1954 -0.0135,0.2745 0.24671,0.3042 0.56257,0.4825 0.70199,0.3964 0.13939,-0.086 0.69241,0.3573 1.22895,0.9854 0.53655,0.6281 1.07193,1.0457 1.18971,0.9279 0.11781,-0.1178 0.21552,0 0.21716,0.2519 0,0.2563 0.47779,0.8361 1.05808,1.2885 0.5803,0.4524 1.3342,1.0966 1.67536,1.4316 1.18911,1.1678 4.03509,3.6748 5.28405,4.6546 0.69192,0.5428 1.53905,1.246 1.88251,1.5627 0.3435,0.3166 0.62451,0.5284 0.62451,0.4705 0,-0.058 0.68419,0.5319 1.52044,1.3106 0.83621,0.7787 1.65045,1.3355 1.80941,1.2373 0.15894,-0.098 0.29165,-0.059 0.29494,0.087 0.003,0.1464 0.62431,0.78 1.38015,1.4079 0.75581,0.6279 1.2434,0.924 1.08351,0.6579 -0.15985,-0.266 0.3354,0.076 1.10056,0.7612 0.76518,0.6847 1.55616,1.143 1.75773,1.0184 0.2113,-0.1306 0.27483,-0.078 0.14998,0.1238 -0.12649,0.2047 2.00674,1.8143 5.13068,3.8715 2.94096,1.9367 5.75749,3.8073 6.25896,4.1569 0.50144,0.3496 1.04752,0.5517 1.21346,0.4491 0.16594,-0.1025 0.42186,0.017 0.56868,0.2661 0.36787,0.6236 2.94471,2.2021 3.19168,1.9552 0.11034,-0.1104 0.20061,-0.019 0.20061,0.2026 0,0.2218 0.14805,0.3117 0.32899,0.1999 0.18094,-0.1118 0.32898,-0.038 0.32898,0.1645 0,0.2023 0.14805,0.2763 0.32899,0.1645 0.18094,-0.1119 0.32898,-0.047 0.32898,0.145 0,0.1916 0.1415,0.3484 0.31438,0.3484 0.17291,0 0.87612,0.3843 1.56268,0.854 2.0524,1.4039 5.69054,3.1321 6.08305,2.8895 0.21332,-0.1318 0.27431,-0.078 0.14607,0.1298 -0.21706,0.3513 0.70225,0.7982 1.85268,0.9007 0.32053,0.029 0.88144,0.3725 1.24649,0.7643 0.36507,0.3919 1.03271,0.7124 1.48372,0.7124 0.45097,0 0.90845,0.2306 1.01659,0.5124 0.10814,0.2818 0.40725,0.4316 0.66471,0.3328 0.25747,-0.099 0.38725,-0.049 0.28843,0.1111 -0.21677,0.3508 0.73955,0.767 1.16217,0.5058 0.16459,-0.1017 0.29927,-0.028 0.29927,0.1635 0,0.1916 0.29609,0.3484 0.65797,0.3484 0.36188,0 0.65797,0.1319 0.65797,0.2933 0,0.2861 1.56478,0.855 2.05615,0.7476 0.13571,-0.03 0.24674,0.1028 0.24674,0.2944 0,0.1916 0.16459,0.2467 0.36577,0.1224 0.20117,-0.1244 0.47508,-0.049 0.60865,0.1669 0.1336,0.2162 0.45015,0.4282 0.70344,0.4713 0.25331,0.043 0.94014,0.3324 1.52632,0.6428 0.58615,0.3104 1.13862,0.5679 1.2277,0.5721 0.0891,0 0.67804,0.2232 1.30884,0.4868 0.63076,0.2635 1.53043,0.4792 1.99927,0.4792 0.46887,0 0.77476,0.1257 0.67978,0.2793 -0.095,0.1537 0.67353,0.5422 1.70776,0.8634 1.03423,0.3212 2.13747,0.7137 2.45169,0.8721 0.31418,0.1584 0.77259,0.288 1.01863,0.288 0.24608,0 0.9253,0.2385 1.50942,0.5298 0.58411,0.2915 1.42101,0.5505 1.85975,0.5758 0.43873,0.025 0.79778,0.1451 0.79791,0.2665 2.7e-4,0.2332 1.95809,0.7736 2.39531,0.6612 0.14117,-0.036 0.68899,0.1576 1.21737,0.4308 0.52838,0.2733 1.3294,0.4968 1.78007,0.4968 0.45064,0 0.91458,0.1541 1.03097,0.3424 0.11636,0.1883 0.51375,0.2464 0.88306,0.1292 0.41002,-0.1301 0.5925,-0.085 0.46867,0.115 -0.11182,0.181 0.27556,0.4187 0.86352,0.53 1.6371,0.3099 2.29036,0.4644 3.45145,0.8163 0.58805,0.1782 1.06919,0.2552 1.06919,0.171 0,-0.084 0.25908,-0.014 0.57573,0.1548 0.31665,0.1694 1.01985,0.3893 1.56267,0.4888 0.54283,0.099 2.40241,0.4815 4.13238,0.8491 3.20237,0.6804 5.0861,1.0122 6.55962,1.1555 0.45235,0.044 0.89648,0.1219 0.98695,0.1733 0.0905,0.051 0.46058,0.1422 0.82246,0.202 4.94994,0.8176 7.25957,1.1524 9.03287,1.3094 1.16832,0.1035 2.20462,0.2363 2.30292,0.295 0.189,0.1131 3.9308,0.4347 9.3902,0.8073 4.9053,0.3348 19.5749,0.3182 23.5224,-0.027 z"
       id="path2912"
       style="fill:#0093dd;fill-opacity:1" />
    <g
       transform="matrix(0.32898449,0,0,0.32898449,111.85856,823.77042)"
       id="g3697">
      <path
         d="m 2724.6583,2281.3315 c -91.8937,-6.8236 -178.3026,-32.1657 -256.5,-75.2267 -139.0073,-76.5471 -243.319,-202.7917 -290.1923,-351.2089 -13.3677,-42.3266 -21.458,-83.754 -26.4618,-135.5 -1.7102,-17.6855 -2.4435,-953.57509 -0.7488,-955.61708 0.9748,-1.17458 93.9269,-1.38299 616.8253,-1.38299 477.527,0 615.9469,0.26927 616.8776,1.2 1.5424,1.5424 1.7182,898.49927 0.1831,934.07697 -1.9613,45.4539 -6.8113,79.2597 -17.6068,122.7231 -42.7223,172.0022 -162.5595,318.9895 -324.8763,398.4797 -24.1023,11.8034 -39.4678,18.4178 -60.6352,26.1018 -55.4676,20.1354 -111.8211,32.0365 -172.3648,36.4011 -15.9514,1.1499 -68.7766,1.1206 -84.5,-0.047 z m 95.6334,-19.3812 c 101.3945,-9.625 195.5744,-42.6286 279.8748,-98.0768 78.6355,-51.722 146.1829,-123.9672 192.3071,-205.6816 38.3222,-67.8921 62.5738,-141.5348 72.0526,-218.796 3.6778,-29.9768 3.6321,-23.6965 3.6321,-499.5001 l 0,-462.99997 -602.4405,-0.25083 c -481.2933,-0.20038 -602.6002,7.1e-4 -603.2347,1 -1.2072,1.90125 -1.0089,890.8282 0.2046,917.2508 5.0373,109.6805 39.3105,213.0255 100.8181,304.0001 49.5629,73.3074 119.3357,138.57 194.9718,182.3688 72.764,42.1356 146.7488,67.3805 228.6807,78.0299 12.9434,1.6823 21.3563,2.4439 50,4.5264 11.3937,0.8284 68.1558,-0.4489 83.1334,-1.8707 z m -78.9274,-104.1817 c -0.1267,-0.1267 -5.1749,-0.7772 -11.2182,-1.4454 -15.7624,-1.7431 -14.9119,-1.1333 -16.8752,-12.0988 -6.8944,-38.5071 -9.7224,-50.824 -13.7732,-59.9864 -2.2716,-5.1382 -4.5102,-9.5908 -4.9746,-9.8948 -0.4645,-0.304 -4.0483,-6.154 -7.9642,-13 -37.2441,-65.1138 -78.2438,-128.9362 -102.7506,-159.9473 -18.0818,-22.8809 -40.349,-40.1735 -65.0895,-50.5484 -17.6016,-7.3812 -35.9242,-9.5822 -45.5217,-5.4682 -6.9907,2.9965 -7.9253,6.0363 -7.2307,23.5166 0.9096,22.8899 7.3857,48.908 25.7205,103.333 5.4842,16.2794 9.9714,30.5717 9.9714,31.7606 0,3.6575 -2.3582,4.7258 -4.7322,2.1439 -9.1889,-9.9934 -31.8624,-53.0639 -42.7657,-81.2375 -12.7952,-33.062 -18.1858,-57.2058 -17.2636,-77.3216 0.7785,-16.9805 5.547,-26.471 17.2544,-34.3408 8.1438,-5.4744 12.009,-6.3516 27.5071,-6.2428 11.5685,0.081 14.7533,0.4745 22.2603,2.7486 29.9841,9.0833 62.4592,30.4246 84.3421,55.4261 21.905,25.0268 50.7279,67.2074 92.406,135.2305 8.4236,13.7483 10.5764,16.7485 11.4159,15.909 0.7609,-0.7609 -5.9123,-32.5923 -11.8258,-56.409 -17.6372,-71.0347 -42.5549,-135.1601 -75.3838,-194 -2.455,-4.4 -10.0697,-17.5173 -16.9218,-29.1497 l -12.4582,-21.1497 -7.6674,-2.6981 c -15.6831,-5.5188 -27.4747,-14.0179 -35.3819,-25.5026 -5.8203,-8.4536 -15.4484,-20.5254 -18.6841,-23.4264 -4.4203,-3.9631 -4.5557,-2.6393 -4.8211,47.1462 -0.2392,44.8626 -0.6112,50.4786 -3.1619,47.7303 -1.4142,-1.5237 -14.7538,-63.0054 -17.1297,-78.9501 -0.6556,-4.4 -1.4028,-8.3456 -1.6605,-8.7679 -0.2576,-0.4224 -2.288,0.7897 -4.5121,2.6934 -7.2788,6.2304 -16.4706,9.5041 -26.8145,9.5501 -4.4629,0.02 -7.0053,-0.7353 -13.5,-4.0097 -16.5749,-8.3565 -30.1533,-7.3444 -55.5015,4.137 -6.5533,2.9683 -8.4639,3.3838 -15.1359,3.2915 -12.0745,-0.1669 -20.7803,-5.4808 -25.2024,-15.3832 -2.7201,-6.0912 -3.328,-18.4895 -1.3243,-27.0112 0.8406,-3.575 1.1728,-6.8632 0.7383,-7.3072 -0.9365,-0.9567 -30.727,14.1161 -47.0757,23.8184 -6.325,3.7537 -17.1494,10.5742 -24.0543,15.1568 -6.9048,4.5826 -13.3173,8.332 -14.25,8.332 -1.1159,0 -1.6957,-0.808 -1.6957,-2.363 0,-4.54 38.7834,-38.6825 67.5,-59.4226 7.7,-5.5612 14.9,-10.7618 16,-11.5568 1.7816,-1.2876 0.6354,-1.4297 -10.5,-1.3015 -11.5377,0.1328 -12.927,-0.056 -18.0457,-2.4572 -11.8125,-5.5405 -17.2542,-13.0236 -17.3795,-23.8989 -0.064,-5.537 0.4808,-7.6636 3.6752,-14.3538 6.0218,-12.6118 5.516,-15.1355 -6.3638,-31.7515 -8.0908,-11.3165 -9.8862,-15.2141 -9.8862,-21.4614 0,-12.3197 10.0787,-20.9976 29.8814,-25.7281 5.0198,-1.1992 8.9782,-2.6359 8.7966,-3.1927 -0.8017,-2.4577 -39.1263,-22.887 -75.678,-40.3412 -3.8076,-1.8182 -5.0301,-5.0715 -2.6484,-7.0481 2.7822,-2.3091 39.7008,6.5386 72.7102,17.4252 10.759,3.5484 20.0765,6.4516 20.7055,6.4516 0.6882,0 0,-2.6878 -1.7204,-6.75 -3.7752,-8.8977 -4.4081,-13.9448 -3.0794,-24.5564 2.7891,-22.2741 9.3888,-28.3127 32.5325,-29.7673 13.7838,-0.8663 22.1379,-3.1416 31,-8.4429 8.5485,-5.1137 12.2452,-9.1798 17.437,-19.1789 3.5505,-6.8381 5.6505,-9.6025 9.4642,-12.4586 9.3197,-6.9798 16.5162,-7.371 32.0988,-1.7451 7.8234,2.8245 9.7909,4.0435 15.0501,9.3243 3.8413,3.8571 7.489,8.8892 9.9914,13.7835 2.1677,4.2397 4.2563,7.3897 4.6412,7 0.385,-0.3897 3.4786,-8.1234 6.8748,-17.1859 8.7285,-23.2918 13.7484,-34.8298 24.5318,-56.3864 11.2519,-22.4929 13.0991,-25.3765 15.0232,-23.4523 1.1397,1.1397 0.5063,4.7649 -3.9897,22.8354 -7.8736,31.6455 -12.9638,56.3064 -11.8515,57.4186 0.2723,0.2723 3.419,-2.1841 6.9926,-5.4587 11.3914,-10.4382 21.4626,-14.0006 29.7689,-10.53 5.0864,2.1252 7.8211,5.578 14.6315,18.4741 6.3812,12.0832 10.3284,17.1968 15.2713,19.7836 1.6146,0.845 7.3414,1.8826 12.7262,2.3057 7.8589,0.6176 10.6703,1.2849 14.249,3.3822 7.8138,4.5792 11.5892,12.2508 11.5892,23.5493 0,8.9799 -2.1606,15.7033 -7.5991,23.647 -2.4907,3.638 -4.3145,6.8286 -4.0529,7.0902 0.2617,0.2616 7.3779,-1.1161 15.8138,-3.0615 18.3632,-4.2348 38.3026,-7.9179 57.3346,-10.5903 12.0344,-1.6899 14.1937,-1.768 15.4043,-0.5575 2.5798,2.5799 -0.822,5.9057 -8.0476,7.8679 -20.3651,5.5303 -55.2123,18.364 -54.7401,20.16 0.1446,0.55 3.6658,2.1539 7.8249,3.5643 9.9733,3.3819 13.3849,5.2586 18.0621,9.9357 5.3899,5.3899 7.2265,9.4127 7.7579,16.992 0.3403,4.8541 -0.049,7.9386 -1.5327,12.1372 -2.946,8.3379 -6.0838,12.2926 -14.3167,18.0436 -11.5008,8.0339 -21.3365,18.3878 -25.1393,26.4638 -2.9041,6.1673 -3.2398,7.8269 -3.3099,16.3634 -0.083,10.1495 -0.4891,11.4094 -6.2134,19.2938 -4.2806,5.8957 -10.8696,11.0366 -17.0669,13.3159 -2.5735,0.9465 -5.0888,2.0787 -5.5895,2.5161 -0.5076,0.4433 3.2543,5.1346 8.5,10.6 14.1794,14.7734 58.0398,64.4896 61.3479,69.5384 1.8478,2.8202 1.148,5.7358 -1.3767,5.7358 -0.9488,0 -9.5632,-6.3803 -19.143,-14.1784 -25.8724,-21.0608 -59.3666,-45.7061 -60.5323,-44.5403 -0.324,0.3239 3.096,7.2557 7.6,15.4038 4.504,8.1482 9.556,18.8649 11.2266,23.8149 2.8319,8.3907 3.0018,9.7081 2.5098,19.4594 l -0.5278,10.4595 11.9371,21.5406 c 62.9398,113.5756 89.7676,192.8918 117.8898,348.5406 2.2855,12.65 4.3408,23.1875 4.5673,23.4167 0.2265,0.2291 0.6207,0.2077 0.8761,-0.048 0.2554,-0.2554 0.9337,-23.6179 1.5072,-51.9167 1.009,-49.7826 1.9508,-88.8736 4.0102,-166.4523 6.7785,-255.3553 7.5935,-378.9334 3.1083,-471.3356 l -0.8414,-17.3354 -4.0223,-4.1646 c -10.6957,-11.0735 -13.2601,-22.9349 -16.7904,-77.6642 -0.8692,-13.475 -1.9562,-24.8858 -2.4155,-25.3573 -1.1371,-1.1674 -1.7417,0.1498 -9.8031,21.3573 -9.1495,24.0701 -16.1781,44.7108 -25.7092,75.5 -4.2565,13.75 -8.3456,25.6424 -9.0869,26.4276 -2.6589,2.8162 -2.7767,-2.0294 -0.4941,-20.3292 8.7525,-70.1693 10.7845,-84.2379 15.561,-107.7375 1.3664,-6.722 2.3365,-12.3696 2.1559,-12.5502 -0.1806,-0.1806 -3.4044,1.0664 -7.164,2.771 -12.9808,5.8858 -27.2147,4.9057 -41.9669,-2.8897 -6.5057,-3.4378 -7.2654,-4.2003 -11.0323,-11.0745 -5.7252,-10.4475 -14.5103,-18.9451 -24.7593,-23.949 -10.2285,-4.9939 -21.2061,-7.7105 -39.1466,-9.6875 -15.9389,-1.7564 -20.5062,-3.6909 -28.7422,-12.1738 -16.5424,-17.0382 -13.6352,-40.751 7.7513,-63.2246 4.6686,-4.9059 8.1069,-9.1556 7.6407,-9.4437 -3.7233,-2.3011 -68.0706,-4.0692 -92.7247,-2.5479 -27.3457,1.6875 -28.9653,1.6517 -29.294,-0.6462 -0.1618,-1.1303 0.5132,-2.774 1.5,-3.6527 1.9025,-1.6942 33.1591,-8.978 56.794,-13.2348 14.1957,-2.5568 45.0084,-6.8293 58.2539,-8.0775 3.9897,-0.3759 7.4563,-1.0109 7.7035,-1.411 0.2473,-0.4 -2.7766,-2.2667 -6.7198,-4.1481 -17.4394,-8.3208 -28.5984,-27.8438 -25.7872,-45.1159 1.5776,-9.6934 6.3366,-16.3953 15.9743,-22.4961 13.9357,-8.8215 15.8135,-13.8064 13.4886,-35.80868 -2.7118,-25.66466 -1.5898,-33.55964 5.866,-41.2774 5.9201,-6.12816 19.863,-7.9367 35.2024,-4.56612 4.1463,0.91107 7.8104,1.38477 8.1425,1.05267 1.3794,-1.37946 -17.1242,-21.47296 -48.7619,-52.95155 -13.1243,-13.05832 -23.8623,-24.10981 -23.8623,-24.55887 0,-0.44906 0.6491,-1.68998 1.4425,-2.7576 1.4113,-1.89921 1.5571,-1.8782 6.75,0.9729 23.8139,13.07484 64.9336,41.92235 96.1448,67.45034 8.1605,6.6746 14.9555,12.13563 15.1,12.13563 0.1445,0 0.2177,-7.0875 0.1627,-15.75 -0.078,-12.33843 0.2754,-16.9621 1.6331,-21.34583 3.5095,-11.33131 18.497,-30.27659 27.1417,-34.30901 2.1311,-0.9941 6.4161,-2.03788 9.522,-2.31952 9.3291,-0.84594 15.5501,1.04616 25.6145,7.7906 12.214,8.18492 19.7031,10.48302 33.4887,10.27634 16.3012,-0.24441 25.215,-3.0096 44.2544,-13.72836 8.0342,-4.52309 18.1292,-6.30183 25.3896,-4.47365 5.3297,1.34206 11.8711,6.97241 20.3592,17.52371 10.405,12.93413 12.8789,19.54058 13.7035,36.59396 0.4891,10.1165 0.7708,11.59032 2.0176,10.55558 0.797,-0.66146 5.1583,-6.17767 9.6916,-12.25824 16.7335,-22.44437 44.4254,-54.26981 63.3496,-72.80558 15.931,-15.60404 17.7468,-12.54252 4.896,8.25506 -11.7643,19.03913 -18.2335,30.22306 -27.6438,47.79086 -10.441,19.4917 -22.2704,43.958 -21.8453,45.18164 0.1802,0.51852 2.5776,-0.46106 5.3276,-2.17685 10.9645,-6.84101 29.4927,-11.55751 41.1324,-10.47057 7.8086,0.72918 12.0152,2.47132 16.2906,6.74678 6.1192,6.11918 6.4975,7.96083 7.0707,34.42308 0.4787,22.09768 0.6905,24.31708 2.6715,27.99998 2.7137,5.045 6.0908,8.1672 14.5289,13.432 3.6818,2.2972 8.1342,5.8169 9.8943,7.8216 6.9802,7.9499 9.3825,18.9563 6.5503,30.0112 -4.2391,16.547 -13.8878,26.8405 -31.7155,33.835 -3.841,1.5069 -6.6325,3.0673 -6.2034,3.4675 0.4291,0.4002 7.0802,1.2496 14.7802,1.8874 20.2607,1.6784 44.3875,4.681 65,8.0894 21.8278,3.6094 62.1892,12.4531 64.1102,14.0474 0.7644,0.6344 1.3898,1.9432 1.3898,2.9085 0,3.6188 -2.0799,4.0313 -14.0847,2.7933 -23.0637,-2.3785 -105.4153,-1.0745 -109.9714,1.7413 -0.5464,0.3378 1.8301,3.6698 5.2813,7.4046 12.2647,13.2728 17.3387,24.9073 16.5616,37.9758 -0.5733,9.6435 -4.1472,17.2442 -11.2801,23.9902 -7.6297,7.2159 -11.4474,8.7808 -25.7091,10.5388 -16.0258,1.9753 -30.1684,5.5856 -38.0514,9.7137 -9.1739,4.804 -18.3456,14.5361 -23.1842,24.6009 -3.8134,7.932 -4.1457,8.2989 -10.5,11.5932 -10.228,5.3025 -16.547,7.0213 -25.562,6.9532 -5.6406,-0.043 -9.6221,-0.6863 -13.5,-2.1823 -3.025,-1.1669 -5.8375,-2.1219 -6.25,-2.1222 -1.3652,-9e-4 -0.7894,2.7787 3.1489,15.2011 6.1575,19.4227 11.599,41.1382 17.6156,70.2984 3.064,14.85 7.0974,34.1717 8.9632,42.9372 2.5345,11.9072 3.1312,16.425 2.3597,17.8666 -1.716,3.2063 -3.1946,0.6161 -11.8779,-20.8073 -15.0787,-37.2022 -25.8028,-61.1408 -38.973,-86.9965 -10.626,-20.861 -14.9201,-28.5 -16.0207,-28.5 -1.1684,0 -1.7099,4.9656 -3.4856,31.9667 -2.5065,38.1122 -5.5842,53.4792 -14.1263,70.5333 l -4.5079,9 0.5741,71.5 c 0.3157,39.325 0.8186,109.075 1.1175,155 1.4782,227.1018 5.2571,495.1282 7.0055,496.8766 1.0023,1.0023 1.5369,-1.2577 4.9511,-20.9332 29.7388,-171.3811 57.6552,-253.9965 127.9385,-378.6203 l 5.7394,-10.1769 -1.1996,-5.7785 c -2.6016,-12.5316 1.2192,-24.8175 15.734,-50.593 3.0121,-5.349 5.3117,-10.22 5.1102,-10.8246 -0.8005,-2.4015 -35.6867,23.5912 -74.99,55.8731 -3.3788,2.7752 -6.2045,2.5139 -6.6504,-0.615 -0.2409,-1.69 2.2049,-5.1432 9.5542,-13.4898 5.4329,-6.1701 16.1197,-18.4184 23.7484,-27.2184 7.6287,-8.8 19.4678,-21.6979 26.3092,-28.6619 11.2882,-11.4908 13.5075,-14.8183 9.9028,-14.8479 -2.5708,-0.021 -11.6803,-4.9858 -15.5305,-8.4642 -2.2333,-2.0177 -5.7705,-6.2239 -7.8605,-9.3472 -3.7025,-5.5332 -3.8128,-5.9609 -4.2999,-16.6788 -0.4332,-9.53 -0.8907,-11.8018 -3.4234,-17 -3.5678,-7.3225 -13.8507,-17.8473 -25.1623,-25.7542 -6.8337,-4.7768 -8.6053,-6.6269 -11.4422,-11.9488 -2.8068,-5.2658 -3.4254,-7.6104 -3.7776,-14.3168 -0.3544,-6.7483 -0.072,-8.7625 1.7808,-12.7044 4.1128,-8.7496 13.2361,-15.165 27.4364,-19.2931 3.0877,-0.8977 5.3754,-2.0182 5.0837,-2.49 -1.0076,-1.6304 -30.9079,-12.4886 -52.1287,-18.9305 -10.8175,-3.2837 -13.4843,-5.0862 -11.6821,-7.896 0.8109,-1.2641 2.2447,-1.5896 5.9421,-1.349 13.1542,0.8562 54.7269,8.2656 73.7376,13.1422 4.3254,1.1095 8.2628,1.771 8.7498,1.4701 0.487,-0.301 -0.4313,-2.2083 -2.0408,-4.2384 -12.5329,-15.8089 -12.9922,-36.8042 -1.0413,-47.601 4.2906,-3.8764 9.2123,-5.5763 16.1687,-5.5845 14.5194,-0.017 19.9182,-4.0596 29.1377,-21.8171 3.2111,-6.1848 7.0151,-12.6436 8.4533,-14.3528 8.0542,-9.5719 21.8778,-7.204 36.5775,6.2656 7.6431,7.0035 7.5336,7.1933 4.7102,-8.1584 -2.3234,-12.6326 -2.5121,-13.4658 -9.6797,-42.7407 -4.4513,-18.1805 -5.4392,-23.5618 -4.498,-24.5 1.7314,-1.7256 3.6263,1.0932 12.9735,19.2978 11.4062,22.2151 20.4614,43.1316 29.6376,68.4598 1.7853,4.9279 3.6756,9.103 4.2007,9.278 0.525,0.1751 2.5834,-2.9773 4.5741,-7.0052 6.4345,-13.0193 14.8823,-19.9362 30.0677,-24.6187 9.1107,-2.8094 15.984,-2.7512 21.4672,0.1815 7.7294,4.1343 10.6447,7.2338 15.2176,16.1792 8.9985,17.6025 23.9149,26.0155 48.6062,27.4145 10.7437,0.6088 12.8178,1.0316 17.9612,3.6621 7.9011,4.0408 10.974,8.6175 12.9964,19.3565 2.3344,12.3958 1.5987,24.0053 -1.9902,31.4062 -1.5507,3.1976 -2.5461,6.0871 -2.212,6.4211 0.334,0.334 4.7677,-0.8531 9.8528,-2.6381 23.3588,-8.1996 54.4618,-16.8846 74.1381,-20.702 8.5256,-1.654 8.9471,-1.6508 10.2113,0.078 2.1597,2.9535 -0.09,5.407 -8.4407,9.2066 -27.8213,12.6585 -71.7898,36.4975 -70.6668,38.3145 0.2634,0.4264 2.5136,1.0803 5.0002,1.4532 7.0038,1.0502 17.8712,5.0602 23.2413,8.5758 8.1998,5.3681 12.0618,13.1587 10.7754,21.7368 -0.4955,3.304 -2.8526,7.659 -9.1679,16.9387 -12.1947,17.9185 -13.1239,21.6269 -7.7582,30.961 5.2582,9.1472 6.0176,19.4027 2.0103,27.1519 -2.1834,4.2222 -9.12,10.0724 -15.4775,13.0534 -5.188,2.4326 -6.5343,2.6202 -17.5138,2.4414 -6.5415,-0.1066 -11.4915,0.1687 -11,0.6118 0.4916,0.4432 6.9688,5.2131 14.3938,10.5999 17.8779,12.9703 34.5873,26.4607 49.9402,40.3196 15.6937,14.1665 20.0598,18.6621 20.0598,20.6551 0,3.7345 -3.4839,2.4459 -16.1324,-5.9672 -23.0959,-15.3621 -69.7743,-40.9521 -71.5186,-39.2078 -0.3691,0.3691 -0.036,3.2611 0.7399,6.4267 2.1696,8.8496 1.7181,21.6877 -0.9761,27.7556 -4.1576,9.3638 -10.1754,13.6686 -21.7764,15.5774 -7.5248,1.2382 -7.7236,1.1898 -26.3364,-6.4187 -9.3274,-3.8128 -21.4452,-6.6587 -28.3525,-6.6587 -5.9011,0 -16.0207,3.2133 -21.9323,6.9641 -3.6272,2.3015 -5.9529,3.0359 -9.6135,3.0359 -11.1751,0 -20.4489,-3.1815 -27.9236,-9.5795 l -4.1708,-3.57 -1.0037,2.6398 c -0.552,1.452 -1.0036,3.4172 -1.0036,4.3672 0,5.3281 -15.7431,78.8591 -17.3284,80.935 -2.7823,3.6434 -3.1725,-1.4305 -3.2373,-42.0929 -0.068,-42.8653 -0.6839,-53.6996 -3.0507,-53.6996 -1.6096,0 -11.0247,11.2782 -19.7353,23.6407 -3.5482,5.0357 -8.7861,10.9098 -12.1857,13.6657 -5.8407,4.7348 -18.0186,11.2098 -25.9626,13.8044 -2.2,0.7185 -4.5338,1.6938 -5.1862,2.1673 -1.9071,1.3842 -28.3193,46.6658 -38.1715,65.442 -23.6492,45.0704 -41.1601,88.2524 -56.2427,138.6944 -9.6384,32.2342 -24.227,94.5915 -22.5276,96.291 0.8784,0.8783 1.4069,0.097 16.6482,-24.6075 55.5903,-90.106 82.6338,-126.4277 111.2713,-149.4469 16.6391,-13.3747 41.758,-27.0536 59.2085,-32.2429 13.0664,-3.8856 31.5613,-4.5491 40.8297,-1.4647 11.0183,3.6666 17.5188,9.1517 22.6396,19.1032 9.8455,19.1334 5.1958,51.4257 -14.68,101.9534 -11.7795,29.9453 -38.4708,78 -43.3241,78 -1.939,0 -2.416,-1.3158 -1.9937,-5.5 0.111,-1.1 5.0908,-16.625 11.0662,-34.5 18.2141,-54.4868 24.2738,-79.7451 24.3915,-101.6709 0.081,-15.0114 -0.7516,-17.1765 -7.9938,-20.7959 -5.8697,-2.9335 -19.15,-2.5306 -30.9354,0.9386 -28.6107,8.4217 -54.1377,25.6931 -75.4195,51.0282 -22.9694,27.3442 -72.1303,103.4264 -107.2872,166.0396 -15.9981,28.4921 -15.2787,26.5956 -20.7637,54.7346 -2.7044,13.8742 -5.2163,27.3488 -5.5821,29.9436 -0.3657,2.5948 -1.2441,5.1984 -1.9519,5.7859 -1.712,1.4208 -20.6243,4.0852 -32.4956,4.5781 -12.3733,0.5137 -45.9968,1.0881 -46.294,0.7909 z m -354.5306,-480.8182 c 25.4165,-11.7431 42.8737,-12.5877 59.3246,-2.8701 5.7276,3.3833 6.3053,3.5161 12.7249,2.9252 19.2738,-1.774 30.41,-12.5704 34.1516,-33.1097 3.9213,-21.5255 4.5615,-50.6678 1.5849,-72.1428 -1.9202,-13.8538 -2.4826,-13.7244 13.5778,-3.1238 23.4814,15.4989 52.6373,28.7789 71.2637,32.4594 16.2479,3.2104 28.9131,-1.8741 38.2925,-15.373 2.6073,-3.7524 2.9046,-4.9874 2.9046,-12.0685 0,-18.7315 8.577,-32.3497 30.5706,-48.5386 7.5167,-5.5329 9.4868,-7.5661 11.5,-11.8683 2.7919,-5.9663 3.0171,-12.8402 0.5754,-17.562 -4.5376,-8.7748 -18.1483,-16.2658 -33.646,-18.5179 -20.0439,-2.9129 -57.2958,10.2168 -96.8814,34.1465 -7.3597,4.4489 -13.7722,8.089 -14.25,8.089 -0.4777,0 -0.8686,-0.8622 -0.8686,-1.916 0,-2.5247 3.7349,-5.3297 27.1625,-20.399 42.9871,-27.6507 57.7578,-39.5992 68.1435,-55.1237 6.2454,-9.3356 5.7871,-22.1318 -1.0643,-29.7154 -4.9426,-5.4709 -6.0041,-5.8857 -18.8977,-7.3847 -16.7061,-1.9422 -18.4098,-3.3006 -28.7963,-22.9612 -6.64,-12.5689 -10.4759,-17.1386 -15.5126,-18.4804 -11.3102,-3.0129 -30.9233,11.5488 -37.7951,28.0609 -3.3668,8.09 -12.6555,44.3944 -11.8774,46.4221 0.295,0.7689 3.0773,1.4198 7.1871,1.6815 6.2118,0.3955 6.9541,0.698 10.078,4.1068 2.8681,3.1296 3.3723,4.4107 3.3723,8.5687 0,10.0035 -4.4368,17.9261 -14.5995,26.07 -4.7044,3.7699 -7.1107,6.5586 -8.5496,9.9085 -2.6629,6.1992 -6.3877,22.0914 -8.3585,35.6619 -0.8786,6.05 -2.2697,12.0285 -3.0913,13.2855 -0.8215,1.257 -3.4459,3.2339 -5.8319,4.3931 l -4.3381,2.1076 -12.3655,-4.5402 c -14.4796,-5.3165 -31.2887,-9.6697 -38.3656,-9.9359 -3.5797,-0.1347 -6.9885,0.6407 -12,2.7295 -5.7859,2.4116 -8.3876,2.9129 -15,2.8901 -8.396,-0.029 -12.2915,-1.3318 -15.8982,-5.3172 -2.7344,-3.0215 -3.2761,-11.0585 -1.1249,-16.6913 0.9542,-2.4985 1.529,-4.7486 1.2773,-5.0003 -0.616,-0.616 -28.0253,-8.0053 -39.2542,-10.5825 -19.7614,-4.5357 -39.2662,-1.0067 -50.902,9.2097 -6.7024,5.8848 -5.7981,10.323 5.267,25.848 9.8549,13.8272 10.5793,15.44 10.5999,23.6039 0.016,6.1461 -0.4387,7.8846 -3.7236,14.2512 -4.7198,9.1476 -4.9377,13.9741 -0.9169,20.303 5.4461,8.5723 15.1939,13.2638 27.3604,13.1683 16.8863,-0.1327 34.6732,-6.6576 80.1965,-29.4192 20.5525,-10.2763 32.2253,-15.5967 32.8493,-14.9727 2.1143,2.1143 -0.5672,4.8461 -8.9609,9.1288 -24.8063,12.6569 -50.7675,30.5227 -65.401,45.0073 -15.4732,15.3157 -20.9638,25.8375 -21.1516,40.5333 -0.2173,16.998 8.7767,26.1733 25.892,26.4141 4.9673,0.07 7.503,-0.5581 13.5663,-3.3595 z m 785.2108,1.0297 c 10.5101,-3.1631 16.6138,-11.8225 16.6138,-23.5705 0,-7.9889 -2.1407,-16.6644 -5.7471,-23.2905 -10.1355,-18.6222 -39.889,-42.2404 -79.8731,-63.4028 -8.7883,-4.6513 -10.3798,-5.8637 -10.3798,-7.9071 0,-1.3274 0.4749,-2.4134 1.0554,-2.4134 0.5804,0 13.9679,6.5062 29.75,14.4583 49.8534,25.1195 67.3717,31.3323 85.5356,30.335 11.961,-0.6567 21.7963,-6.4848 25.794,-15.2847 2.6024,-5.7285 2.329,-8.324 -1.7909,-16.9992 -3.7902,-7.9812 -5.0698,-14.8274 -3.9184,-20.9648 0.3835,-2.0445 4.7049,-9.5651 10.1218,-17.6151 10.1406,-15.0701 11.3554,-18.7677 7.8227,-23.8113 -2.5119,-3.5863 -10.0982,-7.9447 -18.3702,-10.5538 -11.2051,-3.5342 -17.1699,-3.9852 -28.0416,-2.1201 -10.5018,1.8016 -43.92,10.432 -45.4066,11.7265 -0.5872,0.5112 -0.2997,2.6349 0.755,5.5774 2.0555,5.7349 2.1407,9.2451 0.3296,13.5795 -1.7766,4.2522 -5.351,6.5019 -12.4096,7.8106 -6.6059,1.2247 -12.5489,0.2161 -22.4634,-3.8125 -5.9359,-2.412 -6.5602,-2.472 -13.7409,-1.3204 -8.0927,1.2978 -24.3294,5.9055 -38.0158,10.7882 -7.9782,2.8463 -8.7058,2.9419 -12,1.5761 -6.8712,-2.8487 -7.8779,-4.7452 -10.0438,-18.9219 -2.3059,-15.0926 -5.352,-28.0162 -8.1632,-34.6332 -1.4651,-3.4489 -3.9198,-6.269 -9.3005,-10.6852 -5.7841,-4.7472 -7.9461,-7.3179 -10.3569,-12.3145 -1.6757,-3.4732 -3.3114,-8.3399 -3.6347,-10.8149 -1.166,-8.9252 4.9809,-15.2215 15.1569,-15.5253 2.9447,-0.088 5.5961,-0.402 5.8921,-0.698 0.807,-0.807 -9.1472,-39.9375 -11.7036,-46.0073 -5.7155,-13.5708 -18.7054,-25.9408 -30.3091,-28.8626 -3.8709,-0.9747 -5.3081,-0.8867 -9.0882,0.557 -5.4172,2.0688 -7.3991,4.583 -15.3844,19.5167 -9.5058,17.7772 -12.0661,19.7634 -27.1679,21.0752 -11.1432,0.9679 -16.4427,3.1145 -20.2074,8.1851 -3.2932,4.4356 -4.7105,9.0858 -4.62,15.1584 0.1,6.687 1.4914,10.2629 6.8622,17.6332 8.9874,12.3331 26.4133,26.3079 58.8921,47.2286 34.1259,21.9816 35.9328,23.3759 33.4767,25.832 -0.6114,0.6114 -5.8203,-1.9803 -14.3828,-7.1563 -15.501,-9.3702 -41.5857,-22.334 -53.9568,-26.816 -20.3749,-7.3817 -35.6072,-9.514 -48.1032,-6.7339 -19.9655,4.4419 -32.0053,15.3306 -30.5489,27.6279 0.9776,8.2541 3.7584,12.1986 13.927,19.7549 22.261,16.5424 30.7577,30.2967 30.7577,49.7905 0,6.2939 0.3407,7.6019 2.8758,11.0399 9.3062,12.6204 21.1507,17.7102 35.7828,15.3764 18.659,-2.976 48.8249,-16.574 74.6742,-33.6611 7.0581,-4.6656 13.054,-8.2617 13.3243,-7.9914 0.2703,0.2703 -0.2169,6.2886 -1.0828,13.3741 -2.8129,23.0177 -1.6024,57.9202 2.6111,75.2892 2.779,11.4559 10.15,21.0619 19.2502,25.0874 2.3579,1.043 7.7208,2.407 11.9177,3.0312 l 7.6308,1.135 9.5285,-4.8251 c 8.9807,-4.5477 10.0641,-4.8485 18.8457,-5.2326 11.4113,-0.499 20.4061,1.5627 35.6417,8.1697 11.6009,5.0308 17.087,5.7292 25.3862,3.2315 z m -691.6362,-143.5733 c 1.7875,-1.0899 3.25,-2.2162 3.25,-2.5029 0,-2.9151 3.5807,-23.0879 5.4324,-30.6045 3.6024,-14.6236 6.8272,-21.8917 11.2712,-25.4036 15.4315,-12.1945 19.9135,-22.7734 11.8791,-28.0377 -6.5409,-4.2858 -18.9322,-2.1128 -25.5203,4.4753 -6.403,6.403 -6.5488,12.7977 -0.4542,19.9178 3.9923,4.6641 4.117,3.375 -1.9965,20.6446 -1.947,5.5 -4.12,13.825 -4.8289,18.5 -0.9403,6.201 -1.6841,8.5 -2.7503,8.5 -1.3051,0 -17.0104,-25.1312 -23.584,-37.7388 l -2.4709,-4.7388 4.4171,-8.2612 c 6.7357,-12.5977 7.112,-17.4135 1.5841,-20.2722 -6.9585,-3.5983 -20.1307,0.03 -33.4788,9.2224 -10.7695,7.4164 -14.2908,12.0017 -13.041,16.9814 1.0396,4.1422 11.0258,7.3072 23.0555,7.3072 l 6.416,0 4.3572,6.75 c 2.3965,3.7125 6.5746,10.2622 9.2847,14.5549 2.7102,4.2926 7.0651,11.1158 9.6776,15.1625 2.6125,4.0468 4.75,8.1245 4.75,9.0618 0,2.0432 -1.0501,1.8517 -13,-2.3708 -4.675,-1.6519 -13,-3.7236 -18.5,-4.6037 -14.81,-2.3699 -14.2145,-2.1209 -16.2901,-6.8129 -2.4894,-5.6277 -8.0152,-10.3641 -13.0922,-11.2219 -6.3995,-1.0812 -14.4226,1.7323 -19.5439,6.8536 -7.1953,7.1954 -6.7987,13.3125 1.0894,16.8017 6.3781,2.8214 16.3449,2.1721 25.3368,-1.6504 5.6744,-2.4123 7.3255,-2.6855 13,-2.1509 7.8562,0.7402 25.221,5.3763 37.5,10.012 10.7587,4.0617 12.043,4.1901 16.25,1.6251 z m 596.6357,-4.5168 c 26.9282,-9.1687 36.2562,-10.3787 45.9162,-5.9562 14.0269,6.4217 30.6981,3.2204 30.6981,-5.8947 0,-4.4013 -4.127,-10.0466 -9.7623,-13.3538 -3.8783,-2.2762 -5.9302,-2.7813 -11.3121,-2.785 -5.7124,0 -7.072,0.3746 -10.3689,2.887 -2.0869,1.5904 -4.6727,4.877 -5.7461,7.3036 -2.2642,5.1186 -3.5257,5.7612 -14.3106,7.2893 -9.3622,1.3264 -16.3796,3.1438 -25.8315,6.6898 -4.6783,1.7551 -7.1554,2.2389 -7.8594,1.5349 -0.704,-0.704 3.3149,-7.9116 12.7514,-22.8685 7.5786,-12.0123 14.1856,-22.1124 14.6821,-22.4445 0.4965,-0.3322 5.169,-0.8842 10.3832,-1.2267 14.9563,-0.9825 21.7256,-4.9625 19.3107,-11.3539 -3.4721,-9.1897 -26.8971,-23.276 -38.7523,-23.3033 -5.2167,-0.012 -8.9621,1.2058 -10.4189,3.3875 -2.2416,3.3571 0.8332,14.0146 6.2298,21.5935 1.1027,1.5485 2.0049,3.7113 2.0049,4.8062 0,2.7748 -24.0049,43.364 -25.3802,42.9146 -0.6159,-0.2012 -1.4287,-1.9067 -1.8062,-3.7899 -2.9784,-14.8572 -4.4757,-20.5566 -7.4281,-28.2744 -1.862,-4.8677 -3.3855,-9.846 -3.3855,-11.0629 0,-1.217 1.3023,-3.4603 2.8939,-4.9852 3.5375,-3.3891 5.6398,-10.0824 4.2769,-13.6172 -1.5533,-4.0291 -8.0447,-9.7534 -12.9592,-11.4279 -9.0494,-3.0835 -18.6217,-0.8789 -20.6359,4.7526 -2.1443,5.9952 1.5272,11.6711 15.9992,24.7338 5.7467,5.187 10.6437,19.5924 13.9232,40.9571 2.3133,15.0708 2.2464,14.8735 5.7787,17.0273 1.7727,1.0809 3.6092,1.9669 4.0809,1.969 0.4718,0 8.1344,-2.4739 17.028,-5.5021 z m -630.4732,-27.0928 c -4.4967,-7.0957 -8.6791,-13.232 -9.2942,-13.6361 -0.6151,-0.4041 -4.7183,-0.7612 -9.1183,-0.7937 -19.449,-0.1437 -26.7778,-8.7061 -19.5605,-22.853 3.9083,-7.661 18.7607,-18.1281 32.5053,-22.908 19.8236,-6.894 28.562,5.3219 18.6554,26.0794 -1.7051,3.5728 -3.1002,7.202 -3.1002,8.065 0,2.2799 17.2895,31.6262 18.6387,31.6364 0.6263,0.01 1.4544,-1.6742 1.8402,-3.7309 0.3859,-2.0568 2.2543,-8.3311 4.152,-13.9431 l 3.4505,-10.2034 -3.2011,-5.672 c -5.417,-9.5985 -4.3531,-18.4889 3.2583,-27.2268 2.4921,-2.8609 2.8603,-4.0869 2.8532,-9.5 -0.032,-24.029 -7.4622,-49.0155 -18.2056,-61.2207 -7.1416,-8.1133 -27.0362,-15.598 -36.0337,-13.5565 -2.0611,0.4676 -5.9641,2.2727 -8.6734,4.0112 -4.0864,2.6223 -5.6371,4.5525 -9.099,11.3262 -5.0234,9.8291 -7.4994,12.9078 -14.86,18.4769 -9.972,7.5449 -25.8297,12.2466 -41.3117,12.2485 -7.9367,10e-4 -17.8727,4.2891 -20.1522,8.6971 -3.8082,7.3642 -4.7168,23.4895 -1.7617,31.2665 5.6123,14.7704 23.8455,32.0825 48.4105,45.9648 5.4396,3.0741 6.0811,3.211 10.1928,2.1757 11.9849,-3.0179 20.3195,0.058 25.6236,9.4563 1.9147,3.3927 3.8881,5.6112 5.2273,5.8766 1.1832,0.2345 5.5263,0.9232 9.6513,1.5303 4.125,0.6072 9.75,1.6857 12.5,2.3966 3.7892,0.9797 5.0712,1.0076 5.2941,0.1154 0.1618,-0.6475 -3.3849,-6.9829 -7.8816,-14.0787 z m 643.2754,12.1835 c 3.4716,-0.7783 9.6236,-1.9522 13.671,-2.6087 6.6303,-1.0755 7.5214,-1.4945 9,-4.2326 2.4646,-4.564 7.0899,-9.6657 10.2398,-11.2947 3.3625,-1.7387 13.0125,-1.8997 17.4606,-0.2913 2.9095,1.0521 3.8064,0.8249 9.8423,-2.4928 29.3982,-16.1593 48.6407,-36.8949 50.2646,-54.1648 0.7591,-8.0737 -2.0421,-21.2391 -5.2263,-24.5628 -4.3694,-4.5606 -10.7657,-6.6817 -22.4399,-7.4412 -26.3176,-1.7123 -42.3291,-10.7757 -52.0783,-29.4789 -6.9595,-13.3515 -15.3892,-18.3999 -26.8834,-16.1 -17.2692,3.4554 -28.1156,11.33 -35.0533,25.4491 -6.3483,12.9196 -9.985,30.2269 -9.985,47.5191 0,8.3948 0.1179,8.8536 2.9822,11.5977 7.5601,7.243 7.9422,19.2409 0.9638,30.2629 -1.2768,2.0166 -1.0895,3.2413 1.8351,12 1.7914,5.3647 3.7158,11.6666 4.2765,14.0041 0.5607,2.3375 1.4202,4.25 1.91,4.25 0.7581,0 8.414,-12.3782 17.0955,-27.6403 l 2.3552,-4.1404 -3.7746,-8.0435 c -8.1454,-17.3575 -4.7452,-28.1758 8.8557,-28.1758 8.2463,0 23.9434,7.2939 34.3688,15.9701 6.8704,5.7175 10.1318,11.779 10.1318,18.8305 0,8.664 -5.6294,12.0954 -21.4583,13.08 l -9.9582,0.6194 -8.722,13.5 c -4.7972,7.425 -8.7535,13.8375 -8.7918,14.25 -0.1009,1.0851 1.9929,0.9323 9.1182,-0.6651 z m -403.259,-250.3161 c 10.3992,-3.4506 19.0986,-11.1566 32.0591,-28.3984 15.7369,-20.9353 28.3201,-43.4033 39.1136,-69.8395 2.9261,-7.167 5.8395,-13.0309 6.4743,-13.0309 0.6347,0 2.6304,3.3861 4.4348,7.5246 8.4147,19.2994 28.0829,51.3787 42.3321,69.0445 16.6722,20.6699 27.3042,29.6972 39.3626,33.4216 11.6441,3.5965 21.7281,2.3691 34.8103,-4.2371 6.5959,-3.3308 7.1944,-3.92 10,-9.8462 10.9951,-23.2243 27.6562,-32.6323 66.0302,-37.2852 8.7756,-1.0641 11.9169,-1.8893 15.284,-4.0148 15.2483,-9.6259 19.5642,-22.7614 12.4451,-37.877 -16.7554,-35.5759 -56.6145,-50.0201 -137.275,-49.7459 -16.225,0.055 -30.625,0.1937 -32,0.3079 -2.0259,0.1682 -2.5583,-0.2954 -2.807,-2.4449 -0.3997,-3.4526 -0.9142,-3.3787 40.807,-5.8587 62.6052,-3.7214 88.2129,-8.0003 108.1698,-18.0745 13.35,-6.7391 22.0832,-19.0572 22.0769,-31.1393 -0.01,-10.8289 -4.0314,-17.1159 -15.7017,-24.5213 -11.6945,-7.4209 -16.1735,-12.6861 -18.0797,-21.2537 -0.4283,-1.925 -0.8207,-13.175 -0.872,-24.99998 -0.1018,-23.44905 -0.4196,-24.97382 -6.3525,-30.47951 -4.9334,-4.57824 -10.0566,-5.83968 -21.4796,-5.28882 -20.2102,0.97461 -34.0338,7.9806 -51.3508,26.02527 -13.4849,14.05165 -30.4104,33.28294 -30.4104,34.55344 0,0.5719 1.8722,2.086 4.1606,3.3647 6.5311,3.6495 10.0883,8.7822 10.6323,15.341 0.6305,7.604 -1.668,13.158 -7.8314,18.9231 -6.1709,5.7722 -11.733,8.1876 -23.3506,10.1405 -12.2457,2.0584 -11.4243,1.7021 -18.9736,8.2298 -8.4636,7.3184 -17.4188,17.4535 -28.8847,32.6905 -4.9665,6.6 -9.9801,12.5466 -11.1413,13.2146 -2.5806,1.4845 -11.0486,1.6569 -13.6263,0.2774 -1.0359,-0.5544 -6.5789,-6.5169 -12.3178,-13.25 -11.3434,-13.3086 -29.7603,-31.6091 -36.2204,-35.9916 -2.9876,-2.0267 -6.1024,-3.0094 -11.8482,-3.7379 -13.9631,-1.7703 -19.8464,-4.0333 -27.3831,-10.5326 -7.9068,-6.8184 -10.2079,-15.5087 -6.3499,-23.9799 1.7741,-3.8954 9.1388,-11.5 11.1372,-11.5 0.5485,0 0.9972,-0.8232 0.9972,-1.8293 0,-2.009 -32.2325,-34.28062 -43.3198,-43.37247 -12.7723,-10.4735 -27.7619,-15.8924 -44.6802,-16.15228 -8.1185,-0.12471 -10.1898,0.19377 -14.2431,2.1899 -2.6086,1.2847 -5.7586,3.7597 -7,5.5 -2.768,3.88069 -2.9427,10.86914 -0.8325,33.31805 1.3221,14.0651 1.2965,15.6264 -0.3553,21.7289 -2.0823,7.6925 -7.1145,14.0719 -15.1605,19.2188 -6.5898,4.2155 -11.3316,8.9698 -13.0515,13.0861 -4.7645,11.4031 3.2156,30.1871 16.6304,39.1451 10.0063,6.682 28.4613,12.4864 49.5125,15.5725 14.6057,2.1413 31.7846,3.3923 70,5.0978 18.7,0.8345 35.0417,1.7536 36.3149,2.0425 1.7043,0.3866 2.2318,1.1092 2,2.7398 l -0.3149,2.2146 -33,0.6322 c -18.15,0.3477 -37.275,1.1416 -42.5,1.7642 -40.118,4.7805 -64.0757,13.2228 -78.5231,27.6701 -15.4477,15.4477 -20.3993,30.8961 -14.0577,43.858 4.6481,9.5003 17.8595,19.5695 25.6903,19.5801 6.195,0.01 29.2864,3.8346 36.3905,6.0297 16.847,5.2058 28.6874,14.45 37.1391,28.9958 4.2157,7.2555 5.3191,8.4248 10.3423,10.9605 13.2504,6.6888 25.4314,8.0993 36.9475,4.2782 z m 84.5711,-154.8633 c 15.5486,-21.1713 31.6358,-39.3986 40.5442,-45.938 4.0529,-2.975 6.3231,-3.7813 14.1418,-5.0226 12.5008,-1.9845 18.5011,-4.5433 24.184,-10.313 6.3218,-6.4182 6.9273,-10.0757 2.6437,-15.969 -4.7031,-6.4704 -12.1657,-9.6667 -22.5137,-9.6428 -6.7318,0.016 -8.8184,0.4471 -13.1623,2.7216 -7.6735,4.018 -9.8342,7.6284 -9.723,16.2467 0.05,3.8564 0.4232,8.4085 0.83,10.1157 0.6967,2.9249 0.3183,3.4736 -6.5515,9.5 -13.8068,12.112 -18.9879,17.2961 -24.5715,24.5859 -3.0794,4.0205 -6.1422,7.31 -6.806,7.31 -1.5192,0 -2.506,-17.7771 -2.5117,-45.2441 l 0,-19.7441 8.25,-5.3467 c 18.866,-12.2266 22.0962,-19.6043 11.9663,-27.33062 -5.0903,-3.88254 -8.6703,-4.9797 -21.0965,-6.46557 -9.5817,-1.14572 -24.0132,-0.19201 -32.2374,2.13044 -4.5369,1.28117 -9.5928,4.68299 -12.2086,8.21445 -1.9719,2.6621 -1.9752,2.7913 -0.1742,6.7852 2.3458,5.2021 7.0696,9.4364 17.9327,16.0747 4.7769,2.9191 8.8834,5.6281 9.1257,6.0201 1.0868,1.7585 3.7581,64.9901 2.7866,65.9616 -0.6936,0.6936 -3.5078,-1.8652 -8.7905,-7.9926 -4.2736,-4.9571 -13.3185,-13.5521 -20.0996,-19.1 -6.7811,-5.5479 -12.4913,-10.5733 -12.6894,-11.1676 -0.1981,-0.5942 0.085,-3.2534 0.629,-5.9092 1.1268,-5.5004 -0.8615,-13.6679 -4.4323,-18.2075 -2.9771,-3.7847 -11.9271,-7.7743 -18.8483,-8.4019 -10.3191,-0.9357 -21.095,3.95 -24.4895,11.1033 -2.3377,4.9264 -0.6805,9.4849 5.4529,14.9993 6.1211,5.5034 13.3138,8.3211 25.5718,10.0176 6.7648,0.9363 10.2931,1.9681 13.0601,3.8193 8.9865,6.0121 23.9379,20.9684 40.5211,40.5341 6.453,7.6136 8.27,9.1732 11,9.4419 5.5457,0.5457 10.1267,-0.868 12.2701,-3.7866 z m 10.6371,-35.9811 c 2.9496,-3.3416 9.0393,-9.3133 13.5327,-13.2705 l 8.1698,-7.1948 -0.1173,-7.7295 c -0.2552,-16.8156 7.1769,-26.1678 23.6002,-29.6975 2.469,-0.5306 3.6193,-2.2619 9.1821,-13.8194 13.4373,-27.91772 19.5249,-54.11286 16.5688,-71.29579 -2.0375,-11.84383 -7.602,-21.61366 -19.519,-34.27062 -7.3734,-7.83123 -11.1811,-9.48274 -20.6055,-8.93717 -7.9891,0.46248 -8.0999,0.50432 -23.9489,9.04842 -13.9128,7.50022 -21.0259,9.24773 -37.5,9.21275 -16.1955,-0.0344 -20.8253,-1.35638 -32.3265,-9.23041 -10.1455,-6.94584 -13.5527,-8.19277 -22.4557,-8.2179 -4.5608,-0.0129 -9.2088,0.57415 -11.2288,1.41817 -7.5694,3.16272 -20.5649,18.27715 -24.7923,28.83474 -3.1112,7.77022 -2.8335,24.74904 0.6204,37.92608 4.4823,17.10054 15.1865,41.04752 24.4797,54.76523 3.0248,4.465 4.3908,5.6071 7.4572,6.2353 14.1294,2.8942 21.7298,12.7351 21.7598,28.1742 l 0.014,7.1243 10.6214,8.5 c 5.8417,4.675 13.2652,11.3828 16.4966,14.9061 3.2315,3.5234 6.1525,6.1291 6.4912,5.7904 0.6469,-0.647 -1.3882,-45.1043 -2.1834,-47.6965 -0.2531,-0.825 -3.0982,-2.9466 -6.3225,-4.7147 -8.557,-4.6925 -15.8609,-10.7986 -19.2786,-16.1168 -2.6305,-4.0934 -2.9525,-5.3749 -2.6136,-10.4031 0.9354,-13.87745 14.4628,-20.79058 40.5991,-20.74802 21.384,0.0348 34.8978,5.59188 38.2423,15.72573 3.0964,9.38209 -3.0472,19.29769 -18.5802,29.98849 l -7,4.8178 0.3685,24.4753 c 0.2027,13.4614 0.5948,24.8582 0.8714,25.3262 0.5506,0.9317 1.4475,0.08 9.3972,-8.9265 z"
         id="path3699"
         style="fill:#000000" />
    </g>
    <path
       d="m 999.08145,1504.4268 1.67555,3.2898 c 1.5909,3.1236 1.7555,3.699 3.2549,11.3809 0.8687,4.4501 1.6806,8.8544 1.8044,9.7873 0.1237,0.933 0.391,1.7018 0.5938,1.7086 0.2029,0.01 1.8863,0.1994 3.741,0.4281 l 3.372,0.4157 0,-2.7627 c 0,-2.8014 -0.7722,-7.8874 -3.4821,-22.9318 -9.1051,-50.5497 -18.34913,-77.1482 -40.31503,-116.0015 l -2.90237,-5.1337 0.71623,-1.6953 c 0.64725,-1.532 0.68143,-1.8984 0.35484,-3.8048 -0.50393,-2.942 -2.03579,-6.3044 -6.36775,-13.9771 l -3.73789,-6.6206 -4.94915,-2.9172 c -5.25552,-3.0977 -12.01487,-6.7392 -12.16986,-6.5562 -0.39369,0.4649 -2.83614,15.8398 -2.80308,17.6451 0.006,0.3074 1.19662,1.8913 2.64665,3.5197 1.45003,1.6285 3.51257,4.2364 4.58341,5.7954 1.07085,1.559 2.75252,3.5707 3.737,4.4705 1.97072,1.8011 5.78289,3.9007 9.09077,5.0068 l 2.1384,0.715 2.61825,4.5076 c 7.20062,12.3966 9.68468,16.8912 12.67334,22.9307 9.8113,19.8267 16.91786,40.7606 22.02545,64.8809 1.15723,5.4651 1.33735,6.8693 1.32916,10.363 l -0.01,4.0413 -1.98454,-3.1253 c -1.0915,-1.719 -5.12251,-8.1588 -8.95782,-14.3108 -11.05253,-17.7288 -19.42712,-29.7294 -25.4835,-36.5173 -10.5198,-11.7905 -27.63104,-20.2752 -37.57677,-18.6327 -3.16042,0.5219 -5.10117,1.4924 -7.14837,3.5744 -2.22404,2.262 -2.84703,4.2129 -2.81252,8.8076 0.0615,8.179 4.13556,21.098 10.97133,34.7901 2.3551,4.7172 6.10155,11.4322 6.37832,11.4322 0.062,0 -0.69827,-2.3317 -1.68937,-5.1815 -3.28899,-9.4571 -6.03739,-19.0151 -7.50765,-26.1091 -1.03104,-4.9747 -1.41302,-11.4679 -0.83681,-14.2238 0.97258,-4.6514 5.2328,-6.4169 12.01695,-4.9799 9.32181,1.9746 19.5602,8.2711 26.36054,16.2116 6.74382,7.8745 16.57523,22.5242 28.74736,42.8363"
       id="path2920"
       style="fill:#fff500;fill-opacity:1" />
    <path
       d="m 1029.525,1530.7442 c 0.1044,-0.2722 0.024,-7.3412 -0.1781,-15.709 -1.0427,-43.1186 -1.5517,-82.7815 -2.1702,-169.0999 l -0.4756,-66.3759 1.2561,-1.9434 c 0.6908,-1.0688 1.71,-3.325 2.2647,-5.0137 1.6461,-5.0107 1.9508,-7.4305 3.1832,-25.2769 l 0.443,-6.4152 -2.4675,-4.1286 c -2.4643,-4.1233 -8.2378,-12.6546 -10.1515,-15.0004 l -1.0122,-1.2407 -1.8385,3.2762 c -2.0673,3.6839 -5.8435,11.1506 -7.6466,15.1196 l -1.1956,2.6319 0.6886,11.1855 c 0.7509,12.1952 1.3455,17.3469 2.354,20.3929 0.7801,2.3561 2.3267,4.7578 3.6235,5.6266 0.7945,0.5322 0.9398,0.8544 0.9507,2.1086 0.01,0.8143 0.1499,3.9232 0.3174,6.9087 0.1675,2.9856 0.4716,13.8279 0.6758,24.0941 0.5171,26.0015 0.019,62.4366 -1.8192,133.1605 -1.0883,41.8611 -1.8149,74.8649 -1.8162,82.4929 l 0,3.701 7.4124,0 c 6.2946,0 7.4412,-0.075 7.6024,-0.4948 z"
       id="path2908"
       style="fill:#fff500;fill-opacity:1" />
    <path
       d="m 1035.3112,1530.5579 c 3.825,-0.4333 3.6362,-0.3031 4.0195,-2.7732 0.1123,-0.7238 0.8865,-4.869 1.7205,-9.2116 1.7417,-9.0698 1.7199,-9.0156 8.1382,-20.1802 14.2968,-24.8694 29.0977,-47.3296 36.3477,-55.1572 8.4732,-9.1484 20.7466,-15.6268 29.6052,-15.6268 3.9397,0 6.6525,1.5254 7.5627,4.2525 1.9424,5.8198 -0.4812,18.791 -7.3125,39.1376 -1.3431,4.0004 -2.3991,7.2735 -2.3465,7.2735 0.293,0 4.2955,-7.1657 6.6148,-11.8424 4.5658,-9.207 8.1976,-19.1107 9.837,-26.8249 0.3062,-1.4411 0.634,-4.3302 0.7283,-6.4201 0.2021,-4.4777 -0.2921,-6.699 -1.9859,-8.9264 -1.1427,-1.5028 -3.8907,-3.347 -5.8186,-3.905 -7.5422,-2.1832 -19.3648,1.6218 -30.2799,9.7451 -10.5478,7.8499 -18.6554,18.6278 -40.0741,53.273 -3.244,5.2473 -6.1006,9.5405 -6.3478,9.5405 -0.7008,0 -0.4942,-2.5997 0.693,-8.7181 6.5471,-33.742 16.412,-60.4685 32.4218,-87.8388 6.8382,-11.6905 5.9252,-10.4747 8.5456,-11.3798 5.8462,-2.0193 8.8396,-4.2525 12.4903,-9.3179 1.5109,-2.0964 3.7978,-4.9465 5.0821,-6.3336 l 2.335,-2.5219 -0.6487,-5.052 c -0.5835,-4.5449 -1.7842,-11.6113 -2.1567,-12.6932 -0.1719,-0.4995 -4.5175,1.6137 -10.6911,5.1989 -6.8783,3.9945 -6.2965,3.3961 -10.4259,10.7236 -2.0263,3.5956 -4.0784,7.402 -4.5601,8.4584 -1.837,4.0284 -2.2521,7.3926 -1.1733,9.5086 l 0.6146,1.2055 -2.7727,4.868 c -19.9097,34.9557 -29.8816,61.9502 -37.9145,102.6375 -2.1962,11.1237 -6.9288,37.9655 -6.9288,39.2977 0,0.1805 0.259,0.2549 0.5757,0.1654 0.3166,-0.09 2.1639,-0.3427 4.1051,-0.5627 z"
       id="path2906"
       style="fill:#fff500;fill-opacity:1" />
    <path
       d="m 1110.7533,1387.6373 c 0.8325,-3.7998 1.8853,-9.1509 2.3396,-11.8914 l 0.8259,-4.9827 -0.8424,-2.3354 c -1.2636,-3.5028 -2.2213,-10.7256 -2.2846,-17.2291 -0.034,-3.5218 -0.1726,-5.4673 -0.3827,-5.3848 -0.1809,0.071 -1.4156,0.6167 -2.7438,1.2124 -2.3676,1.0618 -2.4107,1.1028 -2.204,2.0949 2.5523,12.2498 3.4519,21.6188 3.4925,36.3777 0.015,5.3378 0.085,9.557 0.1563,9.3761 0.071,-0.181 0.8106,-3.4379 1.6432,-7.2377 z"
       id="path2904"
       style="fill:#fff500;fill-opacity:1" />
    <path
       d="m 936.6874,1368.8098 c 0.58457,-6.1939 1.48747,-12.548 2.436,-17.1435 l 0.63422,-3.0726 -2.67761,-1.2958 -2.6776,-1.2957 -0.22118,6.6712 c -0.23871,7.2002 -1.03475,12.9792 -2.21048,16.0473 -0.38136,0.9952 -0.68912,2.2536 -0.68389,2.7964 0.0155,1.6074 1.42713,9.3961 2.98149,16.4492 l 1.45,6.5797 0.22361,-10.1035 c 0.123,-5.557 0.45844,-12.5917 0.74544,-15.6327 z"
       id="path2902"
       style="fill:#fff500;fill-opacity:1" />
    <path
       d="m 897.74258,1375.2734 c 8.16464,-3.5412 12.99406,-3.7862 18.34421,-0.9306 2.61519,1.3959 3.72736,1.548 6.70273,0.9167 2.50189,-0.5309 4.52436,-1.6503 6.13158,-3.394 2.27726,-2.4705 3.18289,-5.3254 4.02404,-12.6853 0.46518,-4.0707 0.20821,-15.4306 -0.44795,-19.7996 -0.2848,-1.8964 -0.31316,-2.7867 -0.0844,-2.6482 0.18956,0.1148 1.21494,0.8473 2.27858,1.6277 5.01984,3.683 13.17678,8.0011 19.69229,10.4245 8.30932,3.0906 12.61158,2.8385 16.69208,-0.9784 2.55394,-2.3889 2.8696,-3.1007 3.05291,-6.8847 0.29983,-6.19 2.66921,-9.8225 10.00409,-15.3373 2.33993,-1.7594 3.18381,-2.6159 3.77095,-3.8276 2.53091,-5.2231 -1.21336,-10.0123 -9.22469,-11.7992 -7.34399,-1.638 -19.17,2.2723 -33.99585,11.2409 -4.44639,2.6897 -4.52353,2.7213 -4.52317,1.8537 3.3e-4,-0.7762 0.58529,-1.2594 4.85252,-4.008 15.00666,-9.666 20.44046,-13.6551 24.0535,-17.6583 3.04466,-3.3734 3.82747,-5.0154 3.82751,-8.0282 6e-5,-2.2035 -0.1162,-2.6814 -1.00038,-4.1123 -1.44908,-2.3453 -3.05626,-3.1309 -7.015,-3.4292 -1.74352,-0.1314 -3.54474,-0.391 -4.00272,-0.5771 -1.42779,-0.5799 -3.13039,-2.6485 -4.75962,-5.7829 -2.60108,-5.0039 -3.35051,-6.0316 -4.97026,-6.8157 -2.43574,-1.1792 -4.95342,-0.4294 -8.53498,2.5418 -3.75184,3.1124 -5.23523,6.2663 -7.55477,16.0628 -0.64263,2.7141 -1.24757,5.1938 -1.34433,5.5105 -0.15482,0.5067 0.077,0.5757 1.93605,0.5757 4.3973,0 6.09104,2.6656 4.60917,7.254 -0.60586,1.8759 -3.21379,5.0091 -5.18161,6.2253 -1.82754,1.1294 -3.16891,5.15 -4.46257,13.3758 -0.39465,2.5096 -0.91708,4.8791 -1.16092,5.2655 -0.24381,0.3864 -1.08361,1.0126 -1.86623,1.3914 l -1.4229,0.6888 -5.17834,-1.7973 c -5.46421,-1.8966 -11.35763,-3.2863 -12.73598,-3.0033 -0.45235,0.093 -2.08083,0.6277 -3.61883,1.1886 -3.05538,1.1141 -5.3835,1.1733 -7.72192,0.1963 -2.32306,-0.9707 -3.18681,-4.2502 -1.8236,-6.924 0.35916,-0.7044 0.60428,-1.3295 0.54477,-1.389 -0.10788,-0.1079 -2.90395,-0.8678 -10.08035,-2.7397 -2.08083,-0.5427 -5.11571,-1.1533 -6.74418,-1.3568 -2.66606,-0.3332 -3.24695,-0.3008 -5.83412,0.3248 -4.90667,1.1865 -8.81831,3.7375 -8.79847,5.7381 0.0116,1.1687 1.04892,3.1291 3.51906,6.6505 3.86957,5.5164 4.13735,7.2015 1.90155,11.9659 -1.05829,2.2552 -1.21514,2.878 -1.07973,4.2872 0.27452,2.857 2.89477,5.3525 6.83737,6.5119 1.5502,0.4559 2.24383,0.4779 4.84186,0.1534 5.90373,-0.7372 12.24675,-3.2504 26.33472,-10.434 4.77205,-2.4334 8.81418,-4.4243 8.98249,-4.4243 0.16831,0 0.30596,0.3331 0.30586,0.7402 -1.7e-4,0.6091 -0.70594,1.1192 -3.98252,2.8787 -9.27552,4.9807 -15.72842,9.5009 -20.88631,14.6308 -3.31024,3.2922 -4.17968,4.3712 -5.1766,6.4242 -3.74079,7.7035 -1.4323,14.4854 5.24737,15.4157 2.4937,0.3473 3.29034,0.1937 6.72602,-1.2964 z"
       id="path2900"
       style="fill:#ffffff" />
    <path
       d="m 1156.8464,1375.3667 c 2.7578,-1.4233 4.065,-3.8944 4.0579,-7.6711 -0.01,-4.3395 -1.6725,-8.0104 -5.5003,-12.1306 -5.0031,-5.3855 -13.8838,-11.6336 -23.3642,-16.4382 -2.2783,-1.1547 -2.7141,-1.504 -2.7141,-2.1756 0,-0.44 0.1292,-0.8 0.2872,-0.8 0.1579,0 4.9323,2.3452 10.6097,5.2114 14.5027,7.3217 20.7362,9.6101 26.4156,9.6975 2.265,0.035 2.9517,-0.094 4.633,-0.8714 3.3346,-1.5414 5.4283,-4.041 5.4283,-6.4805 0,-0.5598 -0.5442,-2.1339 -1.2094,-3.498 -1.3624,-2.7939 -1.7303,-5.236 -1.0894,-7.2297 0.4066,-1.2644 1.3839,-2.843 4.4257,-7.1479 2.071,-2.9312 2.3573,-4.7847 0.9899,-6.4097 -1.7296,-2.0555 -7.7045,-4.3267 -11.3824,-4.3267 -3.492,0 -18.9288,3.8179 -18.8147,4.6533 0.034,0.2453 0.3051,1.1122 0.6035,1.9264 1.0018,2.7328 0.1164,5.1361 -2.2467,6.0983 -2.239,0.9117 -5.1988,0.7473 -8.2873,-0.4603 -1.4475,-0.5661 -3.076,-1.0266 -3.6188,-1.0236 -1.823,0.01 -6.8688,1.2976 -12.0642,3.0776 l -5.1555,1.7664 -1.2597,-0.5704 c -2.0335,-0.9209 -2.4017,-1.5744 -2.9042,-5.1547 -0.8659,-6.1704 -2.5098,-12.6079 -3.5576,-13.9318 -0.2148,-0.2714 -1.2254,-1.128 -2.2457,-1.9035 -2.914,-2.2147 -4.5696,-5.0454 -4.6324,-7.9198 -0.069,-3.1508 1.6621,-4.7343 5.175,-4.7343 l 2.0156,0 -1.2064,-4.9758 c -2.6988,-11.1314 -3.4381,-12.8395 -7.036,-16.2572 -3.6198,-3.4385 -6.2865,-4.5533 -8.8597,-3.7041 -1.6283,0.5374 -2.8464,2.0577 -4.9613,6.1924 -3.0542,5.9708 -4.741,7.3103 -9.2116,7.3144 -2.7418,0 -4.2865,0.4966 -5.785,1.8504 -1.7612,1.5911 -2.429,3.4846 -2.2267,6.3128 0.1961,2.7411 1.044,4.3166 4.0976,7.6148 3.1497,3.402 6.5781,6.0463 15.2404,11.7549 13.6176,8.9741 13.3117,8.7512 13.4327,9.7906 l 0.1089,0.9351 -1.0958,-0.7192 c -8.704,-5.713 -19.601,-10.9506 -26.7566,-12.8604 -7.1387,-1.9052 -14.2343,-0.8026 -18.2738,2.8396 -2.6238,2.3659 -3.2449,5.1665 -1.823,8.2204 0.6518,1.3998 1.3453,2.1137 4.0269,4.1454 7.3837,5.5944 10.1897,10.2811 9.9233,16.5743 -0.081,1.9212 -0.021,2.097 1.3153,3.829 2.6215,3.398 5.1408,4.6362 9.4371,4.6382 2.6153,0 3.4401,-0.1608 7.0678,-1.3886 6.9038,-2.3365 15.9075,-6.9912 21.8006,-11.2704 1.2213,-0.8869 2.2194,-1.4998 2.2179,-1.3621 0,0.1377 -0.2383,1.9529 -0.5264,4.0337 -1.0245,7.3995 -0.692,18.2439 0.7615,24.8384 1.2277,5.5699 4.312,8.7232 9.4641,9.6756 3.0169,0.5577 3.9499,0.4524 5.6721,-0.6404 4.973,-3.1553 10.6774,-3.0077 18.614,0.4816 3.1835,1.3996 3.4933,1.4711 5.989,1.3823 1.9069,-0.068 3.0082,-0.2878 3.9983,-0.7988 z"
       id="path2898"
       style="fill:#ffffff" />
    <path
       d="m 980.01575,1372.0928 c -1.83452,-2.5386 -11.4736,-12.9263 -15.89703,-17.1317 -2.01789,-1.9184 -2.36898,-2.118 -4.50176,-2.5595 -6.1219,-1.267 -17.05837,-6.3822 -23.96099,-11.2068 l -2.17794,-1.5224 0.21183,1.2826 c 0.11649,0.7053 0.21345,1.6161 0.21545,2.024 0.003,0.6041 0.44561,0.9348 2.38876,1.7845 3.89666,1.7041 12.61208,6.2491 17.09558,8.9152 7.40301,4.4022 18.76784,12.3865 25.09668,17.6317 1.08565,0.8997 2.02098,1.6474 2.07856,1.6615 0.0575,0.014 -0.18956,-0.3815 -0.54914,-0.8791 z"
       id="path2896"
       style="fill:#fff500;fill-opacity:1" />
    <path
       d="m 1073.5628,1365.5044 c 12.5404,-9.3861 18.6264,-13.0216 36.3528,-21.7153 1.074,-0.5267 1.1626,-0.6899 1.3174,-2.4258 0.1071,-1.2013 0.049,-1.7896 -0.1645,-1.6592 -0.1817,0.111 -1.8849,1.2191 -3.7847,2.4623 -6.3881,4.1802 -17.0218,8.9416 -22.042,9.8697 -2.0894,0.3863 -2.2167,0.4708 -5.554,3.6875 -3.2198,3.1034 -9.2971,9.6697 -13.6968,14.7988 l -1.9687,2.2952 1.8094,-1.4405 c 0.9952,-0.7922 4.4742,-3.435 7.7311,-5.8727 z"
       id="path2894"
       style="fill:#fff500;fill-opacity:1" />
    <path
       d="m 869.26347,1367.4688 c 1.99036,-1.1708 6.5058,-3.5723 10.03433,-5.3367 5.92274,-2.9616 6.50284,-3.3308 7.55312,-4.8071 1.67266,-2.3513 4.43929,-5.1928 7.36603,-7.5656 1.42036,-1.1515 2.49377,-2.0937 2.38534,-2.0937 -0.77259,0 -7.09485,3.5551 -11.35513,6.3851 -7.16776,4.7614 -18.86401,13.6821 -21.74091,16.5817 -0.51046,0.5145 -0.28574,0.391 5.75722,-3.1637 z"
       id="path2892"
       style="fill:#fff500;fill-opacity:1" />
    <path
       d="m 1181.2543,1369.9528 c -7.844,-6.6331 -16.2683,-12.9395 -23.4714,-17.5706 -4.1581,-2.6734 -8.964,-5.2383 -9.2602,-4.9421 -0.063,0.063 0.5151,0.5672 1.285,1.1201 2.4566,1.7642 6.116,5.3492 7.8757,7.7157 l 1.7059,2.2941 7.0925,3.579 c 3.9008,1.9684 8.9429,4.6923 11.2046,6.0532 2.2618,1.3608 4.1864,2.4776 4.2768,2.4817 0.091,0 -0.2285,-0.3249 -0.7089,-0.7311 z"
       id="path2890"
       style="fill:#fff500;fill-opacity:1" />
    <path
       d="m 927.04927,1328.8952 c 0.15588,0.4664 1.78017,-0.9664 2.03037,-1.791 0.18989,-0.6259 0.64994,-4.7938 0.69553,-6.3016 0.0118,-0.3898 0.11446,-0.6513 0.22812,-0.581 0.27454,0.1696 0.66412,-1.8202 0.43041,-2.1983 -0.10034,-0.1624 -0.0492,-0.2952 0.1136,-0.2952 0.16285,0 0.48413,-0.8404 0.714,-1.8675 0.22986,-1.0271 0.69547,-2.515 1.03472,-3.3064 0.33925,-0.7914 0.47081,-1.3487 0.2924,-1.2385 -0.64363,0.3978 -0.29934,-0.1108 1.03166,-1.5239 0.74584,-0.7919 1.24774,-1.2177 1.11533,-0.9463 -0.13239,0.2714 0.10863,0.11 0.53558,-0.3587 0.42699,-0.4688 1.18816,-1.1045 1.69154,-1.4127 0.51687,-0.3165 0.8169,-0.7194 0.68939,-0.9257 -0.12926,-0.2092 -0.0772,-0.2735 0.12179,-0.1506 0.45413,0.2807 1.73467,-1.9042 1.90758,-3.2548 0.10133,-0.7914 -0.0716,-1.2774 -0.69274,-1.9477 -0.47041,-0.5076 -1.03374,-0.8141 -1.30482,-0.7101 -0.27082,0.1039 -0.44321,0.01 -0.39876,-0.2163 0.0533,-0.2717 -0.52582,-0.4146 -1.81129,-0.4469 -1.24488,-0.031 -1.81682,0.07 -1.67631,0.2976 0.12762,0.2065 0.0541,0.2467 -0.18314,0.1001 -0.93794,-0.5797 -4.95721,2.3248 -4.41998,3.1941 0.11581,0.1873 0.0551,0.2446 -0.13478,0.1272 -0.47476,-0.2934 -0.6632,0.3515 -0.58072,1.9874 0.0824,1.6353 0.98297,3.1949 1.68844,2.9242 0.31231,-0.1198 0.40186,-0.05 0.25052,0.1946 -0.15639,0.2531 -0.0551,0.3119 0.30135,0.1751 0.2953,-0.1133 0.63856,-0.042 0.76279,0.1594 0.13162,0.213 0.0769,0.2734 -0.13123,0.1448 -0.19641,-0.1214 -0.45009,-0.07 -0.56372,0.1137 -0.11366,0.1839 -0.0746,0.3343 0.0868,0.3343 0.43709,0 0.27973,1.0056 -0.35662,2.2787 -0.30991,0.62 -0.47805,1.4342 -0.37366,1.8094 0.13478,0.4845 0.10073,0.5538 -0.11752,0.2392 -0.67655,-0.9751 -2.91608,7.8647 -2.56529,10.1258 0.13314,0.8581 0.10196,0.9968 -0.116,0.5157 -0.2671,-0.5896 -0.30049,-0.5961 -0.32122,-0.063 -0.033,0.8484 -0.58315,0.3931 -1.35637,-1.1226 -0.36625,-0.7179 -0.80657,-1.2183 -0.97849,-1.112 -0.17193,0.1062 -0.23177,-0.017 -0.13295,-0.275 0.0988,-0.2574 -0.0312,-0.6792 -0.28937,-0.9371 -0.25793,-0.2579 -0.57319,-0.7973 -0.70057,-1.1986 -0.12946,-0.408 -0.3886,-0.6326 -0.5877,-0.5096 -0.212,0.131 -0.26128,0.067 -0.12176,-0.1591 0.23295,-0.3769 -0.55006,-1.8273 -0.83348,-1.5439 -0.0816,0.082 -0.16992,-0.139 -0.19641,-0.4902 -0.0263,-0.3511 -0.42758,-1.136 -0.89138,-1.7441 -0.46383,-0.6081 -0.84332,-1.2767 -0.84332,-1.4858 0,-0.2091 -0.15679,-0.3802 -0.34839,-0.3802 -0.19164,0 -0.26474,-0.1354 -0.16246,-0.3009 0.10229,-0.1654 0.074,-0.3505 -0.0628,-0.4112 -0.37284,-0.1654 -1.40023,-2.1167 -1.40023,-2.6596 0,-0.2605 0.36169,-0.8947 0.80375,-1.4091 0.44202,-0.5144 0.72939,-1.0556 0.63852,-1.2026 -0.0908,-0.147 -0.0322,-0.2673 0.13045,-0.2673 0.42333,0 1.07341,-1.5539 0.87085,-2.0818 -0.0938,-0.2445 0.0582,-0.6345 0.33783,-0.8666 0.70897,-0.5884 0.64452,-2.4192 -0.10915,-3.1013 -0.71847,-0.6501 -2.05412,-0.9882 -3.59873,-0.9107 -1.25452,0.063 -6.6927,2.3325 -6.46639,2.6986 0.0829,0.1341 -0.22446,0.338 -0.68297,0.4531 -0.45851,0.115 -0.75597,0.3349 -0.66103,0.4885 0.0949,0.1536 -0.27895,0.3696 -0.83082,0.4799 -0.5572,0.1115 -0.91194,0.3487 -0.79772,0.5336 0.11314,0.183 0.0402,0.3328 -0.16209,0.3328 -0.20229,0 -0.27019,0.158 -0.1509,0.351 0.11932,0.193 0.0171,0.3235 -0.22733,0.29 -0.83342,-0.1144 -1.30577,0.017 -1.12352,0.3115 0.10011,0.162 -0.0296,0.3757 -0.28802,0.4749 -0.25855,0.099 -0.64258,0.5027 -0.85342,0.8966 -0.29612,0.5534 -0.29355,0.6608 0.0112,0.4724 0.29139,-0.1801 0.28543,-0.04 -0.0227,0.536 -0.50084,0.9359 -0.52226,0.8443 0.38051,1.6273 0.73804,0.6401 1.08973,0.7607 1.89593,0.65 0.24434,-0.034 0.34725,0.096 0.22868,0.2878 -0.12741,0.2062 0.0945,0.3543 0.54273,0.3622 0.41702,0.01 2.07306,0.045 3.68002,0.084 l 2.92174,0.071 0.59915,1.1171 c 0.32954,0.6144 0.98347,1.5182 1.45319,2.0085 0.46972,0.4903 0.82338,1.0239 0.78591,1.1858 -0.12942,0.5593 0.43538,1.4414 0.78469,1.2255 0.2169,-0.1341 0.27349,-0.016 0.14851,0.3096 -0.11107,0.2894 -0.0992,0.5728 0.0263,0.6297 0.52061,0.2361 1.99108,2.5097 1.77668,2.7472 -0.12788,0.1416 0.0343,0.1616 0.3603,0.044 0.38248,-0.1375 0.51463,-0.087 0.37244,0.1434 -0.27812,0.45 0.51457,1.978 0.90192,1.7386 0.15814,-0.098 0.26634,-0.056 0.24045,0.093 -0.12176,0.7009 0.0658,1.1109 0.41061,0.8977 0.24729,-0.1528 0.28996,-0.089 0.12235,0.1819 -0.14163,0.2291 -0.12749,0.5111 0.0316,0.6265 0.6098,0.4432 1.59755,1.7994 1.11134,1.5259 -0.35435,-0.1993 -0.33116,-0.092 0.0823,0.3806 0.69866,0.7988 0.80792,1.7021 0.13866,1.1467 -0.24035,-0.1995 -0.72149,-0.4171 -1.0692,-0.4835 -0.34767,-0.066 -1.06479,-0.2975 -1.59356,-0.5134 -0.52881,-0.216 -1.1657,-0.3144 -1.4153,-0.2186 -0.2496,0.096 -0.36336,0.028 -0.25282,-0.151 0.11054,-0.1789 -0.0742,-0.3253 -0.41061,-0.3253 -0.33635,0 -0.75222,-0.1334 -0.92411,-0.2964 -0.1719,-0.163 -0.9509,-0.382 -1.73109,-0.4867 -0.78022,-0.1046 -1.54603,-0.2689 -1.7018,-0.3652 -0.15581,-0.096 -0.99788,-0.2634 -1.8713,-0.3712 -0.87342,-0.1079 -1.95815,-0.2435 -2.4105,-0.3014 -1.63022,-0.2086 -2.30289,-0.5585 -2.30289,-1.1977 0,-0.3993 -0.14252,-0.5509 -0.37981,-0.4043 -0.24135,0.1492 -0.29027,0.09 -0.13416,-0.1627 0.71606,-1.1586 -2.79473,-3.9868 -4.93589,-3.9762 -2.06135,0.01 -5.99795,1.9365 -5.52414,2.7031 0.1307,0.2115 0.0649,0.2593 -0.16295,0.1184 -0.22101,-0.1365 -0.47745,0.015 -0.60816,0.3604 -0.12429,0.3282 -0.41936,0.7922 -0.65563,1.0313 -0.50358,0.5096 -0.57987,1.1774 -0.10067,0.8813 0.41521,-0.2567 0.43209,0.2568 0.022,0.6744 -0.19015,0.1937 -0.1589,0.5008 0.0823,0.8078 0.50828,0.647 3.08696,1.9131 4.31351,2.118 1.05242,0.1757 5.12265,-0.7282 5.12265,-1.1377 0,-0.1395 0.22976,-0.3419 0.51055,-0.4497 0.34872,-0.1338 0.43097,-0.067 0.25947,0.2116 -0.13811,0.2241 0.16795,0.1334 0.68008,-0.2016 0.51216,-0.3349 1.32067,-0.6616 1.79671,-0.7259 0.94057,-0.1272 4.81907,0.6197 7.44519,1.4337 0.9047,0.2804 1.86958,0.528 2.14419,0.5501 0.27457,0.022 0.68168,0.153 0.9047,0.2908 0.22299,0.1378 0.57635,0.145 0.78526,0.016 0.23532,-0.1455 0.29052,-0.09 0.14508,0.145 -0.14607,0.2363 0.021,0.3985 0.44265,0.4292 0.37254,0.027 0.86243,0.064 1.08861,0.082 0.22617,0.018 0.52121,0.203 0.65563,0.4108 0.13442,0.2078 0.98613,0.5558 1.89268,0.7733 0.90655,0.2174 1.74444,0.551 1.86195,0.7411 0.13466,0.2179 0.36534,0.1384 0.62373,-0.2149 0.22551,-0.3085 0.46199,-0.4053 0.52551,-0.2153 z"
       id="path2888"
       style="fill:#0093dd;fill-opacity:1" />
    <path
       d="m 1120.6777,1328.3077 c 0.8662,-0.3333 1.8709,-0.7276 2.2328,-0.8763 0.3619,-0.1487 0.732,-0.296 0.8225,-0.3272 0.091,-0.031 0.3865,-0.1478 0.658,-0.2589 0.2714,-0.1112 1.141,-0.3681 1.9325,-0.571 0.7915,-0.203 1.8278,-0.5321 2.3029,-0.7316 0.4751,-0.1994 1.1599,-0.4101 1.5218,-0.4682 5.7725,-0.9269 6.5932,-0.9823 7.7311,-0.5215 0.6333,0.2564 1.4256,0.5226 1.7607,0.5915 0.3351,0.069 0.8163,0.2972 1.0692,0.5071 0.253,0.2099 0.46,0.2714 0.46,0.1366 0,-0.1347 0.1931,-0.085 0.4291,0.1112 0.4607,0.3822 4.9184,0.3019 5.9019,-0.1064 0.3156,-0.131 0.4764,-0.3959 0.3573,-0.5886 -0.1323,-0.2141 -0.019,-0.2748 0.2899,-0.1561 0.3318,0.1274 0.6341,-0.086 0.8764,-0.6175 0.4672,-1.0253 0.4796,-2.4259 0.021,-2.4259 -0.1916,0 -0.2414,-0.1732 -0.1105,-0.3849 0.1584,-0.2563 0.061,-0.3169 -0.2928,-0.1812 -0.3906,0.1499 -0.4769,0.064 -0.3271,-0.3271 0.1347,-0.351 0.075,-0.4509 -0.1775,-0.2951 -0.2392,0.1478 -0.3159,0.066 -0.2061,-0.2204 0.2818,-0.7343 -2.1709,-2.1916 -4.3802,-2.6024 -1.5548,-0.2892 -2.215,-0.2784 -3.0055,0.049 -0.5572,0.2308 -0.9332,0.5488 -0.8357,0.7067 0.098,0.1578 -0.037,0.2047 -0.2994,0.104 -0.5521,-0.2118 -2.2665,1.8583 -2.4309,2.9353 -0.1673,1.0963 -0.4738,1.2324 -3.9164,1.74 -3.3885,0.4996 -5.2029,0.9117 -6.6571,1.512 -0.4751,0.1961 -1.0118,0.3725 -1.1928,0.3921 -0.6441,0.07 -2.9661,0.9332 -3.2733,1.2175 -0.1719,0.1591 -0.5961,0.2893 -0.9426,0.2893 -0.5964,0 -0.6012,-0.044 -0.091,-0.8225 0.2964,-0.4523 0.4685,-0.8224 0.3825,-0.8224 -0.086,0 0.212,-0.3975 0.6623,-0.8833 0.473,-0.5105 0.7368,-1.0964 0.6248,-1.3882 -0.1065,-0.2777 -0.088,-0.3993 0.041,-0.2702 0.3427,0.3426 1.1964,-1.0101 0.9198,-1.4576 -0.1363,-0.2206 -0.091,-0.2903 0.1095,-0.1667 0.1891,0.1169 0.5974,-0.1746 0.9074,-0.6477 0.3865,-0.5897 0.4236,-0.7878 0.1182,-0.63 -0.2449,0.1265 -0.1492,-0.046 0.2127,-0.3822 0.8355,-0.7774 2.1384,-2.6072 2.1384,-3.0031 0,-0.1661 0.2256,-0.4893 0.5014,-0.7182 0.2758,-0.2289 0.4309,-0.4867 0.3446,-0.5729 -0.086,-0.086 0.067,-0.3803 0.34,-0.6535 0.2732,-0.2732 0.4159,-0.7074 0.3171,-0.9649 -0.099,-0.2575 -0.07,-0.402 0.063,-0.3211 0.2681,0.1623 1.0849,-0.6098 1.0697,-1.0111 -0.024,-0.6414 0.9826,-1.3451 1.6987,-1.1872 0.6098,0.1345 0.6646,0.097 0.2709,-0.1839 -0.3044,-0.2175 -0.3434,-0.3544 -0.1016,-0.3575 0.2155,0 0.4819,0.1407 0.5919,0.3188 0.2529,0.4091 3.9379,0.1833 5.7193,-0.3504 1.9857,-0.5949 2.7624,-1.4429 2.4899,-2.7184 -0.2806,-1.3135 -0.7802,-1.9403 -1.3671,-1.7151 -0.2518,0.097 -0.3787,0.048 -0.282,-0.1089 0.1896,-0.3067 -1.8314,-2.433 -2.316,-2.4367 -0.1612,0 -0.4734,-0.239 -0.6938,-0.5283 -0.2205,-0.2894 -0.4055,-0.4044 -0.4113,-0.2555 -0.01,0.1489 -0.5587,-0.1812 -1.2288,-0.7336 -0.7571,-0.6241 -1.3002,-0.8718 -1.4347,-0.6543 -0.1362,0.2204 -0.2895,0.1591 -0.414,-0.1656 -0.1251,-0.326 -0.4037,-0.4365 -0.7578,-0.3006 -0.3723,0.1428 -0.4822,0.089 -0.328,-0.1604 0.2342,-0.3789 0.1213,-0.4217 -2.6904,-1.0187 -2.2747,-0.483 -4.6109,0.4504 -4.7091,1.8813 -0.1076,1.5682 0.9877,4.5032 2.2158,5.9374 0.3401,0.3973 0.5941,0.8286 0.5642,0.9585 -0.03,0.1298 0.099,0.4211 0.287,0.6473 0.2384,0.2872 0.2214,0.5557 -0.056,0.8903 -0.2186,0.2635 -0.2879,0.6564 -0.1539,0.8733 0.138,0.2233 0.1047,0.3083 -0.077,0.1961 -0.2937,-0.1816 -2.4129,3.0864 -2.4129,3.7214 0,0.1517 -0.1873,0.4715 -0.4162,0.7106 -0.5364,0.5603 -2.5704,3.9521 -2.6282,4.3825 -0.024,0.181 -0.3151,0.6199 -0.6463,0.9754 -0.3313,0.3555 -0.5263,0.8444 -0.4335,1.0863 0.093,0.2419 0.022,0.3494 -0.1564,0.2389 -0.1789,-0.1106 -0.3301,-0.01 -0.3362,0.2296 -0.015,0.6099 -1.2304,1.996 -1.5671,1.7879 -0.1543,-0.095 -0.2954,-0.9637 -0.3135,-1.9297 -0.038,-2.0442 -1.1466,-6.7065 -2.0723,-8.7178 -0.353,-0.767 -0.6419,-1.5886 -0.6419,-1.8258 0,-0.2372 -0.1751,-0.6064 -0.3892,-0.8205 -0.214,-0.214 -0.4095,-0.8241 -0.4343,-1.3558 -0.033,-0.7116 0.152,-1.0566 0.7023,-1.3073 0.9193,-0.4188 1.6374,-1.7568 1.8672,-3.4786 0.1445,-1.0832 0.01,-1.5331 -0.8298,-2.6971 -0.5518,-0.7684 -1.3909,-1.5574 -1.8645,-1.7533 -0.4736,-0.1959 -1.2312,-0.581 -1.6836,-0.8558 -0.5812,-0.3531 -1.4102,-0.459 -2.8259,-0.3609 -1.9377,0.1342 -3.9269,0.9926 -3.5844,1.5468 0.09,0.1457 0,0.3206 -0.2079,0.3888 -0.4569,0.1523 -0.063,2.8932 0.4158,2.8932 0.1758,0 0.2314,0.1426 0.1236,0.3169 -0.247,0.3997 1.065,1.7446 1.4623,1.4991 0.1618,-0.1 0.4014,-0.01 0.5323,0.2033 0.1433,0.2318 0.096,0.2973 -0.119,0.1645 -0.1964,-0.1214 -0.4501,-0.07 -0.5637,0.1137 -0.1137,0.1839 -0.087,0.3345 0.059,0.3347 0.1464,3e-4 0.6926,0.3672 1.2137,0.8154 0.5212,0.4482 1.1134,0.7204 1.316,0.6048 0.2026,-0.1156 0.2578,-0.088 0.1228,0.061 -0.1351,0.149 0.161,0.5185 0.6579,0.8213 0.5981,0.3643 1.1166,1.1525 1.5336,2.3314 0.3465,0.9796 0.8454,1.9095 1.1086,2.0663 0.2839,0.1691 0.3469,0.3699 0.1548,0.4935 -0.2025,0.1303 -0.098,0.8862 0.2802,2.0177 0.3323,0.9952 0.6084,2.1338 0.6134,2.5302 0.01,0.3965 0.1579,0.8126 0.3395,0.9249 0.1816,0.1122 0.2396,0.5651 0.1289,1.0064 -0.1144,0.4556 -0.057,0.8023 0.1324,0.8023 0.1836,0 0.2504,0.3192 0.1484,0.7094 -0.1021,0.3901 -0.051,0.6266 0.113,0.5254 0.1663,-0.1025 0.3279,0.8911 0.3648,2.2431 0.079,2.8906 0.4192,3.6431 1.833,4.0516 1.4704,0.4248 1.3548,0.4338 3.1056,-0.2398 z"
       id="path2886"
       style="fill:#0093dd;fill-opacity:1" />
    <path
       d="m 917.02337,1318.5085 -3.09748,-4.8927 -3.25011,-0.1871 c -4.13412,-0.2379 -6.17188,-1.0547 -6.88406,-2.7593 -1.43921,-3.4444 1.68186,-7.6452 8.07581,-10.8697 4.71408,-2.3773 7.79499,-2.6193 9.65589,-0.7584 0.9154,0.9154 0.94892,1.0546 0.80055,3.3237 -0.12268,1.8757 -0.40988,2.8824 -1.38104,4.8408 l -1.22616,2.4726 3.2305,5.4988 c 1.77681,3.0244 3.31195,5.5018 3.41143,5.5053 0.0995,0 0.36939,-0.9059 0.59971,-2.0211 0.23035,-1.1152 0.91089,-3.4044 1.51234,-5.0872 0.97853,-2.7378 1.03956,-3.104 0.58049,-3.4829 -0.89345,-0.7373 -1.81599,-3.2882 -1.81599,-5.0215 0,-1.8568 0.85112,-3.8226 2.20038,-5.0819 0.79193,-0.7392 0.85434,-1.0041 0.85253,-3.6189 -0.004,-6.0051 -1.7473,-13.242 -4.13734,-17.1765 -1.75441,-2.8881 -3.92998,-4.6529 -7.19002,-5.8325 -3.94795,-1.4285 -5.64242,-1.597 -7.55484,-0.751 -2.64414,1.1696 -3.44397,1.9515 -4.84354,4.7352 -3.15792,6.2807 -8.63548,9.4472 -17.2247,9.9571 -2.95774,0.1756 -3.93416,0.3719 -5.38633,1.0829 -2.12136,1.0388 -2.67228,1.7999 -3.23057,4.4632 -1.2905,6.1563 -0.11445,9.4657 5.29044,14.8874 3.2198,3.2298 7.46337,6.3569 11.21462,8.2639 1.48533,0.7551 1.77891,0.7994 3.04784,0.46 1.91864,-0.5131 4.20268,-0.4715 5.30136,0.097 1.22105,0.6314 3.26359,2.9279 3.52283,3.9608 0.11468,0.4569 0.22946,0.8315 0.25509,0.8325 0.76887,0.029 8.03963,1.423 9.09366,1.7436 0.81424,0.2477 1.52402,0.4185 1.57732,0.3796 0.0533,-0.039 -1.29696,-2.2724 -3.00061,-4.9634 z"
       id="path2884"
       style="fill:#ffffff" />
    <path
       d="m 1129.8192,1322.0203 c 1.8094,-0.3511 3.8267,-0.7236 4.4828,-0.8277 1.0163,-0.1612 1.3113,-0.4191 1.9919,-1.7416 0.4394,-0.8538 1.4315,-2.0348 2.2047,-2.6246 1.1863,-0.9048 1.6835,-1.0722 3.1849,-1.0722 0.9785,0 2.4217,0.1719 3.207,0.3819 1.4105,0.3773 1.4654,0.3597 4.5282,-1.4445 6.8997,-4.0646 11.8876,-8.6674 13.9796,-12.9004 1.4252,-2.8835 1.6792,-4.6714 1.1502,-8.0955 -0.5491,-3.5541 -1.1351,-4.5249 -3.4228,-5.6713 -1.6789,-0.8413 -2.4455,-0.9964 -6.0862,-1.2308 -4.4827,-0.2888 -6.5135,-0.8315 -9.935,-2.6551 -2.8891,-1.5399 -4.9667,-3.7559 -6.5705,-7.0083 -1.437,-2.9142 -2.4188,-3.8762 -5.0901,-4.9875 -3.1501,-1.3106 -10.3744,1.1994 -13.1295,4.5617 -3.1628,3.8598 -5.0493,10.0601 -5.6254,18.4883 -0.2236,3.273 -0.2203,3.294 0.6588,4.1123 2.6776,2.4922 3.1749,6.3801 1.2186,9.5272 l -1.0416,1.6756 0.6948,1.7185 c 0.3821,0.9452 1.0934,3.1857 1.5807,4.979 l 0.886,3.2605 1.1637,-1.9446 c 0.6401,-1.0695 2.1318,-3.5883 3.3148,-5.5974 l 2.1511,-3.653 -1.0939,-2.1734 c -1.5767,-3.1327 -2.055,-5.5152 -1.4539,-7.2422 0.3991,-1.1463 0.7129,-1.4539 2.0453,-2.0047 1.4035,-0.5801 1.7776,-0.6079 3.4544,-0.2568 2.4784,0.519 6.6377,2.5501 9.2165,4.5007 4.7467,3.5904 5.4332,8.6016 1.409,10.2846 -0.6482,0.271 -2.6687,0.5691 -4.49,0.6622 l -3.3116,0.1694 -2.9391,4.6227 c -3.4829,5.4777 -3.4064,5.3176 -2.4075,5.0419 0.4313,-0.119 2.2647,-0.5037 4.0741,-0.8549 z"
       id="path2882"
       style="fill:#ffffff" />
    <path
       d="m 895.74673,1317.3476 c -3.55708,-2.1575 -6.04894,-3.9072 -8.44191,-5.9276 -2.52735,-2.1338 -2.99961,-2.3823 -8.06012,-4.2411 -4.84032,-1.7778 -13.83954,-4.6084 -17.71236,-5.5712 -0.81424,-0.2024 -1.77652,-0.4415 -2.1384,-0.5314 -0.36188,-0.09 1.45039,0.9436 4.02727,2.2967 5.81433,3.0531 7.1322,3.791 13.90238,7.7845 4.96221,2.927 5.76717,3.2894 9.37607,4.2201 2.17129,0.56 5.20618,1.3791 6.74418,1.8202 3.49233,1.0016 3.73302,1.0173 2.30289,0.1498 z"
       id="path2880"
       style="fill:#fff500;fill-opacity:1" />
    <path
       d="m 1155.9199,1315.6125 6.6906,-1.8107 5.4818,-3.2742 c 5.5558,-3.3184 17.0741,-9.5767 17.6269,-9.5773 0.1658,-2e-4 0.2275,-0.074 0.137,-0.1649 -0.2534,-0.2534 -9.0428,2.2327 -14.9139,4.2183 -9.2691,3.1349 -10.6014,3.7388 -13.1511,5.9612 -2.5516,2.224 -4.4492,3.5844 -7.7104,5.5276 -1.1921,0.7103 -1.8714,1.2102 -1.5095,1.111 0.3619,-0.099 3.6687,-0.9951 7.3486,-1.991 z"
       id="path2878"
       style="fill:#fff500;fill-opacity:1" />
    <path
       d="m 961.58064,1310.8011 c 1.3367,-0.5529 4.28719,-1.4963 6.55663,-2.0965 2.26943,-0.6002 5.23029,-1.5764 6.57969,-2.1693 1.34939,-0.5929 4.67408,-1.9402 7.3882,-2.994 2.71412,-1.0539 4.75952,-1.92 4.54531,-1.9248 -0.79426,-0.018 -11.78317,2.346 -16.12257,3.4679 -3.84366,0.9937 -4.70573,1.3403 -5.99643,2.4113 -0.82908,0.6879 -2.44897,1.9392 -3.59975,2.7807 -1.15079,0.8415 -2.0224,1.53 -1.93693,1.53 0.0855,0 1.24912,-0.4524 2.58585,-1.0053 z"
       id="path2876"
       style="fill:#fff500;fill-opacity:1" />
    <path
       d="m 1083.5431,1309.4628 c -1.5084,-1.108 -3.1127,-2.3575 -3.5651,-2.7766 -0.562,-0.5207 -2.2359,-1.1334 -5.287,-1.935 -4.5651,-1.1996 -15.2085,-3.4835 -16.0969,-3.4542 -0.2715,0.01 0.8389,0.5069 2.4673,1.1065 1.6285,0.5997 4.959,1.9437 7.4011,2.9868 2.4421,1.0431 6.0786,2.3103 8.081,2.816 2.0026,0.5058 4.8899,1.4355 6.4164,2.066 1.5265,0.6306 2.8992,1.1597 3.0506,1.1758 0.1514,0.016 -0.959,-0.8773 -2.4674,-1.9853 z"
       id="path2874"
       style="fill:#fff500;fill-opacity:1" />
    <path
       d="m 932.71649,1297.0847 c 0.0924,-0.3169 0.83368,-3.3149 1.6472,-6.6623 0.81351,-3.3474 1.78507,-6.9632 2.15906,-8.0351 0.37398,-1.0719 0.98458,-3.7366 1.35692,-5.9217 0.89711,-5.2649 2.42048,-12.5897 3.63143,-17.4612 0.53974,-2.1713 1.05216,-4.2439 1.13872,-4.6058 0.26151,-1.0934 -3.43881,6.2687 -5.62198,11.1855 -2.22585,5.0129 -5.24471,12.7608 -6.43455,16.5143 l -0.75064,2.368 0.58711,3.0514 c 0.32289,1.6782 0.66714,4.7886 0.76495,6.9118 0.16482,3.5776 0.22095,3.8374 0.76581,3.5458 0.32336,-0.1731 0.66356,-0.5739 0.75597,-0.8907 z"
       id="path2872"
       style="fill:#fff500;fill-opacity:1" />
    <path
       d="m 1113.7988,1294.6155 c 0.055,-1.6729 0.342,-4.4481 0.6379,-6.167 0.2959,-1.719 0.5326,-3.6435 0.5259,-4.2768 -0.015,-1.4056 -2.9423,-9.6298 -5.8016,-16.2979 -1.9973,-4.6578 -6.5176,-14.0438 -6.6835,-13.8778 -0.042,0.042 0.4272,2.1322 1.0435,4.644 1.1557,4.7101 3.1403,14.4036 3.7791,18.4585 0.1996,1.2666 0.7929,3.6353 1.3185,5.2638 0.5256,1.6285 1.4826,5.1815 2.1267,7.8956 1.7477,7.3646 1.7599,7.4023 2.3906,7.4007 0.4835,0 0.5772,-0.4312 0.6629,-3.0431 z"
       id="path2870"
       style="fill:#fff500;fill-opacity:1" />
    <path
       d="m 1143.801,1281.0658 c 0,-0.08 -0.148,-0.2366 -0.3289,-0.3484 -0.181,-0.1119 -0.329,-0.047 -0.329,0.145 0,0.1917 0.148,0.3484 0.329,0.3484 0.1809,0 0.3289,-0.065 0.3289,-0.145 z"
       id="path2868"
       style="fill:#000000" />
    <path
       d="m 1052.5012,1270.4991 c -2.3484,-11.2243 -4.2777,-18.7132 -6.8155,-26.4562 -1.6302,-4.9736 -1.7221,-5.1546 -3.5297,-6.9484 -5.1814,-5.1421 -10.7577,-12.5756 -15.2338,-20.3073 l -2.1571,-3.726 -1.7554,2.8809 c -0.9655,1.5846 -1.7216,2.9926 -1.6802,3.1291 0.041,0.1364 1.2365,1.8491 2.656,3.8059 10.3454,14.2613 20.1354,32.5598 28.6957,53.6354 0.9715,2.3918 1.8077,4.3074 1.8581,4.257 0.05,-0.05 -0.8668,-4.6721 -2.0381,-10.2704 z"
       id="path2866"
       style="fill:#fff500;fill-opacity:1" />
    <path
       d="m 998.89436,1267.229 c 6.93374,-21.0707 14.52394,-38.0113 23.55914,-52.5813 0.8784,-1.4167 1.5972,-2.7099 1.5972,-2.8738 0,-0.4577 -2.7509,-5.9005 -2.9822,-5.9005 -0.112,0 -0.6187,1.0733 -1.126,2.3851 -3.775,9.7631 -11.2274,22.2084 -16.9826,28.3608 l -1.9517,2.0864 -0.9561,4.3921 c -1.38737,6.3736 -2.47414,13.2558 -3.97056,25.1442 -0.72699,5.7758 -1.38894,10.9456 -1.47099,11.4884 -0.0821,0.5428 0.0931,0.2467 0.38929,-0.658 0.29618,-0.9047 2.04872,-6.2342 3.89452,-11.8434 z"
       id="path2864"
       style="fill:#fff500;fill-opacity:1" />
    <path
       d="m 996.19346,1239.7522 c 4.05214,-1.516 7.90674,-5.5105 13.64464,-14.1397 3.0419,-4.5747 7.2698,-12.76 9.6182,-18.6209 l 1.7269,-4.3099 3.061,6.1194 c 5.2089,10.4136 11.7913,19.947 17.9757,26.0346 4.9143,4.8374 10.5952,6.407 16.1252,4.4552 4.0428,-1.4268 4.8862,-2.1095 6.4134,-5.1917 3.3376,-6.7356 9.1139,-9.9776 20.1939,-11.3341 4.3482,-0.5324 4.7882,-0.6519 6.5202,-1.7713 5.619,-3.6318 6.4142,-8.7756 2.3062,-14.9176 -4.8468,-7.2466 -12.2698,-10.9536 -25.7938,-12.8814 -5.5701,-0.794 -16.8352,-1.2397 -23.4552,-0.928 l -6.0042,0.2827 2e-4,-0.8623 c 2e-4,-1.0781 0.091,-1.0918 11.6791,-1.7612 19.4449,-1.1232 27.0866,-2.1593 33.9092,-4.5978 5.5937,-1.9993 8.1201,-4.0089 9.8298,-7.8192 1.1385,-2.5372 1.3158,-4.1843 0.6843,-6.3567 -0.6556,-2.2551 -2.4575,-4.3215 -5.0689,-5.813 -1.0176,-0.5812 -2.5446,-1.7499 -3.3934,-2.5972 -2.2877,-2.2836 -2.5455,-3.5025 -2.6484,-12.5218 l -0.085,-7.4568 -0.99,-1.4078 c -1.5469,-2.1998 -3.5594,-3.0701 -7.0385,-3.0436 -5.9289,0.045 -11.1048,2.1402 -15.5155,6.2801 -2.7981,2.6263 -12.8088,13.5338 -12.8088,13.9562 0,0.1297 0.281,0.3251 0.6246,0.4341 0.3435,0.109 1.2277,0.6352 1.965,1.1692 3.5371,2.5623 3.5545,7.4726 0.038,10.6497 -2.2541,2.0364 -4.5122,2.9195 -8.8619,3.4656 -2.1684,0.2723 -2.5041,0.4282 -4.6403,2.1541 -2.7405,2.2142 -6.5651,6.5254 -10.2766,11.5839 -2.8005,3.817 -3.5318,4.38 -5.6886,4.38 -1.9203,0 -2.6487,-0.5514 -5.9218,-4.483 -4.1611,-4.9983 -9.3077,-10.1347 -11.8581,-11.8348 -1.7677,-1.1783 -2.3212,-1.3698 -4.48897,-1.5531 -7.97238,-0.6739 -13.1854,-6.1017 -10.79938,-11.2442 0.66531,-1.4339 2.29829,-3.1082 3.7498,-3.8447 l 0.92047,-0.467 -7.17117,-7.0633 c -4.5187,-4.4508 -8.10477,-7.6863 -9.69524,-8.7474 -5.52707,-3.6876 -13.97187,-5.1299 -17.73352,-3.0289 -2.98106,1.665 -3.30274,3.1347 -2.44807,11.1848 0.61356,5.7789 0.50795,7.814 -0.52706,10.1571 -0.84823,1.9203 -1.88861,2.9949 -4.837,4.9965 -1.55113,1.053 -2.76001,2.1825 -3.39495,3.1719 -0.90751,1.4143 -0.97765,1.7331 -0.88092,4.004 0.0819,1.9228 0.31266,2.877 1.04548,4.3232 1.62505,3.2071 3.50292,5.0289 6.89597,6.6903 7.04205,3.4481 14.83977,4.6732 35.58961,5.5916 13.94375,0.6172 14.38095,0.6666 14.24625,1.6113 -0.099,0.6942 -0.1977,0.702 -11.44988,0.9086 -11.73231,0.2153 -16.41853,0.6235 -22.67671,1.9752 -10.16828,2.1961 -16.11563,5.6722 -19.9964,11.6876 -3.30096,5.1167 -2.95086,9.7267 1.03732,13.6586 2.45778,2.423 4.06286,3.0982 8.40835,3.537 7.17262,0.7241 11.98027,2.0647 15.49596,4.3207 2.26411,1.4528 5.24178,4.7687 6.55239,7.2964 1.06268,2.0497 1.26185,2.2396 3.52108,3.3567 4.57384,2.2616 8.45678,2.6264 12.37025,1.1621 z"
       id="path2862"
       style="fill:#ffffff" />
    <path
       d="m 1094.7823,1204.1042 c 0,-0.068 -0.259,-0.3273 -0.5757,-0.5757 -0.5218,-0.4092 -0.5334,-0.3976 -0.1242,0.1242 0.4298,0.548 0.6999,0.7223 0.6999,0.4515 z"
       id="path2860"
       style="fill:#000000" />
    <path
       d="m 1091.986,1196.0181 c 2.5332,-0.1926 5.3691,-0.4224 6.302,-0.5105 0.933,-0.088 5.7266,-0.166 10.6525,-0.1731 4.9259,-0.01 8.8937,-0.075 8.8173,-0.1517 -0.076,-0.076 -3.1674,-0.6609 -6.8691,-1.299 -16.4089,-2.8284 -34.8793,-4.3229 -42.4251,-3.4326 -2.0808,0.2455 -3.2652,0.4901 -2.6319,0.5436 5.7015,0.4815 13.9009,2.5051 18.1323,4.475 1.3361,0.6221 2.6513,1.0787 2.9227,1.0148 0.2714,-0.064 2.5661,-0.2738 5.0993,-0.4665 z"
       id="path2858"
       style="fill:#fff500;fill-opacity:1" />
    <path
       d="m 962.73087,1194.5805 c 3.05412,-1.0547 7.40889,-2.0625 11.97214,-2.7708 l 1.80941,-0.2808 -2.96086,-0.245 c -1.62847,-0.1348 -4.51531,-0.4789 -6.4152,-0.7647 -1.89988,-0.2859 -4.41661,-0.5028 -5.59273,-0.4821 -5.90896,0.1039 -22.08266,2.0819 -30.76005,3.762 l -3.94782,0.7644 11.51446,0.2363 c 6.33295,0.13 13.29097,0.4372 15.46227,0.6827 4.7561,0.5377 4.74643,0.5386 8.91838,-0.902 z"
       id="path2856"
       style="fill:#fff500;fill-opacity:1" />
    <path
       d="m 1022.7126,1189.9313 c 0.1464,-0.091 0.9145,-1.0738 1.7068,-2.1851 0.7924,-1.1113 1.8848,-2.5498 2.4277,-3.1967 0.5428,-0.6468 0.7648,-1.0414 0.4934,-0.8768 -0.2714,0.1646 0.1367,-0.3372 0.9068,-1.1151 0.7701,-0.7779 1.3165,-1.5497 1.2143,-1.7152 -0.1023,-0.1654 0.01,-0.3148 0.2447,-0.3318 0.4106,-0.03 3.1822,-2.9299 2.7997,-2.9299 -0.101,0 -0.4164,0.2327 -0.7007,0.517 -0.2945,0.2945 -0.517,0.3581 -0.517,0.1477 0,-0.2031 0.4822,-0.5707 1.0715,-0.8169 0.5893,-0.2463 1.5885,-1.0232 2.2206,-1.7266 0.6321,-0.7033 1.4177,-1.3816 1.7458,-1.5071 0.3607,-0.138 0.5024,-0.3918 0.3585,-0.6418 -0.131,-0.2275 -0.1153,-0.3022 0.035,-0.1661 0.15,0.1361 0.5594,-0.012 0.9097,-0.329 0.3504,-0.317 0.6585,-0.5299 0.6847,-0.473 0.026,0.057 0.2698,0.032 0.5412,-0.055 0.4662,-0.1499 2.1073,-0.3963 4.5338,-0.6807 0.5936,-0.07 1.2735,-0.2876 1.5106,-0.4844 0.2372,-0.1969 0.5287,-0.2606 0.6478,-0.1415 0.119,0.1191 0.2165,0.035 0.2165,-0.1868 0,-0.2217 0.1437,-0.3144 0.3193,-0.2058 0.4502,0.2782 2.3766,-0.7756 2.1344,-1.1677 -0.1099,-0.1777 -0.078,-0.2836 0.071,-0.2353 0.1492,0.048 0.6373,-0.17 1.0846,-0.4853 0.4474,-0.3152 0.6736,-0.5731 0.5026,-0.5731 -0.171,0 0.021,-0.2322 0.4257,-0.516 0.4052,-0.2838 0.6515,-0.6539 0.5473,-0.8225 -0.1042,-0.1686 -0.051,-0.3065 0.1179,-0.3065 0.5284,0 0.3498,-1.7635 -0.2833,-2.7963 -0.809,-1.3197 -1.5911,-1.9443 -3.4923,-2.7887 -2.887,-1.2822 -7.4749,-1.1454 -8.5831,0.256 -0.2261,0.286 -0.4112,0.4125 -0.4112,0.2811 0,-0.4824 -1.2916,0.471 -2.0157,1.4878 -0.4363,0.6128 -0.5482,0.9441 -0.2696,0.7988 0.2617,-0.1366 0.2199,-0.038 -0.093,0.2186 -0.4602,0.3777 -0.5466,0.885 -0.4519,2.6558 0.064,1.2039 0.2555,2.3742 0.4246,2.6006 0.1692,0.2264 0.28,0.5967 0.2463,0.8229 -0.034,0.2262 -0.08,0.642 -0.1025,0.9241 -0.023,0.2821 -0.1902,0.4208 -0.3724,0.3082 -0.1822,-0.1126 -0.4201,0.027 -0.5287,0.3095 -0.1085,0.2829 -0.4035,0.5144 -0.6556,0.5144 -0.252,0 -0.4583,0.1567 -0.4583,0.3484 0,0.1916 0.1709,0.2427 0.3798,0.1136 0.2372,-0.1466 0.2905,-0.09 0.1418,0.1505 -0.1309,0.2118 -0.3668,0.3056 -0.5241,0.2084 -0.1573,-0.097 -0.4387,0.085 -0.6252,0.4058 -0.1866,0.3205 -0.3437,0.4705 -0.3492,0.3334 -0.029,-0.7282 -7.7156,6.9907 -7.761,7.794 -0.034,0.5977 -2.4438,2.9919 -2.4876,2.4714 -0.043,-0.5097 -0.1288,-6.0594 -0.2277,-14.7236 -0.048,-4.1924 -0.1512,-5.3114 -0.4725,-5.1183 -0.3082,0.1852 -0.3042,0.115 0.016,-0.2803 0.2873,-0.3545 0.3142,-0.5972 0.082,-0.7405 -0.1897,-0.1173 -0.3427,-0.3895 -0.3399,-0.605 0,-0.2355 0.1323,-0.1949 0.3239,0.1016 0.2606,0.4033 0.3198,0.3651 0.324,-0.2092 0,-0.4772 0.3745,-0.8781 1.1564,-1.2492 0.6333,-0.3005 1.1515,-0.6222 1.1515,-0.7148 0,-0.093 -0.1851,-0.062 -0.4112,0.068 -0.2262,0.1302 -0.2964,0.1105 -0.1561,-0.044 0.1404,-0.1543 0.5525,-0.326 0.9157,-0.3814 1.0131,-0.1546 2.3037,-1.1152 2.0634,-1.5357 -0.1179,-0.2064 -0.097,-0.2695 0.046,-0.1401 0.3828,0.3456 1.4899,-0.3411 1.4899,-0.9241 0,-0.2758 0.148,-0.4099 0.329,-0.298 0.2888,0.1785 0.464,-0.2258 0.3784,-0.8732 -0.016,-0.1183 0.226,-0.4144 0.5368,-0.658 0.51,-0.3995 0.5211,-0.3865 0.1137,0.133 -0.2483,0.3166 -0.3572,0.5757 -0.2419,0.5757 0.4853,0 1.4102,-2.0496 1.2658,-2.805 -0.1836,-0.9604 -2.0436,-2.68 -3.6041,-3.332 -2.1734,-0.9081 -5.5714,-1.3261 -9.5377,-1.1731 -2.1339,0.082 -3.9538,0.2433 -4.0443,0.3578 -0.091,0.1145 -0.7566,0.245 -1.4803,0.2901 -0.7237,0.045 -1.3625,0.2217 -1.4194,0.3927 -0.057,0.171 -0.3404,0.22 -0.6298,0.1089 -0.3472,-0.1332 -0.4461,-0.072 -0.2907,0.1792 0.1539,0.249 0.059,0.3132 -0.275,0.1852 -0.2808,-0.1077 -0.5106,-0.032 -0.5106,0.1683 0,0.2003 -0.1551,0.3642 -0.3448,0.3642 -0.5693,0 -1.9365,1.7585 -1.9477,2.5052 -0.01,0.6753 0.6688,1.7264 2.2047,3.4131 0.4102,0.4505 0.7458,0.7038 0.7458,0.5629 0,-0.1409 0.3331,0.063 0.7402,0.4535 1.1315,1.0848 3.975,2.7774 4.4743,2.6633 0.2797,-0.064 0.3511,0.049 0.1928,0.3054 -0.1769,0.2862 -0.084,0.3426 0.313,0.1903 0.3105,-0.1192 0.4819,-0.083 0.3809,0.08 -0.101,0.1635 -0.053,0.3468 0.1074,0.4075 0.1601,0.061 0.5346,4.2556 0.8322,9.3219 0.7675,13.0658 0.7662,12.9999 0.2622,13.61 -0.2437,0.295 -0.3469,0.3472 -0.2292,0.116 0.124,-0.2436 -0.2261,-0.8314 -0.8329,-1.3982 -0.5757,-0.5378 -0.9389,-0.9778 -0.8072,-0.9778 0.1318,0 0.057,-0.2205 -0.167,-0.4899 -0.2236,-0.2694 -0.5607,-0.3946 -0.749,-0.2781 -0.199,0.1229 -0.2442,0.052 -0.1078,-0.1681 0.129,-0.2089 0.078,-0.3799 -0.1137,-0.3799 -0.1916,0 -0.3484,-0.1337 -0.3484,-0.2972 0,-0.1635 -0.472,-0.8304 -1.0488,-1.482 -0.7785,-0.8792 -1.1258,-1.0782 -1.347,-0.7719 -0.2127,0.2945 -0.2485,0.2566 -0.1248,-0.1321 0.2,-0.6287 -0.7996,-1.6669 -1.4683,-1.525 -0.2488,0.053 -0.4163,-0.086 -0.3722,-0.3091 0.044,-0.2227 -0.326,-0.6648 -0.8225,-0.9824 -0.4964,-0.3176 -1.0987,-0.8015 -1.3383,-1.0754 -0.381,-0.4356 -0.4071,-0.4362 -0.2085,0 0.1249,0.2715 -0.3085,-0.07 -0.9632,-0.7592 -0.7282,-0.7664 -1.3497,-1.161 -1.6009,-1.0164 -0.2258,0.1299 -0.309,0.1232 -0.1848,-0.015 0.1242,-0.1381 -0.1671,-0.589 -0.6473,-1.002 -0.7226,-0.6216 -0.8022,-0.8363 -0.462,-1.2462 0.226,-0.2723 0.4829,-1.0567 0.5708,-1.7431 0.1982,-1.5481 -0.7057,-4.8667 -1.2362,-4.5389 -0.2394,0.148 -0.3021,0.047 -0.1757,-0.2823 0.2137,-0.5566 -1.1316,-2.0578 -1.5074,-1.6821 -0.1222,0.1223 -0.2223,0.068 -0.2223,-0.1215 0,-0.7609 -4.15095,-1.8574 -6.12077,-1.6169 -0.8857,0.1082 -1.86943,0.208 -2.18607,0.2219 -0.31665,0.014 -0.57573,0.1728 -0.57573,0.3531 0,0.1804 -0.12995,0.2477 -0.28878,0.1495 -0.48042,-0.2969 -3.35844,2.099 -3.25714,2.7115 0.0504,0.3044 -0.0864,0.5188 -0.30392,0.4765 -0.26996,-0.053 -0.34797,0.2943 -0.24575,1.0927 0.20443,1.5966 0.7486,2.531 1.34153,2.3034 0.2801,-0.1074 0.39798,-0.045 0.27872,0.1481 -0.30017,0.4857 1.64183,2.1809 2.43175,2.1227 0.36909,-0.027 0.59783,0.069 0.50835,0.2138 -0.0895,0.1448 0.21246,0.3574 0.67096,0.4725 0.4646,0.1166 0.73933,0.3618 0.6206,0.5539 -0.11718,0.1896 -0.0579,0.2488 0.13173,0.1316 0.18962,-0.1172 0.98975,0.017 1.77799,0.2983 0.78828,0.2812 2.51874,0.6354 3.8455,0.787 1.98043,0.2262 2.64343,0.4614 3.70383,1.3135 0.7104,0.5709 1.442,0.9449 1.6259,0.8313 0.184,-0.1137 0.2937,-0.076 0.244,0.085 -0.1236,0.3986 5.3975,5.6812 5.7258,5.4783 0.1444,-0.089 0.1852,0.039 0.091,0.2854 -0.1976,0.515 1.9599,2.6181 2.3376,2.2787 0.1376,-0.1236 0.1491,-0.049 0.026,0.1668 -0.2064,0.3599 0.7869,1.7172 2.675,3.6551 0.4106,0.4215 0.982,1.1256 1.2697,1.5646 0.2877,0.4391 0.6549,0.7168 0.816,0.6172 0.1612,-0.1 0.293,0.037 0.293,0.3044 0,0.9242 3.3908,1.4557 4.5837,0.7185 z"
       id="path2854"
       style="fill:#0093dd;fill-opacity:1" />
    <path
       d="m 1007.7524,1155.1879 c -0.1193,-0.193 -0.1463,-0.4214 -0.06,-0.5077 0.086,-0.086 0.2444,0.072 0.3516,0.3509 0.2224,0.5797 0.033,0.6817 -0.2916,0.1568 z"
       id="path2852"
       style="fill:#000000" />
    <path
       d="m 1029.8291,1152.6743 c -0.1786,-0.4688 -0.1408,-0.5066 0.1841,-0.1841 0.2249,0.2231 0.326,0.4886 0.2247,0.5899 -0.1013,0.1013 -0.2853,-0.081 -0.4088,-0.4058 z"
       id="path2850"
       style="fill:#000000" />
    <path
       d="m 1029.9887,1174.2909 4.2045,-4.1123 -0.012,-2.6424 c -0.025,-5.5187 2.0381,-7.927 8.1826,-9.5512 1.2065,-0.3189 5.8064,-10.9624 7.2278,-16.7238 0.7485,-3.0342 0.9009,-4.3757 0.9008,-7.9289 -1e-4,-4.9029 -0.5333,-6.8995 -2.6728,-10.0089 -1.7611,-2.5595 -5.8209,-6.7782 -6.988,-7.2617 -0.6402,-0.2652 -1.9721,-0.361 -3.7329,-0.2686 -2.6427,0.1387 -2.8619,0.2144 -6.3301,2.1866 -5.4557,3.1025 -9.9582,4.2517 -15.2714,3.898 -3.6645,-0.244 -6.0795,-1.1235 -9.7736,-3.5594 -2.7641,-1.8226 -3.244,-2.0223 -5.4559,-2.2703 -2.60282,-0.2919 -4.03775,-0.093 -5.76081,0.8004 -2.18419,1.1319 -5.65689,5.2977 -7.25111,8.6984 -0.80783,1.7231 -0.87119,2.1741 -0.83964,5.9761 0.0276,3.3331 0.19729,4.7139 0.8952,7.2874 1.45809,5.3766 4.18702,11.5581 7.51723,17.0277 1.43296,2.3536 1.5456,2.4533 3.263,2.8883 2.72643,0.6905 4.51223,1.9613 5.69123,4.0501 0.8976,1.5902 1.0288,2.1482 1.0827,4.6058 l 0.061,2.7964 3.0645,2.4568 c 1.6855,1.3512 4.229,3.6459 5.6522,5.0992 l 2.5877,2.6425 -0.2101,-5.0993 c -0.1155,-2.8046 -0.3034,-6.5494 -0.4174,-8.3218 l -0.2074,-3.2225 -2.2088,-1.2901 c -3.2997,-1.927 -5.7528,-4.0591 -6.5389,-5.6829 -1.8967,-3.9182 0.3968,-7.6389 5.5587,-9.0177 2.7135,-0.7248 10.7965,-0.8117 13.4884,-0.1451 7.1457,1.7697 8.5544,7.3702 3.0684,12.1993 -0.8513,0.7493 -2.4081,1.885 -3.4596,2.5237 l -1.9117,1.1613 0,2.2262 c 0,1.2244 0.098,5.16 0.2183,8.7457 l 0.2184,6.5196 0.9773,-1.2852 c 0.5376,-0.7068 2.8694,-3.1357 5.1819,-5.3974 z"
       id="path2848"
       style="fill:#ffffff" />
    <path
       d="m 994.56689,1158.0884 c -0.13363,-0.2262 -0.60237,-0.9886 -1.04159,-1.6942 -1.79813,-2.8887 -4.99277,-9.7226 -5.97736,-12.7867 -0.29996,-0.9335 -1.18289,-1.9129 -3.57849,-3.9696 -8.6037,-7.3864 -20.22725,-16.03 -28.84102,-21.447 -1.84764,-1.1619 -1.63696,-0.8962 3.29327,4.1537 5.42633,5.558 9.72021,10.2109 14.70129,15.9304 1.5737,1.807 3.86837,4.129 5.09926,5.16 1.2309,1.031 5.19747,4.8424 8.81458,8.4696 3.73454,3.745 6.83515,6.595 7.17483,6.595 0.38886,0 0.51318,-0.1439 0.35523,-0.4112 z"
       id="path2846"
       style="fill:#fff500;fill-opacity:1" />
    <path
       d="m 1049.1928,1154.133 c 1.9764,-2.2124 4.7893,-5.3293 6.2507,-6.9265 2.4329,-2.6591 2.9074,-3.4222 5.6249,-9.0471 1.6323,-3.3787 4.3123,-8.7338 5.9556,-11.9003 2.5215,-4.8586 4.0835,-7.6344 9.2567,-16.4492 0.7354,-1.2531 -7.2239,6.9204 -10.9005,11.1937 -3.417,3.9718 -9.7249,11.9698 -12.6766,16.0734 -1.3851,1.9257 -1.9082,3.0313 -2.5253,5.3369 -1.0404,3.8877 -2.8635,8.7066 -4.6206,12.2136 -0.7914,1.5796 -1.439,3.023 -1.439,3.2076 0,0.1845 0.3331,0.3321 0.7403,0.3279 0.5267,-0.01 1.7767,-1.1678 4.3338,-4.03 z"
       id="path2844"
       style="fill:#fff500;fill-opacity:1" />
    <path
       d="m 1111.5606,1484.1942 c 0,-0.1809 0.1568,-0.3289 0.3484,-0.3289 0.1916,0 0.2569,0.148 0.145,0.3289 -0.1118,0.181 -0.2686,0.329 -0.3484,0.329 -0.08,0 -0.145,-0.148 -0.145,-0.329 z"
       id="path2840"
       style="fill:#000000" />
    <path
       d="m 1082.6099,1449.9799 c 0,-0.181 0.1568,-0.329 0.3484,-0.329 0.1917,0 0.2569,0.148 0.1451,0.329 -0.1118,0.1809 -0.2686,0.3289 -0.3484,0.3289 -0.08,0 -0.1451,-0.148 -0.1451,-0.3289 z"
       id="path2838"
       style="fill:#000000" />
    <path
       d="m 960.37866,1448.3131 c -0.11929,-0.193 -0.1463,-0.4215 -0.0601,-0.5077 0.0862,-0.086 0.24447,0.072 0.35162,0.3509 0.22246,0.5797 0.0329,0.6816 -0.29155,0.1568 z"
       id="path2836"
       style="fill:#000000" />
    <path
       d="m 1078.1686,1440.1103 c 0.1119,-0.1809 0.2686,-0.329 0.3484,-0.329 0.08,0 0.1451,0.1481 0.1451,0.329 0,0.181 -0.1568,0.329 -0.3484,0.329 -0.1916,0 -0.2569,-0.148 -0.1451,-0.329 z"
       id="path2834"
       style="fill:#000000" />
    <path
       d="m 1108.7507,1263.0948 c -0.1193,-0.193 -0.1463,-0.4214 -0.06,-0.5077 0.086,-0.086 0.2445,0.072 0.3516,0.3509 0.2225,0.5797 0.033,0.6817 -0.2915,0.1568 z"
       id="path2830"
       style="fill:#000000" />
  </g>
</svg>
