<?xml version="1.0" encoding="UTF-8" standalone="no"?>
<!-- Created with Inkscape (http://www.inkscape.org/) -->
<svg
   xmlns:svg="http://www.w3.org/2000/svg"
   xmlns="http://www.w3.org/2000/svg"
   version="1.0"
   width="743.14874"
   height="889.01312"
   id="svg2384">
  <defs
     id="defs2386" />
  <g
     transform="translate(-2.0306576,2.7513295)"
     id="layer1">
    <path
       d="M 4.5306574,1.497484 L 742.67941,-0.25132976 L 742.67941,533.13785 C 719.63579,993.09522 35.889568,1008.7093 4.5306574,531.38902 L 4.5306574,1.497484 z"
       id="path3450"
       style="fill:#eb380d;fill-opacity:1;fill-rule:evenodd;stroke:#000000;stroke-width:4.99999952;stroke-linecap:butt;stroke-linejoin:miter;stroke-miterlimit:4;stroke-dasharray:none;stroke-opacity:1" />
    <path
       d="M 382.41885,465.07612 C 371.62152,478.99848 359.472,491.74913 345.33403,502.4625 C 314.67522,525.81371 278.33463,530.46597 240.87844,529.34359 C 214.14732,528.8978 189.28906,521.00497 172.58055,498.75474 C 155.7448,476.62222 163.58475,451.54688 189.57776,440.04887 C 210.23241,432.23471 241.10896,443.28378 267.76493,470.32875 C 279.64328,482.25062 289.40115,497.17497 295.8876,512.96775 C 297.93921,519.12136 301.08435,524.7902 302.68649,531.19747 C 309.77225,566.99819 311.50637,605.04402 303.30457,640.57576"
       id="path3448"
       style="fill:none;fill-rule:evenodd;stroke:#000000;stroke-width:9.99999905;stroke-linecap:butt;stroke-linejoin:round;stroke-miterlimit:4;stroke-dasharray:none;stroke-opacity:1" />
    <path
       d="M 331.25,692.20593 A 14.160156,14.648438 0 1 1 302.92969,692.20593 A 14.160156,14.648438 0 1 1 331.25,692.20593 z"
       transform="matrix(1.582286,0,0,1.5819688,-200.12195,-449.29389)"
       id="path3365"
       style="opacity:1;fill:#f6d107;fill-opacity:1;fill-rule:nonzero;stroke:#000000;stroke-width:1.89618123;stroke-miterlimit:4;stroke-dasharray:none;stroke-opacity:1" />
    <path
       d="M 313.02496,645.19957 C 313.02496,651.58761 307.83954,656.7721 301.45035,656.7721 C 295.06114,656.7721 289.87568,651.58761 289.87568,645.19957 C 289.87568,638.81159 295.06114,633.62711 301.45035,633.62711 C 307.81391,633.62711 312.46206,638.24183 313.02475,645.64922"
       style="fill:#000000;fill-opacity:1;fill-rule:nonzero;stroke:#000000;stroke-width:3.00000048;stroke-miterlimit:4;stroke-opacity:1" />
    <path
       d="M 302.51859,646.23272 C 354.65343,654.21414 408.1324,632.32138 426.60612,606.92831 L 518.89841,675.09428 C 469.90194,773.99832 378.92732,807.77452 313.48544,810.55227 L 302.51859,646.23272 z"
       id="rect3344"
       style="opacity:1;fill:#000000;fill-opacity:1;fill-rule:nonzero;stroke:#000000;stroke-width:3.00000024;stroke-miterlimit:4;stroke-opacity:1" />
    <path
       d="M 74.62187,479.6462 L 510.34184,214.716 L 565.84315,229.80534 L 722.48812,140.60738 L 644.1994,103.23543 L 645.99808,15.903309 L 493.95113,116.02624 L 481.2253,168.85269 L 47.554165,433.10005 C 38.242536,434.17497 37.834052,434.41797 21.260722,431.50811 C 25.241102,441.02933 28.438297,445.31161 38.478874,448.62077 C 40.66702,463.33646 45.008983,468.86785 56.059653,477.75923 C 56.707882,487.04656 59.297977,493.40135 64.377668,500.5394 C 67.197261,492.44024 69.072775,484.10676 74.62187,479.6462 z"
       id="path3282"
       style="opacity:1;fill:#ffffff;fill-opacity:1;fill-rule:evenodd;stroke:#000000;stroke-width:3.00000024;stroke-linecap:butt;stroke-linejoin:miter;stroke-miterlimit:4;stroke-dasharray:none;stroke-opacity:1" />
    <path
       d="M 74.422611,77.083693 L 510.1426,342.0139 L 565.6439,326.92455 L 722.28886,416.12252 L 644.00014,453.49446 L 645.79883,540.82658 L 493.75186,440.70367 L 481.02604,387.8772 L 47.354906,123.62984 C 38.043278,122.55492 37.634805,122.31192 21.061463,125.22179 C 25.041844,115.70057 28.239039,111.41829 38.279616,108.10912 C 40.467762,93.393436 44.809725,87.862046 55.860394,78.97068 C 56.508624,69.683353 59.098717,63.328546 64.178409,56.1905 C 66.998003,64.289654 68.873528,72.623136 74.422611,77.083693 z"
       id="path3260"
       style="opacity:1;fill:#ffffff;fill-opacity:1;fill-rule:evenodd;stroke:#000000;stroke-width:3.00000024;stroke-linecap:butt;stroke-linejoin:miter;stroke-miterlimit:4;stroke-dasharray:none;stroke-opacity:1" />
    <path
       d="M 518.06775,118.20573 L 505.69926,186.98193 L 573.2524,210.0039 L 519.92302,177.08911 L 518.06775,118.20573 z"
       id="path3284"
       style="fill:#000000;fill-rule:evenodd;stroke:#000000;stroke-width:0.99999988px;stroke-linecap:butt;stroke-linejoin:miter;stroke-opacity:1" />
    <path
       d="M 517.86849,438.52417 L 505.50001,369.74798 L 573.05314,346.72601 L 519.72376,379.64078 L 517.86849,438.52417 z"
       id="path3262"
       style="fill:#000000;fill-rule:evenodd;stroke:#000000;stroke-width:0.99999988px;stroke-linecap:butt;stroke-linejoin:miter;stroke-opacity:1" />
    <path
       d="M 539.1084,104.64194 L 530.45044,173.41814 L 596.14831,198.91331 L 544.6742,163.52533 L 539.1084,104.64194 z"
       id="path3286"
       style="fill:#000000;fill-rule:evenodd;stroke:#000000;stroke-width:0.99999988px;stroke-linecap:butt;stroke-linejoin:miter;stroke-opacity:1" />
    <path
       d="M 538.90914,452.08795 L 530.25119,383.31175 L 595.94905,357.8166 L 544.47495,393.20457 L 538.90914,452.08795 z"
       id="path3264"
       style="fill:#000000;fill-rule:evenodd;stroke:#000000;stroke-width:0.99999988px;stroke-linecap:butt;stroke-linejoin:miter;stroke-opacity:1" />
    <path
       d="M 561.55539,90.020059 L 552.89744,159.41455 L 620.45057,186.14632 L 567.1212,149.52175 L 561.55539,90.020059 z"
       id="path3288"
       style="fill:#000000;fill-rule:evenodd;stroke:#000000;stroke-width:0.99999988px;stroke-linecap:butt;stroke-linejoin:miter;stroke-opacity:1" />
    <path
       d="M 561.35613,466.70984 L 552.69818,397.31534 L 620.25132,370.58358 L 566.92194,407.20816 L 561.35613,466.70984 z"
       id="path3266"
       style="fill:#000000;fill-rule:evenodd;stroke:#000000;stroke-width:0.99999988px;stroke-linecap:butt;stroke-linejoin:miter;stroke-opacity:1" />
    <path
       d="M 586.25871,71.760786 L 580.69289,140.53699 L 645.08145,171.59685 L 594.91664,130.64418 L 586.25871,71.760786 z"
       id="path3290"
       style="fill:#000000;fill-rule:evenodd;stroke:#000000;stroke-width:0.99999988px;stroke-linecap:butt;stroke-linejoin:miter;stroke-opacity:1" />
    <path
       d="M 586.05946,484.96912 L 580.49363,416.19291 L 644.88219,385.13304 L 594.71739,426.08572 L 586.05946,484.96912 z"
       id="path3268"
       style="fill:#000000;fill-rule:evenodd;stroke:#000000;stroke-width:0.99999988px;stroke-linecap:butt;stroke-linejoin:miter;stroke-opacity:1" />
    <path
       d="M 616.08781,51.902522 L 609.28511,125.62513 L 677.45669,154.2118 L 623.50888,115.73233 L 616.08781,51.902522 z"
       id="path3292"
       style="fill:#000000;fill-rule:evenodd;stroke:#000000;stroke-width:0.99999988px;stroke-linecap:butt;stroke-linejoin:miter;stroke-opacity:1" />
    <path
       d="M 615.88855,504.82737 L 609.08588,431.10476 L 677.25743,402.51811 L 623.30963,440.99758 L 615.88855,504.82737 z"
       id="path3270"
       style="fill:#000000;fill-rule:evenodd;stroke:#000000;stroke-width:0.99999988px;stroke-linecap:butt;stroke-linejoin:miter;stroke-opacity:1" />
    <path
       d="M 353.90625,723.06531 A 8.984375,9.1251011 0 1 1 353.90607,723.00779"
       transform="matrix(1.8574661,0,0,1.8832962,-288.66731,-665.17643)"
       id="path3314"
       style="opacity:1;fill:#f6d107;fill-opacity:1;fill-rule:nonzero;stroke:#000000;stroke-width:0;stroke-miterlimit:4;stroke-dasharray:none;stroke-opacity:1" />
    <path
       d="M 462.62175,639.70857 C 462.62175,646.5308 456.69481,652.06768 449.39196,652.06768 C 442.08913,652.06768 436.16219,646.5308 436.16219,639.70857 C 436.16219,632.88631 442.08913,627.34943 449.39196,627.34943 C 456.56159,627.34943 462.41093,632.65943 462.61632,639.35449 L 462.62175,639.70857 z"
       id="path3320"
       style="fill:#f6d107;fill-opacity:1;fill-rule:nonzero;stroke:#000000;stroke-width:0;stroke-miterlimit:4;stroke-opacity:1" />
    <path
       d="M 485.03128,655.04296 C 485.03128,662.54742 478.42529,668.63801 470.28577,668.63801 C 462.14625,668.63801 455.54025,662.54742 455.54025,655.04296 C 455.54025,647.5385 462.14625,641.44791 470.28577,641.44791 C 478.2768,641.44791 484.79629,647.28893 485.02523,654.65347 L 485.03128,655.04296 z"
       id="path3322"
       style="fill:#f6d107;fill-opacity:1;fill-rule:nonzero;stroke:#000000;stroke-width:0;stroke-miterlimit:4;stroke-opacity:1" />
    <path
       d="M 442.79871,625.42841 C 442.79871,632.25064 436.73333,637.78754 429.25991,637.78754 C 421.78647,637.78754 415.72107,632.25064 415.72107,625.42841 C 415.72107,618.60617 421.78647,613.06927 429.25991,613.06927 C 436.59701,613.06927 442.58295,618.37928 442.79317,625.07434 L 442.79871,625.42841 z"
       id="path3326"
       style="fill:#f6d107;fill-opacity:1;fill-rule:nonzero;stroke:#000000;stroke-width:0;stroke-miterlimit:4;stroke-opacity:1" />
    <path
       d="M 504.31669,673.59235 C 504.31669,681.09682 497.6711,687.18739 489.48276,687.18739 C 481.29443,687.18739 474.64884,681.09682 474.64884,673.59235 C 474.64884,666.08788 481.29443,659.99731 489.48276,659.99731 C 497.52172,659.99731 504.0803,665.83831 504.3106,673.20287 L 504.31669,673.59235 z"
       id="path3328"
       style="fill:#f6d107;fill-opacity:1;fill-rule:nonzero;stroke:#000000;stroke-width:0;stroke-miterlimit:4;stroke-opacity:1" />
    <path
       d="M 369.00215,727.37394 C 369.00215,735.90173 361.52586,742.82284 352.314,742.82284 C 343.10211,742.82284 335.62582,735.90173 335.62582,727.37394 C 335.62582,718.84613 343.10211,711.92501 352.314,711.92501 C 361.47605,711.92501 368.92372,718.76133 369.00156,727.2427 L 369.00215,727.37394 z"
       id="path3330"
       style="fill:#f6d107;fill-opacity:1;fill-rule:nonzero;stroke:#000000;stroke-width:0;stroke-miterlimit:4;stroke-opacity:1" />
    <path
       d="M 366.43408,758.12285 C 366.43408,767.7289 359.24948,775.52515 350.39704,775.52515 C 341.54459,775.52515 334.35999,767.7289 334.35999,758.12285 C 334.35999,748.51676 341.54459,740.72052 350.39704,740.72052 C 359.20247,740.72052 366.36005,748.42294 366.43353,757.97763 L 366.43408,758.12285 z"
       id="path3332"
       style="fill:#f6d107;fill-opacity:1;fill-rule:nonzero;stroke:#000000;stroke-width:0;stroke-miterlimit:4;stroke-opacity:1" />
    <path
       d="M 353.90625,723.06531 C 353.90625,727.59343 349.88125,731.26843 344.92188,731.26843 C 339.9625,731.26843 335.9375,727.59343 335.9375,723.06531 C 335.9375,718.53718 335.66599,713.06678 344.92188,713.80021 C 349.77196,714.18113 353.75752,718.38087 353.90227,722.82126"
       transform="matrix(1.8574661,0,0,1.8832962,-297.2874,-695.52513)"
       id="path3334"
       style="fill:#f6d107;fill-opacity:1;fill-rule:nonzero;stroke:#000000;stroke-width:0;stroke-miterlimit:4;stroke-opacity:1" />
    <path
       d="M 361.16925,788.05174 C 359.4329,796.57953 353.69295,803.54724 344.48111,805.50064 C 343.20795,805.77062 333.44809,807.74998 332.2321,807.48867 C 324.8412,805.90041 327.79292,795.37471 327.79292,788.05174 C 327.79292,779.52394 335.26922,772.60282 344.48111,772.60282 C 353.64803,772.60282 361.09857,779.44744 361.16878,787.93342 L 361.16925,788.05174 z"
       id="path3336"
       style="fill:#f6d107;fill-opacity:1;fill-rule:nonzero;stroke:#000000;stroke-width:0;stroke-miterlimit:4;stroke-opacity:1" />
    <path
       d="M 247.82595,639.35407 C 271.49122,644.06392 312.18758,648.64506 331.91524,648.11636 C 369.03717,692.4854 348.95825,772.16967 335.82796,808.35096 C 296.69715,816.51891 257.29111,810.24312 221.4089,802.1714 L 247.82595,639.35407 z"
       id="rect3338"
       style="fill:#f6d107;fill-opacity:1;fill-rule:nonzero;stroke:#000000;stroke-width:3.00000024;stroke-miterlimit:4;stroke-opacity:1" />
    <path
       d="M 310.9375,732.44031 C 310.9375,762.41218 297.9875,786.73718 282.03125,786.73718 C 247.08983,788.00224 245.74593,769.94461 253.125,732.44031 C 256.79714,696.93534 245.28355,677.02871 290.06626,681.08957 C 305.22161,685.19545 310.9375,702.46843 310.9375,732.44031 z"
       transform="matrix(1.5730781,0.1679563,-0.1704526,1.550039,-65.73144,-461.01592)"
       id="path3308"
       style="fill:#f6d107;fill-opacity:1;fill-rule:nonzero;stroke:#000000;stroke-width:1.91002977;stroke-miterlimit:4;stroke-opacity:1" />
    <path
       d="M 313.62083,734.6389 C 313.62083,764.61077 297.9875,786.73718 282.03125,786.73718 C 266.075,786.73718 249.49469,762.16942 253.125,732.44031 C 256.83403,702.06653 272.91663,684.87013 288.87288,684.87013 C 304.82913,684.87013 313.62083,704.66702 313.62083,734.6389 z"
       transform="matrix(1.6359255,0.174112,-0.1772624,1.6068484,-102.54893,-511.60392)"
       id="path3294"
       style="fill:#f6d107;fill-opacity:1;fill-rule:nonzero;stroke:#000000;stroke-width:1.83957434;stroke-miterlimit:4;stroke-opacity:1" />
    <path
       d="M 285.28481,731.00057 C 285.28481,750.83807 274.39021,768.35426 266.40625,766.42468 C 257.64555,764.30737 251.33077,741.21285 252.54606,731.46931 C 253.01825,722.82669 261.76646,699.19707 269.96021,699.19707 C 279.27806,698.43114 285.28481,711.16307 285.28481,731.00057 z"
       transform="matrix(2.0144888,0.2458157,-0.24948,1.9637639,-129.78274,-786.03931)"
       id="path3310"
       style="fill:#000000;fill-opacity:1;fill-rule:nonzero;stroke:#000000;stroke-width:1.49676561;stroke-miterlimit:4;stroke-opacity:1" />
    <path
       d="M 498.71806,705.1861 C 493.24595,702.19881 491.8191,700.51647 491.8191,694.64697 C 491.8191,687.14251 498.4647,681.05193 506.65303,681.05193 C 510.23482,681.05193 510.35816,679.04755 512.92338,680.98475 C 511.09144,690.09117 500.13072,702.98166 498.71806,705.1861 z"
       id="path3354"
       style="fill:#f6d107;fill-opacity:1;fill-rule:nonzero;stroke:#000000;stroke-width:0;stroke-miterlimit:4;stroke-opacity:1" />
    <path
       d="M 413.94095,473.41853 C 435.18322,503.67406 443.86803,534.42347 439.28227,561.78631 L 533.23048,565.80302 C 527.01852,516.12306 506.09951,474.64962 453.86609,429.88575 C 452.88074,444.78108 437.14779,460.16894 413.94095,473.41853 z"
       id="path3442"
       style="fill:#000000;fill-rule:evenodd;stroke:#000000;stroke-width:0.99999988px;stroke-linecap:butt;stroke-linejoin:miter;stroke-opacity:1" />
    <path
       d="M 433.09456,630.97546 A 6.9226871,6.9335938 0 1 1 433.09442,630.93176"
       transform="matrix(1.8186495,0,0,1.6265312,-299.90462,-473.93882)"
       id="path3410"
       style="opacity:1;fill:#f6d107;fill-opacity:1;fill-rule:nonzero;stroke:#000000;stroke-width:0;stroke-miterlimit:4;stroke-dasharray:none;stroke-opacity:1" />
    <path
       d="M 450.79387,632.44031 A 7.2391791,6.8359375 0 1 1 450.79372,632.39722"
       transform="matrix(-1.6980078,-0.4449915,0.4105277,-1.5664997,990.98766,1742.2106)"
       id="path3412"
       style="opacity:1;fill:#f6d107;fill-opacity:1;fill-rule:nonzero;stroke:#000000;stroke-width:0;stroke-miterlimit:4;stroke-dasharray:none;stroke-opacity:1" />
    <path
       d="M 528.36603,556.77636 C 532.44696,577.65273 525.31563,570.48141 519.52446,570.93025 C 513.73326,571.37909 507.87769,564.77931 507.38347,558.40259 C 506.88925,552.02586 511.18823,546.48627 516.97943,546.03743 C 522.74736,545.59039 527.83158,550.35536 528.36018,556.70355"
       id="path3414"
       style="fill:#f6d107;fill-opacity:1;fill-rule:nonzero;stroke:#000000;stroke-width:0;stroke-miterlimit:4;stroke-opacity:1" />
    <path
       d="M 417.88586,632.63562 A 4.7022614,5.2734375 0 1 1 417.88576,632.60238"
       transform="matrix(2.4863473,0,0,2.1385875,-573.21004,-798.49538)"
       id="path3416"
       style="opacity:1;fill:#f6d107;fill-opacity:1;fill-rule:nonzero;stroke:#000000;stroke-width:0;stroke-miterlimit:4;stroke-dasharray:none;stroke-opacity:1" />
    <path
       d="M 440.9235,557.11475 C 473.95407,550.35379 501.42377,556.43559 532.14254,565.85397 C 539.55968,624.89358 529.27332,662.48548 506.74104,696.30363 C 481.17366,654.69529 450.40279,634.95126 417.974,616.20971 C 439.0752,595.81245 438.9218,575.75842 440.9235,557.11475 z"
       id="rect3341"
       style="fill:#f6d107;fill-opacity:1;fill-rule:nonzero;stroke:#000000;stroke-width:3.00000024;stroke-miterlimit:4;stroke-opacity:1" />
    <path
       d="M 364.49454,399.88171 C 365.10753,399.70002 366.14624,400.60615 366.96686,401.4266"
       id="path3426"
       style="fill:none;fill-rule:evenodd;stroke:#000000;stroke-width:0.99999988px;stroke-linecap:butt;stroke-linejoin:miter;stroke-opacity:1" />
    <path
       d="M 415.23438,574.92078 A 10.253906,9.2773438 0 1 1 394.72656,574.92078 A 10.253906,9.2773438 0 1 1 415.23438,574.92078 z"
       transform="matrix(1.3261063,0,0,1.482055,-96.911939,-391.54238)"
       id="path3432"
       style="opacity:1;fill:#f6d107;fill-opacity:1;fill-rule:nonzero;stroke:#000000;stroke-width:0;stroke-miterlimit:4;stroke-dasharray:none;stroke-opacity:1" />
    <path
       d="M 432.9287,478.18308 C 432.9287,482.43944 430.16497,490.21276 428.0923,490.43216 C 422.01249,479.42321 414.28553,469.52589 411.22039,462.94096 C 413.54634,461.5343 414.50245,462.48906 417.40792,462.48906 C 425.97539,462.48906 432.9287,469.51997 432.9287,478.18308 z"
       id="path3436"
       style="fill:#f6d107;fill-opacity:1;fill-rule:nonzero;stroke:#000000;stroke-width:0;stroke-miterlimit:4;stroke-opacity:1" />
    <path
       d="M 470.70855,448.87363 C 468.27281,452.5856 464.10243,455.03434 459.36988,455.03434 C 451.86391,455.03434 443.93042,451.94402 443.93042,444.35429 C 443.93042,440.11281 447.67462,433.24843 450.66324,430.72562 C 455.59205,434.73839 471.51933,449.19603 470.70855,448.87363 z"
       id="path3438"
       style="fill:#f6d107;fill-opacity:1;fill-rule:nonzero;stroke:#000000;stroke-width:0;stroke-miterlimit:4;stroke-opacity:1" />
    <path
       d="M 390.03906,568.37781 A 13.183594,13.085938 0 1 1 363.67188,568.37781 A 13.183594,13.085938 0 1 1 390.03906,568.37781 z"
       transform="matrix(1.6766788,0,0,1.6764148,-235.61456,-500.57499)"
       id="path3446"
       style="opacity:1;fill:#f6d107;fill-opacity:1;fill-rule:nonzero;stroke:#000000;stroke-width:1.78939235;stroke-miterlimit:4;stroke-dasharray:none;stroke-opacity:1" />
    <path
       d="M 387.03487,565.35046 A 8.6169014,8.696207 0 1 1 387.0347,565.29565"
       transform="matrix(1.3555922,0,0,1.3553205,-117.68978,-313.1735)"
       id="path3444"
       style="opacity:1;fill:#000000;fill-opacity:1;fill-rule:nonzero;stroke:#000000;stroke-width:0;stroke-miterlimit:4;stroke-dasharray:none;stroke-opacity:1" />
    <path
       d="M 375.61998,429.25091 C 390.21707,443.67755 400.20675,454.0663 414.86809,472.80058 C 435.34378,463.18198 447.51229,449.1338 455.6614,432.94237 C 440.89713,418.49565 422.3199,407.58503 404.11062,398.11979 L 375.61998,429.25091 z"
       id="path3430"
       style="fill:#f6d107;fill-opacity:1;fill-rule:evenodd;stroke:#000000;stroke-width:3.00000024;stroke-linecap:butt;stroke-linejoin:miter;stroke-miterlimit:4;stroke-dasharray:none;stroke-opacity:1" />
    <path
       d="M 379.6375,385.35972 L 407.87805,399.81535 C 402.60059,418.82261 397.64521,428.38434 383.04411,436.09851 L 365.42164,422.12813 L 379.6375,385.35972 z"
       id="rect3418"
       style="fill:#f6d107;fill-opacity:1;fill-rule:nonzero;stroke:#000000;stroke-width:3.00000024;stroke-miterlimit:4;stroke-opacity:1" />
    <path
       d="M 373.67002,412.82891 C 366.30129,422.54521 356.27682,424.97651 351.29403,418.25595 C 346.31118,411.53534 348.24758,398.19525 355.61636,388.47894 C 362.98508,378.76265 373.00956,376.33133 377.99238,383.05193 C 382.95518,389.74556 381.06173,402.9984 373.75399,412.71771"
       id="path3421"
       style="fill:#f6d107;fill-opacity:1;fill-rule:nonzero;stroke:#000000;stroke-width:3.00000024;stroke-miterlimit:4;stroke-opacity:1" />
    <path
       d="M 357.32004,536.17645 C 357.46385,538.47263 357.13678,540.72466 356.10238,541.12243 C 355.55732,541.33204 354.17313,538.46366 354.17313,536.03788 C 354.17313,533.6121 354.9839,531.29317 355.57687,531.29317 C 356.31772,531.58588 357.32004,533.75067 357.32004,536.17645 z"
       transform="matrix(2.5714353,1.1937356,-1.2990861,2.362903,144.05085,-1291.5549)"
       id="path3424"
       style="fill:#000000;fill-opacity:1;fill-rule:nonzero;stroke:#000000;stroke-width:1.08629954;stroke-miterlimit:4;stroke-opacity:1" />
  </g>
</svg>
