<?xml version="1.0" encoding="UTF-8" standalone="no"?>
<!-- Created with Inkscape (http://www.inkscape.org/) -->
<svg
   xmlns:dc="http://purl.org/dc/elements/1.1/"
   xmlns:cc="http://web.resource.org/cc/"
   xmlns:rdf="http://www.w3.org/1999/02/22-rdf-syntax-ns#"
   xmlns:svg="http://www.w3.org/2000/svg"
   xmlns="http://www.w3.org/2000/svg"
   xmlns:sodipodi="http://sodipodi.sourceforge.net/DTD/sodipodi-0.dtd"
   xmlns:inkscape="http://www.inkscape.org/namespaces/inkscape"
   id="svg2"
   sodipodi:version="0.32"
   inkscape:version="0.45.1"
   width="741.77924"
   height="815.59619"
   version="1.0"
   sodipodi:docbase="E:\WIKIPEDIA\Poczekalnia"
   sodipodi:docname="POL_Wohyń_COA.svg"
   inkscape:output_extension="org.inkscape.output.svg.inkscape">
  <metadata
     id="metadata7">
    <rdf:RDF>
      <cc:Work
         rdf:about="">
        <dc:format>image/svg+xml</dc:format>
        <dc:type
           rdf:resource="http://purl.org/dc/dcmitype/StillImage" />
      </cc:Work>
    </rdf:RDF>
  </metadata>
  <defs
     id="defs5" />
  <sodipodi:namedview
     inkscape:window-height="704"
     inkscape:window-width="836"
     inkscape:pageshadow="2"
     inkscape:pageopacity="0.0"
     guidetolerance="10.0"
     gridtolerance="10.0"
     objecttolerance="10.0"
     borderopacity="1.0"
     bordercolor="#666666"
     pagecolor="#ffffff"
     id="base"
     inkscape:zoom="0.61520967"
     inkscape:cx="375.4147"
     inkscape:cy="405.4065"
     inkscape:window-x="4"
     inkscape:window-y="0"
     inkscape:current-layer="svg2" />
  <g
     id="g12198">
    <g
       style="stroke:none;stroke-width:5.31496048;stroke-miterlimit:4;stroke-dasharray:none;stroke-opacity:1"
       transform="translate(-4.3826983,-4.6237698)"
       inkscape:label="Warstwa 1"
       id="layer1">
      <path
         style="fill:#ffffff;fill-opacity:1;fill-rule:nonzero;stroke:none;stroke-width:5.31496048;stroke-linecap:round;stroke-linejoin:round;stroke-miterlimit:4;stroke-dasharray:none;stroke-dashoffset:0;stroke-opacity:1"
         d="M 7.0401785,7.28125 L 7.0401785,509 L 7.7589285,509 C 13.615519,643.38583 182.69141,817.5625 375.13393,817.5625 C 567.57646,817.56247 733.94044,643.3858 742.38393,509 L 743.25893,509 C 743.25893,509 743.81137,155.49529 743.25893,7.28125 C 618.84028,7.28125 110.69725,7.28125 7.0401785,7.28125 z "
         id="path2972"
         sodipodi:nodetypes="cccscccc" />
    </g>
    <g
       id="g3245"
       inkscape:label="Warstwa 1"
       transform="translate(777.1089,-4.6237698)"
       style="stroke:#000000;stroke-width:5.31496048;stroke-miterlimit:4;stroke-dasharray:none;stroke-opacity:1;fill:#115fb7;fill-opacity:1">
      <path
         sodipodi:nodetypes="ccccccccccccc"
         id="path3247"
         d="M -677.31323,696.87886 C -659.48312,714.84577 -639.63793,731.64971 -618.17994,746.67523 L -596.45482,737.64106 C -566.28743,727.88028 -532.32252,723.54453 -486.32632,736.39633 C -428.70703,761.29401 -373.83241,757.37262 -320.76029,734.52501 C -289.65263,723.5939 -256.84549,726.25858 -223.47558,733.42545 L -192.47515,745.13487 C -171.62819,730.25713 -152.33979,713.68358 -134.9694,695.99757 C -168.44881,695.36905 -197.86078,686.60564 -226.86109,677.01893 C -269.70492,664.24945 -303.89275,673.11999 -337.82721,682.62393 C -386.74995,704.89222 -429.41173,700.55142 -469.26199,684.26163 C -507.0539,675.16637 -544.65963,667.74675 -580.21357,678.79323 C -611.5419,686.55215 -639.74416,699.52117 -677.31323,696.87886 z "
         style="fill:#115fb7;fill-opacity:1;fill-rule:nonzero;stroke:#000000;stroke-width:5.31496048;stroke-linecap:round;stroke-linejoin:round;stroke-miterlimit:4;stroke-dasharray:none;stroke-dashoffset:0;stroke-opacity:1" />
    </g>
    <g
       id="g4218"
       inkscape:label="Warstwa 1"
       transform="translate(-4.3826983,-4.6237698)"
       style="stroke:#000000;stroke-width:5.31496048;stroke-miterlimit:4;stroke-dasharray:none;stroke-opacity:1;fill:none">
      <path
         sodipodi:nodetypes="cccscccc"
         id="path4220"
         d="M 7.0401785,7.28125 L 7.0401785,509 L 7.7589285,509 C 13.615519,643.38583 182.69141,817.5625 375.13393,817.5625 C 567.57646,817.56247 733.94044,643.3858 742.38393,509 L 743.25893,509 C 743.25893,509 743.81137,155.49529 743.25893,7.28125 C 618.84028,7.28125 110.69725,7.28125 7.0401785,7.28125 z "
         style="fill:none;fill-opacity:1;fill-rule:nonzero;stroke:#000000;stroke-width:5.31496048;stroke-linecap:round;stroke-linejoin:round;stroke-miterlimit:4;stroke-dasharray:none;stroke-dashoffset:0;stroke-opacity:1" />
    </g>
    <g
       style="stroke:#000000;stroke-opacity:1;stroke-width:5.31496063;stroke-miterlimit:4;stroke-dasharray:none"
       transform="translate(-1010.963,0)"
       id="g11175">
      <path
         style="fill:#fc1302;fill-opacity:1;fill-rule:evenodd;stroke:#000000;stroke-width:5.31496063;stroke-linecap:butt;stroke-linejoin:miter;stroke-miterlimit:4;stroke-dasharray:none;stroke-opacity:1"
         d="M 1329.9754,589.78776 L 1361.8543,597.27446 L 1360.1637,622.39112 L 1348.8129,651.85489 C 1338.9295,654.71272 1336.1443,664.48262 1318.1416,662.23966 C 1297.6448,658.84725 1279.3136,647.87989 1276.6025,626.97974 C 1278.2562,609.28039 1293.5199,600.67983 1303.6512,602.10458 C 1312.1981,602.77745 1320.0775,610.42741 1324.9038,604.51965 C 1325.7828,599.74428 1322.1694,592.09504 1329.9754,589.78776 z "
         id="path10202"
         sodipodi:nodetypes="ccccccccc" />
      <path
         sodipodi:nodetypes="ccccccccc"
         id="path11173"
         d="M 1422.9554,589.78776 L 1391.0765,597.27446 L 1392.7671,622.39112 L 1404.1179,651.85489 C 1414.0013,654.71272 1416.7865,664.48262 1434.7892,662.23966 C 1455.286,658.84725 1473.6172,647.87989 1476.3283,626.97974 C 1474.6746,609.28039 1459.4109,600.67983 1449.2796,602.10458 C 1440.7327,602.77745 1432.8533,610.42741 1428.027,604.51965 C 1427.148,599.74428 1430.7614,592.09504 1422.9554,589.78776 z "
         style="fill:#fc1302;fill-opacity:1;fill-rule:evenodd;stroke:#000000;stroke-width:5.31496063;stroke-linecap:butt;stroke-linejoin:miter;stroke-miterlimit:4;stroke-dasharray:none;stroke-opacity:1" />
      <path
         id="path10195"
         style="fill:#fc1302;fill-opacity:1;fill-rule:evenodd;stroke:#000000;stroke-width:5.31496063;stroke-linecap:butt;stroke-linejoin:miter;stroke-miterlimit:4;stroke-dasharray:none;stroke-opacity:1"
         d="M 1418.0686,570.22575 C 1420.7829,575.50912 1424.112,582.56149 1422.4157,590.99529 C 1414.1828,602.57928 1397.1319,595.95373 1393.1934,601.62157 C 1389.4646,620.78911 1399.9239,622.41755 1403.3367,636.39849 C 1407.6647,655.59152 1397.6342,671.62084 1376.1955,674.07347 C 1354.7569,671.62084 1344.7264,655.59152 1349.0544,636.39849 C 1352.4672,622.41755 1362.9265,620.78911 1359.1977,601.62157 C 1355.2592,595.95373 1338.2083,602.57928 1329.9754,590.99529 C 1328.2791,582.56149 1332.0912,575.50912 1334.8055,570.22575 L 1418.0686,570.22575 z "
         sodipodi:nodetypes="cccccccccc" />
      <path
         style="fill:#fc1302;fill-opacity:1;fill-rule:evenodd;stroke:#000000;stroke-width:5.31496063;stroke-linecap:butt;stroke-linejoin:miter;stroke-miterlimit:4;stroke-dasharray:none;stroke-opacity:1"
         d="M 1335.3561,545.75491 L 1416.3085,544.56092 C 1423.1702,553.63523 1420.138,567.72429 1417.2637,571.78385 C 1411.7289,578.212 1392.2738,587.66053 1375.7129,586.11171 C 1357.9077,586.66202 1337.12,575.03046 1333.9233,572.26145 C 1331.2565,568.55746 1329.7858,549.72935 1335.3561,545.75491 z "
         id="path10193"
         sodipodi:nodetypes="cccccc" />
      <path
         style="fill:#fc1302;fill-opacity:1;fill-rule:evenodd;stroke:#000000;stroke-width:5.31496063;stroke-linecap:butt;stroke-linejoin:miter;stroke-miterlimit:4;stroke-dasharray:none;stroke-opacity:1"
         d="M 1331.5354,513.99483 C 1329.6311,517.97479 1326.6217,534.37222 1334.4009,544.56092 C 1336.9705,548.6045 1355.0026,549.30727 1373.5661,549.98572 C 1393.7904,550.72487 1413.6857,547.53329 1416.7861,544.08333 C 1424.2085,536.17996 1421.8148,521.26821 1420.6069,513.27844 L 1331.5354,513.99483 z "
         id="path10191"
         sodipodi:nodetypes="ccsccc" />
      <path
         style="fill:#fc1302;fill-opacity:1;fill-rule:evenodd;stroke:#000000;stroke-width:5.31496063;stroke-linecap:butt;stroke-linejoin:miter;stroke-miterlimit:4;stroke-dasharray:none;stroke-opacity:1"
         d="M 1328.1922,481.99596 L 1422.9948,482.23475 C 1423.6242,493.97432 1423.8162,508.92905 1420.1293,513.75604 C 1416.3798,518.01054 1397.7091,516.8692 1377.143,517.01095 C 1355.1664,517.16242 1333.8554,518.16756 1331.2966,513.51724 C 1328.0595,509.74624 1326.2973,493.9599 1328.1922,481.99596 z "
         id="path10189"
         sodipodi:nodetypes="cccscc" />
      <g
         style="stroke:#000000;stroke-opacity:1;stroke-width:5.31496063;stroke-miterlimit:4;stroke-dasharray:none"
         id="g9172">
        <g
           style="stroke:#000000;stroke-opacity:1;stroke-width:4.86539937;stroke-miterlimit:4;stroke-dasharray:none"
           transform="matrix(1.0976053,-0.1383291,0.1419875,1.0693243,72.003067,162.00668)"
           id="g9154">
          <path
             sodipodi:nodetypes="cccccc"
             id="path9156"
             d="M 948.22423,381.62982 L 945.42174,394.38117 C 921.13608,374.43031 888.1243,382.00823 883.20634,354.30549 C 889.15308,350.95225 901.05518,368.42431 912.63254,365.51547 C 903.22005,361.5073 902.24178,352.92018 892.5947,352.0635 C 917.25247,344.46251 921.26827,375.18634 948.22423,381.62982 z "
             style="fill:#fc1302;fill-opacity:1;fill-rule:evenodd;stroke:#000000;stroke-width:4.86539937;stroke-linecap:butt;stroke-linejoin:round;stroke-miterlimit:4;stroke-dasharray:none;stroke-opacity:1" />
          <path
             sodipodi:nodetypes="ccccc"
             id="path9158"
             d="M 948.36435,381.20945 C 942.79272,383.89017 941.74787,389.31936 945.14149,395.36204 C 950.57115,398.83179 980.11504,409.61342 1003.5735,398.58491 C 1004.7817,393.79205 1005.9633,389.00046 999.50989,384.57244 C 976.23341,392.96563 960.22232,382.56275 948.36435,381.20945 z "
             style="fill:#fc1302;fill-opacity:1;fill-rule:evenodd;stroke:#000000;stroke-width:4.86539937;stroke-linecap:butt;stroke-linejoin:miter;stroke-miterlimit:4;stroke-dasharray:none;stroke-opacity:1" />
          <path
             sodipodi:nodetypes="ccccc"
             id="path9160"
             d="M 999.65002,384.57244 C 996.57148,390.27626 998.29674,394.88831 1003.4334,398.72504 C 1009.0314,402.06943 1032.3831,385.12411 1046.8721,378.26683 L 1042.3881,366.07597 C 1023.6972,379.54732 1001.7141,376.91295 999.65002,384.57244 z "
             style="fill:#fc1302;fill-opacity:1;fill-rule:evenodd;stroke:#000000;stroke-width:4.86539937;stroke-linecap:butt;stroke-linejoin:miter;stroke-miterlimit:4;stroke-dasharray:none;stroke-opacity:1" />
          <path
             sodipodi:nodetypes="ccccsc"
             id="path9162"
             d="M 1077.9367,349.94875 L 1078.8767,361.57071 C 1068.4322,365.34303 1057.8195,380.67802 1047.0017,378.66182 C 1041.8103,377.4538 1040.4452,370.87253 1042.0453,366.61259 C 1044.3285,361.22877 1047.1449,364.49035 1059.0298,359.95189 C 1064.2274,357.96706 1070.1148,352.21346 1077.9367,349.94875 z "
             style="fill:#fc1302;fill-opacity:1;fill-rule:evenodd;stroke:#000000;stroke-width:4.86539937;stroke-linecap:butt;stroke-linejoin:miter;stroke-miterlimit:4;stroke-dasharray:none;stroke-opacity:1" />
        </g>
        <g
           style="stroke:#000000;stroke-opacity:1;stroke-width:5.31496063;stroke-miterlimit:4;stroke-dasharray:none"
           transform="translate(222.6697,0)"
           id="g9128">
          <path
             style="fill:#fc1302;fill-opacity:1;fill-rule:evenodd;stroke:#000000;stroke-width:5.31496063;stroke-linecap:butt;stroke-linejoin:round;stroke-miterlimit:4;stroke-dasharray:none;stroke-opacity:1"
             d="M 948.22423,381.62982 L 945.42174,394.38117 C 921.13608,374.43031 888.1243,382.00823 883.20634,354.30549 C 889.15308,350.95225 901.05518,368.42431 912.63254,365.51547 C 903.22005,361.5073 902.24178,352.92018 892.5947,352.0635 C 917.25247,344.46251 921.26827,375.18634 948.22423,381.62982 z "
             id="path9120"
             sodipodi:nodetypes="cccccc" />
          <path
             style="fill:#fc1302;fill-opacity:1;fill-rule:evenodd;stroke:#000000;stroke-width:5.31496063;stroke-linecap:butt;stroke-linejoin:miter;stroke-miterlimit:4;stroke-dasharray:none;stroke-opacity:1"
             d="M 948.36435,381.20945 C 942.79272,383.89017 941.74787,389.31936 945.14149,395.36204 C 950.57115,398.83179 980.11504,409.61342 1003.5735,398.58491 C 1004.7817,393.79205 1005.9633,389.00046 999.50989,384.57244 C 976.23341,392.96563 960.22232,382.56275 948.36435,381.20945 z "
             id="path9122"
             sodipodi:nodetypes="ccccc" />
          <path
             style="fill:#fc1302;fill-opacity:1;fill-rule:evenodd;stroke:#000000;stroke-width:5.31496063;stroke-linecap:butt;stroke-linejoin:miter;stroke-miterlimit:4;stroke-dasharray:none;stroke-opacity:1"
             d="M 999.65002,384.57244 C 996.57148,390.27626 998.29674,394.88831 1003.4334,398.72504 C 1009.0314,402.06943 1032.3831,385.12411 1046.8721,378.26683 L 1042.3881,366.07597 C 1023.6972,379.54732 1001.7141,376.91295 999.65002,384.57244 z "
             id="path9124"
             sodipodi:nodetypes="ccccc" />
          <path
             style="fill:#fc1302;fill-opacity:1;fill-rule:evenodd;stroke:#000000;stroke-width:5.31496063;stroke-linecap:butt;stroke-linejoin:miter;stroke-miterlimit:4;stroke-dasharray:none;stroke-opacity:1"
             d="M 1077.9367,349.94875 L 1078.8767,361.57071 C 1068.4322,365.34303 1057.8195,380.67802 1047.0017,378.66182 C 1041.8103,377.4538 1040.4452,370.87253 1042.0453,366.61259 C 1044.3285,361.22877 1047.1449,364.49035 1059.0298,359.95189 C 1064.2274,357.96706 1070.1148,352.21346 1077.9367,349.94875 z "
             id="path9126"
             sodipodi:nodetypes="ccccsc" />
        </g>
        <path
           style="fill:#fc1302;fill-opacity:1;fill-rule:evenodd;stroke:#000000;stroke-width:5.31496063;stroke-linecap:butt;stroke-linejoin:round;stroke-miterlimit:4;stroke-dasharray:none;stroke-opacity:1"
           d="M 1232.8247,496.33815 L 1236.9371,508.72924 C 1205.8646,504.00343 1181.3709,527.397 1162.9781,506.10538 C 1166.3737,500.18273 1185.5366,509.11102 1193.9982,500.6909 C 1183.8598,502.05977 1178.6279,495.18064 1169.8995,499.37772 C 1187.2024,480.23637 1206.3648,504.58553 1232.8247,496.33815 z "
           id="path9164"
           sodipodi:nodetypes="cccccc" />
        <path
           style="fill:#fc1302;fill-opacity:1;fill-rule:evenodd;stroke:#000000;stroke-width:5.31496063;stroke-linecap:butt;stroke-linejoin:miter;stroke-miterlimit:4;stroke-dasharray:none;stroke-opacity:1"
           d="M 1227.2354,496.02922 C 1223.7682,500.2602 1223.7837,507.30619 1229.6981,510.41586 C 1234.8981,511.38391 1260.4201,509.17823 1273.9802,489.34894 C 1273.2325,484.42878 1272.4655,479.52075 1266.1811,478.08955 C 1251.8536,495.41196 1236.4613,492.39927 1227.2354,496.02922 z "
           id="path9166"
           sodipodi:nodetypes="ccccc" />
        <path
           sodipodi:nodetypes="ccccc"
           id="path9168"
           d="M 1265.5337,477.24647 C 1264.2325,482.24586 1267.6931,488.8405 1274.3751,488.85979 C 1281.5738,487.84655 1297.2892,469.79722 1300.6676,456.91655 C 1299.8687,452.36584 1298.523,444.89086 1292.2899,446.53067 C 1282.7889,465.57325 1272.032,469.7588 1265.5337,477.24647 z "
           style="fill:#fc1302;fill-opacity:1;fill-rule:evenodd;stroke:#000000;stroke-width:5.31496063;stroke-linecap:butt;stroke-linejoin:miter;stroke-miterlimit:4;stroke-dasharray:none;stroke-opacity:1" />
        <path
           style="fill:#fc1302;fill-opacity:1;fill-rule:evenodd;stroke:#000000;stroke-width:5.31496063;stroke-linecap:butt;stroke-linejoin:miter;stroke-miterlimit:4;stroke-dasharray:none;stroke-opacity:1"
           d="M 1291.4025,444.78533 C 1290.8094,449.91713 1295.1538,457.57201 1301.7735,456.66154 C 1308.7613,454.65671 1315.925,439.414 1316.6757,433.41465 C 1317.1223,429.51737 1315.823,424.21293 1312.555,416.26628 C 1295.0902,453.30623 1296.7959,436.46646 1291.4025,444.78533 z "
           id="path9170"
           sodipodi:nodetypes="ccccc" />
      </g>
      <g
         style="stroke:#000000;stroke-opacity:1;stroke-width:5.31496063;stroke-miterlimit:4;stroke-dasharray:none"
         id="g9188"
         transform="matrix(-1,0,0,1,2753.264,0)">
        <g
           style="stroke:#000000;stroke-opacity:1;stroke-width:4.86539937;stroke-miterlimit:4;stroke-dasharray:none"
           id="g9190"
           transform="matrix(1.0976053,-0.1383291,0.1419875,1.0693243,72.003067,162.00668)">
          <path
             style="fill:#fc1302;fill-opacity:1;fill-rule:evenodd;stroke:#000000;stroke-width:4.86539937;stroke-linecap:butt;stroke-linejoin:round;stroke-miterlimit:4;stroke-dasharray:none;stroke-opacity:1"
             d="M 948.22423,381.62982 L 945.42174,394.38117 C 921.13608,374.43031 888.1243,382.00823 883.20634,354.30549 C 889.15308,350.95225 901.05518,368.42431 912.63254,365.51547 C 903.22005,361.5073 902.24178,352.92018 892.5947,352.0635 C 917.25247,344.46251 921.26827,375.18634 948.22423,381.62982 z "
             id="path9192"
             sodipodi:nodetypes="cccccc" />
          <path
             style="fill:#fc1302;fill-opacity:1;fill-rule:evenodd;stroke:#000000;stroke-width:4.86539937;stroke-linecap:butt;stroke-linejoin:miter;stroke-miterlimit:4;stroke-dasharray:none;stroke-opacity:1"
             d="M 948.36435,381.20945 C 942.79272,383.89017 941.74787,389.31936 945.14149,395.36204 C 950.57115,398.83179 980.11504,409.61342 1003.5735,398.58491 C 1004.7817,393.79205 1005.9633,389.00046 999.50989,384.57244 C 976.23341,392.96563 960.22232,382.56275 948.36435,381.20945 z "
             id="path9194"
             sodipodi:nodetypes="ccccc" />
          <path
             style="fill:#fc1302;fill-opacity:1;fill-rule:evenodd;stroke:#000000;stroke-width:4.86539937;stroke-linecap:butt;stroke-linejoin:miter;stroke-miterlimit:4;stroke-dasharray:none;stroke-opacity:1"
             d="M 999.65002,384.57244 C 996.57148,390.27626 998.29674,394.88831 1003.4334,398.72504 C 1009.0314,402.06943 1032.3831,385.12411 1046.8721,378.26683 L 1042.3881,366.07597 C 1023.6972,379.54732 1001.7141,376.91295 999.65002,384.57244 z "
             id="path9196"
             sodipodi:nodetypes="ccccc" />
          <path
             style="fill:#fc1302;fill-opacity:1;fill-rule:evenodd;stroke:#000000;stroke-width:4.86539937;stroke-linecap:butt;stroke-linejoin:miter;stroke-miterlimit:4;stroke-dasharray:none;stroke-opacity:1"
             d="M 1077.9367,349.94875 L 1078.8767,361.57071 C 1068.4322,365.34303 1057.8195,380.67802 1047.0017,378.66182 C 1041.8103,377.4538 1040.4452,370.87253 1042.0453,366.61259 C 1044.3285,361.22877 1047.1449,364.49035 1059.0298,359.95189 C 1064.2274,357.96706 1070.1148,352.21346 1077.9367,349.94875 z "
             id="path9198"
             sodipodi:nodetypes="ccccsc" />
        </g>
        <g
           style="stroke:#000000;stroke-opacity:1;stroke-width:5.31496063;stroke-miterlimit:4;stroke-dasharray:none"
           id="g9200"
           transform="translate(222.6697,0)">
          <path
             sodipodi:nodetypes="cccccc"
             id="path9202"
             d="M 948.22423,381.62982 L 945.42174,394.38117 C 921.13608,374.43031 888.1243,382.00823 883.20634,354.30549 C 889.15308,350.95225 901.05518,368.42431 912.63254,365.51547 C 903.22005,361.5073 902.24178,352.92018 892.5947,352.0635 C 917.25247,344.46251 921.26827,375.18634 948.22423,381.62982 z "
             style="fill:#fc1302;fill-opacity:1;fill-rule:evenodd;stroke:#000000;stroke-width:5.31496063;stroke-linecap:butt;stroke-linejoin:round;stroke-miterlimit:4;stroke-dasharray:none;stroke-opacity:1" />
          <path
             sodipodi:nodetypes="ccccc"
             id="path9204"
             d="M 948.36435,381.20945 C 942.79272,383.89017 941.74787,389.31936 945.14149,395.36204 C 950.57115,398.83179 980.11504,409.61342 1003.5735,398.58491 C 1004.7817,393.79205 1005.9633,389.00046 999.50989,384.57244 C 976.23341,392.96563 960.22232,382.56275 948.36435,381.20945 z "
             style="fill:#fc1302;fill-opacity:1;fill-rule:evenodd;stroke:#000000;stroke-width:5.31496063;stroke-linecap:butt;stroke-linejoin:miter;stroke-miterlimit:4;stroke-dasharray:none;stroke-opacity:1" />
          <path
             sodipodi:nodetypes="ccccc"
             id="path9206"
             d="M 999.65002,384.57244 C 996.57148,390.27626 998.29674,394.88831 1003.4334,398.72504 C 1009.0314,402.06943 1032.3831,385.12411 1046.8721,378.26683 L 1042.3881,366.07597 C 1023.6972,379.54732 1001.7141,376.91295 999.65002,384.57244 z "
             style="fill:#fc1302;fill-opacity:1;fill-rule:evenodd;stroke:#000000;stroke-width:5.31496063;stroke-linecap:butt;stroke-linejoin:miter;stroke-miterlimit:4;stroke-dasharray:none;stroke-opacity:1" />
          <path
             sodipodi:nodetypes="ccccsc"
             id="path9208"
             d="M 1077.9367,349.94875 L 1078.8767,361.57071 C 1068.4322,365.34303 1057.8195,380.67802 1047.0017,378.66182 C 1041.8103,377.4538 1040.4452,370.87253 1042.0453,366.61259 C 1044.3285,361.22877 1047.1449,364.49035 1059.0298,359.95189 C 1064.2274,357.96706 1070.1148,352.21346 1077.9367,349.94875 z "
             style="fill:#fc1302;fill-opacity:1;fill-rule:evenodd;stroke:#000000;stroke-width:5.31496063;stroke-linecap:butt;stroke-linejoin:miter;stroke-miterlimit:4;stroke-dasharray:none;stroke-opacity:1" />
        </g>
        <path
           sodipodi:nodetypes="cccccc"
           id="path9210"
           d="M 1232.8247,496.33815 L 1236.9371,508.72924 C 1205.8646,504.00343 1181.3709,527.397 1162.9781,506.10538 C 1166.3737,500.18273 1185.5366,509.11102 1193.9982,500.6909 C 1183.8598,502.05977 1178.6279,495.18064 1169.8995,499.37772 C 1187.2024,480.23637 1206.3648,504.58553 1232.8247,496.33815 z "
           style="fill:#fc1302;fill-opacity:1;fill-rule:evenodd;stroke:#000000;stroke-width:5.31496063;stroke-linecap:butt;stroke-linejoin:round;stroke-miterlimit:4;stroke-dasharray:none;stroke-opacity:1" />
        <path
           sodipodi:nodetypes="ccccc"
           id="path9212"
           d="M 1227.2354,496.02922 C 1223.7682,500.2602 1223.7837,507.30619 1229.6981,510.41586 C 1234.8981,511.38391 1260.4201,509.17823 1273.9802,489.34894 C 1273.2325,484.42878 1272.4655,479.52075 1266.1811,478.08955 C 1251.8536,495.41196 1236.4613,492.39927 1227.2354,496.02922 z "
           style="fill:#fc1302;fill-opacity:1;fill-rule:evenodd;stroke:#000000;stroke-width:5.31496063;stroke-linecap:butt;stroke-linejoin:miter;stroke-miterlimit:4;stroke-dasharray:none;stroke-opacity:1" />
        <path
           style="fill:#fc1302;fill-opacity:1;fill-rule:evenodd;stroke:#000000;stroke-width:5.31496063;stroke-linecap:butt;stroke-linejoin:miter;stroke-miterlimit:4;stroke-dasharray:none;stroke-opacity:1"
           d="M 1265.5337,477.24647 C 1264.2325,482.24586 1267.6931,488.8405 1274.3751,488.85979 C 1281.5738,487.84655 1297.2892,469.79722 1300.6676,456.91655 C 1299.8687,452.36584 1298.523,444.89086 1292.2899,446.53067 C 1282.7889,465.57325 1272.032,469.7588 1265.5337,477.24647 z "
           id="path9214"
           sodipodi:nodetypes="ccccc" />
        <path
           sodipodi:nodetypes="ccccc"
           id="path9216"
           d="M 1291.4025,444.78533 C 1290.8094,449.91713 1295.1538,457.57201 1301.7735,456.66154 C 1308.7613,454.65671 1315.925,439.414 1316.6757,433.41465 C 1317.1223,429.51737 1315.823,424.21293 1312.555,416.26628 C 1295.0902,453.30623 1296.7959,436.46646 1291.4025,444.78533 z "
           style="fill:#fc1302;fill-opacity:1;fill-rule:evenodd;stroke:#000000;stroke-width:5.31496063;stroke-linecap:butt;stroke-linejoin:miter;stroke-miterlimit:4;stroke-dasharray:none;stroke-opacity:1" />
      </g>
      <path
         style="fill:#fc1302;fill-opacity:1;fill-rule:evenodd;stroke:#000000;stroke-width:5.31496063;stroke-linecap:butt;stroke-linejoin:miter;stroke-miterlimit:4;stroke-dasharray:none;stroke-opacity:1"
         d="M 1376.1905,377.88021 C 1371.8952,411.09699 1362.0681,440.78482 1321.2671,450.71347 C 1321.9137,462.01655 1324.3666,473.79724 1328.431,482.47355 C 1357.8473,482.20048 1388.7438,482.11243 1423.2336,482.47355 C 1428.1036,473.16907 1430.0903,462.13466 1431.8304,450.95227 C 1393.5988,445.16568 1380.8902,415.30066 1376.1905,377.88021 z "
         id="path9218"
         sodipodi:nodetypes="cccccc" />
      <path
         id="path9113"
         style="fill:#fc1302;fill-opacity:1;fill-rule:evenodd;stroke:#000000;stroke-width:5.31496063;stroke-linecap:butt;stroke-linejoin:miter;stroke-miterlimit:4;stroke-dasharray:none;stroke-opacity:1"
         d="M 1376.4501,360.97679 C 1378.1495,368.633 1370.3232,407.15081 1392.0309,432.16545 C 1401.7463,443.36086 1426.1884,459.91552 1434.7727,447.52933 C 1435.164,414.23064 1479.4826,343.09086 1433.0242,279.66985 C 1408.3798,285.31832 1428.9517,329.73787 1376.4501,339.12008 C 1323.9486,329.73787 1344.5205,285.31832 1319.8761,279.66985 C 1274.9636,338.45329 1317.7363,414.23064 1318.1276,447.52933 C 1326.7119,459.91552 1351.1673,442.21297 1360.8694,431.00606 C 1382.1906,406.37788 1372.4319,370.56532 1376.4501,360.97679 z "
         sodipodi:nodetypes="cscccccsc" />
      <g
         style="stroke:#000000;stroke-opacity:1;stroke-width:5.31496063;stroke-miterlimit:4;stroke-dasharray:none"
         id="g9098"
         transform="translate(222.6697,0)">
        <path
           sodipodi:nodetypes="cscccccccccccsc"
           d="M 1153.2355,338.82003 C 1164.7506,338.53858 1172.8579,332.61975 1178.684,328.55218 C 1200.875,313.05899 1189.9693,290.01039 1208.2253,279.99391 C 1201.1079,263.40024 1197.0193,234.91132 1189.2491,211.20531 C 1182.5227,190.71356 1210.0406,166.40444 1192.0956,154.75122 C 1183.8742,157.83728 1190.4277,182.84852 1171.2218,181.79226 C 1151.099,176.61341 1174.7522,151.88334 1171.6962,131.03101 C 1157.6343,139.4689 1160.2786,146.67572 1153.2355,152.3792 C 1146.1923,146.67572 1148.8366,139.4689 1134.7747,131.03101 C 1131.7187,151.88334 1155.3719,176.61341 1135.2491,181.79226 C 1116.0432,182.84852 1122.5967,157.83728 1114.3753,154.75122 C 1096.4303,166.40444 1123.9482,190.71356 1117.2218,211.20531 C 1109.9261,236.80894 1105.363,263.40024 1098.2456,279.99391 C 1116.3049,289.90249 1105.8274,312.56396 1127.0813,328.04891 C 1132.9534,332.32721 1141.7222,337.9553 1153.2355,338.82003 z "
           style="fill:#fc1302;fill-opacity:1;fill-rule:evenodd;stroke:#000000;stroke-width:5.31496063;stroke-linecap:butt;stroke-linejoin:miter;stroke-miterlimit:4;stroke-dasharray:none;stroke-opacity:1"
           id="path9091" />
        <path
           sodipodi:nodetypes="ccccccsc"
           id="path5193"
           d="M 968.56028,159.67743 C 975.37867,168.95369 980.95728,178.78097 996.83941,184.0289 C 997.89219,177.35323 1002.6589,171.60604 1007.8369,165.96168 C 1015.6639,161.00508 1018.0433,149.51128 1020.7981,138.46808 C 1022.9724,123.42234 1025.2254,108.20375 1032.5811,92.121725 C 1037.1729,82.297286 1037.7671,60.205017 1026.2968,52.059621 C 1021.2041,51.782308 1020.9208,69.925559 1014.5667,84.624694 C 1003.8697,109.3702 987.09868,141.0517 968.56028,159.67743 z "
           style="fill:#fc1302;fill-opacity:1;fill-rule:evenodd;stroke:#000000;stroke-width:5.31496063;stroke-linecap:butt;stroke-linejoin:miter;stroke-miterlimit:4;stroke-dasharray:none;stroke-opacity:1" />
        <path
           sodipodi:nodetypes="ccccccc"
           id="path6164"
           d="M 1142.5414,171.81499 C 1143.7432,181.86884 1127.3182,184.8015 1124.5139,175.82109 C 1108.0734,96.191584 1034.7883,48.744553 951.85074,86.084325 C 895.18583,113.95307 847.09309,67.643337 883.74694,36.408613 C 887.70702,37.654249 887.55776,42.324326 885.12017,48.90135 C 875.66342,84.893767 921.4677,86.454005 955.05562,70.861123 C 1048.8972,40.225833 1111.7288,73.187352 1142.5414,171.81499 z "
           style="fill:#fc1302;fill-opacity:1;fill-rule:evenodd;stroke:#000000;stroke-width:5.31496063;stroke-linecap:butt;stroke-linejoin:miter;stroke-miterlimit:4;stroke-dasharray:none;stroke-opacity:1" />
        <path
           sodipodi:nodetypes="cccccccccccccccc"
           id="path4222"
           d="M 1022.0433,28.963288 C 1022.6876,35.482345 1011.7758,43.450082 1014.7999,50.693479 C 995.11391,65.421719 990.13541,80.14996 991.62104,94.8782 C 982.77732,103.17719 975.0098,112.55237 975.68556,130.37084 C 971.52161,135.1313 967.03708,139.09031 964.88166,148.87211 C 972.10746,169.72344 982.08943,180.56807 1003.2105,185.42066 C 1004.1482,190.09351 1002.4392,193.70766 998.14009,196.28576 C 994.14508,205.32002 1003.5406,220.45082 990.17236,228.88104 C 991.46514,240.19567 978.72676,242.58139 969.1665,246.98954 C 971.04528,250.42259 972.16164,254.61805 969.89084,262.20067 C 962.406,262.08555 954.92115,261.77851 947.43631,258.57897 C 935.22613,259.66907 928.50311,267.34375 921.36009,274.51444 C 921.36009,274.51444 909.28976,267.19501 913.39235,258.57897 C 893.81099,238.1227 894.16747,182.68156 916.28971,156.44707 C 921.47653,150.51878 926.88589,145.25814 930.05216,133.2682 C 950.07899,94.533871 976.49979,29.508053 1022.0433,28.963288 z "
           style="fill:#fc1302;fill-opacity:1;fill-rule:evenodd;stroke:#000000;stroke-width:5.31496063;stroke-linecap:butt;stroke-linejoin:miter;stroke-miterlimit:4;stroke-dasharray:none;stroke-opacity:1" />
        <path
           sodipodi:nodetypes="ccccccc"
           id="path6166"
           d="M 969.17248,262.14547 C 963.15507,263.65156 954.90238,262.17727 945.51352,259.1881 C 936.11013,258.34647 928.60929,266.0663 921.43207,275.2424 C 913.90622,291.22348 918.41239,303.19389 931.14915,312.42077 C 941.24717,326.86415 952.48147,338.18276 967.06007,340.30454 C 991.02699,330.67103 994.47926,319.0186 990.71903,294.25407 C 982.58018,288.5336 978.09079,267.63996 969.17248,262.14547 z "
           style="fill:#fc1302;fill-opacity:1;fill-rule:evenodd;stroke:#000000;stroke-width:5.31496063;stroke-linecap:butt;stroke-linejoin:miter;stroke-miterlimit:4;stroke-dasharray:none;stroke-opacity:1" />
        <path
           style="fill:#fc1302;fill-opacity:1;fill-rule:evenodd;stroke:#000000;stroke-width:5.31496063;stroke-linecap:butt;stroke-linejoin:miter;stroke-miterlimit:4;stroke-dasharray:none;stroke-opacity:1"
           d="M 1338.9494,159.67743 C 1332.131,168.95369 1326.5524,178.78097 1310.6703,184.0289 C 1309.6175,177.35323 1304.8508,171.60604 1299.6728,165.96168 C 1291.8458,161.00508 1289.4664,149.51128 1286.7116,138.46808 C 1284.5373,123.42234 1282.2843,108.20375 1274.9286,92.121725 C 1270.3368,82.297286 1269.7426,60.205017 1281.2129,52.059621 C 1286.3056,51.782308 1286.5889,69.925559 1292.943,84.624694 C 1303.64,109.3702 1320.411,141.0517 1338.9494,159.67743 z "
           id="path7139"
           sodipodi:nodetypes="ccccccsc" />
        <path
           style="fill:#fc1302;fill-opacity:1;fill-rule:evenodd;stroke:#000000;stroke-width:5.31496063;stroke-linecap:butt;stroke-linejoin:miter;stroke-miterlimit:4;stroke-dasharray:none;stroke-opacity:1"
           d="M 1164.9683,171.81499 C 1163.7665,181.86884 1180.1915,184.8015 1182.9958,175.82109 C 1199.4363,96.191584 1272.7214,48.744553 1355.659,86.084325 C 1412.3239,113.95307 1460.4166,67.643337 1423.7628,36.408613 C 1419.8027,37.654249 1419.9519,42.324326 1422.3895,48.90135 C 1431.8463,84.893767 1386.042,86.454005 1352.4541,70.861123 C 1258.6125,40.225833 1195.7809,73.187352 1164.9683,171.81499 z "
           id="path7137"
           sodipodi:nodetypes="ccccccc" />
        <path
           style="fill:#fc1302;fill-opacity:1;fill-rule:evenodd;stroke:#000000;stroke-width:5.31496063;stroke-linecap:butt;stroke-linejoin:miter;stroke-miterlimit:4;stroke-dasharray:none;stroke-opacity:1"
           d="M 1285.4664,28.963288 C 1284.8221,35.482345 1295.7339,43.450082 1292.7098,50.693479 C 1312.3958,65.421719 1317.3743,80.14996 1315.8887,94.8782 C 1324.7324,103.17719 1332.4999,112.55237 1331.8241,130.37084 C 1335.9881,135.1313 1340.4726,139.09031 1342.628,148.87211 C 1335.4022,169.72344 1325.4203,180.56807 1304.2992,185.42066 C 1303.3615,190.09351 1305.0705,193.70766 1309.3696,196.28576 C 1313.3646,205.32002 1303.9691,220.45082 1317.3373,228.88104 C 1316.0446,240.19567 1328.7829,242.58139 1338.3432,246.98954 C 1336.4644,250.42259 1335.3481,254.61805 1337.6189,262.20067 C 1345.1037,262.08555 1352.5886,261.77851 1360.0734,258.57897 C 1372.2836,259.66907 1379.0066,267.34375 1386.1496,274.51444 C 1386.1496,274.51444 1398.2199,267.19501 1394.1174,258.57897 C 1413.6987,238.1227 1413.3422,182.68156 1391.22,156.44707 C 1386.0332,150.51878 1380.6238,145.25814 1377.4575,133.2682 C 1357.4307,94.533871 1331.0099,29.508053 1285.4664,28.963288 z "
           id="path7141"
           sodipodi:nodetypes="cccccccccccccccc" />
        <path
           style="fill:#fc1302;fill-opacity:1;fill-rule:evenodd;stroke:#000000;stroke-width:5.31496063;stroke-linecap:butt;stroke-linejoin:miter;stroke-miterlimit:4;stroke-dasharray:none;stroke-opacity:1"
           d="M 1315.516,297.73075 C 1293.9335,295.80656 1274.0816,312.37539 1244.6856,298.10111 C 1236.4101,294.95482 1227.0995,289.90985 1216.4914,289.55355 C 1226.3125,300.49674 1228.4006,318.61727 1231.9822,334.87401 C 1262.343,338.78947 1274.7416,353.52062 1325.1435,348.65729 C 1331.3646,347.74665 1335.5834,344.64853 1338.2893,340.2228 C 1315.7479,329.89125 1312.5455,317.46173 1315.516,297.73075 z "
           id="path9089"
           sodipodi:nodetypes="ccccccc" />
        <path
           transform="translate(-0.6685983,1.3371966)"
           sodipodi:open="true"
           sodipodi:end="7.1560143"
           sodipodi:start="0.8858213"
           d="M 1122.945,237.87697 A 15.377761,15.043462 0 1 1 1123.0989,237.75234"
           sodipodi:ry="15.043462"
           sodipodi:rx="15.377761"
           sodipodi:cy="226.22679"
           sodipodi:cx="1113.2162"
           id="path7145"
           style="fill:#fc1302;fill-opacity:1;fill-rule:evenodd;stroke:#000000;stroke-width:5.31496063;stroke-linecap:round;stroke-linejoin:round;stroke-miterlimit:4;stroke-dasharray:none;stroke-opacity:1"
           sodipodi:type="arc" />
        <path
           sodipodi:nodetypes="ccccccc"
           id="path7147"
           d="M 991.57223,297.73075 C 1013.1548,295.80656 1033.0067,312.37539 1062.4027,298.10111 C 1070.6782,294.95482 1079.9888,289.90985 1090.5969,289.55355 C 1080.7758,300.49674 1078.6877,318.61727 1075.1061,334.87401 C 1044.7453,338.78947 1032.3467,353.52062 981.94478,348.65729 C 975.7237,347.74665 971.50492,344.64853 968.79893,340.2228 C 991.34042,329.89125 994.54282,317.46173 991.57223,297.73075 z "
           style="fill:#fc1302;fill-opacity:1;fill-rule:evenodd;stroke:#000000;stroke-width:5.31496063;stroke-linecap:butt;stroke-linejoin:miter;stroke-miterlimit:4;stroke-dasharray:none;stroke-opacity:1" />
        <path
           sodipodi:type="arc"
           style="fill:#fc1302;fill-opacity:1;fill-rule:evenodd;stroke:#000000;stroke-width:5.31496063;stroke-linecap:round;stroke-linejoin:round;stroke-miterlimit:4;stroke-dasharray:none;stroke-opacity:1"
           id="path9087"
           sodipodi:cx="1113.2162"
           sodipodi:cy="226.22679"
           sodipodi:rx="15.377761"
           sodipodi:ry="15.043462"
           d="M 1122.945,237.87697 A 15.377761,15.043462 0 1 1 1123.0989,237.75234"
           sodipodi:start="0.8858213"
           sodipodi:end="7.1560143"
           sodipodi:open="true"
           transform="matrix(-1,0,0,1,2307.7569,1.3371966)" />
        <path
           style="fill:#fc1302;fill-opacity:1;fill-rule:evenodd;stroke:#000000;stroke-width:5.31496063;stroke-linecap:butt;stroke-linejoin:miter;stroke-miterlimit:4;stroke-dasharray:none;stroke-opacity:1"
           d="M 1338.3372,262.14547 C 1344.3546,263.65156 1352.6073,262.17727 1361.9962,259.1881 C 1371.3996,258.34647 1378.9004,266.0663 1386.0776,275.2424 C 1393.6035,291.22348 1389.0973,303.19389 1376.3606,312.42077 C 1366.2625,326.86415 1355.0282,338.18276 1340.4496,340.30454 C 1316.4827,330.67103 1313.0304,319.0186 1316.7907,294.25407 C 1324.9295,288.5336 1329.4189,267.63996 1338.3372,262.14547 z "
           id="path7143"
           sodipodi:nodetypes="ccccccc" />
      </g>
    </g>
  </g>
</svg>
