<?xml version="1.0" encoding="UTF-8"?>
<!DOCTYPE svg PUBLIC "-//W3C//DTD SVG 1.1//EN" "http://www.w3.org/Graphics/SVG/1.1/DTD/svg11.dtd">
<!-- Creator: CorelDRAW -->
<svg xmlns="http://www.w3.org/2000/svg" xml:space="preserve" width="194.449mm" height="226.927mm" style="shape-rendering:geometricPrecision; text-rendering:geometricPrecision; image-rendering:optimizeQuality; fill-rule:evenodd; clip-rule:evenodd"
viewBox="0 0 320.357 373.866"
 xmlns:xlink="http://www.w3.org/1999/xlink">
 <defs>
  <style type="text/css">
   <![CDATA[
    .fil6 {fill:none}
    .fil0 {fill:black}
    .fil1 {fill:#0096DB}
    .fil5 {fill:#170061}
    .fil4 {fill:#BFE07F}
    .fil3 {fill:yellow}
    .fil2 {fill:white}
    .fil9 {fill:#90B36E}
    .fil10 {fill:#FFFF03}
    .fil7 {fill:black;fill-rule:nonzero}
    .fil8 {fill:white;fill-rule:nonzero}
   ]]>
  </style>
 </defs>
 <g id="Warstwa_x0020_1">
  <metadata id="CorelCorpID_0Corel-Layer"/>
  <path class="fil0" d="M320.238 182.002c0.0706783,2.25808 0.119115,4.52275 0.119115,6.80061 0,102.19 -71.7293,185.063 -160.179,185.063 -88.4492,0 -160.179,-82.8726 -160.179,-185.063l0 -188.803 320.238 0 0 182.002z"/>
  <polygon class="fil1" points="315.724,182.069 315.732,182.349 315.738,182.559 315.745,182.771 315.751,182.979 315.756,183.186 315.762,183.396 315.768,183.607 315.774,183.813 315.778,184.02 315.784,184.23 315.789,184.439 315.793,184.646 315.798,184.855 315.802,185.063 315.806,185.272 315.81,185.477 315.814,185.685 315.818,185.894 315.821,186.103 315.824,186.31 315.827,186.516 315.829,186.727 315.832,186.937 315.834,187.141 315.836,187.347 315.838,187.558 315.839,187.768 315.84,187.974 315.841,188.181 315.842,188.39 315.843,188.598 315.843,188.757 315.638,198.127 315.032,207.326 314.035,216.39 312.656,225.307 310.906,234.066 308.794,242.655 306.331,251.062 303.527,259.278 300.392,267.289 296.935,275.085 293.167,282.655 289.099,289.986 284.74,297.067 280.101,303.888 275.191,310.436 270.022,316.7 264.603,322.669 258.945,328.332 253.057,333.678 246.951,338.695 240.636,343.373 234.122,347.701 227.419,351.667 220.538,355.262 213.488,358.475 206.278,361.294 198.918,363.709 191.417,365.71 183.784,367.285 176.027,368.424 168.156,369.116 160.179,369.349 152.201,369.116 144.329,368.424 136.573,367.285 128.94,365.71 121.439,363.709 114.078,361.294 106.868,358.475 99.8182,355.262 92.9367,351.667 86.2343,347.701 79.7204,343.373 73.4056,338.695 67.2991,333.678 61.4117,328.332 55.7533,322.669 50.3347,316.7 45.1649,310.435 40.2555,303.888 35.6161,297.067 31.2573,289.986 27.1889,282.655 23.4214,275.085 19.9647,267.289 16.8297,259.278 14.0251,251.062 11.5623,242.655 9.4508,234.066 7.70064,225.307 6.32184,216.39 5.32476,207.326 4.71914,198.127 4.51419,188.753 4.51419,4.51419 315.724,4.51419 "/>
  <path class="fil2" d="M167.356 80.3114l-0.428518 -5.82511 -0.0836937 0.0985213 -0.000659006 0.000659006c-0.13938,0.162939 -0.280901,0.318464 -0.423576,0.465258 -1.80222,1.85362 -2.89995,2.9362 -3.77281,3.55814 -0.8946,0.637423 -1.55328,0.797067 -2.46765,0.797067l-0.00197702 0 -0.00197702 0c-0.91437,0 -1.57305,-0.159644 -2.46765,-0.797067 -0.872523,-0.621607 -1.96993,-1.70386 -3.77149,-3.55665l-0.000329503 0.000329503 -0.000988508 -0.000988508 -0.000988508 -0.00181227c-0.0458009,-0.0469541 -0.0897895,-0.0932493 -0.131966,-0.138556 -0.0415173,-0.0444829 -0.0851765,-0.0922608 -0.130813,-0.143334 -0.224886,-0.250916 -0.358993,-0.450595 -0.574159,-0.735615l-0.462292 6.28724c4.05816,-0.090778 7.54265,-0.0906133 7.54265,-0.0906133 0,0 3.27888,-0.000329503 7.17888,0.0825404z"/>
  <path class="fil3" d="M293.718 255.915c-16.8478,57.8478 -70.2622,100.135 -133.541,100.135 -63.279,0 -116.693,-42.2872 -133.541,-100.135 28.2535,43.8506 77.5106,72.897 133.541,72.897 56.0306,0 105.288,-29.0465 133.541,-72.897z"/>
  <path class="fil0" d="M180.974 156.688c2.88414,4.07117 6.94757,13.4635 8.50941,18.9298 1.60797,5.62791 8.44318,43.1121 10.8553,53.8856 2.4118,10.7734 11.2556,51.4551 13.0244,64.9621 1.76877,13.507 2.73174,38.0256 2.73174,38.0256 0,0 -0.315334,0.00807282 -0.915029,0.0202644 -0.153713,-3.69175 -1.09609,-25.1582 -2.70884,-37.4739 -1.76877,-13.507 -10.6126,-54.1887 -13.0244,-64.9621 -2.41212,-10.7734 -9.24733,-48.2577 -10.8553,-53.8856 -1.56992,-5.49495 -5.66794,-14.957 -8.55472,-18.993 0.307261,-0.164257 0.621442,-0.334775 0.937435,-0.508752z"/>
  <path class="fil4" d="M182.048 123.305c-0.233947,2.06417 -0.546975,3.65435 -0.610733,4.10182 -0.161127,1.12558 -1.12641,3.29635 -3.85963,8.28106 -2.73273,4.98472 -0.643189,17.3661 2.25199,21.2252 2.89369,3.85914 7.15334,13.6493 8.76164,19.2772 1.6083,5.62791 8.44285,43.1121 10.8546,53.8856 2.41245,10.7734 11.2566,51.4551 13.0254,64.9621 1.76943,13.507 2.73191,38.0256 2.73191,38.0256 0,0 -9.33613,0.80481 -16.0957,0.80481 -6.76173,0 -19.3164,1.44866 -26.3983,2.09251 -6.76173,0.614687 -12.0336,0.64253 -12.4994,0.643848l-0.0329503 0 -0.0334445 0c-0.464928,-0.00131801 -5.73763,-0.029161 -12.4984,-0.643848 -7.08233,-0.643848 -19.6374,-2.09251 -26.3978,-2.09251 -6.76041,0 -16.0962,-0.80481 -16.0962,-0.80481 0,0 0.962972,-24.5186 2.73174,-38.0256 1.76877,-13.507 10.6126,-54.1887 13.0244,-64.9621 2.41212,-10.7734 9.24733,-48.2577 10.8553,-53.8856 1.60797,-5.62791 5.86779,-15.4181 8.76214,-19.2772 2.89435,-3.85914 4.98472,-16.2405 2.25116,-21.2252 -2.73355,-4.98472 -3.69834,-7.15548 -3.85914,-8.28106 -0.0639235,-0.447465 -0.377116,-2.03765 -0.610733,-4.10182 2.54261,-4.5735 6.6408,-11.4632 8.85621,-14.8716 2.69863,-4.15173 8.16508,-11.4865 8.16508,-11.4865 0,0 2.42185,2.76782 3.1138,3.25219 0.691956,0.484369 1.73582,0.415173 1.73582,0.415173 0,0 1.0437,0.0691956 1.73582,-0.415173 0.692121,-0.484369 3.1143,-3.25219 3.1143,-3.25219 0,0 5.46579,7.33473 8.16409,11.4865 2.21558,3.40838 6.3141,10.2981 8.85687,14.8716z"/>
  <path class="fil2" d="M171.826 140.904c1.93945,4.83051 2.89781,5.49841 2.74921,9.95658 -0.148606,4.45817 0,8.61913 2.37769,7.8018 2.37769,-0.817332 9.58507,-5.2012 9.58507,-5.2012l6.01853 -2.6749 -6.31574 -19.1701c0,0 -6.18131,1.51703 -10.551,3.12072 -3.14543,1.43943 -5.8032,1.33663 -3.86375,6.16714z"/>
  <path class="fil2" d="M214.151 301.664c0,0 -0.89806,-14.9135 -2.35776,-26.883 -1.4597,-11.9695 -1.77371,-20.5709 -4.68322,-40.6465 -2.90951,-20.0756 -8.874,-43.7881 -10.4742,-48.5888 -1.60023,-4.80069 -6.90638,-18.1685 -8.6824,-22.0829 -1.77602,-3.91449 -3.98797,-8.47432 -3.98797,-8.47432l-2.99139 1.69925c2.88414,4.07117 6.94757,13.4635 8.50941,18.9298 1.60797,5.62791 8.44318,43.1121 10.8553,53.8856 2.4118,10.7734 11.2556,51.4551 13.0244,64.9621 0.283537,2.16516 0.545986,4.61403 0.787512,7.19865l0.000329503 0.000164751z"/>
  <path class="fil5" d="M186.241 131.616c0,0 -0.715186,-1.70518 -2.78611,-5.70896 -0.370855,-0.716998 -0.852094,-1.60517 -1.40681,-2.60324 -0.233782,2.0645 -0.54681,3.65484 -0.610733,4.10231 -0.138226,0.967091 -0.870217,2.70621 -2.80753,6.33864 3.76786,-1.18506 7.61118,-2.12875 7.61118,-2.12875z"/>
  <path class="fil5" d="M211.053 268.159l0.906792 -15.6466c0,0 -0.408254,-6.94032 -0.816508,-12.792 -0.408254,-5.85164 -2.58561,-20.0044 -5.85164,-38.1037 -3.26603,-18.0993 -8.58569,-37.191 -9.61127,-40.7463 -1.02558,-3.55533 -3.12369,-10.0836 -3.12369,-10.0836l-6.01853 2.6749c0,0 -1.09856,0.668232 -2.57869,1.53103l0.0060958 -0.00345978c0,0 2.21195,4.55982 3.98797,8.47432 1.77602,3.91449 7.08217,17.2823 8.6824,22.0829 1.60023,4.80069 7.56472,28.5132 10.4742,48.5888 2.35133,16.2239 3.00721,24.9536 3.94283,34.0236z"/>
  <path class="fil0" d="M139.38 156.688c-2.88414,4.07117 -6.94757,13.4635 -8.50941,18.9298 -1.60797,5.62791 -8.44318,43.1121 -10.8553,53.8856 -2.4118,10.7734 -11.2556,51.4551 -13.0244,64.9621 -1.76877,13.507 -2.73174,38.0256 -2.73174,38.0256 0,0 0.315334,0.00807282 0.915029,0.0202644 0.153713,-3.69175 1.09609,-25.1582 2.70884,-37.4739 1.76877,-13.507 10.6126,-54.1887 13.0244,-64.9621 2.41212,-10.7734 9.24733,-48.2577 10.8553,-53.8856 1.56992,-5.49495 5.66794,-14.957 8.55472,-18.993 -0.307261,-0.164257 -0.621442,-0.334775 -0.937435,-0.508752z"/>
  <path class="fil2" d="M148.528 140.904c-1.93945,4.83051 -2.89781,5.49841 -2.74921,9.95658 0.148606,4.45817 0,8.61913 -2.37769,7.8018 -2.37769,-0.817332 -9.58507,-5.2012 -9.58507,-5.2012l-6.01853 -2.6749 6.31574 -19.1701c0,0 6.18131,1.51703 10.551,3.12072 3.14543,1.43943 5.8032,1.33663 3.86375,6.16714z"/>
  <path class="fil2" d="M106.203 301.664c0,0 0.89806,-14.9135 2.35776,-26.883 1.4597,-11.9695 1.77371,-20.5709 4.68322,-40.6465 2.90951,-20.0756 8.874,-43.7881 10.4742,-48.5888 1.60023,-4.80069 6.90638,-18.1685 8.6824,-22.0829 1.77602,-3.91449 3.98797,-8.47432 3.98797,-8.47432l2.99139 1.69925c-2.88414,4.07117 -6.94757,13.4635 -8.50941,18.9298 -1.60797,5.62791 -8.44318,43.1121 -10.8553,53.8856 -2.4118,10.7734 -11.2556,51.4551 -13.0244,64.9621 -0.283537,2.16516 -0.545986,4.61403 -0.787512,7.19865l-0.000329503 0.000164751z"/>
  <path class="fil2" d="M160.177 100.614c0,0 -1.04386,0.0691956 -1.73582,-0.415173 -0.691956,-0.484369 -3.1138,-3.25219 -3.1138,-3.25219 0,0 -5.46645,7.33473 -8.16508,11.4865 -2.69863,4.15173 -8.1921,13.4706 -10.263,17.4744 -2.07092,4.00379 -2.78611,5.70896 -2.78611,5.70896l-6.31574 19.1701c0,0 -2.09811,6.52827 -3.12369,10.0836 -1.02558,3.55533 -6.34523,22.6471 -9.61127,40.7463 -3.26603,18.0993 -5.44339,32.2521 -5.85164,38.1037 -0.408254,5.85164 -0.816508,12.792 -0.816508,12.792 0,0 -1.90518,-39.3285 -1.49693,-48.7183 0.408254,-9.38984 -0.272169,-48.4461 1.90518,-60.2855 2.17735,-11.8394 8.43725,-32.5242 12.5198,-41.9141 4.08254,-9.38984 9.38984,-18.5075 17.5549,-20.0044 8.16508,-1.49693 7.21249,-1.08868 11.9754,-1.22476 4.76296,-0.136085 9.32427,-0.136085 9.32427,-0.136085 0,0 4.56147,0 9.3241,0.136085 4.76395,0.136085 3.81053,-0.272169 11.9761,1.22476 8.16409,1.49693 13.4716,10.6146 17.5541,20.0044 4.08303,9.38984 10.3426,30.0747 12.5196,41.9141 2.17851,11.8394 1.49693,50.8957 1.90535,60.2855 0.408254,9.38984 -1.49693,48.7183 -1.49693,48.7183 0,0 -0.408419,-6.94032 -0.816178,-12.792 -0.408254,-5.85164 -2.58544,-20.0044 -5.85098,-38.1037 -3.26784,-18.0993 -8.58585,-37.191 -9.61209,-40.7463 -1.02475,-3.55533 -3.12418,-10.0836 -3.12418,-10.0836l-6.31541 -19.1701c0,0 -0.714527,-1.70518 -2.78578,-5.70896 -2.07076,-4.00379 -7.5639,-13.3226 -10.2635,-17.4744 -2.6983,-4.15173 -8.16409,-11.4865 -8.16409,-11.4865 0,0 -2.42217,2.76782 -3.1143,3.25219 -0.692121,0.484369 -1.73582,0.415173 -1.73582,0.415173z"/>
  <path class="fil5" d="M134.113 131.616c0,0 0.715186,-1.70518 2.78611,-5.70896 0.370855,-0.716998 0.852094,-1.60517 1.40681,-2.60324 0.233782,2.0645 0.54681,3.65484 0.610733,4.10231 0.138226,0.967091 0.870217,2.70621 2.80753,6.33864 -3.76786,-1.18506 -7.61118,-2.12875 -7.61118,-2.12875z"/>
  <path class="fil5" d="M109.301 268.159l-0.906792 -15.6466c0,0 0.408254,-6.94032 0.816508,-12.792 0.408254,-5.85164 2.58561,-20.0044 5.85164,-38.1037 3.26603,-18.0993 8.58569,-37.191 9.61127,-40.7463 1.02558,-3.55533 3.12369,-10.0836 3.12369,-10.0836l6.01853 2.6749c0,0 1.09856,0.668232 2.57869,1.53103l-0.0060958 -0.00345978c0,0 -2.21195,4.55982 -3.98797,8.47432 -1.77602,3.91449 -7.08217,17.2823 -8.6824,22.0829 -1.60023,4.80069 -7.56472,28.5132 -10.4742,48.5888 -2.35133,16.2239 -3.00721,24.9536 -3.94283,34.0236z"/>
  <path class="fil2" d="M145.846 148.328c3.15746,-0.274805 9.19197,-0.776473 11.2176,-0.776473 2.79089,0 3.11364,0 3.11364,0 0,0 0.322748,0 3.11364,0 2.02562,0 8.06013,0.501668 11.2176,0.776473 -0.203138,-1.85411 -0.779439,-3.01857 -1.70386,-5.11289 -4.97022,-0.483875 -12.6274,-0.484204 -12.6274,-0.484204 0,0 -7.65715,0.000329503 -12.6274,0.484204 -0.92442,2.09432 -1.50072,3.25878 -1.70386,5.11289z"/>
  <path class="fil6" d="M173.994 145.395c-2.25314,0.559166 -5.77487,1.56464 -8.29737,-0.152889 -2.52251,-1.71753 -4.6618,-4.62655 -4.98422,-9.44717 -0.112031,-1.67437 -0.0222414,-4.65489 -0.0227357,-7.46274 -0.000823757,-5.27534 -0.163433,-11.2227 -0.163433,-11.2227 0,-1.74768 0.739569,-0.520944 1.706,1.64389 0.705301,1.57947 1.47074,3.73936 2.11244,5.95774 0.572346,1.97899 1.45739,3.42765 1.41538,5.24453 -0.0632645,2.72729 0.634293,5.39149 2.85432,6.91379 0.903497,0.619465 1.92265,1.07121 2.81362,1.38885 2.81049,1.34849 5.21916,0.186828 5.85329,1.76646 0.634128,1.57964 -0.384035,3.98105 -3.28728,5.37024z"/>
  <path class="fil7" d="M173.875 145.724l-0.15256 0.0380576c-2.30668,0.578936 -5.68326,1.42625 -8.18963,-0.280242l-0.00774331 -0.00527204c-0.360806,-0.245974 -0.715186,-0.51699 -1.05853,-0.814696 -0.344166,-0.298365 -0.675645,-0.621607 -0.989497,-0.971209 -1.6172,-1.80123 -2.81791,-4.33659 -3.05449,-7.87627 -0.0372338,-0.557024 -0.0522262,-1.26793 -0.0555212,-2.07307 -0.00345978,-0.829358 0.00560155,-1.75576 0.0151571,-2.71757 0.00856707,-0.883067 0.0176284,-1.79744 0.0176284,-2.69138 -0.000659006,-5.2676 -0.163104,-11.1977 -0.163433,-11.2148l-0.00115326 -0.00790807c0,-1.43779 0.377445,-1.56613 1.00152,-0.833807l0 0.00115326c0.326702,0.383541 0.766918,1.25458 1.25969,2.35842l-0.000164751 0 0.00131801 0.00247127c0.102475,0.229828 0.203797,0.465093 0.302484,0.703159 0.0970386,0.233947 0.199349,0.489476 0.305614,0.762469 0.523745,1.34734 1.05243,2.9222 1.5167,4.5272 0.18238,0.630998 0.399028,1.21175 0.60612,1.76729 0.445817,1.19609 0.850117,2.28082 0.820627,3.56341l-0.000988508 0.0426706c-0.00741381,0.369208 -0.000164751,0.741381 0.0237242,1.11273 0.0235594,0.367066 0.0639235,0.729354 0.12241,1.08225 0.296717,1.78887 1.06973,3.39322 2.58314,4.43099l0.00345978 0.00230652 0.00280077 0.00197702 -0.000164751 0.000164751c0.127518,0.0873182 0.251411,0.167552 0.370855,0.241031 0.123234,0.0757856 0.251905,0.150748 0.383871,0.224062 0.548128,0.30479 1.11586,0.557024 1.65031,0.761481 -0.0889657,0.721611 0.0925903,1.68804 0.636599,3.04329 0.897565,2.23518 1.58491,3.57906 2.04984,4.81964z"/>
  <path class="fil8" d="M173.582 145.199l0.0780922 -0.0194407c-0.452572,-1.10136 -1.06644,-2.36171 -1.83467,-4.27513 -0.402652,-1.00317 -0.60612,-1.79266 -0.648956,-2.42827 -0.610404,-0.224556 -1.27452,-0.511388 -1.91935,-0.870052 -0.133778,-0.0741381 -0.269698,-0.153548 -0.406606,-0.237901 -0.139709,-0.0860002 -0.272828,-0.172165 -0.396886,-0.257012l-0.00345978 -0.00230652 -0.00280077 -0.00197702c-1.65954,-1.13942 -2.50406,-2.88035 -2.82483,-4.81453 -0.0619465,-0.374645 -0.104617,-0.755879 -0.12933,-1.13926 -0.0243832,-0.379093 -0.0316323,-0.767412 -0.0237242,-1.16018l0.000988508 -0.0426706c0.0270192,-1.17336 -0.358828,-2.20849 -0.784381,-3.35022 -0.210882,-0.565427 -0.431319,-1.15672 -0.61963,-1.80815 -0.458997,-1.58672 -0.982248,-3.14494 -1.50089,-4.47943 -0.0965443,-0.247951 -0.196878,-0.498043 -0.301001,-0.74896 -0.102146,-0.246633 -0.201326,-0.477285 -0.295893,-0.68932l0.000164751 0 -0.00131801 -0.00247127c-0.473166,-1.06001 -0.886362,-1.88525 -1.17056,-2.21937l-0.000494254 0.000494254c-0.0125211,-0.0146629 0.0202644,0.147123 0.0202644,0.456856l-0.00115326 0c0.0060958,0.229169 0.16261,6.03781 0.163433,11.2227 0.000164751,0.898554 -0.00906133,1.81276 -0.0176284,2.69599 -0.00939083,0.96083 -0.0184522,1.88607 -0.0151571,2.71065 0.00313028,0.781745 0.0181227,1.47798 0.0555212,2.03682 0.226863,3.39305 1.36908,5.81391 2.90687,7.52667 0.300012,0.334281 0.614028,0.640718 0.937435,0.921125 0.324395,0.281066 0.661312,0.538737 1.00614,0.773837l0.00774331 0.00527204c2.29021,1.55937 5.51752,0.749619 7.72206,0.196219z"/>
  <path class="fil7" d="M146.478 145.724l0.15256 0.0380576c2.30668,0.578936 5.68326,1.42625 8.18963,-0.280242l0.00774331 -0.00527204c0.360806,-0.245974 0.715186,-0.51699 1.05853,-0.814696 0.344166,-0.298365 0.675645,-0.621607 0.989497,-0.971209 1.6172,-1.80123 2.81791,-4.33659 3.05449,-7.87627 0.0372338,-0.557024 0.0522262,-1.26793 0.0555212,-2.07307 0.00345978,-0.829358 -0.00560155,-1.75576 -0.0151571,-2.71757 -0.00856707,-0.883067 -0.0176284,-1.79744 -0.0176284,-2.69138 0.000659006,-5.2676 0.163104,-11.1977 0.163433,-11.2148l0.00115326 -0.00790807c0,-1.43779 -0.377445,-1.56613 -1.00152,-0.833807l0 0.00115326c-0.326702,0.383541 -0.766918,1.25458 -1.25969,2.35842l0.000164751 0 -0.00131801 0.00247127c-0.102475,0.229828 -0.203797,0.465093 -0.302484,0.703159 -0.0970386,0.233947 -0.199349,0.489476 -0.305614,0.762469 -0.523745,1.34734 -1.05243,2.9222 -1.5167,4.5272 -0.18238,0.630998 -0.399028,1.21175 -0.60612,1.76729 -0.445817,1.19609 -0.850117,2.28082 -0.820627,3.56341l0.000988508 0.0426706c0.00741381,0.369208 0.000164751,0.741381 -0.0237242,1.11273 -0.0235594,0.367066 -0.0639235,0.729354 -0.12241,1.08225 -0.296717,1.78887 -1.06973,3.39322 -2.58314,4.43099l-0.00345978 0.00230652 -0.00280077 0.00197702 0.000164751 0.000164751c-0.127518,0.0873182 -0.251411,0.167552 -0.370855,0.241031 -0.123234,0.0757856 -0.251905,0.150748 -0.383871,0.224062 -0.548128,0.30479 -1.11586,0.557024 -1.65031,0.761481 0.0889657,0.721611 -0.0925903,1.68804 -0.636599,3.04329 -0.897565,2.23518 -1.58491,3.57906 -2.04984,4.81964z"/>
  <path class="fil8" d="M146.772 145.199l-0.0780922 -0.0194407c0.452572,-1.10136 1.06644,-2.36171 1.83467,-4.27513 0.402652,-1.00317 0.60612,-1.79266 0.648956,-2.42827 0.610404,-0.224556 1.27452,-0.511388 1.91935,-0.870052 0.133778,-0.0741381 0.269698,-0.153548 0.406606,-0.237901 0.139709,-0.0860002 0.272828,-0.172165 0.396886,-0.257012l0.00345978 -0.00230652 0.00280077 -0.00197702c1.65954,-1.13942 2.50406,-2.88035 2.82483,-4.81453 0.0619465,-0.374645 0.104617,-0.755879 0.12933,-1.13926 0.0243832,-0.379093 0.0316323,-0.767412 0.0237242,-1.16018l-0.000988508 -0.0426706c-0.0270192,-1.17336 0.358828,-2.20849 0.784381,-3.35022 0.210882,-0.565427 0.431319,-1.15672 0.61963,-1.80815 0.458997,-1.58672 0.982248,-3.14494 1.50089,-4.47943 0.0965443,-0.247951 0.196878,-0.498043 0.301001,-0.74896 0.102146,-0.246633 0.201326,-0.477285 0.295893,-0.68932l-0.000164751 0 0.00131801 -0.00247127c0.473166,-1.06001 0.886362,-1.88525 1.17056,-2.21937l0.000494254 0.000494254c0.0125211,-0.0146629 -0.0202644,0.147123 -0.0202644,0.456856l0.00115326 0c-0.0060958,0.229169 -0.16261,6.03781 -0.163433,11.2227 -0.000164751,0.898554 0.00906133,1.81276 0.0176284,2.69599 0.00939083,0.96083 0.0184522,1.88607 0.0151571,2.71065 -0.00313028,0.781745 -0.0181227,1.47798 -0.0555212,2.03682 -0.226863,3.39305 -1.36908,5.81391 -2.90687,7.52667 -0.300012,0.334281 -0.614028,0.640718 -0.937435,0.921125 -0.324395,0.281066 -0.661312,0.538737 -1.00614,0.773837l-0.00774331 0.00527204c-2.29021,1.55937 -5.51752,0.749619 -7.72206,0.196219z"/>
  <path class="fil9" d="M189.127 331.431c0,0 1.42345,-33.4511 0.474484,-55.2774 -0.948968,-21.8263 -6.40553,-76.6292 -6.40553,-76.6292 0,0 -2.8469,-20.2842 -3.55863,-24.1987 -0.711726,-3.91449 -1.89794,-9.37106 -1.89794,-9.37106 0,0 3.20277,22.4194 3.91449,30.0111 0.711726,7.59174 1.98179,17.4984 2.69253,25.9088 0.710737,8.41039 3.55369,38.1429 3.7906,44.7765 0.236912,6.63355 1.18456,20.1376 1.06611,38.6167 -0.118456,18.4792 -0.0761151,26.1632 -0.0761151,26.1632z"/>
  <path class="fil9" d="M131.227 331.431c0,0 -1.42345,-33.4511 -0.474484,-55.2774 0.948968,-21.8263 6.40553,-76.6292 6.40553,-76.6292 0,0 2.8469,-20.2842 3.55863,-24.1987 0.711726,-3.91449 1.89794,-9.37106 1.89794,-9.37106 0,0 -3.20277,22.4194 -3.91449,30.0111 -0.711726,7.59174 -1.98179,17.4984 -2.69253,25.9088 -0.710737,8.41039 -3.55369,38.1429 -3.7906,44.7765 -0.236912,6.63355 -1.18456,20.1376 -1.06611,38.6167 0.118456,18.4792 0.0761151,26.1632 0.0761151,26.1632z"/>
  <path class="fil9" d="M160.177 333.348c0,0 0.557519,-59.8443 0.675151,-71.826 0.117303,-11.9817 -0.244821,-91.9713 -0.244821,-91.9713l-0.430331 -14.1937 -0.430331 14.1937c0,0 -0.362124,79.9896 -0.244656,91.9713 0.117468,11.9817 0.674986,71.826 0.674986,71.826z"/>
  <path class="fil9" d="M182.048 123.304c0,0 -1.37551,1.64702 -4.80563,1.87569 -3.43012,0.228675 -6.34606,-0.657852 -8.51765,-1.97306 -2.17159,-1.31521 -3.8308,-3.00062 -3.8308,-3.00062 0,0 1.42922,2.17241 2.80127,3.48729 1.37205,1.31488 4.51633,4.40199 8.97549,3.60163 2.79039,-0.500844 4.26014,-1.06924 5.02541,-1.43811 0.111866,-0.69558 0.240537,-1.57041 0.351909,-2.55282z"/>
  <path class="fil9" d="M138.304 123.304c0,0 1.37551,1.64702 4.80563,1.87569 3.43012,0.228675 6.34606,-0.657852 8.51765,-1.97306 2.17159,-1.31521 3.8308,-3.00062 3.8308,-3.00062 0,0 -1.42922,2.17241 -2.80127,3.48729 -1.37205,1.31488 -4.51633,4.40199 -8.97549,3.60163 -2.79039,-0.500844 -4.26014,-1.06924 -5.02541,-1.43811 -0.111866,-0.69558 -0.240537,-1.57041 -0.351909,-2.55282z"/>
  <path class="fil6" d="M166.52 333.623c0,0 -1.37567,4.73232 0.055027,5.66778 1.4307,0.935458 4.51221,1.32065 7.53869,1.54075 3.02648,0.220108 7.70377,0.825404 10.125,1.59578 2.42119,0.770377 6.16302,1.48573 8.3641,2.14605 2.20108,0.660324 3.74183,0.71535 4.78735,0.220108 1.04551,-0.495243 1.21059,-2.036 0.385189,-2.42119 -0.825404,-0.385189 -2.14605,0.055027 -3.85189,-1.32065 -1.70584,-1.37567 -4.62226,-3.24659 -6.60324,-3.52173 -1.98097,-0.275135 -4.01697,-1.37567 -5.00745,-3.63178 -0.990485,-2.25611 -5.39264,-2.42119 -5.39264,-2.42119l-10.4001 2.14605z"/>
  <path class="fil7" d="M166.416 339.534c-0.747312,-0.488653 -0.838914,-1.81078 -0.722435,-3.08942 1.98361,-0.0945673 4.387,-0.24515 7.0161,-0.484204 2.86569,-0.260472 6.62729,-0.652415 10.5388,-1.02722 0.675316,0.897236 1.56464,1.51357 2.51921,1.89299 0.257012,0.102146 0.520285,0.187652 0.786029,0.256847 0.264261,0.0687013 0.531817,0.121751 0.799044,0.158985l0.00708431 0.000988508c1.47304,0.204456 3.42403,1.24717 5.04683,2.337 0.316323,0.212529 0.618312,0.425223 0.899378,0.631822 0.284855,0.209399 0.551258,0.414514 0.792948,0.609251l0.000988508 0.00115326 0.00494254 0.00395403 0.000164751 -0.000164751c1.07368,0.865933 1.99448,0.969397 2.72005,1.05078 0.403641,0.0453066 0.753902,0.084847 1.0722,0.233288l0.000494254 -0.000988508c0.253223,0.118127 0.43725,0.316323 0.551752,0.558837 0.102311,0.216154 0.147947,0.467894 0.138062,0.726554 -0.00939083,0.251081 -0.0718316,0.511718 -0.184851,0.754067 -0.174966,0.375139 -0.473001,0.710408 -0.888998,0.907451 -0.564932,0.267556 -1.25689,0.386836 -2.09663,0.350426 -0.816014,-0.0352568 -1.77503,-0.218131 -2.89732,-0.554718 -0.996087,-0.298694 -2.32019,-0.611392 -3.69257,-0.935129 -1.63351,-0.385353 -3.33605,-0.787182 -4.67251,-1.21208l-0.00362453 -0.00115326c-1.7172,-0.54648 -4.60332,-1.01108 -7.21051,-1.31093 -0.528852,-0.0607933 -1.02607,-0.113184 -1.48194,-0.156514 -0.457515,-0.0433296 -0.912228,-0.0817167 -1.35179,-0.113678l-0.0136744 -0.000988508c-1.51884,-0.110383 -3.05498,-0.262943 -4.39837,-0.50661 -1.36398,-0.247292 -2.52893,-0.590304 -3.27888,-1.0806z"/>
  <path class="fil8" d="M166.252 336.416c-0.126035,1.12756 -0.0863297,2.26055 0.481568,2.6319 0.680588,0.444993 1.77223,0.762634 3.06306,0.996581 1.31142,0.237901 2.82977,0.388154 4.33708,0.497714l0.0136744 0.000988508c0.408583,0.02982 0.867416,0.0688661 1.36529,0.115985 0.499691,0.0474484 1.00202,0.100169 1.49347,0.156514 2.63289,0.302813 5.55772,0.77532 7.31957,1.33597l0.00362453 0.00115326c1.29198,0.410725 2.99518,0.812719 4.62935,1.19824 1.37996,0.325549 2.71148,0.639894 3.72651,0.944355 1.07863,0.323572 1.99102,0.498867 2.75662,0.531982 0.74204,0.0322913 1.34388,-0.0685366 1.82413,-0.296058 0.28469,-0.134767 0.490135,-0.367066 0.611887,-0.628032 0.0797397,-0.171177 0.123893,-0.354051 0.130483,-0.529346 0.0064253,-0.167717 -0.0212529,-0.326867 -0.0836937,-0.458668 -0.0578277,-0.122575 -0.14877,-0.22192 -0.272334,-0.279418l0 -0.00115326c-0.229169,-0.106924 -0.53676,-0.141521 -0.89114,-0.181391 -0.799703,-0.0897895 -1.8149,-0.203797 -3.01989,-1.17567l-0.000988508 -0.00115326 -0.00494254 -0.00395403 -0.000164751 0.000164751c-0.236418,-0.190453 -0.496066,-0.390461 -0.77219,-0.593434 -0.279913,-0.205774 -0.575312,-0.41402 -0.878949,-0.617982 -1.56415,-1.05045 -3.4293,-2.0533 -4.80399,-2.24408l-0.00708431 -0.000988508c-0.287162,-0.0400346 -0.57663,-0.0975328 -0.864945,-0.172495 -0.286503,-0.0746324 -0.572841,-0.167717 -0.854236,-0.279583 -1.14667,-0.455702 -2.20816,-1.22427 -2.9708,-2.36781 -3.67099,0.354874 -7.1708,0.718151 -9.87371,0.96396 -2.38692,0.216978 -4.5875,0.360311 -6.45727,0.455702z"/>
  <path class="fil6" d="M153.831 333.623c0,0 1.37567,4.73232 -0.055027,5.66778 -1.4307,0.935458 -4.51221,1.32065 -7.53869,1.54075 -3.02648,0.220108 -7.70377,0.825404 -10.125,1.59578 -2.42119,0.770377 -6.16302,1.48573 -8.3641,2.14605 -2.20108,0.660324 -3.74183,0.71535 -4.78735,0.220108 -1.04551,-0.495243 -1.21059,-2.036 -0.385189,-2.42119 0.825404,-0.385189 2.14605,0.055027 3.85189,-1.32065 1.70584,-1.37567 4.62226,-3.24659 6.60324,-3.52173 1.98097,-0.275135 4.01697,-1.37567 5.00745,-3.63178 0.990485,-2.25611 5.39264,-2.42119 5.39264,-2.42119l10.4001 2.14605z"/>
  <path class="fil7" d="M153.935 339.534c0.747312,-0.488653 0.838914,-1.81078 0.722435,-3.08942 -1.98361,-0.0945673 -4.387,-0.24515 -7.0161,-0.484204 -2.86569,-0.260472 -6.62729,-0.652415 -10.5388,-1.02722 -0.675316,0.897236 -1.56464,1.51357 -2.51921,1.89299 -0.257012,0.102146 -0.520285,0.187652 -0.786029,0.256847 -0.264261,0.0687013 -0.531817,0.121751 -0.799044,0.158985l-0.00708431 0.000988508c-1.47304,0.204456 -3.42403,1.24717 -5.04683,2.337 -0.316323,0.212529 -0.618312,0.425223 -0.899378,0.631822 -0.284855,0.209399 -0.551258,0.414514 -0.792948,0.609251l-0.000988508 0.00115326 -0.00494254 0.00395403 -0.000164751 -0.000164751c-1.07368,0.865933 -1.99448,0.969397 -2.72005,1.05078 -0.403641,0.0453066 -0.753902,0.084847 -1.0722,0.233288l-0.000494254 -0.000988508c-0.253223,0.118127 -0.43725,0.316323 -0.551752,0.558837 -0.102311,0.216154 -0.147947,0.467894 -0.138062,0.726554 0.00939083,0.251081 0.0718316,0.511718 0.184851,0.754067 0.174966,0.375139 0.473001,0.710408 0.888998,0.907451 0.564932,0.267556 1.25689,0.386836 2.09663,0.350426 0.816014,-0.0352568 1.77503,-0.218131 2.89732,-0.554718 0.996087,-0.298694 2.32019,-0.611392 3.69257,-0.935129 1.63351,-0.385353 3.33605,-0.787182 4.67251,-1.21208l0.00362453 -0.00115326c1.7172,-0.54648 4.60332,-1.01108 7.21051,-1.31093 0.528852,-0.0607933 1.02607,-0.113184 1.48194,-0.156514 0.457515,-0.0433296 0.912228,-0.0817167 1.35179,-0.113678l0.0136744 -0.000988508c1.51884,-0.110383 3.05498,-0.262943 4.39837,-0.50661 1.36398,-0.247292 2.52893,-0.590304 3.27888,-1.0806z"/>
  <path class="fil8" d="M154.099 336.416c0.126035,1.12756 0.0863297,2.26055 -0.481568,2.6319 -0.680588,0.444993 -1.77223,0.762634 -3.06306,0.996581 -1.31142,0.237901 -2.82977,0.388154 -4.33708,0.497714l-0.0136744 0.000988508c-0.408583,0.02982 -0.867416,0.0688661 -1.36529,0.115985 -0.499691,0.0474484 -1.00202,0.100169 -1.49347,0.156514 -2.63289,0.302813 -5.55772,0.77532 -7.31957,1.33597l-0.00362453 0.00115326c-1.29198,0.410725 -2.99518,0.812719 -4.62935,1.19824 -1.37996,0.325549 -2.71148,0.639894 -3.72651,0.944355 -1.07863,0.323572 -1.99102,0.498867 -2.75662,0.531982 -0.74204,0.0322913 -1.34388,-0.0685366 -1.82413,-0.296058 -0.28469,-0.134767 -0.490135,-0.367066 -0.611887,-0.628032 -0.0797397,-0.171177 -0.123893,-0.354051 -0.130483,-0.529346 -0.0064253,-0.167717 0.0212529,-0.326867 0.0836937,-0.458668 0.0578277,-0.122575 0.14877,-0.22192 0.272334,-0.279418l0 -0.00115326c0.229169,-0.106924 0.53676,-0.141521 0.89114,-0.181391 0.799703,-0.0897895 1.8149,-0.203797 3.01989,-1.17567l0.000988508 -0.00115326 0.00494254 -0.00395403 0.000164751 0.000164751c0.236418,-0.190453 0.496066,-0.390461 0.77219,-0.593434 0.279913,-0.205774 0.575312,-0.41402 0.878949,-0.617982 1.56415,-1.05045 3.4293,-2.0533 4.80399,-2.24408l0.00708431 -0.000988508c0.287162,-0.0400346 0.57663,-0.0975328 0.864945,-0.172495 0.286503,-0.0746324 0.572841,-0.167717 0.854236,-0.279583 1.14667,-0.455702 2.20816,-1.22427 2.9708,-2.36781 3.67099,0.354874 7.1708,0.718151 9.87371,0.96396 2.38692,0.216978 4.5875,0.360311 6.45727,0.455702z"/>
  <ellipse class="fil6" cx="160.175" cy="50.867" rx="35.8212" ry="37.0371"/>
  <path class="fil8" d="M179.441 81.2231c1.9986,-1.36101 3.85518,-2.92796 5.54092,-4.67103 6.35759,-6.57342 10.2907,-15.6543 10.2912,-25.6826l-0.00296552 0 0 -0.00247127 0 -0.00131801 0.00296552 0c-0.000164751,-10.0292 -3.93377,-19.1108 -10.2919,-25.6847 -6.35001,-6.56518 -15.1201,-10.627 -24.8035,-10.6275l0 0.00296552 -0.00230652 0 -0.00115326 0 0 -0.00296552c-9.68425,0.000164751 -18.4551,4.06227 -24.8053,10.6284 -6.35759,6.57342 -10.2907,15.6542 -10.2912,25.6826l0.00296552 0 0 0.00247127 0 0.00131801 -0.00296552 0c0.000164751,10.0292 3.93377,19.1108 10.2919,25.6846 1.68574,1.7429 3.54281,3.30986 5.54141,4.6707 -0.597883,0.105606 -1.25952,0.224227 -1.99481,0.358993 -1.63598,-1.21109 -3.17179,-2.55793 -4.5908,-4.02504 -6.60686,-6.83109 -10.6945,-16.268 -10.6948,-26.6892l-0.00296552 0 0 -0.00131801 0 -0.00247127 0.00296552 0c0.000659006,-10.4205 4.08765,-19.8565 10.6942,-26.6873 6.6146,-6.83949 15.7545,-11.0706 25.8495,-11.071l0 -0.00296552 0.00115326 0 0.00230652 0 0 0.00296552c10.0943,0.000659006 19.2334,4.23147 25.8477,11.07 6.60702,6.83125 10.6945,16.2682 10.6948,26.6894l0.00296552 0 0 0.00131801 0 0.00247127 -0.00296552 0c-0.000659006,10.4202 -4.08765,19.8565 -10.6942,26.6873 -1.41884,1.46711 -2.95482,2.81412 -4.59063,4.02521 -0.735285,-0.134602 -1.39676,-0.253223 -1.99448,-0.358828z"/>
  <path class="fil10" d="M160.177 42.8658c0,0 4.41369,-0.0530499 7.59949,0.208081 3.1858,0.261131 5.95296,0.624572 5.95296,0.624572l6.6955 -14.8324 -7.74463 6.68808 -2.24573 -9.60962 -5.5882 8.61732 -4.66938 -10.9153 -4.66938 10.9153 -5.5882 -8.61732 -2.24573 9.60962 -7.74463 -6.68808 6.6955 14.8324c0,0 2.76716,-0.363442 5.95296,-0.624572 3.1858,-0.261131 7.59949,-0.208081 7.59949,-0.208081z"/>
  <path class="fil0" d="M142.522 80.946c0.195066,-0.0322913 0.380905,-0.0619465 0.559496,-0.0906133l0.0261955 -0.00428354 0.198525 -0.0313028 0.163104 -0.0253717 0.0535442 -0.00840232 0.0525557 -0.00807282c0.192759,-0.0294905 0.376292,-0.0565097 0.550434,-0.0815519l0.00428354 -0.000659006 0.182709 -0.0257012 0.11895 -0.0163104 0.0611228 -0.00823757c0.166069,-0.0224062 0.324395,-0.0428354 0.475308,-0.0612875l0.0181227 -0.00230652 0.0116973 -0.00148276 0.0214177 -0.00247127c0.205115,-0.0247127 0.39771,-0.0456361 0.580419,-0.0637588l0.00230652 -0.000329503 0.114502 -0.0108736 0.0230652 -0.00214177 0.08946 -0.00823757 0.0472836 -0.00411878 0.00329503 -0.000329503 0.228345 -0.0184522 0.0322913 -0.00263602 0.0131801 -0.000823757 0.104617 -0.00741381 0.00988508 -0.000659006 0.0932493 -0.0060958 0.0326208 -0.00197702 0.118456 -0.00691956 0.00560155 -0.000329503 0.0462951 -0.00247127 0.0762799 -0.00411878 0.0237242 -0.00115326c0.148276,-0.00708431 0.294081,-0.0125211 0.44038,-0.0168046l0.0182874 -0.000494254 0.033774 -0.000823757 0.197207 -0.00461304 0.00988508 -0.000164751c0.161621,-0.00313028 0.325878,-0.00527204 0.495902,-0.00675481l0.000988508 -0.000164751 0.104947 -0.000494254 0.0227357 -0.000329503 0.0843527 -0.000659006 0.181391 -0.000988508 0.0380576 -0.000164751 0.155031 -0.000823757 0.191441 -0.00115326 0.0393756 -0.000164751 0.0817167 -0.000494254 0.0675481 -0.000329503 0.056345 -0.000494254 0.0978623 -0.000659006 0.0293257 -0.000329503 0.129659 -0.000988508 0.000659006 0 0.27184 -0.00280077 0.0619465 -0.000823757 0.0799044 -0.00115326 0.0962148 -0.00115326 0.0494254 -0.000823757 0.150089 -0.00247127 0.154537 -0.00263602 0.0174636 -0.000494254 0.142016 -0.00280077 0.0538737 -0.000988508 0.0273487 -0.000659006 0.387166 -0.00922608 0.0393756 -0.000988508 0.180073 -0.00527204 0.168211 -0.00444829 0.0281725 -0.000659006 0.026525 -0.000823757 0.00164751 -0.000164751 0.0115326 -0.000164751 0.0398698 -0.00115326 0.00741381 -0.000164751 0.109395 -0.00296552 0.0281725 -0.000823757 0.0247127 -0.000823757 0.00345978 -0.000164751 0.0276782 -0.000494254 0.0281725 -0.000988508 0.027843 -0.000494254 0.0057663 -0.000164751 0.385518 -0.0102146 0.0276782 -0.000494254 0.0509082 -0.00131801 0.00494254 -0.000164751 0.0276782 -0.000494254 0.0121916 -0.000494254 0.0408583 -0.000988508 0.00378928 0 0.054368 -0.00148276 0.0276782 -0.000494254 0.054368 -0.00148276 0.00313028 0 0.0416821 -0.000988508 0.0116973 -0.000494254 0.0276782 -0.000494254 0.0176284 -0.000494254 0.0377281 -0.000988508 0.0276782 -0.000494254 0.0276782 -0.000494254 0.00939083 -0.000329503 0.0458009 -0.00115326 0.0276782 -0.000659006 0.0276782 -0.000494254 0.0825404 -0.00197702 0.0273487 -0.000494254 0.0116973 -0.000494254 0.126035 -0.00329503 0.491453 -6.6833c-2.6955,-3.56506 -4.89608,-9.86086 -5.49495,-11.6672 -0.535607,1.91688 -3.3489,12.018 -5.10861,18.9771z"/>
  <path class="fil0" d="M146.625 43.6985c0,0 -2.02595,6.8044 -3.16224,13.1056 -1.13514,6.29499 -2.5487,24.3822 -2.5515,24.4186l0.0222414 -0.00395403 0.0128506 -0.00230652 0.00906133 -0.00164751 0.0220767 -0.00395403 0.0217472 -0.00378928 0.250257 -0.0438239 0.00757856 -0.00131801c0.338564,-0.0593105 0.655875,-0.113843 0.953581,-0.164092 1.94654,-7.71234 5.2213,-19.3914 5.233,-19.4334l0.0261955 -0.093414c0,0 2.12266,-6.03039 4.36987,-9.82824 3.0848,-4.87598 8.33576,-7.77989 8.33576,-7.77989l1.74109 -0.998558c-1.04123,-0.00626055 -1.73912,0.00148276 -1.73912,0.00148276 0,0 -4.41369,-0.0530499 -7.59949,0.208081 -3.1858,0.261131 -5.95296,0.624572 -5.95296,0.624572z"/>
  <path class="fil2" d="M147.47 61.471c0,0 2.97673,9.54553 6.56897,13.2406 3.59224,3.69504 4.37398,4.40364 6.14061,4.40364 1.76663,0 2.54047,-0.708596 6.13271,-4.40364 3.59224,-3.69504 5.60534,-10.4706 5.60534,-10.4706 0,0 -2.32052,-8.13312 -4.56773,-11.931 -2.46979,-3.35945 -4.215,-4.79888 -7.17426,-6.57061 -0.673009,-0.358664 -1.25508,-0.553894 -1.96169,-0.602661 -1.80996,1.2956 -4.49442,3.53474 -6.37407,6.50603 -2.24721,3.79785 -4.36987,9.82824 -4.36987,9.82824z"/>
  <path class="fil0" d="M167.356 80.312l-0.459327 -6.2449c2.67391,-3.13753 4.36525,-7.82684 4.86527,-9.33811 0.540549,1.79892 3.09057,10.3475 4.42539,15.9616 -2.81791,-0.401499 -3.35253,-0.230487 -6.68611,-0.325713 -0.725071,-0.0207587 -1.44487,-0.0378928 -2.14523,-0.0528852z"/>
  <path class="fil0" d="M173.73 43.6985c0,0 1.66333,6.80753 2.79896,13.1056 1.09757,6.0874 2.45397,23.1835 2.54607,24.3539 -1.04008,-0.181556 -1.87734,-0.318959 -2.57918,-0.423082 -1.48919,-6.29531 -4.54994,-16.4005 -4.55949,-16.4323l-0.0187817 -0.061617c0,0 -2.32052,-8.13312 -4.56773,-11.931 -1.96532,-2.67326 -3.47197,-4.13114 -5.49676,-5.50813l0 0.000329503 -0.0215824 -0.0149924 -0.00263602 -0.00181227 -0.0243832 -0.0163104 -0.00296552 -0.00197702 -0.14251 -0.0957205 -0.00411878 -0.00280077 -0.0474484 -0.031797 -0.00345978 -0.00230652 -0.116644 -0.0769389 -0.00527204 -0.00329503 -0.000659006 -0.000494254 -0.0387166 -0.025207 -0.0110383 -0.00741381 -0.025207 -0.0163104 -0.0487664 -0.031797 -0.00181227 -0.00131801c-0.0932493,-0.0604638 -0.187652,-0.120928 -0.283372,-0.181556l-0.0261955 -0.0163104 -0.00527204 -0.00345978c-0.137567,-0.0869887 -0.277936,-0.174142 -0.42094,-0.261955l-0.000164751 -0.000164751 -0.027184 -0.0168046 -0.00856707 -0.00527204c-0.133778,-0.0817167 -0.269863,-0.163763 -0.408583,-0.246798 -0.595247,-0.317311 -1.11916,-0.506775 -1.72116,-0.58009 0.701676,-0.481404 1.49957,-1.01569 1.89991,-1.23942 0.56345,-0.314675 1.3877,-0.79163 1.83236,-1.05013 1.53433,0.0168046 3.55039,0.0667243 5.22707,0.204127 3.1858,0.261131 6.31624,0.624572 6.31624,0.624572z"/>
  <path class="fil2" d="M158.454 45.1593c-0.0785864,-0.00955558 -0.158985,-0.0169694 -0.240537,-0.0225709 1.161,-0.830676 1.96169,-1.27386 1.96169,-1.27386l1.73664 -0.996087 0.274476 0.00296552c-0.444664,0.258495 -1.26892,0.73545 -1.83236,1.05013 -0.400346,0.223732 -1.19824,0.758021 -1.89991,1.23942z"/>
  <path class="fil6" d="M163.997 60.604c0.321759,0 7.92042,3.63705 7.92042,3.63705 0,0 3.71037,12.2493 4.95144,18.1788"/>
  <path class="fil8" d="M171.917 64.241l0.0187817 0.061617c0.00955558,0.0319618 3.07014,10.1368 4.55949,16.4323l-0.30825 -0.0448124c-1.33515,-5.6144 -3.8855,-14.1637 -4.42588,-15.9616 0.102805,-0.310886 0.155855,-0.487499 0.155855,-0.487499z"/>
  <path class="fil6" d="M155.585 60.6494c-0.321759,0 -8.08254,0.924255 -8.08254,0.924255 0,0 -5.13019,18.295 -6.37127,24.2245"/>
  <path class="fil8" d="M147.632 61.9691c-0.535771,1.91738 -3.34972,12.0188 -5.10927,18.9771l-0.311874 0.0518967c1.94654,-7.71218 5.2213,-19.3916 5.233,-19.4336l0.0261955 -0.093414c0,0 0.0565097,0.179744 0.161951,0.498043z"/>
  <path class="fil6" d="M166.895 74.06c-0.190947,0.232958 -0.3842,0.451089 -0.579101,0.651592 -3.5924,3.69488 -4.37003,4.31088 -6.13666,4.31088l-0.00197702 0 -0.00197702 0c-1.76663,0 -2.54426,-0.615841 -6.13666,-4.31088 -0.309238,-0.318135 -0.614193,-0.680094 -0.912558,-1.0755"/>
  <path class="fil7" d="M166.897 74.0679l0.0230652 0.313851 0.00774331 0.104452 -0.0836937 0.0985213 -0.000659006 0.000659006c-0.13938,0.162939 -0.280901,0.318464 -0.423576,0.465258 -1.80222,1.85362 -2.89995,2.9362 -3.77281,3.55814 -0.8946,0.637423 -1.55328,0.797067 -2.46765,0.797067l-0.00197702 0 -0.00197702 0c-0.91437,0 -1.57305,-0.159644 -2.46765,-0.797067 -0.872523,-0.621607 -1.96993,-1.70386 -3.77149,-3.55665l-0.000329503 0.000329503 -0.000988508 -0.000988508 -0.000988508 -0.00181227c-0.0458009,-0.0469541 -0.0897895,-0.0932493 -0.131966,-0.138556 -0.0415173,-0.0444829 -0.0851765,-0.0922608 -0.130813,-0.143334 -0.224886,-0.250916 -0.358993,-0.450595 -0.574159,-0.735615l0.029161 -0.396062 0.0219119 0.028502c0.291775,0.383871 0.588821,0.736603 0.890646,1.04699 3.59092,3.69373 4.37333,4.40315 6.13864,4.40364l0.00197702 0c1.76663,0 2.54047,-0.708596 6.13271,-4.40364 0.0860002,-0.0884715 0.171012,-0.179579 0.255365,-0.27151 0.0240537,-0.0140039 0.0426706,-0.027843 0.0551917,-0.0425059l0.0795749 -0.0939083 -0.000164751 -0.000164751 0.0802339 -0.0968738 0.114667 -0.138721z"/>
  <path class="fil6" d="M160.168 72.1626c-1.40533,0.00164751 -1.38457,-0.405288 -2.33782,-0.928868 -0.953251,-0.52358 -2.3164,-0.958853 -2.3164,-0.958853 0,0 0.968244,-0.0334445 2.03567,-0.606779 1.06742,-0.573335 1.91276,-0.461633 2.62548,-0.395403"/>
  <path class="fil6" d="M155.514 70.2749c0,0 2.66732,0.314016 3.57329,0.352568 0.905968,0.0385518 1.08785,0.0192759 1.08785,0.0192759"/>
  <path class="fil6" d="M160.182 72.1626c1.40533,0.00164751 1.38457,-0.405288 2.33782,-0.928868 0.953251,-0.52358 2.3164,-0.958853 2.3164,-0.958853 0,0 -0.968244,-0.0334445 -2.03567,-0.606779 -1.06742,-0.573335 -1.91276,-0.461633 -2.62548,-0.395403"/>
  <path class="fil6" d="M164.836 70.2749c0,0 -2.66732,0.314016 -3.57329,0.352568 -0.905968,0.0385518 -1.08785,0.0192759 -1.08785,0.0192759"/>
  <path class="fil7" d="M163.646 70.5544c-0.829194,0.090119 -1.86927,0.196219 -2.37703,0.217801 -0.866098,0.0367396 -1.06709,0.0219119 -1.09065,0.0197702l-0.000823757 0.000329503 -0.0293257 -0.000329503c-0.000329503,0 -0.164587,0.0196054 -1.09345,-0.0197702 -0.507764,-0.0215824 -1.54784,-0.127682 -2.37703,-0.217801 0.391285,0.157173 0.823922,0.347955 1.1956,0.552082 0.284526,0.156349 0.484204,0.302154 0.6595,0.430331 0.395074,0.288809 0.659665,0.481898 1.60847,0.480909l0.0411878 0 0.0168046 0c0.935129,-0.00131801 1.1989,-0.193748 1.59166,-0.480909 0.175295,-0.128177 0.374974,-0.273982 0.6595,-0.430331 0.371679,-0.204127 0.804316,-0.394909 1.1956,-0.552082zm-3.47049 -0.0525557l0 -0.000164751 0.000329503 0.000164751 0.00164751 0 0.000494254 0.000329503c0.0237242,0.00164751 0.248445,0.0154866 1.07978,-0.0196054 0.540055,-0.0229004 1.72626,-0.145805 2.58182,-0.240208 -0.32769,-0.092755 -0.711067,-0.233782 -1.10729,-0.446641 -0.981424,-0.52704 -1.7752,-0.451748 -2.44722,-0.387989l-0.0958853 0.00906133 -0.0546975 0 -0.0958853 -0.00906133c-0.672021,-0.0637588 -1.46579,-0.13905 -2.44722,0.387989 -0.396227,0.212859 -0.779604,0.353886 -1.10729,0.446641 0.855554,0.0944025 2.04176,0.217307 2.58182,0.240208 0.868569,0.0367396 1.0755,0.0196054 1.08225,0.0191112l0.0273487 0.000164751zm-0.0136744 -1.37337l0.0958853 -0.00906133c0.712385,-0.0675481 1.55344,-0.147452 2.61197,0.42094 1.0376,0.557189 1.97306,0.589645 1.97553,0.589645 0.451419,0.0645825 0.503315,0.0729849 0.0369043,0.282219 -0.00378928,0.00115326 -1.34948,0.43099 -2.29202,0.948638 -0.269698,0.148276 -0.46048,0.287491 -0.627867,0.409901 -0.440875,0.322254 -0.736109,0.537748 -1.77981,0.536595 -1.0437,0.00115326 -1.38012,-0.214342 -1.821,-0.536595 -0.167387,-0.12241 -0.358169,-0.261625 -0.627867,-0.409901 -0.942543,-0.517649 -2.28823,-0.947485 -2.29202,-0.948638 -0.466411,-0.209234 -0.414514,-0.217637 0.0369043,-0.282219 0.00247127,0 0.93793,-0.032456 1.97553,-0.589645 1.05853,-0.568392 1.89958,-0.488488 2.61197,-0.42094l0.0958853 0.00906133zm-0.0136744 1.3732l0 -0.000329503 0 0.000329503zm0.0273487 0l0 -0.000329503 0 0.000329503z"/>
  <path class="fil0" d="M150.049 57.2994c0,0 0.878784,-0.0418468 1.54833,-0.376622 0.66955,-0.334775 1.48408,-1.29429 3.12879,-0.915688 1.64471,0.378599 2.47753,1.58013 2.56073,1.83006 0.0831994,0.249928 -0.458503,1.04205 -1.70897,1.41719 -1.25046,0.375139 -2.29845,0.147123 -3.17377,-0.269698 -0.875324,-0.416821 -2.35512,-1.68524 -2.35512,-1.68524zm5.04535 -0.538243c0.164916,0.209893 0.263767,0.473825 0.263767,0.761316 0,0.681741 -0.552576,1.23432 -1.23415,1.23432 -0.681741,0 -1.23432,-0.552576 -1.23432,-1.23432 0,-0.265579 0.0835289,-0.511059 0.226368,-0.712385 -0.144652,0.0691956 -0.278759,0.148111 -0.404794,0.230652 -0.531323,0.34812 -1.83945,0.564109 -1.83945,0.564109 0,0 0.347625,0.368714 1.65592,1.12673 1.30829,0.758021 2.57589,0.389308 3.16866,0.184357 0.592775,-0.204951 1.34931,-0.799044 1.22657,-0.921949 -0.113678,-0.113843 -0.943202,-0.891305 -1.82858,-1.23283z"/>
  <path class="fil0" d="M170.306 57.2994c0,0 -0.878784,-0.0418468 -1.54833,-0.376622 -0.66955,-0.334775 -1.48408,-1.29429 -3.12879,-0.915688 -1.64471,0.378599 -2.47753,1.58013 -2.56073,1.83006 -0.0831994,0.249928 0.458503,1.04205 1.70897,1.41719 1.25046,0.375139 2.29845,0.147123 3.17377,-0.269698 0.875324,-0.416821 2.35512,-1.68524 2.35512,-1.68524zm-5.04535 -0.538243c-0.164916,0.209893 -0.263767,0.473825 -0.263767,0.761316 0,0.681741 0.552576,1.23432 1.23415,1.23432 0.681741,0 1.23432,-0.552576 1.23432,-1.23432 0,-0.265579 -0.0835289,-0.511059 -0.226368,-0.712385 0.144652,0.0691956 0.278759,0.148111 0.404794,0.230652 0.531323,0.34812 1.83945,0.564109 1.83945,0.564109 0,0 -0.347625,0.368714 -1.65592,1.12673 -1.30829,0.758021 -2.57589,0.389308 -3.16866,0.184357 -0.592775,-0.204951 -1.34931,-0.799044 -1.22657,-0.921949 0.113678,-0.113843 0.943202,-0.891305 1.82858,-1.23283z"/>
  <path class="fil0" d="M152.038 54.595c0,0 1.45097,-0.288809 2.9222,0.388484 1.47123,0.677293 2.44557,1.36464 2.44557,1.36464 -1.37864,-1.54866 -2.67227,-2.11738 -4.69195,-2.39071l-0.67581 0.637588z"/>
  <path class="fil0" d="M168.318 54.595c0,0 -1.45097,-0.288809 -2.9222,0.388484 -1.47123,0.677293 -2.44557,1.36464 -2.44557,1.36464 1.37864,-1.54866 2.67227,-2.11738 4.69195,-2.39071l0.67581 0.637588z"/>
  <path class="fil0" d="M153.55 49.348c3.75435,1.23366 7.47263,1.18275 11.4384,0.094732 0.371514,0.389802 0.744841,0.811895 1.12937,1.27814 -2.02133,0.609251 -4.74204,1.05408 -6.98793,1.03019 -2.24589,-0.0238889 -5.21586,-0.790642 -6.54788,-1.19165 0.310886,-0.421599 0.635611,-0.825404 0.968079,-1.21142z"/>
  <path class="fil0" d="M156.983 65.414c0,0 1.23119,0.0935788 1.90271,0.542197 0.671527,0.448618 1.29132,0.429836 1.29132,0.429836 0,0 0.619795,0.0187817 1.29132,-0.429836 0.671527,-0.448618 1.90271,-0.542197 1.90271,-0.542197 -0.731002,0.299683 -1.41983,0.665925 -1.94802,1.19 -0.2351,0.233288 -0.77499,0.378104 -1.24601,0.417645 -0.471024,-0.0395403 -1.01091,-0.184357 -1.24601,-0.417645 -0.528193,-0.524074 -1.21702,-0.890316 -1.94802,-1.19z"/>
 </g>
</svg>
