<?xml version="1.0" encoding="UTF-8" standalone="no"?>
<!-- Creator: CorelDRAW -->
<svg
   xmlns:dc="http://purl.org/dc/elements/1.1/"
   xmlns:cc="http://web.resource.org/cc/"
   xmlns:rdf="http://www.w3.org/1999/02/22-rdf-syntax-ns#"
   xmlns:svg="http://www.w3.org/2000/svg"
   xmlns="http://www.w3.org/2000/svg"
   xmlns:sodipodi="http://sodipodi.sourceforge.net/DTD/sodipodi-0.dtd"
   xmlns:inkscape="http://www.inkscape.org/namespaces/inkscape"
   xml:space="preserve"
   width="744"
   height="827.28192"
   style="shape-rendering:geometricPrecision; text-rendering:geometricPrecision; image-rendering:optimizeQuality; fill-rule:evenodd; clip-rule:evenodd"
   viewBox="0 0 210 297"
   id="svg2"
   sodipodi:version="0.32"
   inkscape:version="0.45.1"
   sodipodi:docname="POL gmina Ulan-Majorat COA.svg"
   inkscape:output_extension="org.inkscape.output.svg.inkscape"
   sodipodi:docbase="C:\Users\Mistrz\Desktop"
   version="1.0"><metadata
   id="metadata27"><rdf:RDF><cc:Work
       rdf:about=""><dc:format>image/svg+xml</dc:format><dc:type
         rdf:resource="http://purl.org/dc/dcmitype/StillImage" /></cc:Work></rdf:RDF></metadata><sodipodi:namedview
   inkscape:window-height="480"
   inkscape:window-width="640"
   inkscape:pageshadow="2"
   inkscape:pageopacity="0.0"
   guidetolerance="10.0"
   gridtolerance="10.0"
   objecttolerance="10.0"
   borderopacity="1.0"
   bordercolor="#666666"
   pagecolor="#ffffff"
   id="base" />
 <defs
   id="defs4">
  <style
   type="text/css"
   id="style6">
   
    .fil0 {fill:#0A0B0C;fill-rule:nonzero}
    .fil3 {fill:#2AABE2;fill-rule:nonzero}
    .fil1 {fill:#EB2227;fill-rule:nonzero}
    .fil4 {fill:#FFCB09;fill-rule:nonzero}
    .fil2 {fill:white;fill-rule:nonzero}
   
  </style>
 </defs>
 <g
   id="Warstwa_x0020_1"
   transform="matrix(1.2719105,0,0,1.2719105,-28.550349,-40.379348)">
  <metadata
   id="CorelCorpID_0Corel-Layer" />
  <path
   class="fil0"
   d="M 209.986,161.246 L 209.9998,31.747 L -0.0002,31.747 L 0.0192,161.246 C 0.0192,218.9371 47.5763,265.254 105.0022,265.254 C 162.4071,265.254 209.9862,218.9222 209.9862,161.246 L 209.986,161.246 z "
   id="path10"
   style="fill:#0a0b0c;fill-rule:nonzero" />
  <path
   class="fil1"
   d="M 207.922,161.246 L 207.922,33.821 L 2.098,33.821 L 2.098,161.246 C 2.098,217.828 48.6801,263.17 104.998,263.17 C 161.2771,263.17 207.922,217.8063 207.922,161.246 z "
   id="path12"
   style="fill:#eb2227;fill-rule:nonzero" />
  <path
   class="fil0"
   d="M 18.2561,130.428 C 17.3185,130.3423 16.4002,130.1611 15.493,129.8679 C 14.3369,129.489 13.1448,128.8543 12.2694,127.9789 C 12.4299,127.5723 12.8198,127.2611 12.9388,126.8905 L 13.1628,126.9196 C 15.2068,127.0523 16.7874,126.1106 18.1537,124.7387 C 18.1385,123.8661 18.0611,122.9492 18.021,121.9784 C 17.7499,116.7524 17.4153,110.5126 20.3927,106.7456 C 21.4368,105.4692 22.7907,104.5163 24.1293,103.5704 C 27.1206,101.4877 30.5212,99.0967 31.0771,93.9453 L 31.131,93.3064 C 32.7725,95.1346 33.7558,96.8564 33.5207,99.4092 C 33.4433,100.239 33.2427,101.1171 32.9067,102.0146 C 33.121,101.6883 33.3451,101.3273 33.5456,100.9664 C 36.1261,96.5452 36.8383,92.9842 35.472,90.8324 L 35.1553,90.3152 C 37.4385,90.5848 39.8296,90.9071 40.7464,93.3894 C 41.3314,94.9507 41.0922,97.1952 39.9457,100.1311 C 41.0341,98.921 41.8348,97.6488 42.3658,96.2437 C 43.2053,93.9356 43.0518,91.8848 42.63,89.52 C 42.8775,89.6458 43.1721,89.8436 43.4155,89.9307 C 43.0504,86.4389 42.3174,82.9968 41.6495,79.5436 L 48.6346,80.6361 C 48.4645,79.5588 48.1271,78.4027 47.8104,77.2217 C 47.4176,75.9162 46.693,73.7727 46.693,72.4119 C 46.5229,70.899 46.8838,69.3958 47.2793,67.9133 C 47.4605,67.1569 47.6444,66.4115 47.7661,65.6785 C 47.8657,65.0617 47.8615,64.5998 47.7025,63.9665 L 30.051,64.9138 L 29.1936,64.4201 C 28.9405,64.5667 28.6763,64.752 28.4081,64.9525 C 27.9268,65.3134 27.4594,65.6661 26.9007,65.8348 C 26.0488,66.0879 24.9549,65.9703 24.2718,65.3466 C 23.8375,64.9373 23.5734,64.3661 23.5195,63.6346 C 23.4296,62.6734 24.0906,62.3001 24.8512,61.8935 C 24.9535,61.8299 25.0365,61.7759 25.1057,61.7372 C 25.0365,61.5118 24.9936,61.2974 24.9688,61.1218 C 24.9065,60.382 25.2287,59.9851 25.8718,59.6628 C 26.1691,59.555 26.5577,59.454 26.8661,59.454 L 27.7982,59.9463 C 29.9348,58.0974 32.4434,56.4144 35.3558,54.8185 C 38.3415,53.2088 41.7269,51.7208 45.5756,50.3793 L 45.3419,50.0239 L 56.3679,49.5067 L 56.4024,49.9313 C 59.5735,50.5937 62.7099,51.5354 65.7634,52.8133 C 68.8473,54.0731 71.8233,55.6441 74.7454,57.4875 L 75.3802,57.0491 C 75.7729,56.962 76.2597,56.9191 76.6677,57.0339 C 76.9512,57.092 77.1752,57.2095 77.3315,57.3796 C 77.5071,57.565 77.6233,57.7904 77.6675,58.0683 C 77.7215,58.3753 77.7215,58.7515 77.5998,59.1857 C 77.9469,59.306 78.3438,59.4125 78.6563,59.62 C 79.0477,59.88 79.3021,60.3792 79.3768,60.83 C 79.4971,61.5436 79.3561,62.1562 78.8513,62.643 C 78.1322,63.3234 77.0895,63.6083 76.138,63.3995 C 75.5461,63.2667 75.0192,62.9514 74.4771,62.6389 C 74.213,62.4826 73.9696,62.3319 73.7359,62.2143 L 73.1744,62.6292 L 55.3044,63.5806 C 55.3044,63.99 55.1951,64.362 55.3044,64.7658 L 55.3044,64.7907 C 55.4994,65.655 55.8064,66.4889 56.1092,67.3574 C 56.6016,68.7472 57.1049,70.1135 57.163,71.5919 C 57.2266,73.2652 56.8657,74.8846 56.5186,76.5192 C 56.2697,77.6601 56.0207,78.8024 55.9143,79.9585 C 55.8092,81.199 56.0277,82.4519 56.1231,83.6758 L 56.5186,83.6758 L 59.4172,86.0032 L 66.0621,87.1787 L 66.0718,88.4717 L 73.935,90.7162 C 74.9943,90.4521 75.8338,90.423 76.5501,90.6332 C 77.2969,90.8573 77.9012,91.3109 78.4627,91.9885 L 91.9323,94.4086 L 95.0508,90.0275 C 94.8267,89.9307 94.6497,89.8063 94.4644,89.6527 C 94.0551,89.3347 93.7481,88.9212 93.5766,88.4178 C 93.3622,87.8176 93.5157,86.9989 93.7564,86.4001 C 93.9306,85.9645 94.2321,85.4929 94.4257,85.0864 C 93.9583,84.7061 93.9057,84.1875 94.1864,83.6467 C 94.3275,83.3632 94.5778,83.2457 94.835,83.0659 C 93.8698,82.7064 93.7854,81.7397 94.1726,80.9003 L 93.04,80.9141 C 92.8547,80.0429 93.0082,79.3556 93.2737,78.5244 C 90.7057,77.9256 88.1113,77.3572 85.5363,76.8511 L 96.4212,67.7819 C 97.2482,66.2289 97.6977,64.4049 98.9285,63.0786 L 98.9285,63.0634 C 99.1235,62.8546 99.3281,62.6389 99.548,62.4397 C 102.2876,59.8191 105.7269,58.9285 109.3639,58.3753 C 110.0443,58.2799 110.7372,58.1734 111.4231,58.0434 C 112.0219,58.5219 112.6262,59.0972 113.2029,59.6103 C 114.3106,60.5507 115.4764,61.5367 116.3255,62.6002 C 118.4373,65.1558 120.2931,68.1277 119.9502,71.5628 C 119.8188,72.8655 119.4634,74.153 118.9697,75.3479 L 124.4294,88.5478 C 121.8863,87.5908 119.3652,86.5675 116.8192,85.6326 L 117.0571,88.5395 L 121.9167,97.7649 L 120.9459,97.5409 C 121.8793,100.3565 122.5749,103.0698 122.3025,106.0693 C 122.0411,108.9831 121.2598,111.8914 120.3899,114.66 C 119.4966,117.5282 118.068,120.1198 116.6436,122.6712 C 116.0241,123.8218 115.3547,124.9779 114.7698,126.188 C 114.4033,126.8698 114.6273,127.8392 114.7836,128.5403 C 115.1971,130.2482 115.8208,131.9174 116.4182,133.5603 L 120.3899,129.6674 L 127.5216,132.9352 C 125.9617,136.6622 124.4073,140.3975 122.8584,144.1175 L 126.9616,144.1175 C 126.7749,143.6432 126.5702,143.1702 126.3655,142.6972 L 135.2355,142.4829 C 135.4153,142.9379 135.6407,143.3804 135.826,143.834 C 137.6114,143.6141 139.5046,143.9031 141.543,144.6637 C 143.6367,145.4437 145.837,146.7077 148.2515,148.3561 C 148.9057,147.3176 149.5542,146.2541 150.1932,145.1754 C 152.876,140.7017 155.6377,136.1215 160.1017,133.4372 C 161.5178,132.5854 163.0543,131.8828 164.6142,131.3006 C 170.0822,129.2871 176.4561,128.8736 181.9726,130.9839 C 187.7282,133.1717 192.1287,137.2679 194.842,142.7221 C 197.009,146.9953 198.1886,151.8992 198.7985,156.5624 C 199.5342,162.8173 198.0559,168.9367 196.5015,174.9302 C 195.1434,180.1369 193.979,185.374 192.4938,190.5309 C 192.2905,191.2265 192.119,191.9387 192.1978,192.6454 C 192.3444,193.9813 193.6485,195.1028 194.6663,195.8206 L 192.9391,196.9089 L 192.7842,196.8301 L 192.7842,196.8163 C 189.6865,195.692 187.4351,194.309 186.5002,189.8837 C 186.0895,187.7471 186.261,185.5801 186.4366,183.4144 C 186.6869,180.3222 186.7671,177.1996 186.9248,174.0908 C 186.066,179.7746 185.2113,185.4584 185.2418,191.1712 C 185.2418,192.6592 185.5972,194.0407 186.1434,195.4057 C 187.9412,199.8352 190.389,201.7878 193.8808,204.2411 C 193.5185,205.2285 193.2004,206.2934 192.7593,207.2268 C 191.6184,206.9544 190.5107,206.6903 189.3546,206.5105 C 187.3784,206.1537 185.4022,205.7928 183.6846,204.8662 C 180.4029,203.103 177.1545,200.8668 175.2543,197.5727 C 173.3542,194.1901 173.4248,190.293 173.552,186.537 C 173.6543,183.337 174.2932,180.2282 174.9377,177.1069 C 175.2931,175.4336 175.6347,173.7893 175.8891,172.1257 C 176.3247,169.2921 176.4492,166.1335 175.7965,163.2944 C 176.1131,166.0851 175.7176,169.0473 174.4785,171.7938 C 173.4566,174.1655 172.3834,176.5151 171.3365,178.8577 L 171.3365,178.8729 C 171.2397,179.126 171.1471,179.3901 171.0544,179.6584 C 170.7751,180.7551 170.2938,182.5584 170.8788,183.5458 C 171.2799,184.2649 171.9519,184.9923 172.4982,185.6202 L 171.508,187.1856 C 169.9536,186.6933 167.965,186.0032 166.8199,184.8872 C 165.5546,183.7076 164.4828,181.9997 164.3902,180.2282 C 164.126,176.6865 165.9321,171.9293 167.2874,168.5785 C 168.1738,166.4585 169.1571,164.3993 169.1571,162.0318 C 169.2967,160.2229 168.7768,158.1541 167.8392,156.6108 C 166.5475,154.6097 164.675,153.141 162.331,152.5519 C 159.615,151.9808 157.1105,152.675 154.8232,154.2211 C 156.2724,155.3966 157.4866,157.2414 158.4533,159.6559 C 159.4767,162.1784 160.2871,165.3397 160.8817,169.0031 C 161.2053,168.9892 161.5303,168.9643 161.8636,168.9643 L 162.024,180.0678 C 161.5815,180.0678 161.1528,180.0705 160.7213,180.0526 C 160.6134,180.5698 160.4973,181.0483 160.4046,181.5309 C 160.0257,183.2374 159.4836,185.1334 158.6386,186.6532 C 158.2141,187.4152 157.7992,188.1661 157.6277,188.9807 L 157.6277,188.9903 C 157.6042,189.1812 157.5945,189.3126 157.5752,189.4979 C 157.4258,190.5295 157.5918,191.6372 157.9997,192.5818 C 159.0798,194.9839 160.9453,196.8412 163.3018,197.9433 C 163.4387,198.0111 163.5895,198.0899 163.7125,198.1674 L 163.7222,198.1674 C 164.776,198.5878 165.751,199.0815 166.8628,199.4161 C 167.073,199.4853 167.3372,199.4853 167.6054,199.4853 C 167.9318,199.4991 168.3218,199.4991 168.6634,199.6844 C 169.6245,199.9831 170.2689,200.936 170.5027,201.8653 C 170.9991,203.8484 170.5925,205.9338 170.4307,207.9695 C 170.3132,209.4769 170.6036,210.7104 170.9009,212.1486 C 171.6048,215.5548 173.0182,218.7548 174.3084,221.8498 C 174.6638,222.7003 174.8754,223.5273 175.069,224.4248 L 175.0843,224.4248 L 175.0843,224.4538 C 175.3387,225.91 174.8063,227.0219 173.292,227.1533 C 172.2368,227.2404 171.0434,227.0122 170.0228,227.3469 C 168.7892,227.7521 167.4602,228.7353 166.9264,229.9703 C 166.7729,230.345 166.6595,231.0324 167.1754,231.1568 C 167.3372,231.1859 167.4837,231.2246 167.629,231.3172 L 167.629,231.3325 C 168.0922,231.6021 168.7795,232.0447 168.8542,232.6061 C 168.9635,233.6557 168.7477,235.0428 168.3301,235.997 C 167.9277,236.9374 167.2998,237.409 166.3456,237.7284 C 162.8441,238.9025 157.9859,238.9634 154.4041,238.3867 C 153.1222,238.135 151.843,237.9068 150.6177,237.4546 C 150.1849,237.3219 150.0161,236.8226 150.2346,236.4562 L 156.0719,226.6292 C 156.6984,225.6625 157.3138,224.9863 158.1504,224.1703 C 159.1033,223.2991 159.8777,222.3463 160.6577,221.3022 C 161.5358,220.0271 162.1471,218.7355 162.2093,217.1507 C 162.2093,215.0929 161.6119,211.5402 160.7213,209.6179 C 160.0686,208.3277 159.0715,207.202 158.0675,206.1786 C 156.1259,204.3047 154.2783,203.2925 151.6369,202.5097 C 148.9637,201.6924 146.2214,201.1254 143.5344,200.3869 C 143.6285,201.3453 143.7764,202.2954 143.8954,203.2413 C 144.0198,204.6242 144.2521,205.8923 144.7583,207.1729 C 145.3986,208.7038 145.9504,210.9649 145.2368,212.5248 C 144.4499,214.3807 143.0808,215.2879 141.0576,214.9753 C 138.9003,214.6393 137.3459,213.3781 136.7291,211.2138 C 135.4056,206.5976 134.5565,201.9455 134.0103,197.3086 C 133.5083,197.8797 132.9662,198.5034 132.4448,199.2308 C 131.3191,200.8074 129.6403,203.4957 129.0636,205.3931 C 128.8423,206.0403 128.805,206.9226 129.1106,207.567 C 129.3498,208.069 129.7951,208.4466 130.0952,208.9016 C 130.7051,209.8267 130.145,210.6828 129.7149,211.5084 C 129.2586,212.3768 128.4786,212.9549 127.7706,213.5883 C 126.2162,214.7637 124.6645,216.3513 123.3024,217.7204 C 122.3039,218.7825 120.9998,220.4337 120.4826,221.7945 C 120.2433,222.4043 120.112,223.0681 119.9405,223.7223 C 119.5049,225.5864 118.895,226.9251 117.8329,228.4892 C 117.3212,229.2373 116.7971,229.9482 116.1015,230.6009 C 114.7767,231.7418 113.5915,231.5717 112.925,230.0049 C 112.6622,229.171 112.1727,228.2485 111.7979,227.4395 C 111.206,227.8323 110.5284,228.0411 109.9545,228.4781 C 109.6834,228.633 109.4552,228.9884 109.3003,229.2346 L 109.3003,229.2442 C 109.0279,229.8278 108.6559,230.3105 109.1012,230.9328 C 109.3805,231.5634 110.6141,231.4182 110.9889,232.4208 C 111.1852,232.8357 110.6985,234.8146 110.5201,235.206 L 110.5201,235.235 C 110.267,235.791 110.0568,236.2695 109.6184,236.7231 C 107.208,239.092 101.09,238.944 98.0406,238.6896 C 95.7796,238.413 93.6098,237.7755 91.3819,237.4104 L 98.089,225.8298 C 100.5119,224.2658 102.8795,222.6021 105.33,221.0532 C 109.3404,218.4865 113.6814,215.7097 116.2191,211.5305 C 117.0779,210.0646 117.6421,208.2557 117.7071,206.534 L 117.7209,206.534 C 117.8385,205.436 117.8385,204.3435 117.7596,203.2413 C 117.418,198.4467 116.0255,193.5982 114.8431,188.9267 L 114.9495,188.6349 L 113.4187,189.5767 L 103.5101,191.7271 L 103.5101,192.3135 C 102.4798,192.7602 101.2601,192.8667 100.1634,192.9234 L 99.6365,208.2225 C 99.5383,210.0024 99.2216,211.5153 98.5966,212.7931 C 97.8747,214.2438 96.7075,215.5354 95.3522,216.3887 C 94.3565,214.9615 93.3885,213.5758 92.7676,211.9301 C 92.2891,210.5984 92.0651,209.3399 92.2448,208.0912 L 92.5671,192.6689 C 87.8084,192.9413 82.8369,192.6565 78.1751,191.6746 L 76.9512,202.9094 L 77.1987,210.3744 C 78.117,213.2093 78.8499,216.083 79.4819,218.3012 C 79.8193,219.2361 80.1734,219.7574 80.7251,220.4696 C 80.8994,221.027 81.1552,221.5953 81.4,222.1167 C 81.7997,223.0197 82.1855,223.9076 82.3418,224.9945 C 82.5202,226.0635 81.7015,226.7121 80.7583,226.849 C 80.32,226.9154 79.8511,226.9016 79.3796,226.8933 C 78.8873,226.8836 78.4088,226.8836 77.9842,226.9763 C 77.5126,227.08 76.7589,227.5156 76.1159,227.9733 C 75.3843,228.4961 74.3057,229.4074 74.1397,230.3921 C 74.0526,230.9701 74.231,231.2121 74.7897,231.338 C 75.7563,231.5689 76.3026,232.4512 76.2846,233.3723 C 76.2832,234.0596 75.9458,235.0691 75.571,235.791 C 75.1257,236.6511 74.6707,237.2237 73.7718,237.5957 C 72.5853,238.0908 71.3213,238.3756 70.0573,238.489 C 67.6649,238.7449 65.2351,238.6329 62.8178,238.6605 L 57.2266,237.4007 L 63.9296,226.0055 C 65.1148,224.9904 66.1382,223.8426 67.0122,222.5509 C 67.9152,221.1998 68.7159,219.6717 69.4032,217.8767 L 68.6717,209.4423 C 67.5446,208.5683 66.6028,207.5878 66.0718,206.2851 C 65.5449,204.9533 65.4716,203.3049 66.0718,201.2208 L 64.5298,194.5967 L 64.4662,194.6257 L 64.4123,194.0297 L 59.8016,195.6449 L 53.2411,195.4887 C 52.2495,194.3077 52.1043,192.9095 52.1043,191.4201 L 57.7674,189.5518 L 62.8178,184.7019 L 44.1705,178.8093 L 41.8348,181.3027 L 40.6386,187.1469 C 41.1807,188.1316 41.756,189.2738 42.2192,190.5323 C 42.7129,191.835 43.1361,193.2843 43.4155,194.8885 C 43.5233,195.6159 43.161,196.1843 42.4737,196.3765 C 41.6592,196.577 40.2057,196.4055 39.3359,196.2161 C 39.0524,197.2049 38.5849,198.2642 38.6195,199.2848 C 38.6541,199.6844 38.9307,199.9707 39.2999,200.109 C 40.4906,200.5557 41.4794,200.12 42.1957,199.748 C 43.1361,199.3774 44.1318,198.9681 45.1275,199.2848 C 46.3694,199.6775 47.7495,200.3717 48.2736,201.6357 C 48.7425,202.7918 48.5807,204.0116 48.4493,205.2465 C 48.0828,207.8008 47.5158,210.2665 46.7953,212.764 C 46.2007,214.8467 45.4774,216.8741 44.8205,218.9263 L 35.3558,209.7396 C 33.5414,206.6322 31.8819,203.7336 31.0771,199.8697 C 30.6415,198.1231 31.9207,196.1234 32.1115,194.3809 C 32.496,191.2099 32.7504,188.0486 33.0187,184.8776 C 33.1363,183.337 33.2676,181.8241 33.4142,180.1507 L 31.8183,175.7116 L 35.9062,169.2423 C 37.9875,169.6351 40.0826,169.9504 42.1764,170.1343 C 44.1705,170.2809 46.137,170.3099 48.0496,170.1592 L 52.4597,169.1248 L 51.8886,161.5685 C 52.6713,161.0223 53.4278,160.4497 54.2257,159.9339 L 56.4024,152.4302 C 56.0844,152.0693 55.7677,151.6986 55.4358,151.328 L 52.2205,150.6794 C 51.9923,151.1856 51.5539,151.6364 51.0796,151.913 C 52.1679,152.574 53.3559,153.2212 54.6558,153.8532 L 54.9435,155.8598 C 54.6931,156.4075 54.281,157.0436 53.9187,157.529 C 53.5702,157.9937 53.1927,158.5136 52.728,158.8704 L 51.3575,158.7391 C 50.6149,157.9964 49.8834,157.0879 49.2832,156.2014 C 48.7812,155.445 48.3663,154.6747 48.0247,153.8795 L 47.2932,154.3718 C 47.6098,155.5376 48.0109,156.6108 48.5807,157.5719 C 49.214,158.6561 50.1005,159.6449 51.157,160.3045 L 50.6647,161.6211 C 48.9623,162.1051 47.6057,162.6555 46.1619,163.7189 C 45.5673,164.1891 45.0224,164.687 44.5564,165.1392 C 43.7764,165.2374 42.4765,165.1295 41.8099,165.0216 C 40.8502,164.8737 40.1615,164.5791 39.2584,164.2265 C 38.921,163.6346 38.625,163.0593 38.4093,162.3927 C 38.2088,161.7137 38.0387,160.9683 37.9709,160.104 C 37.8727,159.4291 37.6072,158.8276 37.2532,158.2357 C 37.0665,158.3117 36.8674,158.3698 36.6682,158.421 L 34.8621,153.8256 C 35.0765,153.7951 35.3116,153.7744 35.5121,153.7177 C 34.5164,151.9517 33.3603,150.5176 31.9497,149.4984 C 30.2321,148.2289 28.5768,147.8085 26.472,147.6107 C 26.2037,143.3749 24.334,138.8154 21.3925,135.7108 C 20.8698,135.6347 20.3332,135.5379 19.8022,135.4826 L 18.2561,130.428 L 18.2561,130.428 z "
   id="path14"
   style="fill:#0a0b0c;fill-rule:nonzero" />
  <path
   class="fil2"
   d="M 73.5603,160.011 L 72.1455,166.8122 L 71.4762,169.3637 L 76.0329,168.0071 L 79.4432,159.9336 L 73.5603,160.011 L 73.5603,160.011 z M 18.3944,125.3552 C 17.0225,126.7021 15.3907,127.6107 13.3094,127.525 C 13.2112,127.778 13.1089,127.8569 13.0162,127.8859 C 14.0257,128.7184 15.2303,129.2633 16.4804,129.5731 C 20.1341,130.4623 24.6617,129.5592 27.3156,126.9926 L 27.7304,127.4461 C 25.7791,129.3006 22.9497,130.3295 20.105,130.4623 L 20.159,130.7154 C 22.6413,130.9104 25.1057,131.0182 27.5686,131.0722 C 30.2819,131.1399 32.9897,131.0722 35.7265,130.8965 C 32.3259,127.8569 27.057,125.4271 19.8948,123.6072 C 19.4454,124.2212 18.9351,124.82 18.3944,125.3552 L 18.3944,125.3552 z M 122.6044,144.7271 C 121.9392,146.3783 121.2215,148.0405 120.5411,149.671 C 119.9589,151.0207 119.4389,152.4175 118.9272,153.8253 C 117.8582,156.7723 116.7505,159.7192 115.1408,162.3924 C 120.4581,164.2995 125.756,165.9092 131.0844,167.1732 C 131.6238,166.9519 132.1271,166.8136 132.7384,166.8662 C 132.6651,162.9733 131.9723,159.0693 130.8798,155.1667 C 129.9283,151.6831 128.6394,148.2051 127.215,144.7271 L 122.6044,144.7271 L 122.6044,144.7271 z M 146.3781,169.1936 C 148.877,169.2863 151.3455,169.3098 153.8431,169.2863 C 155.97,169.242 158.1315,169.1936 160.2875,169.047 C 159.6873,165.4611 158.9308,162.3634 157.9116,159.8949 C 156.9878,157.5992 155.8372,155.6991 153.8182,154.2346 C 155.2536,153.1255 157.2893,151.9998 159.7412,151.7661 C 162.5209,151.6209 165.1,152.6539 167.0541,154.6744 C 167.5588,155.1487 167.9861,155.7295 168.3319,156.3228 L 168.3512,156.3228 C 169.4935,158.2783 170.0149,160.7924 169.6636,163.041 C 169.4271,164.8927 168.7398,166.5605 168.0581,168.2435 C 166.7,171.5971 164.7155,176.5065 164.9617,180.1753 C 165.0945,181.8694 166.0183,183.3394 167.2297,184.4776 C 168.3623,185.5895 169.8697,185.8785 171.265,186.4828 L 171.7615,185.6586 C 171.283,185.0695 170.7534,184.5177 170.391,183.8387 C 169.7355,182.7075 170.1283,180.7368 170.4989,179.4963 C 170.5916,179.2184 170.698,178.9404 170.8059,178.6873 L 170.8156,178.6624 C 171.8307,176.2907 172.8844,173.9204 173.952,171.5542 C 175.1579,168.9253 175.5037,166.0613 175.216,163.348 C 175.1026,162.3385 174.9284,161.2446 174.5619,160.2793 C 174.5384,160.177 174.6407,159.8949 174.7472,159.7483 C 174.8482,159.6473 174.992,159.5574 175.1579,159.592 C 175.3184,159.6169 175.4262,159.7234 175.4898,159.9239 C 175.9863,161.3967 176.451,163.0562 176.675,165.0711 C 176.8852,167.0805 176.8852,169.4176 176.451,172.2319 C 176.1965,173.9204 175.8356,175.5647 175.5037,177.238 C 174.88,180.3302 174.23,183.4293 174.1374,186.5603 C 174.006,190.1641 173.9202,194.0681 175.772,197.2944 C 177.6417,200.536 180.7477,202.6159 183.963,204.3584 C 186.5227,205.7482 189.6246,205.8118 192.4126,206.5489 C 192.6975,205.863 192.9104,205.1397 193.1843,204.4358 C 191.3215,202.952 189.1531,201.6313 187.8033,199.6302 C 186.1189,197.0759 184.6558,194.3267 184.6558,191.1806 C 184.6268,185.2783 185.5201,179.4424 186.4218,173.6134 C 186.7274,171.3108 187.1063,168.9461 187.4175,166.6172 L 188.0177,166.6808 C 187.683,170.6512 187.4631,174.6022 187.2847,178.5767 C 187.2114,180.2141 187.1644,181.8473 187.0178,183.4681 C 186.7786,186.6349 186.4937,189.9705 188.2708,192.7599 C 189.6495,194.9227 190.9024,195.3528 192.9201,196.231 L 193.5798,195.8203 C 192.7403,195.014 191.7474,193.9077 191.6133,192.7129 C 191.4611,191.3396 192.1637,189.5626 192.5205,188.1658 C 193.6572,183.7198 194.7511,179.2543 195.9459,174.8082 C 196.672,171.994 197.4436,168.9931 197.9069,165.9147 C 198.384,162.8709 198.5845,159.7234 198.2139,156.6409 C 197.6331,152.0206 196.4327,147.2149 194.3252,142.9901 C 193.483,141.3735 192.5592,139.8578 191.4321,138.4182 L 191.4183,138.4182 C 189.0231,135.3938 185.5201,132.9737 181.7724,131.5589 C 178.6069,130.3392 175.1925,129.9852 171.8293,130.2867 C 167.9184,130.6379 163.7475,131.9047 160.405,133.9694 C 156.0474,136.5499 153.3549,141.0775 150.7052,145.5029 C 149.9585,146.753 149.166,147.9907 148.4124,149.2146 C 146.1388,147.6865 143.9442,146.2109 141.3636,145.2484 C 139.4649,144.5418 137.6948,144.2389 136.0892,144.4242 C 137.5634,147.9271 138.743,151.4245 139.6848,154.9274 C 140.7247,158.884 141.4411,162.8847 141.7923,166.8565 C 142.7535,166.4554 143.6413,166.4859 144.3881,166.8122 C 145.2745,167.2064 146.1886,168.2117 146.3781,169.1936 L 146.3781,169.1936 z M 142.7438,179.7605 C 142.7438,186.5769 142.7051,193.0185 143.4712,199.8017 C 146.2481,200.5305 149.0637,201.1514 151.8226,201.977 C 156.0004,202.9741 160.4963,206.6042 161.8031,210.8111 C 162.4213,212.7969 162.8306,215.5877 162.7947,217.1835 C 162.7076,219.8484 161.0411,221.9256 159.3415,223.8202 C 158.6985,224.5365 157.8812,225.1906 157.3114,225.8821 L 164.9617,230.0778 L 164.6837,230.5951 L 156.956,226.3606 L 150.7758,236.6882 C 150.7086,236.8006 150.7011,236.8929 150.8311,236.9302 C 151.9983,237.3796 153.2567,237.6189 154.4972,237.8208 C 158.0513,238.3975 162.236,238.1886 165.7707,237.2939 C 166.8613,237.0153 167.4722,236.6725 167.8254,235.5679 C 168.0725,234.7935 168.3056,234.0239 168.2904,233.1839 C 168.2751,232.3376 167.7275,232.0112 166.9849,231.7692 C 166.4331,231.5921 166.2036,231.0404 166.2202,230.4844 C 166.2451,229.6049 166.8383,228.8014 167.5353,228.1915 C 168.466,227.3784 169.5253,226.8059 170.7838,226.6399 C 171.579,226.5362 172.4295,226.6275 173.2329,226.5984 C 173.8746,226.5749 174.2922,226.4173 174.49,225.5419 C 174.5619,225.2224 174.5702,224.9044 174.4789,224.5794 L 174.4789,224.5655 C 174.3282,223.7994 174.0599,223.043 173.7764,222.2824 C 173.6699,222.0874 173.616,221.8827 173.5966,221.8329 L 173.5966,221.8191 C 172.1294,218.1378 170.651,214.657 169.9485,210.7447 C 169.7217,209.4793 169.8393,208.1033 169.943,206.8407 C 170.0992,205.5076 170.2306,204.0541 170.073,202.7003 C 169.9817,201.9079 169.7355,201.1486 169.0883,200.6204 C 168.596,200.2207 168.2143,200.1087 167.5906,200.1087 C 167.2878,200.0796 167.0098,200.0796 166.7125,200.0119 C 164.8608,199.3522 162.2761,198.3593 160.4728,196.8893 C 159.2779,195.7055 158.1232,194.371 157.4428,192.8152 C 156.8979,191.4668 156.8274,190.0521 157.1358,188.6374 C 157.4608,187.2254 158.4717,186.05 158.9557,184.6726 C 159.4771,183.1832 159.7536,181.6219 160.1409,180.0772 C 157.877,180.0384 155.663,179.9845 153.4337,179.8241 C 150.6859,179.6678 147.9104,179.4134 145.1584,179.0718 C 144.4351,179.5862 143.6275,179.8891 142.7438,179.7605 z M 122.6348,183.7944 L 115.7852,188.1216 L 115.4533,188.9707 C 116.2706,192.6147 117.3424,196.1909 117.9357,199.8791 C 118.3132,202.3061 118.6133,204.9254 118.1998,207.3538 C 117.814,211.45 115.0177,214.5062 112.0776,217.0522 C 110.0475,218.7117 107.8376,220.1305 105.6512,221.5508 C 103.3777,223.0042 101.1139,224.5171 98.8901,226.0093 L 107.1199,230.2632 L 106.871,230.7665 L 98.4213,226.4283 L 92.3185,237.0104 C 95.8311,237.7876 99.2331,238.6422 103.5782,238.1527 C 105.5185,238.0268 107.7422,237.7599 109.1943,236.3079 C 110.0019,235.5459 110.1637,234.3967 110.3863,233.3595 C 110.6173,232.2739 110.1664,232.2601 109.2413,231.8245 C 108.8001,231.6143 108.4931,231.2091 108.3631,230.7237 C 108.1501,229.9326 108.6729,229.0849 109.1251,228.4585 C 109.829,227.6024 111.1137,227.2069 112.0776,226.6344 C 112.4247,227.5278 112.8355,228.4336 113.249,229.302 C 113.4329,229.6948 113.9459,230.8343 114.4963,230.8343 C 114.9735,230.8343 115.3745,230.4996 115.7161,230.1857 C 117.5374,228.4958 118.9867,225.6318 119.4762,223.2186 C 119.6685,222.3059 119.9478,221.4139 120.4304,220.6007 C 121.0099,219.6272 121.7414,218.5858 122.5408,217.7173 C 124.2141,215.885 126.1557,214.2393 128.0282,212.5853 C 128.3048,212.3378 128.5717,212.0861 128.8206,211.8178 C 129.1414,211.5025 129.5909,210.5455 129.7236,210.0837 C 129.8246,209.7352 129.7803,209.4392 129.4761,209.0271 C 129.2216,208.6828 128.8994,208.3661 128.6795,207.9941 C 128.0807,206.9845 128.266,205.8381 128.6712,204.7166 C 129.6545,202.0019 132.1576,198.4215 133.9388,196.5477 L 133.9139,196.0941 C 131.6016,194.5424 129.5037,192.7765 127.6161,190.7657 C 125.7035,188.7218 124.0537,186.4095 122.6348,183.7944 L 122.6348,183.7944 z M 107.0618,169.8712 C 105.849,170.4507 104.6472,170.8669 103.4856,171.1684 L 103.5105,191.1571 L 113.2033,189.0592 L 122.3264,183.2924 L 120.1608,176.9836 L 120.7222,176.7886 C 122.4384,181.9676 123.5351,185.6531 128.0545,190.3619 C 129.7665,192.2344 131.733,193.8842 133.8212,195.3418 C 133.3524,190.1614 133.2694,184.9409 133.3773,179.7605 C 132.6651,180.0384 132.0013,180.0135 131.4398,179.8033 C 130.133,179.3677 129.3655,178.0263 129.1815,176.7208 C 125.3854,175.9505 121.6681,174.9936 118.0242,173.8526 C 114.0552,172.6426 110.4776,171.0758 107.0618,169.8712 L 107.0618,169.8712 z M 76.3804,181.8583 L 79.9511,181.6039 L 79.3606,179.5212 L 81.4253,179.2433 L 82.0642,177.3307 L 83.7901,178.4481 L 85.6252,177.4385 L 86.1673,179.5115 L 88.026,179.7895 L 87.2004,181.6869 L 88.7077,183.2675 L 86.8007,184.0392 L 86.7274,186.1896 L 84.7222,185.6489 L 83.3766,187.278 L 82.1029,185.5798 L 80.2927,186.0292 L 80.142,183.7073 L 76.3804,184.4237 C 76.5367,184.8773 76.6971,185.3267 76.8783,185.79 C 77.336,186.9461 77.8145,188.1313 77.7993,189.3911 C 77.7855,190.001 77.2683,190.4545 76.6971,190.7754 C 79.2002,191.3562 81.6687,191.7268 84.1524,191.9522 C 86.9376,192.2053 89.7615,192.2344 92.5827,192.0878 L 92.9865,171.091 C 90.5235,170.3442 88.1324,169.3485 85.8354,168.1301 C 85.1177,170.6581 83.4679,172.8265 81.4737,174.4625 L 82.2094,175.2079 L 76.9115,180.6773 L 76.3804,181.8583 L 76.3804,181.8583 z M 65.1014,194.5134 L 66.6862,201.2607 C 66.1524,202.6851 66.0252,204.6391 66.6184,206.0704 C 67.2034,207.5529 68.1341,208.2112 69.2335,209.1488 L 70.0038,217.9552 C 69.5571,219.5414 68.4314,221.5079 67.5063,222.877 C 66.6862,224.0774 65.7638,225.1118 64.8082,226.0148 L 72.4087,230.1705 L 72.1459,230.678 L 64.3491,226.4283 L 58.1342,237.0547 C 59.7204,237.3644 61.3122,237.7032 62.8707,238.0891 C 65.2565,238.0422 67.6386,238.1734 70.019,237.9176 C 71.2623,237.8374 72.6576,237.464 73.8041,236.9468 C 74.5716,236.6287 75.0431,235.6814 75.3018,234.9277 C 75.4801,234.4548 75.7166,233.8228 75.7166,233.2931 C 75.7166,232.6183 75.1538,232.0291 74.5163,231.8839 C 73.8151,231.6364 73.504,231.3225 73.5206,230.5397 C 73.5372,230.1207 73.6893,229.6837 73.9313,229.3463 C 74.7126,228.1805 75.7263,227.4434 76.9695,226.7713 C 77.8062,226.3149 78.4382,226.3011 79.3952,226.3357 C 80.2249,226.3454 81.9605,226.3924 81.771,225.0869 C 81.6051,224.1023 81.2386,223.2379 80.8638,222.3598 C 80.6287,221.8619 80.4102,221.3558 80.2291,220.7943 C 79.6731,220.1941 79.2735,219.3741 78.9665,218.5111 C 78.6443,217.6371 78.4188,216.6622 78.2003,215.7647 L 76.6197,210.4764 L 76.3652,202.9188 L 77.5905,191.5609 C 76.9751,191.4295 76.3804,191.3023 75.7899,191.1515 C 74.6684,191.5512 73.4528,191.7365 72.287,191.908 C 71.7601,192.0006 71.2429,192.0975 70.716,192.1915 L 70.9594,193.5274 L 65.1014,194.5134 L 65.1014,194.5134 z M 63.4031,169.0802 L 58.3043,168.4081 L 48.1524,170.7245 L 48.1136,170.7245 C 46.1527,170.9153 44.1709,170.8711 42.1132,170.7245 C 40.1909,170.5544 38.2092,170.2709 36.1901,169.9003 L 32.4576,175.8136 L 34.0037,180.0924 L 33.5999,184.9215 C 33.3607,188.1216 33.0924,191.3023 32.6969,194.4844 C 32.643,194.9822 32.4936,195.4552 32.3249,195.9267 C 31.946,197.0013 31.4122,198.6428 31.6334,199.7726 C 32.4964,203.6213 34.077,206.3871 35.5899,208.9787 L 41.3705,201.2302 L 41.8352,201.5926 L 35.9357,209.4959 L 44.5623,217.8861 C 45.1666,216.1063 45.7281,214.3403 46.2453,212.6172 C 46.9879,210.0892 47.53,207.7576 47.8647,205.1632 C 47.9864,204.0306 48.1427,202.88 47.7333,201.8705 C 47.6351,201.5746 47.4401,201.3561 47.2396,201.1044 C 46.6547,200.5042 45.7668,200.1087 44.9716,199.8556 C 44.1709,199.6012 43.2541,199.9579 42.405,200.3037 C 41.9182,200.5332 41.347,200.7421 40.8105,200.8209 C 40.3458,200.9122 39.4635,200.843 39.0196,200.6065 C 38.5784,200.2995 38.0529,199.9372 38.0294,199.319 C 37.9852,198.4934 38.2396,197.7232 38.4982,196.9473 C 38.6517,196.4993 38.7554,196.0443 38.8979,195.5865 C 39.8175,195.6861 40.6971,195.8963 41.6208,195.8839 C 42.2293,195.8783 42.9512,195.8216 42.8447,194.9864 C 42.5806,193.4403 42.1519,192.0159 41.6596,190.756 C 41.1894,189.5142 40.5823,188.4313 40.0291,187.2241 L 41.2876,181.0327 L 44.0147,178.1507 L 63.2953,184.2632 L 63.9854,183.5787 L 63.9342,182.2041 L 71.6412,166.3213 L 72.9218,160.1964 C 70.6137,161.2944 68.3692,162.4892 66.169,163.7823 C 63.9342,165.0946 61.7685,166.5052 59.6458,167.9877 L 63.4806,168.5104 L 63.4031,169.0802 L 63.4031,169.0802 z M 50.3775,152.181 C 50.2696,152.181 50.1617,152.2059 50.0594,152.2059 C 49.8381,152.2059 49.6072,152.163 49.3887,152.0856 C 47.5978,153.4076 45.5345,154.655 43.5611,155.6839 C 41.7951,156.6257 39.8977,157.4499 37.8247,158.104 C 38.2147,158.689 38.4609,159.3874 38.5466,160.065 C 38.6337,160.8892 38.7568,161.6111 38.9712,162.2306 C 39.1703,162.817 39.4054,163.3342 39.6737,163.7878 C 40.3762,164.1197 41.1175,164.3589 41.903,164.4903 C 42.6345,164.5968 43.4062,164.6369 44.1709,164.612 C 43.9856,163.8113 43.7464,163.0161 43.3523,162.4159 C 42.9512,161.8462 42.4105,161.4603 41.6098,161.5917 C 41.2862,161.6374 41.264,161.8227 41.264,162.1241 C 41.3152,162.6579 41.6679,163.644 42.1132,163.8943 L 41.8877,164.4212 C 41.2115,164.0962 40.7538,162.9027 40.6777,162.1629 C 40.6417,161.5295 40.8948,161.1284 41.5171,160.9971 C 42.6055,160.8657 43.308,161.329 43.839,162.0992 C 44.2401,162.7091 44.5084,163.4752 44.6881,164.2663 C 44.962,163.9178 45.4736,163.5568 45.8208,163.2803 C 47.2161,162.2458 48.6751,161.5281 50.2406,161.1575 L 50.4452,160.567 C 49.4592,159.8161 48.6889,158.9531 48.0943,157.9035 C 47.4401,156.7902 46.8759,155.4032 46.6298,154.1184 L 48.3432,153.0301 C 48.7083,154.0728 49.1633,155.0118 49.7773,155.9135 C 50.3138,156.6796 50.9182,157.4499 51.6262,158.2063 C 51.9236,158.2298 52.2333,158.2492 52.5141,158.3142 C 52.8308,158.0058 53.153,157.6504 53.4406,157.2259 C 53.7628,156.8013 54.0408,156.309 54.3188,155.7766 L 54.1086,154.2789 C 53.3673,153.9041 52.6745,153.5625 52.0356,153.2112 C 51.4506,152.8545 50.8947,152.5226 50.3775,152.181 L 50.3775,152.181 z M 28.3697,136.135 C 26.3396,136.1751 24.315,136.0672 22.3001,135.8432 C 24.8613,138.775 26.4572,142.5075 26.9744,147.0642 C 29.0432,147.2343 30.7995,147.9271 32.3263,149.0445 C 33.7991,150.1426 35.0575,151.6983 36.1113,153.5957 C 37.8151,153.25 39.5077,152.7079 41.2253,152.0441 L 37.703,136.4531 C 37.4099,136.2235 37.1554,135.9594 36.9314,135.6524 C 36.8138,135.5058 36.7073,135.3495 36.6285,135.2043 C 33.8779,135.8142 31.1162,136.106 28.3697,136.135 L 28.3697,136.135 z M 47.6006,148.4983 C 47.6407,148.2203 47.7333,147.9714 47.826,147.7169 C 47.6877,147.4473 47.53,146.9383 47.418,146.2178 C 47.2991,145.4254 47.2327,144.4602 47.3433,143.6429 C 47.4443,142.9168 47.808,142.123 48.2215,141.5187 C 48.6447,140.9019 49.1328,140.31 49.5048,139.6614 C 50.1161,138.5938 50.4342,137.0215 50.0912,135.8239 C 49.7427,134.5958 49.1951,133.4397 48.6889,132.2573 C 47.8937,132.5989 47.0405,132.9349 46.1374,133.2378 C 45.0104,133.6236 43.7906,133.9943 42.5225,134.3303 C 42.499,134.4077 42.4713,134.481 42.4423,134.5516 L 45.5912,149.6779 L 47.6006,148.4983 L 47.6006,148.4983 z M 56.8564,152.9623 L 54.9674,159.4703 C 56.631,158.4069 58.4371,157.4264 60.3096,156.4943 C 63.2621,155.0353 66.4428,153.7575 69.8185,152.5765 C 69.8627,152.2349 69.9651,151.874 70.0619,151.5172 C 70.4035,150.4247 71.0922,149.4442 72.0768,148.7278 C 73.1112,147.9811 74.4817,147.5178 76.1509,147.5178 L 77.336,146.5995 L 77.8436,147.0006 L 84.8494,135.8723 L 86.0595,134.5405 C 85.5575,134.2653 84.9946,133.9666 84.5465,133.6126 L 84.8245,132.9253 L 82.7128,132.574 L 81.8263,133.0179 C 79.6372,137.7696 77.2116,141.8202 73.6187,145.6495 C 69.8213,149.6862 64.7556,153.3758 59.7633,155.8747 C 58.7801,154.9178 57.8369,153.9428 56.8564,152.9623 L 56.8564,152.9623 z M 78.5558,121.8951 C 77.0926,120.2356 75.5562,118.7476 73.9894,117.4062 C 72.3216,115.9721 70.6427,114.7233 68.9403,113.6447 C 60.2169,108.0148 51.0938,106.4341 44.4641,107.0205 C 38.5508,107.5515 34.2236,109.1184 30.7553,111.4444 C 27.9009,113.3432 25.6177,115.7481 23.5447,118.4945 C 29.9601,120.1291 35.2484,123.314 39.4441,128.0712 C 40.3762,128.0864 41.2253,128.5884 41.8352,129.3974 C 41.9569,129.5731 42.0731,129.7694 42.1768,129.9548 C 43.839,129.7694 45.4985,129.32 47.1719,128.5635 C 47.1719,128.5345 47.1719,128.5193 47.147,128.4571 L 46.591,126.9926 L 47.6407,128.1487 C 48.4884,129.0808 49.2988,129.7542 50.0691,130.4084 C 50.6651,130.9256 51.2501,131.4027 51.8364,131.9738 C 53.5098,133.6471 54.6756,135.6385 55.4998,137.818 C 56.295,139.8675 56.8163,142.0677 57.2658,144.2735 C 60.2418,142.9168 62.9247,141.4966 65.2715,140.039 C 69.1257,137.6728 72.1501,135.1352 74.3171,132.5159 C 74.147,131.9821 74.0378,131.5368 74.0378,130.9491 C 73.9811,129.1582 74.1014,127.2733 74.7458,125.5737 C 75.1676,124.3858 76.3417,122.8244 77.4522,122.115 C 77.8007,121.9007 78.181,121.8606 78.5558,121.8951 L 78.5558,121.8951 z M 18.7142,124.1341 C 20.3682,122.2104 21.6833,119.9715 23.2281,117.9524 C 25.2983,115.2461 27.5732,112.8426 30.4427,110.9328 C 33.9747,108.5804 38.3945,106.961 44.4254,106.4341 C 51.163,105.8201 60.4174,107.4298 69.2626,113.1233 C 70.9995,114.2407 72.6867,115.5033 74.3752,116.9388 C 76.2089,118.525 77.8643,120.2287 79.4989,122.0224 C 80.5472,122.2256 81.5138,122.6322 82.5413,122.8991 L 85.5671,122.1288 C 85.5035,121.9048 85.4399,121.6808 85.332,121.465 C 84.6447,119.6451 83.4983,118.3479 82.0877,117.6413 C 80.673,116.9235 78.9167,116.7922 76.9115,117.4311 C 76.444,117.5583 76.0375,117.7312 75.6143,117.9234 C 75.895,116.4464 76.2656,115.4258 77.7993,114.7717 C 78.8005,114.3181 80.1904,114.1619 81.9024,114.2255 C 79.2099,109.8306 75.7706,107.8834 71.8528,108.2098 C 70.0743,108.3882 68.1272,108.9552 66.5742,109.8444 C 65.9809,107.6193 64.8248,105.2863 62.5748,104.3141 C 60.1768,103.2769 58.0831,104.0154 55.9243,104.693 C 54.9037,103.4802 53.6121,102.5274 52.0356,102.1319 C 49.8492,101.5441 47.7361,102.118 45.6451,102.7805 L 46.0061,102.136 C 48.534,97.5309 48.0832,93.9575 44.6605,91.4115 C 44.2747,91.1239 43.8681,90.8777 43.4449,90.6136 C 43.7464,92.7405 43.5611,94.6918 42.9277,96.4426 C 41.9721,99.0341 40.2352,100.7849 38.2631,102.5799 C 39.4109,100.0271 41.206,96.3886 40.1909,93.6034 C 39.6585,92.1251 38.2922,91.3009 36.2482,91.0284 C 37.3615,93.3932 36.5608,96.975 34.0383,101.2676 C 33.5405,102.1554 32.95,103.064 32.3014,104.014 C 31.6237,104.9461 30.8963,105.9128 30.097,106.9071 L 30.0818,106.9071 L 29.6337,106.5365 L 29.6572,106.5365 C 31.7012,103.7762 32.7508,101.4141 32.9403,99.3647 C 33.1118,97.5696 32.6194,96.0332 31.5601,94.6918 C 30.7898,99.6482 27.428,101.9853 24.4672,104.068 C 23.1644,104.9848 21.9157,105.8588 21.0514,106.8587 L 21.0514,106.8684 C 18.5234,109.8167 18.3173,114.6307 18.4805,119.1805 C 18.5386,120.8358 18.6824,122.4912 18.7142,124.1341 L 18.7142,124.1341 z M 64.3878,193.4347 L 64.3491,192.9963 L 64.3491,192.9811 L 64.0172,184.3808 L 58.09,190.0729 L 52.6745,191.8541 C 52.6994,193.2494 52.9926,194.2451 53.5139,194.9075 L 59.6997,195.079 L 64.3878,193.4347 L 64.3878,193.4347 z M 69.2335,184.0185 L 70.6137,191.63 C 71.135,191.5318 71.6619,191.4392 72.1888,191.3617 C 73.3601,191.1612 74.5163,190.9759 75.6295,190.6053 C 76.0375,190.4739 76.444,190.3052 76.7981,190.0286 C 77.0345,189.8474 77.1991,189.6372 77.1991,189.3952 C 77.2143,188.2682 76.7898,187.1369 76.3417,186.0237 C 76.1218,185.5023 75.9559,184.9851 75.765,184.4582 L 69.2335,184.0185 L 69.2335,184.0185 z M 70.8916,171.6179 L 68.6237,180.3648 L 75.7415,181.868 L 76.4136,180.3648 L 81.4004,175.2273 L 80.9026,174.7405 L 70.8916,171.6179 L 70.8916,171.6179 z M 91.8995,153.8833 L 93.3778,152.6249 L 93.4207,150.3666 C 91.6354,150.9377 89.821,151.9321 87.9762,153.3274 C 88.6649,152.9858 89.2595,152.8199 89.7767,152.7964 C 90.695,152.7507 91.3864,153.167 91.8995,153.8833 z M 85.4205,133.0234 L 85.2643,133.3692 C 86.2392,133.9943 87.2156,134.5502 88.2638,135.0287 L 88.8115,133.5407 L 85.4205,133.0234 z M 92.6892,136.6093 L 93.66,132.6279 L 91.6796,133.076 L 91.6437,134.0026 L 89.4061,133.6333 L 88.8059,135.2527 C 90.0893,135.7519 91.345,136.2512 92.6892,136.6093 z M 95.3526,133.9113 C 94.9558,133.6679 94.4745,133.2558 94.1868,132.8769 L 93.2409,136.7546 C 93.8508,136.9011 94.451,137.0325 95.065,137.1653 L 95.3526,133.9113 z M 97.9193,124.8753 C 98.4753,124.8753 98.998,124.9541 99.4848,125.1242 L 99.0755,124.1437 C 98.2582,124.5462 97.2625,124.7923 96.3622,124.7425 C 95.372,124.6872 94.3348,124.3221 93.7803,123.473 C 93.4152,122.9102 93.2257,122.1026 93.2409,121.3821 L 93.2409,121.3295 L 90.3382,122.1925 L 92.035,125.1242 L 91.7183,132.4869 L 93.6309,132.0319 C 93.3142,131.3695 93.1234,130.5978 93.1234,129.7736 C 93.1234,128.4322 93.6558,127.2124 94.5243,126.2956 C 95.3817,125.4312 96.607,124.8753 97.9193,124.8753 L 97.9193,124.8753 z M 71.2927,170.0814 L 71.0382,171.0522 L 80.9468,174.1306 C 82.8193,172.6564 84.2547,170.8365 85.0499,168.6225 C 85.8589,166.3489 86.0111,163.6122 85.2394,160.372 L 84.6489,157.826 L 85.8008,160.1867 C 86.2835,161.2114 86.8353,161.8752 87.376,162.2362 C 88.4284,162.9318 89.4905,162.5335 90.352,161.7286 C 91.085,161.0413 91.6547,160.0705 91.8746,159.3085 C 92.1429,158.4359 92.2895,156.8552 91.9327,155.5373 C 91.7059,154.4172 91.1029,153.3661 89.821,153.3869 C 89.1821,153.4159 88.362,153.7381 87.3622,154.4102 L 87.0247,153.9331 C 87.264,153.7713 87.4783,153.6151 87.6941,153.5086 L 85.1177,150.2103 L 83.8053,151.7813 L 86.3817,153.8543 L 86.0111,154.3328 L 77.3222,147.3325 L 76.3417,148.0737 C 74.9215,148.0737 73.58,148.371 72.4087,149.1814 C 71.5554,149.8397 70.9304,150.7082 70.6137,151.6887 C 70.3108,152.6844 70.2527,153.7713 70.5459,154.8348 C 70.8667,156.1085 71.6384,157.3628 72.872,158.328 L 73.5607,159.4302 L 79.893,159.3528 L 84.2783,159.1924 L 84.2935,159.7773 L 80.0728,159.9239 L 76.4869,168.5146 L 71.2927,170.0814 L 71.2927,170.0814 z M 86.9666,147.3325 C 89.4448,146.4682 91.8801,145.9662 94.3085,145.7421 L 95.0111,137.7751 C 93.2064,137.399 91.4404,136.9067 89.7518,136.2719 C 88.6649,135.8626 87.6056,135.3799 86.5808,134.8378 L 85.5671,136.0188 L 91.0545,140.7844 L 86.9666,147.3325 L 86.9666,147.3325 z M 78.2778,147.3615 L 83.3669,151.4245 L 84.7415,149.7761 L 83.8247,148.5812 C 84.5701,148.2881 85.321,147.9396 86.0899,147.6519 L 90.2843,140.8867 L 85.1813,136.4669 L 78.2778,147.3615 L 78.2778,147.3615 z M 91.085,133.3111 L 91.4113,125.2764 L 89.4061,121.7485 L 82.5413,123.509 C 81.2801,123.1149 80.2664,122.7498 78.9623,122.5216 C 77.8491,122.3059 77.6292,122.6391 76.8783,123.3679 C 76.2089,124.0663 75.6143,124.8656 75.2921,125.73 C 74.7223,127.377 74.5356,129.1997 74.638,130.9256 C 74.638,131.7664 74.8246,132.6307 75.4926,133.1894 C 76.2656,133.8629 77.3706,133.9196 78.3317,134.1505 L 82.3173,132.1301 L 82.9908,128.3589 L 83.5661,128.4612 L 82.9327,132.0125 L 91.085,133.3111 L 91.085,133.3111 z M 48.7816,87.4425 C 48.4884,88.9541 48.3432,90.4573 48.4649,91.984 C 48.5811,93.526 49.0056,95.0818 49.787,96.6334 C 50.8117,97.004 51.8503,97.2281 52.8999,97.2571 C 53.9191,97.2972 54.9577,97.1949 56.0018,96.9114 L 56.0211,96.8035 C 56.9491,93.721 56.826,91.4668 55.7529,89.9636 C 54.7143,88.5807 52.8072,87.8325 50.1299,87.6583 C 49.9211,87.6458 49.7054,87.6279 49.48,87.6279 L 48.7816,87.4425 L 48.7816,87.4425 z M 62.9247,99.16 L 65.5785,92.7156 L 65.4913,87.6956 L 59.1922,86.5685 L 56.2991,84.2854 L 47.2161,84.3642 C 47.2161,84.7099 47.2396,85.0515 47.3323,85.4027 C 47.4111,85.8218 47.6102,86.2131 47.9283,86.6073 L 49.5629,87.047 C 52.7381,87.1535 54.9826,87.9888 56.1926,89.6234 C 57.3432,91.1737 57.5437,93.3932 56.7638,96.3942 L 58.686,95.5215 L 62.9247,99.16 L 62.9247,99.16 z M 64.1195,97.7951 L 66.6668,99.7007 C 67.2241,102.0655 68.0788,104.1385 70.492,105.0678 C 72.3797,105.8146 74.8094,105.668 77.6002,104.9752 C 77.7855,100.7476 77.7813,96.5242 77.9459,92.2911 C 77.4785,91.7503 76.9751,91.3935 76.3749,91.2041 C 75.765,91.0229 75.0487,91.0326 74.1415,91.2566 C 72.1681,93.8703 70.0771,96.3845 68.076,98.9609 L 67.628,98.6041 C 69.5461,96.1107 71.5388,93.6919 73.4528,91.1792 L 66.1012,89.0813 L 66.1648,92.8027 L 64.1195,97.7951 L 64.1195,97.7951 z M 78.1851,105.1411 L 87.4493,109.7379 C 88.5307,106.5724 89.6371,103.3959 90.7863,100.2387 C 90.8789,99.9745 91.0545,99.7505 91.2163,99.5265 C 90.5871,98.8571 90.2345,98.1933 89.7961,97.3995 L 91.5579,94.9158 L 78.5322,92.6091 C 78.3704,96.7911 78.3746,100.9716 78.1851,105.1411 L 78.1851,105.1411 z M 90.016,121.6559 L 93.3626,120.6602 C 93.3889,120.497 93.4954,120.273 93.577,120.1098 C 93.9905,119.3035 94.6239,118.7808 95.289,118.2401 C 95.3817,118.1778 95.4605,118.0852 95.5435,118.0216 L 95.8187,114.9584 L 99.6314,105.2932 C 99.4461,104.6294 99.3631,103.8882 99.3631,103.093 C 99.3631,102.5993 99.3921,102.0932 99.4613,101.5663 C 98.4213,101.7212 97.4118,101.7751 96.5184,101.7212 L 91.0794,115.2945 L 90.9481,120.8607 L 90.352,120.851 L 90.4986,115.1479 L 95.9141,101.688 C 95.0512,101.5898 94.2795,101.4045 93.6019,101.1265 C 92.8551,100.843 92.1968,100.4184 91.6354,99.9261 C 91.5137,100.1018 91.4017,100.2732 91.3477,100.4337 C 90.6701,102.2688 90.016,104.0735 89.4061,105.8837 C 88.7575,107.6732 88.1421,109.4793 87.5323,111.3518 L 87.5323,111.3615 C 87.4161,111.7086 87.2985,112.0792 87.1326,112.4692 C 86.7233,113.6889 86.2835,114.8934 86.1369,116.1477 C 86.0304,117.4449 86.1369,118.7725 86.2738,120.089 C 86.3526,120.6851 86.3817,121.3143 86.4245,121.909 L 89.6689,121.0751 L 90.016,121.6559 L 90.016,121.6559 z M 96.2018,117.4546 C 96.2598,117.402 96.329,117.3329 96.3677,117.2693 C 96.506,116.9554 96.589,116.6069 96.701,116.2653 C 96.8932,115.6831 97.1325,115.1299 97.5238,114.6016 C 97.8654,114.1522 98.2416,113.6737 98.6509,113.2892 C 99.1128,112.8661 99.7005,112.454 100.3242,112.2631 L 101.602,108.0535 C 101.0171,107.7465 100.5095,107.2293 100.1486,106.5655 C 100.0712,106.4438 100.0075,106.2875 99.9536,106.152 L 96.3926,115.0898 L 96.2018,117.4546 L 96.2018,117.4546 z M 100.5635,138.6381 L 100.8802,145.6094 C 104.2268,145.3604 106.7354,144.5321 108.5692,143.2335 C 110.2328,142.0235 111.306,140.4041 111.8522,138.4237 C 110.8814,138.5994 109.8871,138.7307 108.8471,138.8234 C 106.2611,139.0626 103.5008,139.0377 100.5635,138.6381 z M 95.6804,118.6895 C 95.1176,119.1528 94.5713,119.5912 94.1938,120.1955 C 93.8964,120.6768 93.8079,121.3945 93.8688,121.9352 C 93.9587,122.7304 94.4579,123.5712 95.195,123.881 C 96.6899,124.5061 98.5002,123.9861 99.7683,123.0457 C 100.6727,122.4054 101.5564,121.3544 102.1428,120.4113 C 103.0029,119.0283 103.4994,117.4809 103.4634,115.8269 C 103.4607,114.8284 102.9324,113.9268 102.205,113.2616 C 101.8952,112.9864 101.5979,112.7997 101.1886,112.7651 C 100.3754,112.6918 99.6245,113.1814 99.0755,113.7083 C 98.6758,114.0789 98.3052,114.5187 97.983,114.957 C 97.4256,115.701 97.2058,116.6746 96.9098,117.5334 C 96.5254,117.9649 96.1022,118.3203 95.6804,118.6895 L 95.6804,118.6895 z M 100.2551,125.47 C 100.6506,125.7051 101.0281,125.9789 101.3338,126.2997 C 102.2368,127.2124 102.7692,128.4322 102.7692,129.7736 C 102.7692,130.0571 102.7443,130.3351 102.7001,130.5978 C 102.9144,130.9989 103.1246,131.3197 103.3736,131.5589 C 104.4453,132.5132 106.1435,132.1854 107.3882,131.794 C 108.7711,131.3308 110.5246,130.4761 111.3447,129.1789 C 111.8522,128.4764 112.2477,127.6121 112.3943,126.8667 C 112.5644,125.9927 112.4081,125.1934 112.2477,124.383 C 112.1606,123.9584 112.0776,123.5339 112.0431,123.0609 L 103.3542,119.363 C 102.4553,121.2465 101.3531,122.729 99.6079,123.881 L 100.2551,125.47 L 100.2551,125.47 z M 102.476,131.3792 C 102.1497,132.473 101.3116,133.4107 100.3726,134.0081 L 100.5344,138.0185 C 101.7583,138.19 102.9338,138.2827 104.1203,138.3352 L 104.0816,133.0525 L 104.6666,133.0331 L 104.7205,138.3504 C 106.6276,138.4237 108.4945,138.2785 110.3891,138.0338 L 109.8138,131.3888 L 110.4181,131.3501 L 110.9741,137.9646 C 112.7553,137.6866 114.4673,137.2579 116.0867,136.7546 L 116.3121,135.0135 C 116.0729,134.3109 115.8378,133.6333 115.5847,132.9833 C 115.0675,131.5645 114.56,130.1249 114.2239,128.6811 C 113.9459,127.637 113.8422,126.6607 114.3636,125.6428 C 114.9168,124.5503 115.528,123.4647 116.1268,122.3722 C 117.5609,119.8512 118.9563,117.3038 119.8192,114.4993 C 120.6807,111.7113 121.4261,108.9248 121.7166,105.9999 C 121.9149,103.8179 121.3204,99.8417 120.2631,97.3802 C 119.1098,97.1492 117.9218,96.8768 116.7505,96.8768 C 118.2441,98.0025 119.7072,100.1156 120.1649,102.0226 C 120.5936,103.8177 120.5134,105.8187 119.9146,107.5529 C 119.4444,108.8874 118.6921,110.1735 118.1002,111.45 C 116.933,113.9461 115.7382,116.416 114.5461,118.9094 C 113.9363,120.1831 113.3264,121.4554 112.6045,122.9337 C 112.758,124.2876 113.242,125.5626 112.9793,126.9442 C 112.5935,128.9535 111.2064,130.5826 109.4432,131.5105 C 108.2317,132.2131 106.4547,132.7911 105.0759,132.7455 C 103.971,132.639 103.1509,132.3486 102.476,131.3792 L 102.476,131.3792 z M 112.1703,122.4995 C 112.7553,121.3295 113.379,119.9867 114.004,118.6743 C 115.1311,116.3234 116.2706,113.9807 117.3797,111.6242 C 117.8845,110.5386 118.4639,109.4627 118.948,108.3578 C 119.9589,106.0455 120.2686,103.2396 119.1264,100.8928 C 118.3215,99.2195 117.0506,97.5738 115.4091,96.6376 C 113.036,95.2311 111.5065,95.321 108.9785,95.7898 C 109.3547,96.6376 109.54,97.6775 109.54,98.8336 C 109.54,100.8776 108.9854,102.7611 108.0257,104.5312 C 106.7631,106.8366 104.8685,108.4103 103.0168,108.4103 C 102.7402,108.4103 102.4166,108.3661 102.1594,108.2886 L 100.9728,112.176 C 101.6463,112.176 102.1981,112.4484 102.6807,112.9186 C 103.8175,114.0305 104.148,115.1852 104.0318,116.6442 C 103.9737,117.3827 103.8327,118.1377 103.5644,118.8209 L 112.1703,122.4995 L 112.1703,122.4995 z M 106.3786,94.1455 C 103.4026,93.9284 101.4361,96.9833 100.5884,99.4338 C 99.8402,101.6534 99.2414,106.5697 102.0888,107.6304 C 105.0801,108.745 107.4919,104.7041 108.3299,102.4735 C 109.0366,100.1916 109.6257,94.9753 106.3786,94.1455 z M 116.0245,96.3167 C 117.5429,96.148 119.3144,96.5767 120.7997,96.9114 L 116.4808,88.7231 L 116.2195,85.4373 C 112.5119,84.0807 108.7835,82.8319 105.0662,81.7297 C 104.3056,81.4905 103.5644,81.2651 102.8218,81.041 C 102.7831,81.2416 102.7153,81.4407 102.6614,81.626 C 102.447,82.4765 102.1594,83.4819 101.5896,84.1623 C 100.9147,84.9699 99.8043,85.5604 98.8362,85.7388 C 97.6441,86.0209 96.0566,85.8992 94.9184,85.4221 C 94.5976,85.9518 94.3528,86.4137 94.2007,86.9931 C 94.0887,87.419 93.9849,87.863 94.1191,88.2516 C 94.2712,88.6982 94.7442,89.3026 95.2213,89.4575 C 96.4216,90.0466 97.8018,90.3149 99.1045,90.6274 L 104.4273,89.0371 L 104.603,89.593 L 99.1031,91.2331 C 97.9318,90.9579 96.7204,90.6938 95.6071,90.2568 L 90.4848,97.4673 C 91.226,98.9415 92.3434,99.9953 93.8314,100.5899 C 95.343,101.1998 97.2417,101.3464 99.5484,100.9758 L 99.6079,100.9066 L 99.6079,100.8969 C 99.7904,99.7906 100.1583,98.7396 100.681,97.7356 C 101.7293,95.5976 103.2754,94.0045 104.9459,93.6145 C 105.4493,93.4983 105.979,93.5025 106.4962,93.5799 C 107.4283,93.7749 108.1737,94.3751 108.7005,95.238 C 110.7777,94.7706 113.2835,94.6351 116.0245,96.3167 L 116.0245,96.3167 z M 97.4312,85.3004 C 96.7701,85.3004 95.9266,85.2119 95.3195,84.9533 C 94.9475,84.8095 94.5243,84.5882 94.6446,84.1263 C 94.729,83.7847 95.0263,83.6741 95.3042,83.4805 L 96.8213,83.3726 L 96.9679,83.681 L 97.5625,83.6119 L 97.3731,82.7489 C 96.9803,82.6853 96.6083,82.6383 96.2211,82.6176 C 95.8934,82.6176 95.5559,82.6148 95.2406,82.5636 C 94.8424,82.5055 94.592,82.4018 94.5478,81.9634 C 94.5381,81.7726 94.6709,81.1185 94.7732,80.9041 L 96.9292,80.8516 L 96.9098,80.2652 L 93.5479,80.3482 C 93.5479,80.0702 93.5479,79.8019 93.606,79.5337 C 93.66,79.2709 93.7485,78.9625 93.8743,78.6845 C 96.6747,79.3636 99.4654,80.1048 102.2617,80.9041 C 102.046,81.7187 101.8676,82.8692 101.3434,83.5192 C 100.5579,84.8164 98.8404,85.3004 97.4312,85.3004 L 97.4312,85.3004 z M 105.2474,81.1779 C 111.3018,83.0214 117.3604,85.1497 123.3954,87.5394 L 118.4833,75.6795 L 108.3064,72.3771 L 108.4613,71.8156 L 118.4833,75.0406 C 118.9023,73.9425 119.2287,72.7325 119.3808,71.5086 C 119.4831,70.2446 119.3946,68.9709 118.8636,67.8051 C 118.0961,66.0087 117.0907,64.5138 115.8627,62.9995 C 115.0523,61.9858 113.9211,61.0054 112.8189,60.0733 C 112.2864,59.61 111.7457,59.1453 111.252,58.6973 C 110.6422,58.7996 110.0475,58.9075 109.457,58.9849 C 107.7297,59.2394 106.0025,59.5173 104.4121,60.1562 C 103.0472,60.697 101.7293,61.4147 100.5884,62.3316 C 99.1474,63.5043 98.3978,64.7959 97.6759,66.4886 C 97.4948,66.9422 97.3039,67.3806 97.0799,67.8453 L 104.0221,70.4451 L 103.8327,70.9914 L 96.7245,68.3224 L 93.9476,70.6443 L 101.7293,73.1183 L 101.0171,75.2162 L 91.782,72.4545 L 86.8546,76.5438 C 92.9865,77.7926 99.1432,79.3428 105.2474,81.1779 L 105.2474,81.1779 z "
   id="path16"
   style="fill:#ffffff;fill-rule:nonzero" />
  <path
   class="fil0"
   d="M 27.7055,139.647 C 27.4276,140.8336 27.4124,141.8818 27.6613,142.8084 C 27.8397,141.9855 28.4744,141.4559 29.2475,141.2042 C 28.8312,141.1696 28.4122,141.1724 27.9835,141.2139 L 27.7055,139.647 L 27.7055,139.647 z M 31.7312,144.4872 C 31.6233,144.6573 31.5155,144.8426 31.3454,144.9754 C 30.9457,145.3999 30.3884,145.653 29.7744,145.653 C 29.6029,145.653 29.4273,145.6143 29.2572,145.5853 C 30.1644,146.516 31.3938,147.3941 32.9357,148.2584 L 31.4768,146.8479 C 31.6676,146.1301 31.7312,145.2409 31.7312,144.4872 L 31.7312,144.4872 z M 28.462,140.5943 C 31.6386,140.4477 32.8624,142.4668 32.1115,146.6487 L 34.7847,149.2541 L 35.1553,149.9414 L 34.4528,149.7312 C 31.3841,148.2197 29.1936,146.7165 27.9697,144.9215 C 26.8716,143.3159 26.5978,141.4794 27.2035,139.21 C 27.3681,138.5863 27.5769,138.1217 27.8812,137.5547 L 28.462,140.5943 L 28.462,140.5943 z "
   id="path18"
   style="fill:#0a0b0c;fill-rule:nonzero" />
  <path
   class="fil3"
   d="M 36.0584,131.472 C 33.2289,131.6573 30.3884,131.7016 27.5686,131.6573 C 24.7295,131.6186 21.9153,131.4568 19.1093,131.2079 L 20.2516,134.9888 C 22.9497,135.3898 25.6464,135.6042 28.3541,135.5751 C 31.0079,135.5253 33.6922,135.2335 36.3654,134.6569 C 36.0971,134.0373 35.9353,133.321 35.9353,132.5452 L 35.9353,132.5355 C 35.9353,132.1745 35.9892,131.8177 36.0584,131.472 L 36.0584,131.472 z M 47.4494,129.0616 C 45.7913,129.8084 44.1221,130.2813 42.4294,130.4957 C 42.6728,131.1208 42.8194,131.7984 42.8194,132.5161 L 42.8194,132.5258 C 42.8194,132.9158 42.7517,133.3113 42.6977,133.6861 C 43.8386,133.3652 44.9422,133.0333 45.9462,132.6862 C 47.0249,132.3156 48.0109,131.945 48.8987,131.5204 L 47.4494,129.0616 L 47.4494,129.0616 z M 23.1737,118.9774 C 22.1808,120.3312 21.2819,121.757 20.2903,123.1054 C 27.5161,124.9543 32.8431,127.4616 36.2672,130.6077 C 36.429,130.1444 36.653,129.76 36.931,129.388 C 37.3943,128.7643 38.0235,128.2955 38.726,128.1447 C 34.5938,123.5977 29.4273,120.5442 23.1737,118.9774 z M 48.7909,151.7663 C 48.5807,151.6349 48.405,151.4648 48.2501,151.2643 C 47.8256,150.7277 47.5711,150.0294 47.5324,149.2148 L 45.1953,150.6102 L 42.0049,135.4189 C 41.3259,136.3039 40.5943,137.0134 39.3663,137.0134 C 39.0344,137.0134 38.697,136.9456 38.3803,136.8142 L 41.9026,152.4052 C 39.9181,153.2502 37.7925,153.8711 35.6725,154.304 L 37.0139,157.7281 C 39.3124,157.0407 41.3563,156.1916 43.2979,155.1531 C 45.234,154.1325 47.0401,152.9764 48.7909,151.7663 L 48.7909,151.7663 z M 51.9522,147.1709 C 52.3519,147.6743 52.5621,148.3519 52.5773,149.1222 C 52.5773,149.479 52.5137,149.8109 52.4445,150.1179 L 55.7621,150.8107 C 57.0884,152.296 58.3814,153.7964 59.8556,155.1226 C 65.3001,152.2697 69.6964,148.9369 73.1744,145.2293 C 76.5598,141.6434 79.1113,137.7021 80.9561,133.462 L 78.3797,134.7799 C 77.2672,134.4525 76.0112,134.4455 75.1022,133.6238 C 74.9155,133.4524 74.7454,133.2518 74.585,133.0527 C 72.4083,135.6719 69.4032,138.1501 65.5781,140.4872 C 61.8069,142.8534 57.2266,145.0592 51.9522,147.1709 L 51.9522,147.1709 z M 69.7738,153.2253 C 66.5102,154.3524 63.4318,155.6163 60.5733,156.9965 C 57.6512,158.4555 54.9435,160.0652 52.4985,161.8464 L 53.0447,169.003 L 58.2749,167.7929 L 58.7935,167.8773 C 60.9536,166.1915 63.4968,164.6634 65.8616,163.2901 C 68.189,161.9238 70.5358,160.675 72.9545,159.5576 L 72.4567,158.7486 C 71.1443,157.7142 70.3353,156.3576 70.0034,154.9913 C 69.8181,154.3966 69.7503,153.8103 69.7738,153.2253 L 69.7738,153.2253 z M 86.1268,161.8505 C 86.4449,163.9774 86.3813,165.8762 85.9664,167.573 C 88.2399,168.7831 90.577,169.7636 93.0207,170.5103 L 93.3622,153.4161 L 92.1964,154.416 C 92.8671,155.8653 92.8754,157.9908 92.4357,159.4747 C 92.0222,160.9419 90.5964,162.8075 89.0351,163.1394 C 87.8582,163.4008 86.8169,162.7397 86.1268,161.8505 L 86.1268,161.8505 z M 100.9047,171.6817 L 100.1772,192.3618 C 101.0623,192.3231 102.0898,192.2097 102.9389,191.9082 L 102.914,171.3346 C 102.1921,171.4673 101.5436,171.6125 100.9047,171.6817 L 100.9047,171.6817 z M 101.6417,150.7526 L 100.9337,171.0953 C 102.8905,170.8173 105.135,170.2379 107.3933,169.0279 C 109.7788,167.7639 112.1699,165.8126 114.1737,162.8116 C 116.0241,160.0209 117.1899,156.8361 118.3695,153.6208 C 118.9268,152.1425 119.4731,150.6489 120.112,149.172 C 122.3537,143.874 124.5138,138.5318 126.7804,133.2325 L 120.5116,130.3933 L 116.6436,134.1742 C 116.7446,134.4273 116.8538,134.7219 116.9091,134.9791 L 116.6436,137.2194 C 115.3119,137.6633 113.9386,138.0298 112.5156,138.3064 C 111.9154,140.5121 110.7648,142.3708 108.891,143.7122 C 107.2025,144.8932 105.0022,145.7174 102.1437,146.0728 C 105.4282,146.5278 108.0032,147.5775 111.1064,148.8636 L 106.7641,154.167 C 105.2498,152.7827 103.5377,151.552 101.6417,150.7526 L 101.6417,150.7526 z M 114.7988,162.8946 C 113.5376,165.4945 109.7954,168.4249 107.7293,169.5105 C 111.1493,170.9059 114.6425,172.1643 118.1994,173.2817 C 121.7701,174.3991 125.4251,175.3547 129.1811,176.1111 C 129.1811,175.9258 129.2254,175.7156 129.2641,175.5262 C 129.5033,174.5692 130.181,173.7256 131.3661,173.2817 C 129.9514,172.6331 129.2738,171.6623 129.1327,170.6915 C 128.9364,169.6211 129.4798,168.2659 130.4009,167.627 C 125.1956,166.3491 120.0041,164.7685 114.7988,162.8946 L 114.7988,162.8946 z M 141.0161,167.3047 C 141.0853,167.237 141.1724,167.1983 141.2415,167.1637 C 140.8599,163.1339 140.1781,159.0999 139.1284,155.0742 C 138.065,151.0942 136.6599,147.0934 134.8787,143.0927 L 127.2589,143.2835 C 128.8644,147.1958 130.3428,151.0942 131.4546,155.0355 C 132.5568,159.0017 133.2303,163.0066 133.3285,167.0033 C 133.7226,167.1056 134.0932,167.3047 134.4542,167.5827 C 134.3283,166.056 134.8165,165.0077 135.6255,164.3826 C 136.2893,163.8654 137.1771,163.6663 138.0498,163.7341 C 138.9044,163.8115 139.7438,164.2029 140.2846,164.7975 C 140.9,165.4171 141.2166,166.2565 141.0161,167.3047 L 141.0161,167.3047 z M 146.0223,178.1205 C 145.9435,178.2533 145.8218,178.3985 145.7056,178.516 C 148.2903,178.8327 150.9012,179.072 153.4624,179.2338 C 156.1397,179.3942 158.7838,179.4578 161.4432,179.5021 L 161.2966,169.5783 C 158.8281,169.7401 156.325,169.8175 153.8427,169.8562 C 151.388,169.8811 148.9444,169.8562 146.5146,169.7788 C 146.5837,170.2808 146.5395,170.798 146.3777,171.2765 C 146.1053,172.062 145.4995,172.7548 144.4859,173.0867 C 145.783,173.6717 146.451,174.5595 146.6169,175.5165 C 146.7981,176.4043 146.5395,177.3309 146.0223,178.1205 L 146.0223,178.1205 z M 141.8804,214.4414 C 143.3035,214.4262 144.154,213.5785 144.7099,212.2951 C 145.3308,210.897 144.7998,208.7646 144.212,207.3982 C 143.9534,206.6957 143.7004,206.0416 143.5773,205.3239 L 143.5773,205.3142 C 143.4902,204.6753 143.3878,204.0115 143.2993,203.3048 C 142.7531,199.2432 142.3797,195.1318 142.1487,191.0342 C 142.0215,188.4592 142.0602,185.869 142.0893,183.2926 C 142.1197,182.0729 142.1487,180.8241 142.1487,179.5601 C 141.8265,179.4523 141.4946,179.2531 141.1876,179.0042 C 141.3632,180.3844 140.9871,181.3953 140.2707,181.9899 C 138.9957,183.1944 136.6834,182.9455 135.4499,181.8337 C 134.7183,181.1947 134.2786,180.2917 134.4155,179.1356 C 134.2786,179.2531 134.1085,179.3596 133.9771,179.4523 C 133.8402,184.7516 133.9231,190.0689 134.4155,195.3765 C 134.8205,200.6246 135.8548,206.0006 137.2966,211.0588 C 137.8847,213.124 139.6867,214.4808 141.8804,214.4414 L 141.8804,214.4414 z "
   id="path20"
   style="fill:#2aabe2;fill-rule:nonzero" />
  <path
   class="fil1"
   d="M 57.0552,103.755 C 62.0655,102.2822 65.3444,104.0482 66.9402,109.0295 C 68.4393,108.2924 70.1306,107.7835 71.7984,107.6728 C 76.0868,107.3022 79.8442,109.4485 82.6972,114.391 L 82.9655,114.8695 C 81.3461,114.7948 79.5428,114.6607 78.0285,115.3079 C 77.2195,115.6647 76.6677,116.2151 76.3897,116.9964 C 76.5266,116.9577 76.6428,116.9135 76.741,116.8886 C 78.8873,116.2248 80.7998,116.3575 82.3556,117.1278 C 83.8298,117.8746 84.9956,119.2008 85.7811,121.0069 C 85.7714,120.7289 85.7327,120.4357 85.6884,120.1578 C 85.5667,118.8164 85.4492,117.4597 85.5667,116.1183 C 85.7327,114.8059 86.1365,113.5516 86.5901,112.3084 C 86.727,111.9377 86.8542,111.5768 86.9815,111.191 L 86.9815,111.1813 C 87.0686,110.8881 87.1806,110.6101 87.2788,110.3266 L 77.7215,105.5902 C 74.8132,106.2775 72.2866,106.4102 70.2814,105.6538 C 68.2222,104.8434 66.7743,103.1023 66.1395,100.0723 L 63.8854,98.3603 L 63.1414,100.1415 L 58.5819,96.2237 L 56.6306,97.0866 L 57.0552,103.755 L 57.0552,103.755 z M 33.0574,62.0532 L 47.0249,61.3355 C 46.9225,60.8487 46.7621,60.3412 46.5616,59.8627 C 46.3279,59.2818 46.0057,58.6581 45.6489,58.058 L 45.5521,57.8726 L 45.6586,57.751 C 45.2202,57.8035 44.7956,57.8726 44.3711,57.9653 C 43.6533,58.0676 42.9273,58.2336 42.2248,58.3899 C 38.9417,59.185 35.873,60.4186 33.0574,62.0532 z M 55.7096,60.8819 L 69.5111,60.16 C 67.6276,59.3261 65.715,58.6139 63.7194,58.0773 C 61.4362,57.4716 59.0991,57.0816 56.6845,57.018 L 56.7094,57.2725 L 55.7096,60.8819 z M 46.4302,92.2422 C 48.6747,94.7163 48.8102,97.8873 46.8451,101.8093 C 47.986,101.487 49.0204,101.3114 49.976,101.3114 L 49.5528,97.1848 L 49.3897,97.1032 C 48.5253,95.6622 48.0123,93.7012 47.8933,92.0182 C 47.7564,90.4514 47.8933,88.8762 48.2156,87.3052 L 47.6002,87.1434 C 47.2157,86.6663 46.9156,86.1699 46.7621,85.5489 C 46.6017,84.9557 46.6543,84.4122 46.6543,83.8023 L 47.1521,83.7871 L 45.2879,83.5479 C 45.5562,84.9529 45.7913,86.3635 45.9905,87.7436 C 46.1661,89.2565 46.3514,90.7446 46.4302,92.2422 L 46.4302,92.2422 z M 50.059,146.0875 C 50.6108,146.0875 51.1335,146.3267 51.5567,146.6876 C 53.3628,145.9796 55.079,145.2536 56.7094,144.522 C 56.2697,142.2775 55.7677,140.0483 54.9725,138.0181 C 54.1483,135.9064 53.0309,133.9939 51.3963,132.3828 C 50.5541,131.5046 49.5611,130.7606 48.6346,129.9447 L 49.7229,131.7743 C 49.557,131.849 49.3869,131.9333 49.2154,132.0121 C 49.6953,133.0922 50.2,134.1764 50.5472,135.291 C 50.8791,136.3407 50.8708,137.1953 50.6301,138.2795 C 50.2982,139.7675 49.5764,140.6042 48.712,141.8184 C 47.9086,142.9468 47.8311,144.002 47.9072,145.3531 C 47.9404,145.9409 48.051,146.5424 48.1962,147.0873 C 48.5032,146.5092 49.4284,146.0875 50.059,146.0875 L 50.059,146.0875 z "
   id="path22"
   style="fill:#eb2227;fill-rule:nonzero" />
  <path
   class="fil4"
   d="M 50.5762,101.312 C 51.1432,101.3563 51.6646,101.424 52.1762,101.5554 L 52.2067,101.5665 L 51.9287,97.78 C 51.3479,97.7026 50.7477,97.5698 50.1572,97.3997 L 50.5762,101.312 L 50.5762,101.312 z M 36.5355,132.5452 C 36.5355,134.1466 37.4772,136.4381 39.3663,136.4381 C 41.2802,136.4381 42.2192,134.1604 42.2192,132.5452 L 42.2192,132.5355 C 42.2192,130.9451 41.2761,128.6426 39.3663,128.6426 C 37.4758,128.6426 36.5355,130.9659 36.5355,132.5452 z M 141.6415,172.9208 L 141.4949,172.8917 L 141.6415,172.8765 C 141.5848,170.7565 139.9018,168.9739 137.7431,168.9739 C 135.5567,168.9739 133.8405,170.7952 133.8405,172.9443 C 133.8405,175.1085 135.5608,176.9008 137.7431,176.9008 C 139.8976,176.9008 141.6415,175.1058 141.6415,172.9443 L 141.6415,172.9208 z M 94.0014,150.1815 L 92.8356,208.1243 L 92.8356,208.1395 L 92.826,208.1533 C 92.66,209.3094 92.8356,210.5001 93.3238,211.7489 C 93.7774,212.9589 94.5242,214.2229 95.5047,215.5892 C 96.6746,214.6862 97.5237,213.7057 98.0797,212.5344 C 98.6757,211.3243 98.9578,209.9055 99.0366,208.2321 L 101.0557,150.5272 C 98.7766,149.6822 96.3413,149.573 94.0014,150.1815 L 94.0014,150.1815 z M 84.7414,148.8207 L 87.8405,152.733 C 91.0406,150.3184 94.1923,149.1222 97.3536,149.201 C 100.4859,149.2688 103.6169,150.6254 106.7049,153.3041 L 110.1788,149.0987 C 106.066,147.3119 101.92,146.3079 97.6952,146.2001 C 93.4607,146.0936 89.1723,146.9178 84.7414,148.8207 z M 100.2799,145.8046 L 99.7931,134.3153 C 99.2219,134.5601 98.5969,134.6914 97.9192,134.6914 C 97.2015,134.6914 96.5584,134.5449 95.914,134.2531 L 94.8948,145.7022 C 96.647,145.5459 98.5194,145.6151 100.2799,145.8046 L 100.2799,145.8046 z M 97.9192,125.4467 C 95.5614,125.4467 93.6848,127.4657 93.6848,129.7738 C 93.6848,132.1123 95.5558,134.1065 97.9192,134.1065 C 100.2951,134.1065 102.1731,132.1427 102.1731,129.7738 C 102.1731,127.4298 100.2813,125.4467 97.9192,125.4467 z M 135.2109,169.2076 L 134.6647,168.5978 C 133.6994,167.4804 132.5723,167.2716 131.6403,167.573 C 130.3942,167.9824 129.5133,169.292 129.7028,170.5892 C 129.8646,171.56 130.6542,172.51 132.4354,173.0577 L 133.2887,173.3011 C 133.2887,171.7453 133.7838,170.0803 135.2109,169.2076 z M 132.4105,173.6178 C 130.8589,173.8528 130.0748,174.7213 129.8646,175.6617 C 129.4954,176.9865 130.2518,178.7816 131.6015,179.2338 C 132.4838,179.5408 133.5528,179.3167 134.7186,178.1454 L 135.6798,177.1594 L 135.2109,178.4483 C 134.7186,179.7413 135.1183,180.7605 135.836,181.3994 C 136.8843,182.3108 138.7913,182.5832 139.899,181.5999 C 140.5822,180.961 140.9099,179.8436 140.4066,178.1302 L 140.0069,176.8676 C 139.3528,177.2521 138.5866,177.5065 137.7486,177.5065 C 136.5136,177.5065 135.3824,176.9741 134.5776,176.1554 C 133.8695,175.4473 133.4159,174.5208 133.2984,173.4808 L 132.4105,173.6178 L 132.4105,173.6178 z M 140.1244,176.7888 L 140.9099,177.8771 C 141.7826,179.0581 142.846,179.3499 143.7242,179.1259 C 145.1541,178.776 146.3227,177.1428 146.0364,175.6479 C 145.8511,174.6619 145.0366,173.7892 143.2609,173.3356 L 142.2362,173.0674 C 142.2099,174.4807 141.3884,176.0946 140.1244,176.7888 L 140.1244,176.7888 z M 142.2362,172.8226 L 143.3148,172.7451 C 144.7489,172.6525 145.5303,171.9638 145.8221,171.0953 C 146.266,169.6903 145.5081,167.9561 144.1487,167.3545 C 143.2222,166.9687 141.9872,167.1153 140.632,168.335 L 139.9239,168.9878 C 141.2806,169.8092 142.2043,171.199 142.2362,172.8226 L 142.2362,172.8226 z M 139.7677,168.8909 L 140.1632,167.9976 C 140.7246,166.7779 140.4992,165.8361 139.8852,165.1972 C 138.9116,164.2153 137.0737,163.9913 135.9674,164.8556 C 135.2262,165.4516 134.7573,166.5787 135.2013,168.335 L 135.3672,169.0901 C 136.6948,168.2797 138.3626,168.194 139.7677,168.8909 z M 50.0593,146.6924 C 48.8128,146.6924 48.1274,148.045 48.1274,149.1374 C 48.1274,150.2233 48.8118,151.61 50.0593,151.61 C 51.3102,151.61 51.9815,150.223 51.9815,149.1374 C 51.9815,148.0459 51.3095,146.6924 50.0593,146.6924 z M 68.6913,180.9707 L 69.1297,183.4199 L 76.1508,183.8831 L 83.4194,182.4878 L 83.5079,183.0437 L 80.7227,183.59 L 80.8388,185.302 L 82.3421,184.9176 L 83.3903,186.3655 L 84.5229,185.0102 L 86.1672,185.4486 L 86.2488,183.6536 L 87.6843,183.0727 L 86.5282,181.853 L 87.1809,180.282 L 85.733,180.0483 L 85.2642,178.3017 L 83.7762,179.1259 L 82.396,178.2381 L 81.8539,179.8035 L 80.0976,180.0289 L 80.536,181.5999 L 83.3765,181.3994 L 83.3903,181.9706 L 75.9558,182.4878 L 75.8769,182.4878 L 68.6913,180.9707 L 68.6913,180.9707 z M 70.9897,169.0182 L 64.5301,182.3412 L 64.9975,193.948 L 70.2568,193.0546 L 67.9985,180.4286 L 70.9897,169.0182 L 70.9897,169.0182 z M 52.8071,101.7269 C 54.1043,102.2054 55.1927,102.9909 56.1234,104.0253 C 56.2312,103.9852 56.3682,103.9174 56.4705,103.8925 L 56.0943,97.4772 C 55.0074,97.7704 53.9481,97.8782 52.8846,97.834 C 52.7532,97.834 52.6412,97.834 52.5236,97.8243 L 52.8071,101.7269 L 52.8071,101.7269 z M 44.0395,90.2763 C 44.7033,90.7064 45.3131,91.131 45.8013,91.6039 C 45.6313,88.6622 45.1026,85.7506 44.5774,82.8556 L 50.2944,83.6024 C 50.4451,83.2663 50.4935,82.9497 50.4451,82.5735 C 50.4009,82.2029 50.2405,81.8226 50.0164,81.4464 L 42.3813,80.2267 C 43.0831,83.5493 43.6849,86.8988 44.0395,90.2763 z M 50.8641,83.749 L 51.196,83.749 C 51.2375,82.6703 51.3288,81.5266 51.0937,80.4507 C 50.8641,79.3237 50.4935,78.2076 50.1091,77.0944 C 49.5628,75.5524 49.0456,74.0119 48.9129,72.3524 C 48.8105,70.8256 49.1811,69.386 49.5379,67.9174 C 49.7772,66.9867 50.0067,66.0297 50.1229,65.0589 C 50.1423,64.6647 50.0192,64.2609 49.9376,63.864 L 48.2795,63.9415 C 48.397,64.3564 48.4648,64.8044 48.4109,65.2207 C 48.303,66.186 48.0942,67.1222 47.8494,68.0501 C 47.4691,69.4842 47.1178,70.928 47.2935,72.3385 L 47.2935,72.3524 C 47.4691,73.9579 47.9033,75.5524 48.3666,77.0806 C 48.7137,78.339 49.0594,79.5781 49.2696,80.7287 L 50.3774,80.9195 C 50.7079,81.3717 50.9444,81.9733 51.026,82.5099 C 51.0799,82.9248 51.026,83.3341 50.8641,83.749 L 50.8641,83.749 z M 28.6476,64.0839 L 25.5112,62.2101 L 25.1253,62.4396 C 24.4615,62.802 24.0743,62.896 24.1379,63.7327 C 24.1836,64.2582 24.3661,64.6495 24.6814,64.9372 C 25.117,65.3382 25.7476,65.4419 26.3105,65.3908 C 26.9452,65.3465 27.4915,64.922 28.053,64.5126 L 28.6476,64.0839 L 28.6476,64.0839 z M 70.8376,60.0873 L 71.2525,59.8342 C 68.979,58.4292 66.657,57.3892 64.2369,56.6632 C 61.7837,55.9026 59.2322,55.4974 56.6019,55.3757 L 56.6461,56.4392 C 59.1533,56.4917 61.5389,56.8734 63.8857,57.5123 C 66.2477,58.1512 68.5309,59.039 70.7643,60.1177 L 70.8376,60.0873 L 70.8376,60.0873 z M 31.4771,61.8685 L 31.8864,62.0787 C 34.9855,60.1661 38.4096,58.7168 42.0882,57.829 C 43.4365,57.5165 44.7779,57.2744 46.1373,57.0974 C 46.4208,56.6577 46.6297,56.1944 46.7624,55.7159 C 43.3522,56.3258 40.3609,57.1804 37.7555,58.2439 C 35.2925,59.2492 33.2043,60.4579 31.4771,61.8685 L 31.4771,61.8685 z M 51.7962,83.749 L 55.5384,83.7047 C 55.3946,82.4961 55.2176,81.1491 55.3282,79.9335 C 55.4305,78.7539 55.7002,77.5673 55.9381,76.4016 C 56.2949,74.8209 56.6268,73.2264 56.5728,71.6499 C 56.5189,70.2407 56.0307,68.8992 55.5674,67.5813 C 55.2743,66.782 54.775,65.6397 54.7059,64.7823 C 54.6575,64.3937 54.7045,64.0217 54.7045,63.6248 L 50.524,63.8488 C 50.6152,64.29 50.7383,64.6979 50.6941,65.1377 C 50.5862,66.1514 50.3331,67.118 50.0939,68.0888 C 49.7523,69.4842 49.4066,70.874 49.5089,72.3233 C 49.6458,73.8888 50.1326,75.4017 50.6553,76.9188 C 51.0647,78.0458 51.4505,79.1632 51.6649,80.3581 C 51.9124,81.4727 51.7962,82.6274 51.7962,83.749 z M 77.1755,59.6489 L 74.2437,61.8201 C 74.4235,61.9321 74.5853,62.0344 74.7706,62.1271 C 75.3749,62.488 75.9655,62.8338 76.6044,62.8836 C 77.3166,62.9403 78.3856,62.5807 78.7105,61.874 C 79.0922,61.083 78.7105,60.1661 77.8711,59.9061 C 77.6346,59.8328 77.4037,59.7319 77.1755,59.6489 L 77.1755,59.6489 z M 30.1992,64.3425 L 72.9645,62.069 L 77.0289,59.0294 C 77.1216,58.6823 77.1312,58.4043 77.0967,58.1747 C 77.0151,57.8484 76.863,57.7073 76.5504,57.5953 C 76.3015,57.5413 75.9945,57.5552 75.6142,57.6091 L 70.9593,60.6875 L 31.8186,62.7024 L 26.7502,60.0638 C 26.3561,60.1067 25.9122,60.2173 25.6467,60.5506 C 25.4669,60.8673 25.5803,61.3181 25.6868,61.6292 L 30.1992,64.3425 L 30.1992,64.3425 z M 47.6005,61.2932 L 49.5379,61.2047 L 48.2007,57.6935 L 47.8494,50.4871 L 46.3517,50.5645 C 47.0985,51.8825 47.494,53.1506 47.5175,54.351 C 47.5341,55.6398 47.0874,56.9398 46.259,57.9216 C 46.5909,58.4928 46.8689,59.0639 47.0985,59.6392 C 47.3322,60.1896 47.494,60.7511 47.6005,61.2932 L 47.6005,61.2932 z M 28.3696,60.2491 L 30.9156,61.5905 C 32.7258,60.0776 34.9413,58.7749 37.5315,57.717 C 40.2295,56.5996 43.3466,55.7214 46.8841,55.106 C 46.9228,54.8875 46.9325,54.6331 46.9325,54.38 C 46.9076,53.2916 46.5467,52.1355 45.8746,50.9407 C 42.0342,52.2669 38.6198,53.7411 35.6341,55.3605 C 32.8434,56.8775 30.3984,58.5122 28.3696,60.2491 L 28.3696,60.2491 z M 50.1575,61.1715 L 55.1042,60.9018 L 56.1234,57.2385 L 55.8219,50.1358 L 48.4357,50.4677 L 48.7815,57.5704 L 50.1575,61.1715 L 50.1575,61.1715 z M 71.7849,59.4581 L 74.2036,57.8345 C 71.3742,56.0575 68.506,54.5791 65.559,53.3608 C 62.5788,52.1259 59.553,51.1799 56.4318,50.5396 L 56.5922,54.7548 C 59.275,54.8972 61.8763,55.3259 64.4278,56.0921 C 66.9405,56.8527 69.4187,57.9797 71.7849,59.4581 L 71.7849,59.4581 z "
   id="path24"
   style="fill:#ffcb09;fill-rule:nonzero" />
 </g>
</svg>