<?xml version="1.0" encoding="UTF-8" standalone="no"?>
<!-- Creator: CorelDRAW -->
<svg
   xmlns:dc="http://purl.org/dc/elements/1.1/"
   xmlns:cc="http://web.resource.org/cc/"
   xmlns:rdf="http://www.w3.org/1999/02/22-rdf-syntax-ns#"
   xmlns:svg="http://www.w3.org/2000/svg"
   xmlns="http://www.w3.org/2000/svg"
   xmlns:sodipodi="http://sodipodi.sourceforge.net/DTD/sodipodi-0.dtd"
   xmlns:inkscape="http://www.inkscape.org/namespaces/inkscape"
   xml:space="preserve"
   width="800"
   height="500"
   style="shape-rendering:geometricPrecision; text-rendering:geometricPrecision; image-rendering:optimizeQuality; fill-rule:evenodd; clip-rule:evenodd"
   viewBox="0 0 210 297"
   id="svg2"
   sodipodi:version="0.32"
   inkscape:version="0.45.1"
   sodipodi:docname="POL gmina Ulan-Majorat flag.svg"
   inkscape:output_extension="org.inkscape.output.svg.inkscape"
   sodipodi:docbase="C:\Users\Mistrz\Desktop"
   version="1.0"><metadata
   id="metadata20"><rdf:RDF><cc:Work
       rdf:about=""><dc:format>image/svg+xml</dc:format><dc:type
         rdf:resource="http://purl.org/dc/dcmitype/StillImage" /></cc:Work></rdf:RDF></metadata><sodipodi:namedview
   inkscape:window-height="480"
   inkscape:window-width="640"
   inkscape:pageshadow="2"
   inkscape:pageopacity="0.0"
   guidetolerance="10.0"
   gridtolerance="10.0"
   objecttolerance="10.0"
   borderopacity="1.0"
   bordercolor="#666666"
   pagecolor="#ffffff"
   id="base" />
 <defs
   id="defs4">
  <style
   type="text/css"
   id="style6">
   
    .fil0 {fill:#EB2227}
    .fil1 {fill:#0A0B0C;fill-rule:nonzero}
    .fil3 {fill:#2AABE2;fill-rule:nonzero}
    .fil4 {fill:#EB2227;fill-rule:nonzero}
    .fil5 {fill:#FFCB09;fill-rule:nonzero}
    .fil2 {fill:white;fill-rule:nonzero}
   
  </style>
 </defs>
 <g
   id="Warstwa_x0020_1"
   transform="matrix(2.2628571,0,0,2.2628571,-132.6,-187.53428)">
  <metadata
   id="CorelCorpID_0Corel-Layer" />
  <rect
   class="fil0"
   y="82.875"
   width="210"
   height="131.25"
   id="rect10"
   x="0"
   style="fill:#eb2227" />
  <g
   id="_113572872">
   <path
   id="_113573232"
   class="fil1"
   d="M 57.8924,141.11 C 57.3611,141.0614 56.8408,140.9588 56.3267,140.7926 C 55.6716,140.5779 54.9962,140.2183 54.5002,139.7222 C 54.591,139.4919 54.812,139.3156 54.8794,139.1056 L 55.0064,139.122 C 56.1645,139.1972 57.0602,138.6636 57.8344,137.8863 C 57.8257,137.3918 57.7819,136.8723 57.7591,136.3222 C 57.6056,133.361 57.4159,129.8254 59.103,127.6909 C 59.6946,126.9676 60.4618,126.4277 61.2203,125.8917 C 62.9152,124.7116 64.8421,123.3568 65.1571,120.4379 L 65.1877,120.0758 C 66.1178,121.1118 66.6749,122.0873 66.5417,123.5339 C 66.4978,124.004 66.3842,124.5016 66.1938,125.0102 C 66.3153,124.8252 66.4422,124.6207 66.5558,124.4162 C 68.018,121.911 68.4216,119.8933 67.6474,118.674 L 67.4679,118.3809 C 68.7617,118.5337 70.1165,118.7163 70.636,120.1229 C 70.9675,121.0075 70.8319,122.2793 70.1823,123.9429 C 70.799,123.2572 71.2527,122.5363 71.5536,121.7402 C 72.0293,120.4324 71.9423,119.2703 71.7033,117.9303 C 71.8436,118.0016 72.0105,118.1137 72.1484,118.1631 C 71.9415,116.1845 71.5262,114.2341 71.1477,112.2775 L 75.1057,112.8965 C 75.0093,112.2861 74.8181,111.631 74.6387,110.9618 C 74.4161,110.2221 74.0055,109.0075 74.0055,108.2364 C 73.9091,107.3792 74.1136,106.5274 74.3377,105.6874 C 74.4404,105.2587 74.5446,104.8364 74.6136,104.4211 C 74.67,104.0716 74.6676,103.8099 74.5775,103.451 L 64.5757,103.9878 L 64.0898,103.708 C 63.9464,103.7911 63.7968,103.8961 63.6448,104.0097 C 63.3721,104.2142 63.1072,104.414 62.7906,104.5096 C 62.3079,104.653 61.6881,104.5864 61.301,104.233 C 61.055,104.0011 60.9053,103.6774 60.8747,103.2629 C 60.8238,102.7183 61.1984,102.5067 61.6293,102.2764 C 61.6873,102.2403 61.7343,102.2098 61.7735,102.1878 C 61.7343,102.0601 61.71,101.9386 61.6959,101.8391 C 61.6607,101.4199 61.8433,101.195 62.2076,101.0124 C 62.3761,100.9513 62.5963,100.8941 62.771,100.8941 L 63.2992,101.1731 C 64.5098,100.1254 65.9313,99.1717 67.5816,98.2675 C 69.2733,97.3554 71.1916,96.5122 73.3724,95.7521 L 73.2399,95.5507 L 79.4876,95.2577 L 79.5072,95.4982 C 81.3039,95.8736 83.0811,96.4072 84.8113,97.1313 C 86.5588,97.8451 88.2451,98.7353 89.9008,99.7798 L 90.2605,99.5314 C 90.483,99.4821 90.7589,99.4578 90.99,99.5228 C 91.1507,99.5557 91.2776,99.6223 91.3661,99.7187 C 91.4657,99.8237 91.5315,99.9514 91.5566,100.1089 C 91.5871,100.2829 91.5871,100.496 91.5182,100.7421 C 91.7148,100.8103 91.9397,100.8706 92.1168,100.9881 C 92.3386,101.1354 92.4828,101.4183 92.5251,101.6738 C 92.5933,102.0781 92.5133,102.4253 92.2273,102.7011 C 91.8198,103.0866 91.229,103.248 90.6899,103.1297 C 90.3545,103.0545 90.056,102.8758 89.7488,102.6987 C 89.5991,102.6102 89.4612,102.5248 89.3288,102.4582 L 89.0106,102.6932 L 78.885,103.2324 C 78.885,103.4643 78.8231,103.6751 78.885,103.9039 L 78.885,103.918 C 78.9955,104.4078 79.1694,104.8803 79.341,105.3724 C 79.62,106.1599 79.9052,106.9341 79.9381,107.7718 C 79.9742,108.7199 79.7697,109.6375 79.573,110.5637 C 79.4319,111.2102 79.2909,111.8574 79.2305,112.5125 C 79.171,113.2154 79.2948,113.9254 79.3489,114.6188 L 79.573,114.6188 L 81.2154,115.9376 L 84.9806,116.6037 L 84.9861,117.3364 L 89.4416,118.6082 C 90.0419,118.4585 90.5175,118.442 90.9234,118.5611 C 91.3466,118.6881 91.689,118.9451 92.0071,119.3291 L 99.6394,120.7004 L 101.4064,118.2179 C 101.2795,118.1631 101.1792,118.0925 101.0742,118.0056 C 100.8422,117.8253 100.6682,117.591 100.5711,117.3058 C 100.4496,116.9657 100.5366,116.5018 100.6729,116.1625 C 100.7717,115.9157 100.9425,115.6485 101.0522,115.4181 C 100.7874,115.2026 100.7576,114.9088 100.9166,114.6024 C 100.9966,114.4418 101.1384,114.3751 101.2842,114.2733 C 100.7372,114.0695 100.6894,113.5218 100.9088,113.0462 L 100.267,113.054 C 100.162,112.5603 100.249,112.1709 100.3995,111.6999 C 98.9443,111.3606 97.4743,111.0386 96.0152,110.7518 L 102.1829,105.6129 C 102.6515,104.733 102.9062,103.6994 103.6036,102.9479 L 103.6036,102.9393 C 103.7141,102.821 103.8301,102.6987 103.9547,102.5859 C 105.507,101.101 107.4558,100.5963 109.5166,100.2829 C 109.9022,100.2288 110.2948,100.1685 110.6834,100.0948 C 111.0227,100.366 111.3652,100.6919 111.6919,100.9826 C 112.3196,101.5155 112.9802,102.0742 113.4613,102.6768 C 114.6578,104.1249 115.7094,105.8088 115.5151,107.7553 C 115.4407,108.4934 115.2393,109.223 114.9595,109.9 L 118.0532,117.3795 C 116.6121,116.8372 115.1836,116.2574 113.741,115.7276 L 113.8758,117.3748 L 116.6294,122.6022 L 116.0793,122.4752 C 116.6082,124.0706 117.0024,125.608 116.848,127.3077 C 116.6999,128.9587 116.2572,130.6066 115.7643,132.1754 C 115.2581,133.8006 114.4486,135.269 113.6415,136.7148 C 113.2905,137.3667 112.9112,138.0218 112.5797,138.7075 C 112.3721,139.0938 112.499,139.6431 112.5876,140.0404 C 112.8219,141.0081 113.1753,141.9539 113.5138,142.8849 L 115.7643,140.679 L 119.8053,142.5307 C 118.9214,144.6425 118.0406,146.759 117.163,148.8669 L 119.4879,148.8669 C 119.3822,148.5981 119.2662,148.3301 119.1502,148.0621 L 124.1762,147.9406 C 124.2781,148.1984 124.4058,148.4492 124.5108,148.7062 C 125.5224,148.5816 126.5952,148.7454 127.7502,149.1764 C 128.9366,149.6183 130.1833,150.3345 131.5515,151.2686 C 131.9221,150.6801 132.2896,150.0775 132.6516,149.4663 C 134.1718,146.9314 135.7367,144.3361 138.2661,142.8151 C 139.0685,142.3324 139.9391,141.9343 140.823,141.6045 C 143.9214,140.4635 147.533,140.2292 150.6587,141.425 C 153.9201,142.6647 156.4135,144.9857 157.9509,148.0762 C 159.1788,150.4975 159.8472,153.2762 160.1928,155.9185 C 160.6097,159.4627 159.772,162.9301 158.8912,166.3262 C 158.1217,169.2765 157.4619,172.244 156.6204,175.166 C 156.5052,175.5602 156.408,175.9637 156.4527,176.3641 C 156.5357,177.1211 157.2747,177.7566 157.8514,178.1633 L 156.8727,178.78 L 156.7849,178.7353 L 156.7849,178.7275 C 155.0297,178.0904 153.754,177.3068 153.2242,174.7993 C 152.9915,173.5886 153.0887,172.3607 153.1882,171.1336 C 153.33,169.3815 153.3755,167.6121 153.4648,165.8506 C 152.9782,169.0712 152.4939,172.2918 152.5112,175.5288 C 152.5112,176.372 152.7126,177.1548 153.0221,177.9282 C 154.0408,180.4381 155.4277,181.5445 157.4063,182.9346 C 157.201,183.4941 157.0208,184.0975 156.7708,184.6264 C 156.1243,184.4721 155.4967,184.3224 154.8416,184.2205 C 153.7218,184.0184 152.6021,183.8138 151.6288,183.2888 C 149.7694,182.2897 147.9287,181.0226 146.852,179.1561 C 145.7753,177.2394 145.8153,175.0312 145.8874,172.903 C 145.9454,171.0897 146.3074,169.3282 146.6726,167.5596 C 146.874,166.6115 147.0675,165.6798 147.2117,164.7371 C 147.4585,163.1315 147.529,161.3418 147.1592,159.733 C 147.3386,161.3143 147.1145,162.9928 146.4124,164.549 C 145.8333,165.8929 145.2253,167.2242 144.6321,168.5517 L 144.6321,168.5603 C 144.5772,168.7037 144.5247,168.8533 144.4722,169.0054 C 144.3139,169.6268 144.0412,170.6486 144.3727,171.2081 C 144.5999,171.6155 144.9808,172.0277 145.2903,172.3835 L 144.7292,173.2705 C 143.8485,172.9915 142.7217,172.6005 142.0728,171.9682 C 141.3558,171.2997 140.7486,170.332 140.6961,169.3282 C 140.5464,167.3214 141.5698,164.6258 142.3377,162.7272 C 142.84,161.5259 143.3971,160.3591 143.3971,159.0176 C 143.4763,157.9927 143.1816,156.8204 142.6504,155.9459 C 141.9185,154.812 140.8575,153.9798 139.5293,153.646 C 137.9903,153.3224 136.5712,153.7158 135.2751,154.5918 C 136.0963,155.2579 136.7843,156.3032 137.3321,157.6714 C 137.9119,159.1007 138.3711,160.892 138.7081,162.9677 C 138.8914,162.9599 139.0756,162.9458 139.2644,162.9458 L 139.3553,169.2373 C 139.1046,169.2373 138.8617,169.2389 138.6172,169.2287 C 138.556,169.5218 138.4902,169.7929 138.4377,170.0664 C 138.223,171.0333 137.9158,172.1076 137.4371,172.9688 C 137.1965,173.4006 136.9614,173.8261 136.8643,174.2876 L 136.8643,174.2931 C 136.8509,174.4012 136.8455,174.4757 136.8345,174.5807 C 136.7499,175.1652 136.8439,175.7929 137.075,176.3281 C 137.687,177.6892 138.7441,178.7416 140.0794,179.3661 C 140.1569,179.4045 140.2424,179.4492 140.3121,179.4931 L 140.3176,179.4931 C 140.9147,179.7313 141.4671,180.011 142.0971,180.2007 C 142.2162,180.2398 142.3659,180.2398 142.5179,180.2398 C 142.7029,180.2477 142.9238,180.2477 143.1174,180.3527 C 143.662,180.5219 144.0271,181.0618 144.1596,181.5884 C 144.4409,182.7121 144.2105,183.8938 144.1188,185.0472 C 144.0522,185.9013 144.2168,186.6003 144.3852,187.4153 C 144.7841,189.3453 145.5849,191.1585 146.316,192.9122 C 146.5174,193.3941 146.6373,193.8627 146.747,194.3713 L 146.7556,194.3713 L 146.7556,194.3877 C 146.8998,195.2129 146.5981,195.8429 145.7401,195.9173 C 145.1422,195.9667 144.466,195.8374 143.8877,196.027 C 143.1887,196.2566 142.4356,196.8137 142.1332,197.5135 C 142.0462,197.7259 141.9819,198.1153 142.2742,198.1858 C 142.3659,198.2023 142.449,198.2242 142.5312,198.2767 L 142.5312,198.2853 C 142.7938,198.4382 143.1832,198.6889 143.2255,199.007 C 143.2874,199.6018 143.1652,200.3877 142.9285,200.9284 C 142.7005,201.4613 142.3448,201.7285 141.8041,201.9095 C 139.82,202.5748 137.0672,202.6093 135.0377,202.2825 C 134.3113,202.1399 133.5865,202.0106 132.8922,201.7543 C 132.6469,201.6791 132.5513,201.3962 132.6751,201.1886 L 135.9827,195.6203 C 136.3377,195.0726 136.6864,194.6894 137.1605,194.2271 C 137.7004,193.7334 138.1392,193.1935 138.5811,192.6019 C 139.0787,191.8794 139.4251,191.1475 139.4603,190.2495 C 139.4603,189.0835 139.1218,187.0705 138.6172,185.9813 C 138.2473,185.2502 137.6823,184.6123 137.1134,184.0325 C 136.0133,182.9707 134.9664,182.3971 133.4697,181.9536 C 131.955,181.4905 130.4011,181.1692 128.8786,180.7507 C 128.9319,181.2938 129.0157,181.8321 129.0831,182.3681 C 129.1536,183.1517 129.2853,183.8703 129.5721,184.5959 C 129.9349,185.4633 130.2475,186.7445 129.8432,187.6284 C 129.3973,188.68 128.6216,189.194 127.4752,189.0169 C 126.2528,188.8265 125.372,188.1119 125.0225,186.8855 C 124.2726,184.2699 123.7915,181.6339 123.482,179.0064 C 123.1975,179.3301 122.8903,179.6835 122.5949,180.0957 C 121.9571,180.989 121.0058,182.5123 120.679,183.5874 C 120.5536,183.9541 120.5325,184.454 120.7057,184.8192 C 120.8412,185.1036 121.0935,185.3176 121.2636,185.5754 C 121.6092,186.0996 121.2918,186.5846 121.0481,187.0524 C 120.7895,187.5445 120.3476,187.8721 119.9464,188.231 C 119.0656,188.897 118.1864,189.7966 117.4145,190.5724 C 116.8488,191.1742 116.1099,192.1098 115.8168,192.8809 C 115.6812,193.2264 115.6068,193.6026 115.5096,193.9732 C 115.2628,195.0295 114.9172,195.788 114.3154,196.6743 C 114.0255,197.0982 113.7285,197.501 113.3343,197.8708 C 112.5837,198.5173 111.9121,198.4209 111.5344,197.5331 C 111.3855,197.0606 111.1081,196.5379 110.8958,196.0795 C 110.5604,196.3021 110.1764,196.4204 109.8512,196.668 C 109.6977,196.7558 109.5684,196.9571 109.4806,197.0966 L 109.4806,197.1021 C 109.3262,197.4328 109.1154,197.7063 109.3678,198.0589 C 109.5261,198.4162 110.225,198.3339 110.4374,198.902 C 110.5486,199.1371 110.2728,200.2585 110.1717,200.4802 L 110.1717,200.4967 C 110.0283,200.8117 109.9092,201.0828 109.6608,201.3398 C 108.295,202.6821 104.8284,202.5983 103.1005,202.4541 C 101.8194,202.2974 100.5899,201.9361 99.3275,201.7293 L 103.128,195.1674 C 104.5008,194.2812 105.8424,193.3385 107.2309,192.4609 C 109.5033,191.0065 111.963,189.433 113.4009,187.065 C 113.8876,186.2344 114.2073,185.2094 114.2441,184.2338 L 114.2519,184.2338 C 114.3185,183.6117 114.3185,182.9926 114.2739,182.3681 C 114.0803,179.6513 113.2912,176.904 112.6213,174.257 L 112.6816,174.0917 L 111.8142,174.6253 L 106.1997,175.8438 L 106.1997,176.1761 C 105.6159,176.4292 104.9248,176.4895 104.3034,176.5217 L 104.0048,185.1906 C 103.9492,186.1991 103.7697,187.0564 103.4155,187.7804 C 103.0065,188.6024 102.3451,189.3343 101.5772,189.8178 C 101.013,189.0091 100.4645,188.2239 100.1127,187.2914 C 99.8415,186.5368 99.7146,185.8238 99.8165,185.1162 L 99.9991,176.3775 C 97.3027,176.5318 94.4856,176.3704 91.8441,175.8141 L 91.1507,182.18 L 91.2909,186.4099 C 91.8112,188.0163 92.2265,189.6446 92.5846,190.9015 C 92.7758,191.4312 92.9764,191.7266 93.2891,192.1302 C 93.3878,192.446 93.5328,192.768 93.6715,193.0634 C 93.8979,193.5751 94.1166,194.0782 94.2051,194.6941 C 94.3062,195.2998 93.8423,195.6673 93.3079,195.7449 C 93.0595,195.7825 92.7939,195.7747 92.5267,195.77 C 92.2477,195.7645 91.9766,195.7645 91.736,195.817 C 91.4688,195.8758 91.0417,196.1226 90.6774,196.382 C 90.2628,196.6782 89.6516,197.1946 89.5576,197.7525 C 89.5082,198.08 89.6093,198.2172 89.9259,198.2885 C 90.4736,198.4193 90.7831,198.9193 90.773,199.4412 C 90.7722,199.8306 90.581,200.4026 90.3686,200.8117 C 90.1163,201.2991 89.8585,201.6235 89.3492,201.8343 C 88.6768,202.1148 87.9606,202.2762 87.2444,202.3405 C 85.8888,202.4854 84.512,202.422 83.1423,202.4376 L 79.9742,201.7238 L 83.7723,195.2669 C 84.4438,194.6918 85.0237,194.0414 85.5189,193.3095 C 86.0306,192.5439 86.4843,191.678 86.8738,190.6609 L 86.4592,185.8818 C 85.8206,185.3865 85.287,184.8309 84.9861,184.0928 C 84.6875,183.3382 84.646,182.4041 84.9861,181.2233 L 84.1124,177.4698 L 84.0763,177.4863 L 84.0458,177.1485 L 81.4332,178.0638 L 77.7158,177.9752 C 77.154,177.306 77.0717,176.5138 77.0717,175.6699 L 80.2806,174.6112 L 83.1423,171.8632 L 72.5762,168.5242 L 71.2527,169.9371 L 70.5749,173.2486 C 70.8821,173.8065 71.2081,174.4537 71.4706,175.1668 C 71.7503,175.905 71.9901,176.7262 72.1484,177.6351 C 72.2095,178.0473 72.0042,178.3694 71.6147,178.4783 C 71.1532,178.5919 70.3296,178.4948 69.8368,178.3874 C 69.6761,178.9477 69.4113,179.5479 69.4309,180.1262 C 69.4504,180.3527 69.6072,180.5149 69.8164,180.5932 C 70.4911,180.8463 71.0513,180.5995 71.4572,180.3887 C 71.9901,180.1787 72.5543,179.9468 73.1185,180.1262 C 73.8221,180.3488 74.6042,180.7421 74.9012,181.4583 C 75.1668,182.1134 75.0751,182.8046 75.0007,183.5043 C 74.793,184.9516 74.4717,186.3488 74.0635,187.764 C 73.7265,188.9441 73.3167,190.0928 72.9445,191.2557 L 67.5816,186.0502 C 66.5535,184.2895 65.6132,182.6471 65.1571,180.4577 C 64.9103,179.468 65.6351,178.3349 65.7432,177.3476 C 65.9611,175.5508 66.1053,173.7595 66.2573,171.9627 C 66.3239,171.0897 66.3983,170.2325 66.4814,169.2843 L 65.5771,166.769 L 67.8934,163.1033 C 69.0727,163.3258 70.2599,163.5045 71.4463,163.6087 C 72.5762,163.6918 73.6905,163.7082 74.7742,163.6228 L 77.2731,163.0367 L 76.9495,158.7551 C 77.393,158.4456 77.8216,158.1212 78.2738,157.8289 L 79.5072,153.5771 C 79.3269,153.3726 79.1475,153.1625 78.9594,152.9525 L 77.1375,152.585 C 77.0083,152.8718 76.7599,153.1273 76.4911,153.284 C 77.1078,153.6586 77.7809,154.0253 78.5175,154.3834 L 78.6805,155.5204 C 78.5386,155.8307 78.3051,156.1912 78.0998,156.4662 C 77.9023,156.7295 77.6884,157.0241 77.4251,157.2263 L 76.6486,157.1519 C 76.2278,156.7311 75.8133,156.2162 75.4732,155.7139 C 75.1887,155.2853 74.9537,154.8489 74.7601,154.3983 L 74.3456,154.6772 C 74.525,155.3378 74.7523,155.9459 75.0751,156.4905 C 75.434,157.1048 75.9363,157.6651 76.535,158.0389 L 76.256,158.7849 C 75.2914,159.0591 74.5227,159.371 73.7046,159.9736 C 73.3677,160.24 73.0589,160.5221 72.7948,160.7784 C 72.3529,160.834 71.6163,160.7729 71.2386,160.7117 C 70.6948,160.6279 70.3046,160.461 69.7929,160.2612 C 69.6017,159.9258 69.434,159.5998 69.3117,159.2221 C 69.1981,158.8374 69.1017,158.415 69.0633,157.9253 C 69.0077,157.5429 68.8573,157.202 68.6567,156.8666 C 68.5509,156.9097 68.438,156.9426 68.3252,156.9716 L 67.3018,154.3677 C 67.4233,154.3505 67.5565,154.3387 67.6701,154.3066 C 67.1059,153.3059 66.4508,152.4934 65.6516,151.9158 C 64.6783,151.1965 63.7404,150.9583 62.5477,150.8462 C 62.3957,148.4461 61.3363,145.8625 59.6696,144.1034 C 59.3734,144.0603 59.0693,144.0054 58.7684,143.9741 L 57.8924,141.11 L 57.8924,141.11 z "
   style="fill:#0a0b0c;fill-rule:nonzero" />
   <path
   id="_113573160"
   class="fil2"
   d="M 89.2293,157.873 L 88.4276,161.7268 L 88.0484,163.1725 L 90.6303,162.4039 L 92.5627,157.8292 L 89.2293,157.873 L 89.2293,157.873 z M 57.9707,138.2361 C 57.1934,138.9993 56.2687,139.5141 55.0894,139.4655 C 55.0338,139.6089 54.9758,139.6536 54.9233,139.67 C 55.4953,140.1418 56.1779,140.4505 56.8862,140.6261 C 58.9565,141.1299 61.522,140.6182 63.0257,139.1639 L 63.2608,139.4208 C 62.1551,140.4716 60.5519,141.0546 58.94,141.1299 L 58.9706,141.2733 C 60.3771,141.3838 61.7735,141.4449 63.1691,141.4755 C 64.7065,141.5138 66.2408,141.4755 67.7916,141.3759 C 65.8647,139.6536 62.8792,138.2768 58.8209,137.2456 C 58.5663,137.5935 58.2771,137.9328 57.9707,138.2361 L 57.9707,138.2361 z M 117.0188,149.2127 C 116.6419,150.1484 116.2352,151.0902 115.8497,152.0141 C 115.5198,152.7789 115.2252,153.5703 114.9352,154.368 C 114.3295,156.0379 113.7019,157.7077 112.7897,159.2224 C 115.8027,160.303 118.8046,161.2151 121.8238,161.9313 C 122.1295,161.806 122.4147,161.7276 122.761,161.7574 C 122.7195,159.5516 122.327,157.3394 121.7079,155.1281 C 121.1688,153.1542 120.4384,151.1835 119.6313,149.2127 L 117.0188,149.2127 z M 130.4897,163.0762 C 131.9056,163.1287 133.3044,163.142 134.7196,163.1287 C 135.9247,163.1036 137.1495,163.0762 138.3711,162.9931 C 138.0311,160.9612 137.6024,159.206 137.0249,157.8073 C 136.5014,156.5064 135.8495,155.4298 134.7055,154.6 C 135.5188,153.9715 136.6723,153.3337 138.0616,153.2012 C 139.6367,153.119 141.098,153.7043 142.2053,154.8492 C 142.4913,155.1179 142.7334,155.447 142.9293,155.7832 L 142.9403,155.7832 C 143.5875,156.8912 143.883,158.3158 143.6839,159.5899 C 143.5499,160.6392 143.1605,161.5842 142.7742,162.5378 C 142.0046,164.4381 140.8802,167.2199 141.0197,169.2987 C 141.0949,170.2586 141.6184,171.0916 142.3048,171.7365 C 142.9466,172.3666 143.8007,172.5303 144.5913,172.8727 L 144.8726,172.4057 C 144.6015,172.0719 144.3014,171.7592 144.0961,171.3745 C 143.7246,170.7335 143.9472,169.6169 144.1572,168.914 C 144.2097,168.7565 144.27,168.599 144.3312,168.4556 L 144.3367,168.4415 C 144.9118,167.0976 145.5089,165.7545 146.1138,164.4137 C 146.7971,162.9241 146.9931,161.3013 146.8301,159.7639 C 146.7658,159.1919 146.6671,158.572 146.4594,158.0251 C 146.4461,157.9671 146.5041,157.8073 146.5644,157.7242 C 146.6217,157.667 146.7031,157.616 146.7971,157.6356 C 146.8881,157.6497 146.9492,157.7101 146.9852,157.8237 C 147.2665,158.6582 147.5298,159.5985 147.6568,160.7402 C 147.7759,161.8788 147.7759,163.2031 147.5298,164.7978 C 147.3856,165.7545 147.1811,166.6862 146.9931,167.6344 C 146.6397,169.3865 146.2714,171.1425 146.2189,172.9166 C 146.1444,174.9587 146.0958,177.1708 147.1451,178.9989 C 148.2045,180.8357 149.9645,182.0142 151.7864,183.0015 C 153.2368,183.789 154.9944,183.8251 156.5741,184.2427 C 156.7356,183.8541 156.8562,183.4443 157.0114,183.0454 C 155.9559,182.2046 154.7272,181.4563 153.9624,180.3224 C 153.0079,178.8751 152.1789,177.3173 152.1789,175.5346 C 152.1625,172.1902 152.6687,168.8834 153.1796,165.5805 C 153.3527,164.2758 153.5674,162.9359 153.7438,161.6163 L 154.0839,161.6523 C 153.8942,163.9021 153.7696,166.1408 153.6685,168.3929 C 153.627,169.3207 153.6004,170.2461 153.5173,171.1645 C 153.3818,172.9589 153.2203,174.849 154.2273,176.4295 C 155.0085,177.655 155.7184,177.8987 156.8617,178.3963 L 157.2355,178.1636 C 156.7598,177.7067 156.1972,177.0799 156.1212,176.4029 C 156.035,175.6247 156.4331,174.6178 156.6353,173.8264 C 157.2794,171.3071 157.8992,168.7768 158.5762,166.2576 C 158.9876,164.663 159.4248,162.9626 159.6874,161.2182 C 159.9577,159.4935 160.0713,157.7101 159.8613,155.9634 C 159.5322,153.3454 158.852,150.6224 157.6579,148.2285 C 157.1807,147.3125 156.6572,146.4537 156.0186,145.6379 L 156.0107,145.6379 C 154.6535,143.9242 152.6687,142.5529 150.5451,141.7513 C 148.7514,141.0601 146.8167,140.8596 144.9111,141.0304 C 142.695,141.2294 140.3317,141.9472 138.4377,143.1171 C 135.9686,144.5793 134.4429,147.1448 132.9415,149.6523 C 132.5184,150.3607 132.0694,151.062 131.6424,151.7555 C 130.3541,150.8896 129.1106,150.0535 127.6483,149.5081 C 126.5725,149.1077 125.5695,148.9361 124.6597,149.0411 C 125.495,151.026 126.1634,153.0077 126.6971,154.9925 C 127.2863,157.2344 127.6922,159.5014 127.8912,161.7519 C 128.4359,161.5246 128.9389,161.5419 129.3621,161.7268 C 129.8644,161.9502 130.3823,162.5198 130.4897,163.0762 L 130.4897,163.0762 z M 128.4304,169.0637 C 128.4304,172.926 128.4085,176.576 128.8426,180.4196 C 130.416,180.8326 132.0114,181.1844 133.5747,181.6522 C 135.942,182.2172 138.4895,184.2741 139.2299,186.6578 C 139.5802,187.783 139.8121,189.3644 139.7918,190.2686 C 139.7424,191.7786 138.7982,192.9556 137.8351,194.0292 C 137.4708,194.435 137.0077,194.8057 136.6848,195.1975 L 141.0197,197.5749 L 140.8622,197.868 L 136.4834,195.4686 L 132.9815,201.3205 C 132.9435,201.3842 132.9392,201.4365 133.0129,201.4577 C 133.6743,201.7123 134.3873,201.8479 135.0902,201.9623 C 137.1041,202.2891 139.4752,202.1707 141.4781,201.6637 C 142.096,201.5059 142.4422,201.3116 142.6423,200.6857 C 142.7823,200.2469 142.9144,199.8109 142.9058,199.3349 C 142.8971,198.8554 142.5869,198.6704 142.1661,198.5333 C 141.8534,198.4329 141.7234,198.1203 141.7328,197.8053 C 141.7469,197.3069 142.083,196.8517 142.478,196.5061 C 143.0053,196.0453 143.6055,195.7209 144.3186,195.6269 C 144.7692,195.5681 145.2511,195.6199 145.7064,195.6034 C 146.07,195.5901 146.3066,195.5008 146.4187,195.0047 C 146.4594,194.8237 146.4641,194.6435 146.4124,194.4593 L 146.4124,194.4515 C 146.327,194.0174 146.175,193.5888 146.0143,193.1578 C 145.954,193.0473 145.9235,192.9313 145.9125,192.9031 L 145.9125,192.8953 C 145.0811,190.8094 144.2434,188.837 143.8453,186.6202 C 143.7168,185.9032 143.7835,185.1235 143.8422,184.4081 C 143.9307,183.6527 144.0052,182.8291 143.9159,182.062 C 143.8642,181.613 143.7246,181.1828 143.3579,180.8835 C 143.079,180.657 142.8627,180.5935 142.5093,180.5935 C 142.3377,180.5771 142.1802,180.5771 142.0117,180.5387 C 140.9625,180.1649 139.4979,179.6023 138.4761,178.7693 C 137.7991,178.0986 137.1448,177.3424 136.7593,176.4608 C 136.4505,175.6968 136.4106,174.8952 136.5853,174.0936 C 136.7695,173.2935 137.3423,172.6275 137.6165,171.847 C 137.912,171.0031 138.0686,170.1184 138.2881,169.2431 C 137.0053,169.2211 135.7508,169.1906 134.4876,169.0997 C 132.9306,169.0111 131.3579,168.867 129.7986,168.6734 C 129.3887,168.9649 128.9311,169.1365 128.4304,169.0637 L 128.4304,169.0637 z M 117.0361,171.3494 L 113.1549,173.8013 L 112.9668,174.2824 C 113.4299,176.3472 114.0372,178.3736 114.3734,180.4634 C 114.5873,181.8387 114.7574,183.3228 114.5231,184.6988 C 114.3045,187.0199 112.72,188.7516 111.0541,190.1942 C 109.9037,191.1345 108.6515,191.9385 107.4127,192.7433 C 106.1244,193.5668 104.8417,194.424 103.5816,195.2696 L 108.2449,197.68 L 108.1038,197.9651 L 103.316,195.507 L 99.858,201.5031 C 101.8483,201.9435 103.776,202.4277 106.2381,202.1504 C 107.3375,202.079 108.5975,201.9278 109.4203,201.1051 C 109.8779,200.6733 109.9696,200.0221 110.0957,199.4344 C 110.2266,198.8193 109.9711,198.8115 109.4469,198.5646 C 109.1969,198.4455 109.023,198.2159 108.9493,197.9409 C 108.8286,197.4926 109.1249,197.0123 109.3811,196.6574 C 109.7799,196.1723 110.5079,195.9482 111.0541,195.6238 C 111.2507,196.13 111.4835,196.6432 111.7178,197.1353 C 111.822,197.3579 112.1127,198.0036 112.4246,198.0036 C 112.695,198.0036 112.9222,197.8139 113.1157,197.636 C 114.1477,196.6785 114.9689,195.0557 115.2463,193.6883 C 115.3553,193.1711 115.5135,192.6657 115.787,192.2049 C 116.1153,191.6533 116.5298,191.0632 116.9828,190.5711 C 117.9309,189.5329 119.0311,188.6003 120.0921,187.6631 C 120.2488,187.5229 120.4001,187.3803 120.5411,187.2283 C 120.7229,187.0496 120.9776,186.5073 121.0528,186.2457 C 121.11,186.0482 121.0849,185.8805 120.9125,185.647 C 120.7683,185.4519 120.5858,185.2724 120.4612,185.0616 C 120.1219,184.4896 120.2269,183.84 120.4565,183.2045 C 121.0136,181.6663 122.4319,179.6375 123.4412,178.5758 L 123.4271,178.3188 C 122.1169,177.4395 120.9282,176.4389 119.8586,175.2995 C 118.7749,174.1414 117.84,172.8312 117.0361,171.3494 L 117.0361,171.3494 z M 108.212,163.4601 C 107.5248,163.7885 106.8438,164.0243 106.1856,164.1951 L 106.1997,175.5213 L 111.6919,174.3326 L 116.8613,171.0649 L 115.6342,167.4902 L 115.9523,167.3797 C 116.9248,170.3143 117.5462,172.4026 120.107,175.0707 C 121.0771,176.1317 122.1914,177.0666 123.3746,177.8925 C 123.109,174.9571 123.0619,171.999 123.1231,169.0637 C 122.7195,169.2211 122.3434,169.207 122.0252,169.0879 C 121.2848,168.8411 120.8499,168.081 120.7456,167.3413 C 118.5946,166.9048 116.4883,166.3626 114.4236,165.7161 C 112.1746,165.0305 110.1474,164.1427 108.212,163.4601 L 108.212,163.4601 z M 90.827,170.2523 L 92.8503,170.1082 L 92.5157,168.9281 L 93.6856,168.7706 L 94.0476,167.6869 L 95.0256,168.32 L 96.0654,167.748 L 96.3725,168.9226 L 97.4257,169.0801 L 96.9579,170.1552 L 97.812,171.0508 L 96.7314,171.4881 L 96.6899,172.7066 L 95.5537,172.4002 L 94.7913,173.3233 L 94.0695,172.3611 L 93.0438,172.6157 L 92.9584,171.3 L 90.827,171.706 C 90.9156,171.963 91.0065,172.2176 91.1091,172.4802 C 91.3685,173.1352 91.6396,173.8068 91.631,174.5206 C 91.6232,174.8662 91.3301,175.1232 91.0065,175.305 C 92.4248,175.6341 93.8235,175.8441 95.2308,175.9718 C 96.809,176.1153 98.4091,176.1317 100.0077,176.0487 L 100.2365,164.1513 C 98.8409,163.7281 97.486,163.1639 96.1845,162.4736 C 95.7778,163.906 94.843,165.1347 93.713,166.0617 L 94.1299,166.484 L 91.1279,169.5832 L 90.827,170.2523 L 90.827,170.2523 z M 84.436,177.4231 L 85.334,181.2463 C 85.0315,182.0534 84.9595,183.1606 85.2956,183.9716 C 85.6271,184.8116 86.1544,185.1847 86.7774,185.7159 L 87.2138,190.7059 C 86.9607,191.6047 86.3229,192.7189 85.7987,193.4947 C 85.334,194.1749 84.8113,194.761 84.2699,195.2727 L 88.5765,197.6274 L 88.4276,197.915 L 84.0097,195.507 L 80.4882,201.5282 C 81.387,201.7037 82.2889,201.8957 83.172,202.1143 C 84.5239,202.0878 85.8737,202.1621 87.2225,202.0172 C 87.9269,201.9717 88.7176,201.7601 89.3672,201.4671 C 89.8021,201.2868 90.0693,200.7501 90.2158,200.323 C 90.3169,200.055 90.4509,199.6969 90.4509,199.3968 C 90.4509,199.0144 90.132,198.6806 89.7708,198.5983 C 89.3734,198.458 89.1972,198.2802 89.2066,197.8366 C 89.216,197.5992 89.3022,197.3516 89.4393,197.1604 C 89.882,196.4998 90.4564,196.0822 91.1608,195.7013 C 91.6349,195.4427 91.993,195.4349 92.5353,195.4545 C 93.0054,195.46 93.9889,195.4866 93.8815,194.7469 C 93.7875,194.189 93.5798,193.6992 93.3674,193.2017 C 93.2342,192.9195 93.1104,192.6328 93.0078,192.3146 C 92.6927,191.9745 92.4663,191.5099 92.2924,191.0209 C 92.1098,190.5256 91.982,189.9732 91.8582,189.4647 L 90.9626,186.4682 L 90.8184,182.1858 L 91.5127,175.7501 C 91.164,175.6757 90.827,175.6036 90.4924,175.5181 C 89.8569,175.7446 89.1681,175.8496 88.5076,175.9468 C 88.209,175.9993 87.916,176.0542 87.6174,176.1074 L 87.7553,176.8644 L 84.436,177.4231 z M 83.4737,163.0119 L 80.5846,162.6311 L 74.8322,163.9436 L 74.8102,163.9436 C 73.6991,164.0517 72.5762,164.0267 71.4102,163.9436 C 70.321,163.8472 69.1981,163.6866 68.054,163.4766 L 65.9391,166.8272 L 66.8152,169.2517 L 66.5864,171.988 C 66.4508,173.8013 66.2988,175.6036 66.0747,177.4067 C 66.0442,177.6887 65.9595,177.9567 65.8639,178.2239 C 65.6492,178.8328 65.3468,179.7629 65.4721,180.4031 C 65.9611,182.5839 66.8567,184.1511 67.714,185.6195 L 70.9894,181.229 L 71.2527,181.4344 L 67.9099,185.9126 L 72.798,190.6667 C 73.1404,189.6582 73.4585,188.6576 73.7516,187.6812 C 74.1724,186.2488 74.4796,184.9276 74.6692,183.4576 C 74.7382,182.8158 74.8267,182.1638 74.5948,181.5918 C 74.5391,181.4242 74.4286,181.3004 74.315,181.1577 C 73.9836,180.8176 73.4805,180.5935 73.0299,180.4501 C 72.5762,180.306 72.0567,180.5081 71.5756,180.704 C 71.2998,180.8341 70.9761,180.9524 70.6721,180.9971 C 70.4088,181.0488 69.9089,181.0096 69.6573,180.8756 C 69.4073,180.7017 69.1096,180.4964 69.0962,180.1461 C 69.0712,179.6783 69.2154,179.2419 69.3619,178.8022 C 69.4489,178.5484 69.5076,178.2905 69.5884,178.0311 C 70.1094,178.0876 70.6078,178.2067 71.1312,178.1997 C 71.476,178.1965 71.8851,178.1644 71.8247,177.6911 C 71.6751,176.815 71.4322,176.0079 71.1532,175.294 C 70.8868,174.5904 70.5428,173.9768 70.2293,173.2928 L 70.9424,169.7845 L 72.4877,168.1515 L 83.4126,171.615 L 83.8037,171.2272 L 83.7746,170.4483 L 88.1416,161.4486 L 88.8673,157.9781 C 87.5594,158.6003 86.2876,159.2773 85.0409,160.01 C 83.7746,160.7536 82.5475,161.5528 81.3447,162.3929 L 83.5176,162.689 L 83.4737,163.0119 L 83.4737,163.0119 z M 76.093,153.4363 C 76.0319,153.4363 75.9708,153.4504 75.9128,153.4504 C 75.7874,153.4504 75.6566,153.4261 75.5327,153.3823 C 74.518,154.1314 73.3489,154.8382 72.2307,155.4212 C 71.23,155.9548 70.1549,156.4218 68.9803,156.7925 C 69.2012,157.124 69.3407,157.5197 69.3893,157.9036 C 69.4387,158.3707 69.5084,158.7797 69.6299,159.1307 C 69.7427,159.463 69.8759,159.7561 70.028,160.0131 C 70.426,160.2011 70.8461,160.3367 71.2911,160.4111 C 71.7056,160.4715 72.1429,160.4942 72.5762,160.4801 C 72.4712,160.0264 72.3357,159.5758 72.1124,159.2357 C 71.8851,158.9129 71.5787,158.6943 71.125,158.7687 C 70.9416,158.7946 70.9291,158.8996 70.9291,159.0704 C 70.9581,159.3728 71.1579,159.9316 71.4102,160.0734 L 71.2825,160.372 C 70.8993,160.1878 70.64,159.5116 70.5969,159.0924 C 70.5765,158.7335 70.7199,158.5062 71.0725,158.4318 C 71.6892,158.3573 72.0873,158.6199 72.3881,159.0563 C 72.6154,159.4019 72.7674,159.836 72.8693,160.2842 C 73.0245,160.0867 73.3143,159.8822 73.5111,159.7255 C 74.3017,159.1393 75.1284,158.7327 76.0155,158.5227 L 76.1314,158.1881 C 75.5727,157.7626 75.1362,157.2736 74.7993,156.6789 C 74.4286,156.048 74.1089,155.2621 73.9695,154.5341 L 74.9403,153.9175 C 75.1472,154.5083 75.405,155.0403 75.7529,155.5513 C 76.0569,155.9854 76.3994,156.4218 76.8006,156.8504 C 76.9691,156.8638 77.1446,156.8748 77.3037,156.9116 C 77.4831,156.7368 77.6657,156.5355 77.8287,156.2949 C 78.0112,156.0543 78.1688,155.7754 78.3263,155.4737 L 78.2072,154.6251 C 77.7871,154.4127 77.3946,154.2191 77.0326,154.0201 C 76.7011,153.818 76.3861,153.6299 76.093,153.4363 L 76.093,153.4363 z M 63.6228,144.3442 C 62.4725,144.3669 61.3253,144.3058 60.1836,144.1789 C 61.6348,145.8401 62.5391,147.9551 62.8322,150.537 C 64.0044,150.6334 64.9996,151.026 65.8647,151.6591 C 66.6992,152.2813 67.4123,153.1628 68.0094,154.2379 C 68.9748,154.0421 69.9339,153.7349 70.9071,153.3588 L 68.9113,144.5245 C 68.7452,144.3944 68.601,144.2447 68.4741,144.0708 C 68.4075,143.9877 68.3471,143.8991 68.3025,143.8169 C 66.7439,144.1624 65.179,144.3278 63.6228,144.3442 L 63.6228,144.3442 z M 74.5196,151.3496 C 74.5423,151.1921 74.5948,151.0511 74.6473,150.9068 C 74.5689,150.7541 74.4796,150.4657 74.4161,150.0574 C 74.3487,149.6084 74.3111,149.0615 74.3738,148.5984 C 74.431,148.187 74.6371,147.7372 74.8714,147.3948 C 75.1112,147.0453 75.3877,146.7099 75.5985,146.3424 C 75.9449,145.7374 76.1252,144.8465 75.9308,144.1679 C 75.7333,143.4721 75.4231,142.817 75.1362,142.147 C 74.6856,142.3406 74.2022,142.5309 73.6905,142.7026 C 73.0519,142.9212 72.3607,143.1312 71.6422,143.3216 C 71.6289,143.3655 71.6132,143.407 71.5967,143.447 L 73.381,152.018 L 74.5196,151.3496 L 74.5196,151.3496 z M 79.7642,153.879 L 78.6938,157.5667 C 79.6364,156.9641 80.6598,156.4085 81.7208,155.8804 C 83.3938,155.0537 85.1961,154.3296 87.1089,153.6604 C 87.1339,153.4669 87.1919,153.2624 87.2468,153.0602 C 87.4403,152.4412 87.8306,151.8856 88.3885,151.4797 C 88.9746,151.0566 89.7512,150.794 90.697,150.794 L 91.3685,150.2737 L 91.6561,150.501 L 95.6258,144.1954 L 96.3115,143.4407 C 96.027,143.2848 95.7081,143.1155 95.4542,142.9149 L 95.6117,142.5255 L 94.4151,142.3264 L 93.9128,142.578 C 92.6724,145.2704 91.298,147.5656 89.2622,149.7354 C 87.1104,152.0227 84.2401,154.1133 81.4113,155.5293 C 80.8542,154.9871 80.3197,154.4346 79.7642,153.879 L 79.7642,153.879 z M 92.0597,136.2755 C 91.2306,135.3352 90.36,134.492 89.4722,133.7319 C 88.5272,132.9193 87.5759,132.2117 86.6112,131.6006 C 81.6683,128.4105 76.4989,127.5148 72.7423,127.8471 C 69.3917,128.148 66.9398,129.0358 64.9745,130.3538 C 63.3572,131.4297 62.0634,132.7924 60.8888,134.3486 C 64.524,135.2748 67.5205,137.0795 69.8979,139.775 C 70.426,139.7836 70.9071,140.0681 71.2527,140.5265 C 71.3217,140.6261 71.3875,140.7373 71.4463,140.8423 C 72.3881,140.7373 73.3285,140.4826 74.2766,140.054 C 74.2766,140.0376 74.2766,140.0289 74.2625,139.9937 L 73.9475,139.1639 L 74.5423,139.8189 C 75.0226,140.3471 75.4818,140.7287 75.9183,141.0994 C 76.256,141.3924 76.5875,141.6628 76.9197,141.9864 C 77.8679,142.9345 78.5285,144.0629 78.9955,145.2978 C 79.4461,146.4592 79.7414,147.7059 79.9961,148.9557 C 81.6824,148.187 83.2026,147.3822 84.5324,146.5563 C 86.7163,145.2156 88.43,143.7777 89.6579,142.2935 C 89.5615,141.9911 89.4996,141.7387 89.4996,141.4057 C 89.4675,140.391 89.5357,139.3229 89.9008,138.3599 C 90.1398,137.6868 90.8051,136.802 91.4343,136.4001 C 91.6318,136.2786 91.8473,136.2559 92.0597,136.2755 L 92.0597,136.2755 z M 58.1517,137.5442 C 59.0889,136.4541 59.8341,135.1855 60.7094,134.0414 C 61.8824,132.508 63.1715,131.1461 64.7974,130.0639 C 66.7987,128.731 69.3031,127.8134 72.7204,127.5148 C 76.5381,127.1669 81.7819,128.079 86.7939,131.3051 C 87.778,131.9383 88.7341,132.6537 89.6908,133.4671 C 90.7298,134.3659 91.6678,135.3312 92.594,136.3476 C 93.188,136.4627 93.7357,136.6931 94.318,136.8444 L 96.0325,136.4079 C 95.9964,136.281 95.9604,136.154 95.8992,136.0318 C 95.5098,135.0006 94.8602,134.2655 94.0609,133.8652 C 93.2593,133.4584 92.2641,133.384 91.1279,133.746 C 90.863,133.8181 90.6327,133.9161 90.3929,134.025 C 90.552,133.1881 90.762,132.6098 91.631,132.2392 C 92.1983,131.9821 92.9859,131.8936 93.9559,131.9297 C 92.4303,129.4394 90.4815,128.336 88.2615,128.521 C 87.2538,128.6221 86.1505,128.9434 85.2705,129.4472 C 84.9344,128.1864 84.2793,126.8645 83.0044,126.3136 C 81.6456,125.7259 80.4592,126.1443 79.236,126.5283 C 78.6577,125.8411 77.9258,125.3012 77.0326,125.0771 C 75.7937,124.744 74.5963,125.0692 73.4115,125.4446 L 73.6161,125.0794 C 75.0485,122.47 74.793,120.4452 72.8536,119.0026 C 72.635,118.8396 72.4046,118.7001 72.1648,118.5505 C 72.3357,119.7556 72.2307,120.8613 71.8718,121.8534 C 71.3303,123.3218 70.3461,124.3138 69.2287,125.3309 C 69.879,123.8844 70.8962,121.8228 70.321,120.2446 C 70.0193,119.4069 69.2452,118.9399 68.087,118.7855 C 68.7178,120.1255 68.2641,122.155 66.8348,124.5873 C 66.5527,125.0904 66.2181,125.6052 65.8506,126.1435 C 65.4666,126.6717 65.0544,127.2194 64.6015,127.7828 L 64.5929,127.7828 L 64.339,127.5729 L 64.3523,127.5729 C 65.5105,126.0088 66.1052,124.6704 66.2126,123.5091 C 66.3098,122.492 66.0308,121.6214 65.4306,120.8613 C 64.9941,123.6697 63.0892,124.994 61.4115,126.1741 C 60.6733,126.6936 59.9658,127.1888 59.476,127.7554 L 59.476,127.7609 C 58.0436,129.4315 57.9268,132.1593 58.0193,134.7373 C 58.0522,135.6752 58.1337,136.6132 58.1517,137.5442 L 58.1517,137.5442 z M 84.0317,176.8119 L 84.0097,176.5635 L 84.0097,176.5548 L 83.8217,171.6817 L 80.4632,174.907 L 77.3946,175.9163 C 77.4087,176.7069 77.5748,177.2711 77.8702,177.6464 L 81.3753,177.7436 L 84.0317,176.8119 L 84.0317,176.8119 z M 86.7774,171.4764 L 87.5594,175.7893 C 87.8548,175.7336 88.1534,175.6812 88.4519,175.6372 C 89.1156,175.5236 89.7708,175.4186 90.4015,175.2086 C 90.6327,175.1342 90.863,175.0386 91.0637,174.8819 C 91.1976,174.7792 91.2909,174.6601 91.2909,174.523 C 91.2995,173.8844 91.059,173.2434 90.8051,172.6126 C 90.6805,172.3171 90.5865,172.0241 90.4783,171.7255 L 86.7774,171.4764 L 86.7774,171.4764 z M 87.7169,164.4498 L 86.4318,169.4061 L 90.465,170.2578 L 90.8458,169.4061 L 93.6715,166.495 L 93.3894,166.2192 L 87.7169,164.4498 L 87.7169,164.4498 z M 99.6206,154.4009 L 100.4582,153.6879 L 100.4825,152.4082 C 99.4709,152.7318 98.4428,153.2953 97.3975,154.0859 C 97.7878,153.8924 98.1247,153.7984 98.4177,153.785 C 98.9381,153.7591 99.3298,153.995 99.6206,154.4009 z M 95.9494,142.5811 L 95.8609,142.777 C 96.4133,143.1312 96.9665,143.4462 97.5605,143.7174 L 97.8708,142.8742 L 95.9494,142.5811 z M 100.068,144.613 L 100.6181,142.357 L 99.496,142.6109 L 99.4756,143.1359 L 98.2077,142.9267 L 97.8676,143.8443 C 98.5949,144.1271 99.3064,144.4101 100.068,144.613 L 100.068,144.613 z M 101.5772,143.0842 C 101.3524,142.9463 101.0796,142.7128 100.9166,142.4981 L 100.3806,144.6953 C 100.7262,144.7783 101.0663,144.8528 101.4142,144.928 L 101.5772,143.0842 L 101.5772,143.0842 z M 103.0316,137.9641 C 103.3466,137.9641 103.6428,138.0088 103.9186,138.1052 L 103.6867,137.5496 C 103.2236,137.7777 102.6594,137.9171 102.1493,137.8889 C 101.5882,137.8576 101.0005,137.6507 100.6863,137.1696 C 100.4794,136.8507 100.372,136.3931 100.3806,135.9848 L 100.3806,135.955 L 98.7359,136.444 L 99.6973,138.1052 L 99.5179,142.2771 L 100.6016,142.0193 C 100.4222,141.6439 100.3141,141.2067 100.3141,140.7397 C 100.3141,139.9796 100.6157,139.2884 101.1079,138.7689 C 101.5937,138.2791 102.288,137.9641 103.0316,137.9641 L 103.0316,137.9641 z M 87.9442,163.5792 L 87.8,164.1293 L 93.4145,165.8736 C 94.4755,165.0383 95.2888,164.0071 95.7394,162.7526 C 96.1978,161.4643 96.284,159.9136 95.8468,158.0776 L 95.5122,156.635 L 96.1649,157.9726 C 96.4384,158.5532 96.7511,158.9293 97.0574,159.1339 C 97.6537,159.528 98.2556,159.3024 98.7437,158.8463 C 99.1591,158.4568 99.4819,157.9068 99.6065,157.475 C 99.7585,156.9805 99.8416,156.0849 99.6394,155.3381 C 99.5109,154.7034 99.1692,154.1078 98.4428,154.1196 C 98.0808,154.1361 97.6161,154.3186 97.0496,154.6995 L 96.8584,154.4291 C 96.994,154.3374 97.1154,154.2489 97.2377,154.1886 L 95.7778,152.3197 L 95.0342,153.2099 L 96.494,154.3845 L 96.284,154.6556 L 91.3607,150.689 L 90.8051,151.109 C 90.0004,151.109 89.2402,151.2775 88.5765,151.7367 C 88.093,152.1097 87.7389,152.6018 87.5594,153.1574 C 87.3878,153.7216 87.3549,154.3374 87.521,154.9401 C 87.7028,155.6618 88.1401,156.3725 88.8391,156.9194 L 89.2293,157.5439 L 92.8173,157.5001 L 95.3022,157.4092 L 95.3108,157.7406 L 92.9192,157.8237 L 90.8874,162.6914 L 87.9442,163.5792 L 87.9442,163.5792 z M 96.8255,150.689 C 98.2297,150.1993 99.6096,149.9149 100.9856,149.7879 L 101.3837,145.2735 C 100.3611,145.0604 99.3604,144.7815 98.4036,144.4218 C 97.7878,144.1899 97.1875,143.9164 96.6068,143.6092 L 96.0325,144.2784 L 99.1418,146.9787 L 96.8255,150.689 L 96.8255,150.689 z M 91.9021,150.7055 L 94.7858,153.0077 L 95.5646,152.0737 L 95.0452,151.3966 C 95.4675,151.2305 95.893,151.033 96.3287,150.87 L 98.7054,147.0367 L 95.8138,144.5323 L 91.9021,150.7055 L 91.9021,150.7055 z M 99.1591,142.7441 L 99.3439,138.1914 L 98.2077,136.1924 L 94.318,137.19 C 93.6033,136.9667 93.0289,136.7598 92.29,136.6305 C 91.6592,136.5082 91.5346,136.697 91.1091,137.11 C 90.7298,137.5057 90.3929,137.9586 90.2103,138.4484 C 89.8875,139.3817 89.7817,140.4145 89.8397,141.3924 C 89.8397,141.8688 89.9454,142.3586 90.324,142.6752 C 90.762,143.0568 91.3881,143.0889 91.9327,143.2197 L 94.191,142.0749 L 94.5726,139.9381 L 94.8986,139.996 L 94.5397,142.0083 L 99.1591,142.7441 L 99.1591,142.7441 z M 75.1887,116.7536 C 75.0226,117.6102 74.9403,118.4619 75.0093,119.327 C 75.0751,120.2007 75.3157,121.0823 75.7584,121.9615 C 76.3391,122.1715 76.9276,122.2984 77.5223,122.3149 C 78.0998,122.3376 78.6883,122.2796 79.2799,122.119 L 79.2909,122.0579 C 79.8167,120.3112 79.7469,119.0339 79.1389,118.1822 C 78.5504,117.3986 77.4698,116.9746 75.9527,116.8759 C 75.8344,116.8688 75.7122,116.8587 75.5845,116.8587 L 75.1887,116.7536 L 75.1887,116.7536 z M 83.2026,123.3931 L 84.7063,119.7415 L 84.6569,116.8971 L 81.0877,116.2584 L 79.4484,114.9647 L 74.3017,115.0094 C 74.3017,115.2053 74.315,115.3988 74.3675,115.5978 C 74.4122,115.8353 74.525,116.057 74.7052,116.2804 L 75.6315,116.5295 C 77.4306,116.5899 78.7024,117.0632 79.388,117.9894 C 80.04,118.8678 80.1536,120.1255 79.7117,121.8259 L 80.8009,121.3314 L 83.2026,123.3931 z M 83.8796,122.6197 L 85.323,123.6995 C 85.6388,125.0395 86.1231,126.2141 87.4905,126.7406 C 88.5601,127.1638 89.9368,127.0807 91.5182,126.6882 C 91.6232,124.2927 91.6208,121.8996 91.7141,119.501 C 91.4492,119.1946 91.164,118.9924 90.8239,118.8851 C 90.4783,118.7824 90.0724,118.7879 89.5584,118.9148 C 88.4402,120.3958 87.2554,121.8204 86.1215,123.2803 L 85.8677,123.0781 C 86.9545,121.6653 88.0836,120.2947 89.1681,118.871 L 85.0025,117.6822 L 85.0386,119.7909 L 83.8796,122.6197 L 83.8796,122.6197 z M 91.8496,126.7822 L 97.099,129.3869 C 97.7117,127.5932 98.3386,125.7933 98.9898,124.0043 C 99.0423,123.8546 99.1418,123.7277 99.2335,123.6008 C 98.8769,123.2215 98.6771,122.8454 98.4287,122.3956 L 99.427,120.9882 L 92.0463,119.6812 C 91.9546,122.0508 91.957,124.4196 91.8496,126.7822 L 91.8496,126.7822 z M 98.5533,136.1399 L 100.4496,135.5757 C 100.4645,135.4833 100.5249,135.3563 100.5711,135.2639 C 100.8054,134.807 101.1643,134.5108 101.5412,134.2044 C 101.5937,134.1691 101.6383,134.1167 101.6854,134.0806 L 101.8413,132.3449 L 104.0017,126.8684 C 103.8967,126.4922 103.8497,126.0723 103.8497,125.6217 C 103.8497,125.3419 103.8661,125.0552 103.9053,124.7566 C 103.316,124.8444 102.744,124.8749 102.2378,124.8444 L 99.1559,132.5354 L 99.0815,135.6894 L 98.7437,135.6839 L 98.8268,132.4523 L 101.8954,124.8256 C 101.4064,124.7699 100.9691,124.6649 100.5852,124.5074 C 100.162,124.3468 99.789,124.1062 99.4709,123.8272 C 99.402,123.9268 99.3385,124.0239 99.3079,124.1148 C 98.924,125.1547 98.5533,126.1772 98.2077,127.203 C 97.8402,128.2169 97.4915,129.2403 97.146,130.3013 L 97.146,130.3068 C 97.0801,130.5035 97.0135,130.7135 96.9195,130.9345 C 96.6876,131.6256 96.4384,132.3081 96.3553,133.0188 C 96.295,133.7539 96.3553,134.5061 96.4329,135.2521 C 96.4775,135.5899 96.494,135.9464 96.5183,136.2834 L 98.3566,135.8108 L 98.5533,136.1399 L 98.5533,136.1399 z M 102.0584,133.7594 C 102.0912,133.7296 102.1305,133.6904 102.1524,133.6544 C 102.2307,133.4765 102.2778,133.279 102.3412,133.0855 C 102.4501,132.7556 102.5857,132.4421 102.8075,132.1428 C 103.001,131.8881 103.2142,131.617 103.4461,131.3991 C 103.7078,131.1594 104.0408,130.9259 104.3942,130.8177 L 105.1183,128.4324 C 104.7869,128.2585 104.4992,127.9654 104.2947,127.5893 C 104.2509,127.5203 104.2148,127.4318 104.1843,127.355 L 102.1665,132.4194 L 102.0584,133.7594 L 102.0584,133.7594 z M 104.5298,145.7625 L 104.7093,149.7127 C 106.6056,149.5716 108.027,149.1023 109.0661,148.3664 C 110.0087,147.6808 110.6168,146.7632 110.9263,145.6411 C 110.3763,145.7406 109.8129,145.815 109.2236,145.8675 C 107.7583,146.0031 106.1942,145.989 104.5298,145.7625 L 104.5298,145.7625 z M 101.7629,134.4591 C 101.444,134.7216 101.1345,134.97 100.9206,135.3124 C 100.7521,135.5852 100.7019,135.9918 100.7364,136.2982 C 100.7874,136.7488 101.0702,137.2252 101.4879,137.4007 C 102.3349,137.7549 103.3607,137.4603 104.0793,136.9274 C 104.5917,136.5646 105.0924,135.9691 105.4247,135.4347 C 105.9121,134.6511 106.1934,133.7743 106.173,132.8371 C 106.1715,132.2713 105.8721,131.7604 105.46,131.3835 C 105.2844,131.2276 105.116,131.1218 104.884,131.1022 C 104.4233,131.0606 103.9978,131.338 103.6867,131.6366 C 103.4602,131.8466 103.2502,132.0958 103.0677,132.3441 C 102.7518,132.7657 102.6273,133.3174 102.4595,133.804 C 102.2417,134.0485 102.0019,134.2499 101.7629,134.4591 L 101.7629,134.4591 z M 104.3551,138.3011 C 104.5792,138.4343 104.7931,138.5895 104.9663,138.7712 C 105.478,139.2884 105.7797,139.9796 105.7797,140.7397 C 105.7797,140.9003 105.7655,141.0578 105.7405,141.2067 C 105.8619,141.434 105.981,141.6157 106.1221,141.7513 C 106.7294,142.292 107.6916,142.1063 108.3969,141.8845 C 109.1805,141.622 110.1741,141.1377 110.6388,140.4027 C 110.9263,140.0046 111.1504,139.5149 111.2335,139.0925 C 111.3299,138.5973 111.2413,138.1444 111.1504,137.6852 C 111.1011,137.4446 111.0541,137.2041 111.0345,136.9361 L 106.1111,134.8407 C 105.6018,135.908 104.9772,136.748 103.9884,137.4007 L 104.3551,138.3011 L 104.3551,138.3011 z M 105.6135,141.6494 C 105.4286,142.2692 104.9537,142.8005 104.4217,143.139 L 104.5133,145.4115 C 105.2068,145.5086 105.8729,145.5612 106.5452,145.5909 L 106.5233,142.5976 L 106.8548,142.5866 L 106.8853,145.5995 C 107.9659,145.6411 109.0238,145.5588 110.0973,145.4201 L 109.7713,141.6549 L 110.1137,141.633 L 110.4288,145.3809 C 111.4381,145.2234 112.4081,144.9805 113.3257,144.6953 L 113.4534,143.7087 C 113.3179,143.3106 113.1847,142.9267 113.0413,142.5584 C 112.7482,141.7544 112.4607,140.9387 112.2702,140.1206 C 112.1127,139.529 112.0539,138.9758 112.3494,138.399 C 112.6628,137.78 113.0091,137.1649 113.3484,136.5458 C 114.161,135.1173 114.9517,133.6739 115.4407,132.0848 C 115.9288,130.505 116.3512,128.9261 116.5158,127.2688 C 116.6281,126.0324 116.2913,123.7794 115.6922,122.3846 C 115.0387,122.2537 114.3655,122.0994 113.7019,122.0994 C 114.5482,122.7372 115.3772,123.9346 115.6365,125.0151 C 115.8795,126.0323 115.834,127.1661 115.4947,128.1488 C 115.2283,128.9049 114.802,129.6337 114.4666,130.357 C 113.8053,131.7713 113.1283,133.1709 112.4528,134.5837 C 112.1072,135.3054 111.7617,136.0263 111.3526,136.864 C 111.4396,137.6311 111.7138,138.3536 111.565,139.1364 C 111.3464,140.275 110.5604,141.1981 109.5613,141.7238 C 108.8749,142.122 107.868,142.4495 107.0867,142.4236 C 106.4606,142.3633 105.9959,142.1987 105.6135,141.6494 L 105.6135,141.6494 z M 111.1066,136.6179 C 111.4381,135.955 111.7915,135.1941 112.1456,134.4505 C 112.7843,133.1184 113.4299,131.791 114.0584,130.4557 C 114.3444,129.8406 114.6727,129.2309 114.947,128.6049 C 115.5198,127.2946 115.6953,125.7047 115.0481,124.375 C 114.592,123.4268 113.8719,122.4943 112.9418,121.9639 C 111.5971,121.1669 110.7305,121.2178 109.298,121.4835 C 109.5112,121.9639 109.6162,122.5531 109.6162,123.2082 C 109.6162,124.3664 109.3019,125.4336 108.7581,126.4366 C 108.0427,127.7429 106.9692,128.6346 105.9199,128.6346 C 105.7632,128.6346 105.5799,128.6096 105.4341,128.5656 L 104.7618,130.7684 C 105.1434,130.7684 105.456,130.9227 105.7295,131.1891 C 106.3736,131.8192 106.5609,132.4735 106.4951,133.3002 C 106.4622,133.7186 106.3823,134.1464 106.2302,134.5335 L 111.1066,136.6179 L 111.1066,136.6179 z M 107.8248,120.5518 C 106.1386,120.4287 105.0243,122.1597 104.5439,123.5483 C 104.12,124.8059 103.7807,127.5917 105.3941,128.1927 C 107.0891,128.8243 108.4557,126.5346 108.9305,125.2706 C 109.3309,123.9777 109.6647,121.0219 107.8248,120.5518 L 107.8248,120.5518 z M 113.2905,121.782 C 114.1508,121.6864 115.1546,121.9293 115.9962,122.119 L 113.549,117.4793 L 113.401,115.6174 C 111.3001,114.8488 109.1875,114.1411 107.0812,113.5166 C 106.6502,113.3811 106.2302,113.2534 105.8095,113.1264 C 105.7875,113.24 105.7491,113.3529 105.7186,113.4578 C 105.5971,113.9398 105.4341,114.5095 105.1113,114.895 C 104.7288,115.3526 104.0997,115.6872 103.5511,115.7883 C 102.8756,115.9481 101.9761,115.8792 101.3312,115.6088 C 101.1494,115.909 101.0107,116.1707 100.9245,116.499 C 100.861,116.7403 100.8022,116.9919 100.8783,117.2121 C 100.9644,117.4652 101.2325,117.8076 101.5028,117.8954 C 102.1829,118.2292 102.965,118.3812 103.7031,118.5583 L 106.7192,117.6572 L 106.8187,117.9722 L 103.7023,118.9015 C 103.0386,118.7456 102.3522,118.5959 101.7214,118.3483 L 98.819,122.434 C 99.2389,123.2693 99.8721,123.8664 100.7152,124.2033 C 101.5718,124.5489 102.6476,124.632 103.9547,124.422 L 103.9884,124.3828 L 103.9884,124.3773 C 104.0918,123.7504 104.3002,123.1549 104.5964,122.586 C 105.1904,121.3746 106.0665,120.4719 107.013,120.2509 C 107.2983,120.185 107.5984,120.1874 107.8915,120.2313 C 108.4196,120.3418 108.842,120.6819 109.1405,121.1708 C 110.3175,120.906 111.7374,120.8292 113.2905,121.782 L 113.2905,121.782 z M 102.755,115.5399 C 102.3804,115.5399 101.9024,115.4897 101.5584,115.3432 C 101.3477,115.2617 101.1079,115.1363 101.176,114.8746 C 101.2238,114.681 101.3923,114.6184 101.5498,114.5087 L 102.4094,114.4475 L 102.4925,114.6223 L 102.8294,114.5831 L 102.7221,114.0941 C 102.4995,114.0581 102.2887,114.0314 102.0693,114.0197 C 101.8836,114.0197 101.6924,114.0181 101.5137,113.9891 C 101.2881,113.9562 101.1462,113.8974 101.1212,113.649 C 101.1157,113.5409 101.1909,113.1703 101.2489,113.0488 L 102.4705,113.0191 L 102.4595,112.6868 L 100.5546,112.7338 C 100.5546,112.5763 100.5546,112.4243 100.5875,112.2723 C 100.6181,112.1234 100.6683,111.9486 100.7395,111.7911 C 102.3263,112.1759 103.9076,112.5959 105.4921,113.0488 C 105.3699,113.5104 105.2688,114.1623 104.9718,114.5306 C 104.5267,115.2656 103.5535,115.5399 102.755,115.5399 L 102.755,115.5399 z M 107.1839,113.2039 C 110.6145,114.2485 114.0474,115.4545 117.467,116.8086 L 114.6837,110.0884 L 108.9172,108.2172 L 109.005,107.899 L 114.6837,109.7264 C 114.9211,109.1042 115.1061,108.4185 115.1923,107.725 C 115.2502,107.0088 115.2001,106.2871 114.8992,105.6265 C 114.4643,104.6086 113.8946,103.7616 113.1988,102.9035 C 112.7396,102.3291 112.0986,101.7736 111.4741,101.2455 C 111.1724,100.983 110.866,100.7196 110.5862,100.4658 C 110.2407,100.5238 109.9037,100.5849 109.5691,100.6288 C 108.5904,100.773 107.6117,100.9304 106.7106,101.2924 C 105.9372,101.5989 105.1904,102.0055 104.5439,102.5251 C 103.7274,103.1896 103.3027,103.9214 102.8936,104.8806 C 102.791,105.1376 102.6829,105.386 102.5559,105.6493 L 106.4896,107.1224 L 106.3823,107.432 L 102.3546,105.9196 L 100.7811,107.2353 L 105.1904,108.6371 L 104.7869,109.8259 L 99.554,108.261 L 96.762,110.5781 C 100.2365,111.2857 103.7251,112.1641 107.1839,113.2039 L 107.1839,113.2039 z "
   style="fill:#ffffff;fill-rule:nonzero" />
   <path
   id="_113573088"
   class="fil1"
   d="M 63.2467,146.334 C 63.0892,147.0063 63.0806,147.6003 63.2216,148.1253 C 63.3227,147.659 63.6824,147.3589 64.1204,147.2163 C 63.8845,147.1967 63.6471,147.1983 63.4042,147.2218 L 63.2467,146.334 L 63.2467,146.334 z M 65.5277,149.0766 C 65.4666,149.1729 65.4055,149.2779 65.3091,149.3532 C 65.0827,149.5937 64.7669,149.7371 64.419,149.7371 C 64.3218,149.7371 64.2223,149.7152 64.1259,149.6987 C 64.6399,150.2261 65.3365,150.7237 66.2103,151.2134 L 65.3836,150.4142 C 65.4917,150.0075 65.5277,149.5036 65.5277,149.0766 z M 63.6753,146.8707 C 65.4752,146.7877 66.1687,147.9317 65.7432,150.3013 L 67.2579,151.7776 L 67.4679,152.1671 L 67.0699,152.048 C 65.3311,151.1915 64.0898,150.3397 63.3964,149.3226 C 62.7742,148.4128 62.619,147.3722 62.9622,146.0863 C 63.0555,145.7329 63.1738,145.4696 63.3462,145.1484 L 63.6753,146.8707 L 63.6753,146.8707 z "
   style="fill:#0a0b0c;fill-rule:nonzero" />
   <path
   id="_113573016"
   class="fil3"
   d="M 67.9797,141.702 C 66.3764,141.807 64.7669,141.8321 63.1691,141.807 C 61.5604,141.7851 59.9658,141.6934 58.3758,141.5524 L 59.0231,143.6947 C 60.5519,143.9219 62.0799,144.0434 63.6142,144.0269 C 65.1179,143.9987 66.6389,143.8334 68.1536,143.5067 C 68.0016,143.1556 67.9099,142.7497 67.9099,142.3101 L 67.9099,142.3046 C 67.9099,142.1001 67.9404,141.8979 67.9797,141.702 L 67.9797,141.702 z M 74.4341,140.3362 C 73.4946,140.7594 72.5488,141.0273 71.5896,141.1488 C 71.7276,141.503 71.8106,141.887 71.8106,142.2936 L 71.8106,142.2991 C 71.8106,142.5201 71.7723,142.7442 71.7417,142.9566 C 72.3881,142.7748 73.0135,142.5867 73.5824,142.39 C 74.1936,142.18 74.7523,141.97 75.2553,141.7294 L 74.4341,140.3362 L 74.4341,140.3362 z M 60.6788,134.6222 C 60.1162,135.3893 59.6069,136.1972 59.045,136.9613 C 63.1393,138.0089 66.1578,139.4296 68.098,141.2123 C 68.1896,140.9498 68.3166,140.7319 68.4741,140.5212 C 68.7366,140.1677 69.0931,139.9021 69.4912,139.8167 C 67.1498,137.2402 64.2223,135.51 60.6788,134.6222 L 60.6788,134.6222 z M 75.1942,153.2013 C 75.0751,153.1269 74.9756,153.0305 74.8878,152.9169 C 74.6473,152.6128 74.5031,152.2172 74.4811,151.7556 L 73.1569,152.5463 L 71.3491,143.9384 C 70.9644,144.4399 70.5498,144.8419 69.854,144.8419 C 69.6659,144.8419 69.4748,144.8035 69.2953,144.7291 L 71.2911,153.5634 C 70.1667,154.0422 68.9622,154.394 67.761,154.6393 L 68.5211,156.5795 C 69.8235,156.19 70.9816,155.7088 72.0818,155.1204 C 73.1788,154.5421 74.2022,153.887 75.1942,153.2013 L 75.1942,153.2013 z M 76.9855,150.5975 C 77.212,150.8827 77.3311,151.2666 77.3397,151.7031 C 77.3397,151.9053 77.3037,152.0934 77.2645,152.2673 L 79.1443,152.6599 C 79.8958,153.5015 80.6285,154.3517 81.4638,155.1031 C 84.5488,153.4866 87.0399,151.5981 89.0106,149.4973 C 90.9289,147.4654 92.3746,145.2322 93.42,142.8296 L 91.9601,143.5764 C 91.3297,143.3908 90.618,143.3869 90.103,142.9213 C 89.9972,142.8242 89.9008,142.7105 89.8099,142.5977 C 88.5765,144.0818 86.8738,145.486 84.7063,146.8103 C 82.5695,148.151 79.9742,149.4009 76.9855,150.5975 L 76.9855,150.5975 z M 87.0838,154.0281 C 85.2345,154.6667 83.4902,155.3829 81.8705,156.1649 C 80.2147,156.9916 78.6805,157.9037 77.2951,158.913 L 77.6046,162.9682 L 80.5681,162.2825 L 80.862,162.3303 C 82.086,161.3751 83.527,160.5092 84.867,159.7311 C 86.1858,158.9569 87.5155,158.2493 88.886,157.6161 L 88.604,157.1577 C 87.8603,156.5716 87.4019,155.8029 87.2138,155.0287 C 87.1089,154.6917 87.0704,154.3595 87.0838,154.0281 z M 96.3498,158.9153 C 96.5301,160.1205 96.494,161.1964 96.2589,162.1579 C 97.5472,162.8435 98.8714,163.3991 100.2561,163.8222 L 100.4496,154.1362 L 99.789,154.7027 C 100.1691,155.524 100.1738,156.7283 99.9246,157.5691 C 99.6903,158.4005 98.8824,159.4576 97.9977,159.6457 C 97.3309,159.7938 96.7409,159.4192 96.3498,158.9153 L 96.3498,158.9153 z M 104.7234,164.486 L 104.3112,176.2039 C 104.8127,176.182 105.3949,176.1177 105.876,175.9469 L 105.8619,164.2893 C 105.4529,164.3645 105.0854,164.4468 104.7234,164.486 L 104.7234,164.486 z M 105.141,152.627 L 104.7398,164.1537 C 105.8486,163.9962 107.1204,163.6679 108.4,162.9823 C 109.7517,162.266 111.1066,161.1604 112.242,159.4599 C 113.2905,157.8786 113.9511,156.074 114.6194,154.2522 C 114.9352,153.4145 115.2448,152.5682 115.6068,151.7313 C 116.877,148.7293 118.101,145.7023 119.3853,142.6996 L 115.8332,141.0908 L 113.6415,143.2332 C 113.6987,143.3766 113.7606,143.5435 113.7919,143.6892 L 113.6415,144.9587 C 112.8869,145.2102 112.1088,145.4178 111.3025,145.5746 C 110.9624,146.8244 110.3104,147.8776 109.2487,148.6377 C 108.2919,149.3068 107.0452,149.7739 105.4255,149.9752 C 107.2865,150.2331 108.7456,150.8278 110.504,151.5566 L 108.0435,154.5616 C 107.1855,153.7773 106.2153,153.0799 105.141,152.627 z M 112.5962,159.507 C 111.8816,160.9801 109.7611,162.6406 108.5904,163.2557 C 110.5283,164.0464 112.5076,164.7594 114.5231,165.3926 C 116.5463,166.0257 118.6174,166.5672 120.7456,166.9958 C 120.7456,166.8908 120.7707,166.7717 120.7926,166.6644 C 120.9282,166.1221 121.3122,165.6441 121.9837,165.3926 C 121.1821,165.0251 120.7981,164.475 120.7182,163.9249 C 120.607,163.3184 120.9149,162.5505 121.4368,162.1885 C 118.4873,161.4644 115.5457,160.5688 112.5962,159.507 L 112.5962,159.507 z M 127.4517,162.0058 C 127.4909,161.9675 127.5402,161.9456 127.5794,161.926 C 127.3631,159.6426 126.9768,157.3568 126.382,155.0757 C 125.7795,152.8205 124.9833,150.5535 123.974,148.2866 L 119.6564,148.3947 C 120.5662,150.6116 121.4039,152.8205 122.0338,155.0538 C 122.6584,157.3011 123.04,159.5704 123.0956,161.8351 C 123.3189,161.893 123.5289,162.0058 123.7335,162.1634 C 123.6622,161.2983 123.9388,160.7043 124.3972,160.3501 C 124.7733,160.057 125.2764,159.9442 125.7709,159.9826 C 126.2551,160.0265 126.7307,160.2483 127.0372,160.5852 C 127.3859,160.9363 127.5653,161.4119 127.4517,162.0058 L 127.4517,162.0058 z M 130.2883,168.1344 C 130.2437,168.2096 130.1747,168.2919 130.1089,168.3585 C 131.5734,168.5379 133.0528,168.6735 134.5041,168.7652 C 136.0211,168.8561 137.5193,168.8921 139.0262,168.9172 L 138.9432,163.2941 C 137.5444,163.3858 136.1261,163.4297 134.7196,163.4516 C 133.3287,163.4657 131.9441,163.4516 130.5673,163.4077 C 130.6064,163.6922 130.5814,163.9852 130.4897,164.2564 C 130.3353,164.7015 129.9921,165.094 129.4177,165.2821 C 130.1527,165.6136 130.5312,166.1166 130.6252,166.6589 C 130.7279,167.1619 130.5814,167.687 130.2883,168.1344 z M 127.9414,188.7149 C 128.7478,188.7062 129.2297,188.2259 129.5447,187.4987 C 129.8965,186.7065 129.5956,185.4982 129.2625,184.724 C 129.116,184.3259 128.9727,183.9553 128.9029,183.5486 L 128.9029,183.5431 C 128.8535,183.1811 128.7955,182.805 128.7454,182.4045 C 128.4359,180.1031 128.2243,177.7735 128.0934,175.4517 C 128.0213,173.9926 128.0433,172.5249 128.0598,171.065 C 128.077,170.3739 128.0934,169.6663 128.0934,168.9501 C 127.9108,168.889 127.7228,168.7762 127.5488,168.6351 C 127.6483,169.4172 127.4352,169.99 127.0293,170.3269 C 126.3068,171.0094 124.9966,170.8684 124.2977,170.2384 C 123.8831,169.8763 123.634,169.3647 123.7116,168.7096 C 123.634,168.7762 123.5376,168.8365 123.4632,168.889 C 123.3856,171.8918 123.4326,174.9047 123.7116,177.9121 C 123.941,180.8859 124.5271,183.9321 125.3441,186.7982 C 125.6773,187.9684 126.6984,188.7372 127.9414,188.7149 L 127.9414,188.7149 z "
   style="fill:#2aabe2;fill-rule:nonzero" />
   <path
   id="_113572944"
   class="fil4"
   d="M 79.877,125.997 C 82.716,125.1625 84.5739,126.1631 85.4782,128.9857 C 86.3276,128.568 87.2859,128.2797 88.2309,128.2169 C 90.6609,128.0069 92.7899,129.2231 94.4065,132.0237 L 94.5585,132.2948 C 93.6409,132.2525 92.6191,132.1765 91.7611,132.5432 C 91.3027,132.7454 90.99,133.0573 90.8325,133.5 C 90.9101,133.478 90.9759,133.453 91.0316,133.4389 C 92.2477,133.0627 93.3314,133.1379 94.213,133.5744 C 95.0483,133.9976 95.7089,134.749 96.1539,135.7724 C 96.1484,135.6149 96.1265,135.4488 96.1014,135.2913 C 96.0325,134.5312 95.9659,133.7625 96.0325,133.0024 C 96.1265,132.2588 96.3553,131.548 96.6123,130.8436 C 96.6899,130.6336 96.762,130.4291 96.8341,130.2105 L 96.8341,130.205 C 96.8835,130.0388 96.9469,129.8813 97.0026,129.7207 L 91.5871,127.0369 C 89.9392,127.4263 88.5076,127.5015 87.3714,127.0729 C 86.2046,126.6137 85.3841,125.6272 85.0245,123.9103 L 83.7472,122.9402 L 83.3256,123.9495 L 80.7421,121.7296 L 79.6364,122.2185 L 79.877,125.997 L 79.877,125.997 z M 66.2792,102.3676 L 74.1936,101.9609 C 74.1356,101.6851 74.0447,101.3975 73.9311,101.1264 C 73.7986,100.7972 73.6161,100.4438 73.4139,100.1038 L 73.3591,99.9987 L 73.4194,99.9298 C 73.171,99.9596 72.9304,99.9987 72.6899,100.0512 C 72.2831,100.1092 71.8718,100.2033 71.4737,100.2918 C 69.6134,100.7424 67.8746,101.4414 66.2792,102.3676 L 66.2792,102.3676 z M 79.1146,101.7039 L 86.9349,101.2948 C 85.8677,100.8223 84.7839,100.4188 83.6532,100.1147 C 82.3594,99.7715 81.0352,99.5505 79.667,99.5145 L 79.6811,99.6587 L 79.1146,101.7039 z M 73.8566,119.4735 C 75.1284,120.8754 75.2052,122.6722 74.0917,124.8945 C 74.7382,124.7119 75.3243,124.6124 75.8658,124.6124 L 75.626,122.2741 L 75.5335,122.2279 C 75.0437,121.4114 74.7531,120.3002 74.6856,119.3466 C 74.6081,118.4588 74.6856,117.5662 74.8683,116.6761 L 74.5196,116.5844 C 74.3017,116.3141 74.1316,116.0328 74.0447,115.6809 C 73.9538,115.3448 73.9836,115.0368 73.9836,114.6912 L 74.2657,114.6826 L 73.2093,114.5471 C 73.3614,115.3432 73.4946,116.1425 73.6075,116.9245 C 73.707,117.7817 73.812,118.6249 73.8566,119.4735 L 73.8566,119.4735 z M 75.9128,149.9838 C 76.2255,149.9838 76.5216,150.1193 76.7614,150.3238 C 77.7848,149.9227 78.7573,149.5113 79.6811,149.0968 C 79.4319,147.825 79.1475,146.5618 78.6969,145.4115 C 78.2299,144.2149 77.5967,143.1312 76.6705,142.2183 C 76.1933,141.7207 75.6307,141.2991 75.1057,140.8368 L 75.7223,141.8735 C 75.6283,141.9159 75.532,141.9636 75.4348,142.0083 C 75.7067,142.6203 75.9927,143.2346 76.1894,143.8662 C 76.3775,144.461 76.3728,144.9452 76.2364,145.5596 C 76.0483,146.4027 75.6393,146.8768 75.1495,147.5648 C 74.6943,148.2042 74.6504,148.8021 74.6935,149.5677 C 74.7123,149.9007 74.775,150.2416 74.8573,150.5503 C 75.0312,150.2228 75.5555,149.9838 75.9128,149.9838 L 75.9128,149.9838 z "
   style="fill:#eb2227;fill-rule:nonzero" />
   <path
   id="_113572800"
   class="fil5"
   d="M 76.2058,124.612 C 76.5271,124.6371 76.8226,124.6755 77.1125,124.7499 L 77.1297,124.7562 L 76.9722,122.6107 C 76.6431,122.5668 76.303,122.4916 75.9684,122.3952 L 76.2058,124.612 z M 68.25,142.3096 C 68.25,143.217 68.7836,144.5154 69.854,144.5154 C 70.9385,144.5154 71.4705,143.2248 71.4705,142.3096 L 71.4705,142.3041 C 71.4705,141.403 70.9361,140.0983 69.854,140.0983 C 68.7828,140.0983 68.25,141.4147 68.25,142.3096 L 68.25,142.3096 z M 127.8059,165.1876 L 127.7228,165.1711 L 127.8059,165.1625 C 127.7737,163.9612 126.8201,162.9512 125.5969,162.9512 C 124.358,162.9512 123.3856,163.9832 123.3856,165.2009 C 123.3856,166.4272 124.3604,167.4428 125.5969,167.4428 C 126.8177,167.4428 127.8059,166.4257 127.8059,165.2009 L 127.8059,165.1876 z M 100.8116,152.3028 L 100.151,185.1349 L 100.151,185.1435 L 100.1456,185.1513 C 100.0515,185.8064 100.151,186.4811 100.4277,187.1887 C 100.6847,187.8743 101.1079,188.5905 101.6634,189.3647 C 102.3263,188.8531 102.8075,188.2975 103.1225,187.6338 C 103.4602,186.9481 103.6201,186.1442 103.6647,185.196 L 104.8088,152.4987 C 103.5174,152.0199 102.1375,151.9581 100.8116,152.3028 L 100.8116,152.3028 z M 95.5646,151.5318 L 97.3207,153.7486 C 99.134,152.3804 100.9198,151.7026 102.7111,151.7473 C 104.4859,151.7857 106.26,152.5544 108.0098,154.0722 L 109.9782,151.6893 C 107.6478,150.6769 105.2985,150.108 102.9046,150.0469 C 100.5052,149.9865 98.0753,150.4535 95.5646,151.5318 L 95.5646,151.5318 z M 104.3692,149.8228 L 104.0934,143.3126 C 103.7697,143.4513 103.4156,143.5257 103.0316,143.5257 C 102.6249,143.5257 102.2605,143.4427 101.8954,143.2774 L 101.3178,149.7647 C 102.3107,149.6762 103.3717,149.7154 104.3692,149.8228 L 104.3692,149.8228 z M 103.0316,138.2874 C 101.6956,138.2874 100.6322,139.4314 100.6322,140.7393 C 100.6322,142.0643 101.6924,143.1943 103.0316,143.1943 C 104.3778,143.1943 105.4419,142.0815 105.4419,140.7393 C 105.4419,139.4111 104.37,138.2874 103.0316,138.2874 z M 124.1621,163.0836 L 123.8526,162.7381 C 123.3056,162.1049 122.667,161.9866 122.1389,162.1574 C 121.4328,162.3893 120.9337,163.1314 121.041,163.8664 C 121.1327,164.4165 121.5801,164.9548 122.5894,165.2652 L 123.0729,165.4031 C 123.0729,164.5215 123.3535,163.5781 124.1621,163.0836 L 124.1621,163.0836 z M 122.5753,165.5825 C 121.6961,165.7157 121.2518,166.2078 121.1327,166.7407 C 120.9235,167.4913 121.3521,168.5085 122.1169,168.7647 C 122.6168,168.9387 123.2226,168.8117 123.8831,168.148 L 124.4278,167.5893 L 124.1621,168.3196 C 123.8831,169.0523 124.1096,169.6298 124.5163,169.9918 C 125.1103,170.5082 126.1908,170.6626 126.8185,170.1054 C 127.2056,169.7434 127.3913,169.1102 127.1061,168.1394 L 126.8796,167.424 C 126.509,167.6418 126.0749,167.786 125.6,167.786 C 124.9002,167.786 124.2593,167.4843 123.8032,167.0204 C 123.402,166.6192 123.145,166.0942 123.0784,165.5049 L 122.5753,165.5825 L 122.5753,165.5825 z M 126.9462,167.3793 L 127.3913,167.996 C 127.8858,168.6652 128.4884,168.8305 128.986,168.7036 C 129.7962,168.5053 130.4584,167.5799 130.2961,166.7328 C 130.1911,166.1741 129.7296,165.6796 128.7234,165.4226 L 128.1428,165.2707 C 128.1279,166.0715 127.6624,166.986 126.9462,167.3793 z M 128.1428,165.1319 L 128.754,165.088 C 129.5666,165.0356 130.0094,164.6453 130.1747,164.1532 C 130.4262,163.3571 129.9968,162.3744 129.2265,162.0336 C 128.7015,161.815 128.0017,161.898 127.2338,162.5891 L 126.8326,162.959 C 127.6014,163.4245 128.1247,164.212 128.1428,165.1319 z M 126.7441,162.9041 L 126.9682,162.398 C 127.2863,161.7068 127.1586,161.1732 126.8107,160.8112 C 126.259,160.2548 125.2176,160.1279 124.5907,160.6176 C 124.1708,160.9553 123.9051,161.594 124.1567,162.5891 L 124.2507,163.017 C 125.0029,162.5578 125.9479,162.5092 126.7441,162.9041 L 126.7441,162.9041 z M 75.9128,150.3258 C 75.2065,150.3258 74.8181,151.0922 74.8181,151.7112 C 74.8181,152.3265 75.2059,153.1123 75.9128,153.1123 C 76.6216,153.1123 77.002,152.3264 77.002,151.7112 C 77.002,151.0928 76.6212,150.3258 75.9128,150.3258 z M 86.4702,169.7489 L 86.7186,171.1367 L 90.697,171.3991 L 94.8156,170.6085 L 94.8657,170.9235 L 93.2875,171.2331 L 93.3533,172.2031 L 94.2051,171.9853 L 94.7991,172.8057 L 95.4408,172.0378 L 96.3725,172.2862 L 96.4188,171.2691 L 97.2322,170.9399 L 96.5771,170.2488 L 96.9469,169.3587 L 96.1265,169.2262 L 95.8609,168.2366 L 95.0177,168.7036 L 94.2357,168.2005 L 93.9285,169.0875 L 92.9333,169.2152 L 93.1817,170.1054 L 94.7913,169.9918 L 94.7991,170.3155 L 90.5865,170.6085 L 90.5418,170.6085 L 86.4702,169.7489 L 86.4702,169.7489 z M 87.7725,162.9763 L 84.1124,170.5255 L 84.3772,177.1022 L 87.3573,176.596 L 86.0776,169.4417 L 87.7725,162.9763 L 87.7725,162.9763 z M 77.4698,124.8471 C 78.2048,125.1182 78.8215,125.5633 79.3489,126.1494 C 79.41,126.1267 79.4876,126.0883 79.5456,126.0742 L 79.3324,122.4391 C 78.7165,122.6052 78.1163,122.6663 77.5137,122.6413 C 77.4392,122.6413 77.3758,122.6413 77.3091,122.6358 L 77.4698,124.8471 L 77.4698,124.8471 z M 72.5018,118.3588 C 72.8779,118.6026 73.2235,118.8431 73.5001,119.1111 C 73.4038,117.4442 73.1042,115.7945 72.8066,114.1541 L 76.046,114.5772 C 76.1314,114.3868 76.1588,114.2074 76.1314,113.9942 C 76.1063,113.7842 76.0155,113.5687 75.8885,113.3556 L 71.5622,112.6645 C 71.9599,114.5471 72.3009,116.4451 72.5018,118.3588 L 72.5018,118.3588 z M 76.3688,114.6603 L 76.5569,114.6603 C 76.5804,114.0491 76.6321,113.401 76.4989,112.7914 C 76.3688,112.1528 76.1588,111.5204 75.941,110.8896 C 75.6315,110.0159 75.3384,109.143 75.2632,108.2026 C 75.2052,107.3375 75.4152,106.5218 75.6173,105.6896 C 75.7529,105.1623 75.883,104.62 75.9488,104.0699 C 75.9598,103.8466 75.8901,103.6178 75.8438,103.3929 L 74.9043,103.4368 C 74.9709,103.6719 75.0093,103.9257 74.9788,104.1616 C 74.9176,104.7086 74.7993,105.2391 74.6606,105.7648 C 74.4451,106.5774 74.246,107.3955 74.3456,108.1948 L 74.3456,108.2026 C 74.4451,109.1124 74.6911,110.0159 74.9537,110.8818 C 75.1503,111.5948 75.3462,112.2969 75.4653,112.9489 L 76.093,113.057 C 76.2803,113.3132 76.4143,113.6541 76.4605,113.9582 C 76.4911,114.1933 76.4605,114.4252 76.3688,114.6603 z M 63.7803,103.5175 L 62.0031,102.4557 L 61.7845,102.5858 C 61.4083,102.7911 61.189,102.8444 61.225,103.3185 C 61.2509,103.6162 61.3543,103.838 61.533,104.001 C 61.7798,104.2282 62.1371,104.287 62.456,104.258 C 62.8157,104.2329 63.1252,103.9924 63.4434,103.7604 L 63.7803,103.5175 L 63.7803,103.5175 z M 87.6864,101.2529 L 87.9215,101.1095 C 86.6332,100.3134 85.3175,99.7241 83.9462,99.3127 C 82.5562,98.8817 81.1104,98.6521 79.62,98.5832 L 79.6451,99.1858 C 81.0657,99.2155 82.4175,99.4318 83.7472,99.7938 C 85.0856,100.1558 86.3793,100.6589 87.6448,101.2701 L 87.6864,101.2529 L 87.6864,101.2529 z M 65.3836,102.2622 L 65.6155,102.3813 C 67.3715,101.2975 69.3117,100.4763 71.3961,99.9733 C 72.1601,99.7962 72.9202,99.659 73.6905,99.5587 C 73.8511,99.3096 73.9695,99.0471 74.0447,98.7759 C 72.1124,99.1215 70.4174,99.6058 68.9411,100.2084 C 67.5455,100.778 66.3623,101.4629 65.3836,102.2622 L 65.3836,102.2622 z M 76.897,114.6603 L 79.0174,114.6352 C 78.9359,113.9504 78.8356,113.1871 78.8983,112.4983 C 78.9563,111.8299 79.1091,111.1576 79.2439,110.497 C 79.4461,109.6014 79.6341,108.6979 79.6035,107.8046 C 79.573,107.0061 79.2964,106.246 79.0338,105.4992 C 78.8678,105.0463 78.5848,104.399 78.5457,103.9132 C 78.5183,103.693 78.5449,103.4822 78.5449,103.2573 L 76.1761,103.3843 C 76.2278,103.6343 76.2975,103.8654 76.2725,104.1146 C 76.2113,104.689 76.0679,105.2367 75.9324,105.7868 C 75.7388,106.5774 75.5429,107.3649 75.6009,108.1862 C 75.6785,109.0732 75.9543,109.9305 76.2505,110.7901 C 76.4825,111.4287 76.7011,112.0618 76.8226,112.7389 C 76.9628,113.3705 76.897,114.0248 76.897,114.6603 z M 91.2776,101.0045 L 89.6164,102.2347 C 89.7182,102.2982 89.8099,102.3562 89.9149,102.4087 C 90.2573,102.6132 90.592,102.8091 90.954,102.8374 C 91.3575,102.8695 91.9633,102.6657 92.1474,102.2653 C 92.3636,101.8171 92.1474,101.2975 91.6717,101.1502 C 91.5377,101.1087 91.4069,101.0515 91.2776,101.0045 L 91.2776,101.0045 z M 64.6595,103.664 L 88.8915,102.3758 L 91.1945,100.6535 C 91.2471,100.4568 91.2525,100.2993 91.2329,100.1692 C 91.1867,99.9843 91.1005,99.9043 90.9234,99.8409 C 90.7824,99.8103 90.6084,99.8181 90.3929,99.8487 L 87.7553,101.593 L 65.5771,102.7347 L 62.7052,101.2396 C 62.4819,101.2639 62.2304,101.3266 62.0799,101.5154 C 61.978,101.6949 62.0423,101.9503 62.1026,102.1266 L 64.6595,103.664 L 64.6595,103.664 z M 74.5196,101.9362 L 75.6173,101.886 L 74.8597,99.8965 L 74.6606,95.8131 L 73.812,95.857 C 74.2351,96.6038 74.4592,97.3224 74.4725,98.0025 C 74.4819,98.7328 74.2288,99.4694 73.7594,100.0257 C 73.9475,100.3494 74.105,100.673 74.2351,100.999 C 74.3675,101.3109 74.4592,101.629 74.5196,101.9362 L 74.5196,101.9362 z M 63.6228,101.3446 L 65.0654,102.1046 C 66.0911,101.2474 67.3465,100.5092 68.8142,99.9098 C 70.3429,99.2767 72.1092,98.779 74.1136,98.4303 C 74.1356,98.3065 74.1411,98.1624 74.1411,98.019 C 74.1269,97.4023 73.9224,96.7472 73.5416,96.0702 C 71.3655,96.8216 69.4308,97.657 67.7391,98.5745 C 66.1578,99.4341 64.7724,100.3604 63.6228,101.3446 L 63.6228,101.3446 z M 75.9684,101.8672 L 78.7714,101.7144 L 79.3489,99.6387 L 79.178,95.6141 L 74.9928,95.8021 L 75.1887,99.8267 L 75.9684,101.8672 z M 88.2231,100.8964 L 89.5936,99.9764 C 87.9904,98.9695 86.3652,98.1318 84.6954,97.4415 C 83.0067,96.7417 81.2922,96.2057 79.5236,95.8429 L 79.6145,98.2313 C 81.1347,98.312 82.6086,98.5549 84.0544,98.9891 C 85.4782,99.4201 86.8824,100.0587 88.2231,100.8964 L 88.2231,100.8964 z "
   style="fill:#ffcb09;fill-rule:nonzero" />
  </g>
 </g>
</svg>