<?xml version="1.0" encoding="ISO-8859-1" standalone="yes"?>
<svg width="531.539" height="605.664">
  <defs> 
    <marker id="ArrowEnd" viewBox="0 0 10 10" refX="0" refY="5" 
     markerUnits="strokeWidth" 
     markerWidth="4" 
     markerHeight="3" 
     orient="auto"> 
        <path d="M 0 0 L 10 5 L 0 10 z" /> 
    </marker>
    <marker id="ArrowStart" viewBox="0 0 10 10" refX="10" refY="5" 
     markerUnits="strokeWidth" 
     markerWidth="4" 
     markerHeight="3" 
     orient="auto"> 
        <path d="M 10 0 L 0 5 L 10 10 z" /> 
    </marker> </defs>
<g>
<path style="stroke:none; fill-rule:evenodd; fill:#222222" d="M 0.277441 0L 530.945 0C 530.945 153.293 531.539 267.297 531.539 399.09C 531.539 490.141 445.391 605.664 262.223 605.664C 79.0589 605.664 -0.0663586 486.488 4.19617e-05 395.438L 0.277441 0"/>
<path style="stroke:none; fill-rule:evenodd; fill:#ec2a32" d="M 8.30864 8.33197L 522.445 8.33197L 522.445 396.727C 522.445 485.336 439.074 597.766 261.813 597.766C 84.5509 597.766 7.97664 481.785 8.04304 393.172L 8.31254 8.33197L 8.30864 8.33197zM 140.711 424.266C 134.629 421.223 131.145 422.832 126.098 426.301C 125.508 424.996 124.875 421.145 125.949 419.914C 125.832 418.516 126.383 418.918 124.84 418.078C 123.277 418.168 120.953 419.219 119.719 420.57C 118.297 415.742 120.594 414.363 122.313 414.344C 122.379 413.77 122.211 413.91 121.563 413.891C 119.535 414.129 118.293 414.887 116.524 416.516C 116.059 414.32 115.891 411.996 118.82 410.863C 117.539 410.688 116.246 410.746 113.391 412.684C 115.301 406.273 121.59 404.473 128.231 403.789C 136.34 402.469 136.625 405.871 143.863 399.344C 148.543 386.563 147.727 374.863 145.676 362.883C 147.082 351.363 147.727 339.504 148.551 327.926C 149.301 317.418 134.07 318.602 129.094 321.883C 123.012 325.895 115.348 327.207 108.094 327.914C 97.8629 328.906 78.2029 334.242 61.75 333.227C 58.5196 332.805 58.2813 332.125 60.1953 330.699C 58.668 331.688 56.7539 332.121 55.668 331.676C 45.293 330.09 38.0274 326.152 35.1524 315.281C 35.0352 310.414 40.4258 307.121 43.3555 303.375C 45.7539 301.316 48.3594 298.609 50.1211 295.262C 54.0274 289.649 56.8203 284.563 58.9141 278.41C 60.0664 275.023 56.8008 270.824 58.5117 267.68C 67.2617 251.594 80.4339 242.598 93.3319 231.356C 83.9839 221.336 96.8629 202.586 112.715 221.535C 126.906 214.43 139.184 219.5 158.754 208.082C 175.402 200.09 190.34 186.078 208.699 184.102C 225.274 182.316 240.824 193.035 256.887 197.504C 277.988 196.801 299.258 198.082 320.199 195.391C 343.801 192.352 360.442 196.188 380.348 207.379C 400.063 218.465 421.043 228.352 436.977 244.402C 447.453 254.953 453.594 270.145 457.024 284.617C 462.301 306.883 460.774 330.231 462.649 353.039C 465.141 373.039 475.656 380.66 480.234 397.125C 482.07 401.188 486.762 409.742 480.934 415.109C 474.262 421.254 471.371 423.391 463.539 437.098C 459.715 441.676 450.902 449.043 441.07 447.875C 439.66 447.707 439.035 450.356 438.453 451.625C 435.848 451.481 436.328 445.879 436.672 445.461C 435.055 445.543 433.672 445.063 432.098 444.856C 431.234 444.746 428.707 447.684 428.391 450.484C 425.602 449.984 426.957 442.219 427.492 442.059C 425.902 441.988 424.676 442.07 424.051 441.32C 423.629 440.813 420.539 444.141 420.024 445.945C 417.797 444.879 418.801 439.793 420.945 436.602C 420.098 437.238 417.152 441.43 417.375 444.211C 414.402 440.301 416.477 435.328 418.219 434.492C 421.363 428.141 427.094 424.414 434.742 420.305C 438.168 418.465 438.973 414.289 440.848 410.883C 435.223 406.652 429.594 402.418 423.965 398.188C 419.457 404.246 420.399 417.266 421.504 427.461C 421.82 430.395 411.59 433.34 406.027 434.16C 398.645 435.25 392.934 435.879 382.551 435.207C 380.801 435.094 377.652 434.691 375.172 437.481C 374.41 436.66 374.18 432.168 375.977 431.84C 375.457 430.773 371.828 431.586 371.078 430.516C 370.695 429.969 368.254 432.492 367.391 434.465C 364.672 430.84 367.106 426.082 368.399 425.723C 368.715 425.399 368.199 425.078 367.906 424.977C 366.727 425.645 363.426 428.797 362.445 430.875C 361.176 425.727 361.875 423.586 363.793 422.731C 363.051 423.473 362.16 422.656 360.695 425.25C 360.024 421.227 364.738 418.258 366.645 420.277C 370.16 417.176 375.047 416.34 382.817 417.594C 385.496 417.059 386.899 413.461 383.168 410.191C 375.938 403.93 370.309 386.086 366.285 372.102C 363.754 365.992 352.082 372.902 343.774 372.102C 336.801 371.859 334.961 365.992 324.781 367.516C 325.16 387.668 321.695 404.281 317.75 422.184C 314.906 428.266 312.063 434.508 308.254 439.465C 302.07 444.434 286.871 445.887 277.375 443.59C 276.813 443.453 274.481 445 273.203 445.828C 271.801 444.57 272 441.133 273.422 440.531C 272.293 440.625 272.328 440.531 270.852 439.086C 268.797 439.652 265.852 442.766 264.852 444.117C 263.785 441.066 265.5 436.828 266.867 436.504C 265.867 436.328 266.168 436.102 265.32 434.805C 264.332 433.293 259.793 438 259.027 439.109C 257.395 437.078 258.664 431.688 261.285 431.219C 259.07 431.328 258.817 432.023 257.203 434.742C 255.285 431.59 258.727 426.957 263.02 427.742C 266.922 425.246 272.852 424.231 276.598 425.012C 276.945 418.43 286.602 413.777 277.652 405.262C 270.969 392.684 269.742 379.781 257.606 367.523C 247.164 355.414 244.102 364.688 225.961 347.106C 221.945 344.922 213.758 342.738 209.418 342.488C 208.012 347.07 206.606 351.656 205.199 356.242C 204.348 370.137 201.25 377.598 192.539 385.867C 189.141 391.742 186.149 398.336 181.219 402.856C 169.211 413.863 168.133 421.824 164.754 423.25C 157.711 426.219 147.906 426.711 140.734 424.305"/>
<path style="stroke:none; fill-rule:evenodd; fill:#fffdfd" d="M 112.149 222.043C 108.106 216.578 100.719 212.426 95.0269 216.352C 89.3009 222.734 91.6409 227.574 95.2659 231.367C 97.7539 233.758 101.113 233.094 103.508 231.805C 107.883 228.133 110.047 225.715 112.145 222.043L 112.149 222.043zM 143.891 422.356C 135.055 420.934 134.07 419.406 130.277 421.961C 129.641 420.875 128.949 419.395 126.844 419.563C 127.262 418.672 126.086 417.754 125.445 417C 124.977 415.836 124.192 414.793 123.36 414.816C 123.469 413.949 123.785 413.242 122.309 412.789C 123.125 412.133 122.02 411.168 121.684 410.961C 121.707 409.668 121.371 408.195 119.477 407.895C 124.117 405.617 129.402 405.152 134.395 405.496C 138.945 405.613 142.746 404.547 145.371 400.184C 149.07 387.82 150.52 374.902 147.984 363.168C 149.363 342.305 151.293 336.602 151.094 325.527C 150.934 316.563 135.965 314.992 131.09 318.168C 125.129 322.047 118.547 324.84 111.442 325.52C 100.633 326.555 80.7069 332.902 63.2031 330.879C 71.6949 330.207 74.9019 320.926 84.4449 317.266C 77.0899 317.027 70.2459 329.098 58.9375 329.742C 52.9961 328.613 45.8203 326.777 42.2852 322.758C 43.5352 322.563 46.8477 318.535 48.3633 318.57C 53.0508 315.773 47.9414 309.246 40.0117 310.277C 40.9649 307.008 45.3399 304.715 48.1133 302.051C 50.4649 300.059 52.8867 297.176 54.6094 293.941C 58.4375 288.508 61.4492 283.594 62.336 277.641C 62.0899 273.617 60.711 269.469 62.5352 266.66C 71.7739 252.461 82.2269 244.207 94.8709 233.332C 104.879 239.516 111.184 225.535 114.266 222.863C 127.219 217.27 142.86 220.973 161.086 209.606C 177.402 201.875 191.969 187.402 210.039 186.406C 226.285 185.512 240.418 196.25 256.164 199.926C 276.848 198.137 298.797 201.051 319.32 198.445C 342.453 195.508 357.649 198.102 377.16 208.926C 396.481 219.649 418.16 229.211 433.777 244.742C 444.043 254.949 450.063 269.645 453.426 283.641C 458.598 305.18 457.102 327.766 458.942 349.828C 460.43 369.816 471.453 380.738 476.774 395.469C 481.617 404.516 482.574 410.973 476.863 416.16C 470.324 422.102 470.496 421.094 462.82 434.356C 459.785 437.543 450.254 448.336 442.32 446.641C 441.774 446.387 444.906 444.707 444.344 444.277C 443.027 443.27 436.813 441.27 436.133 444.281C 435.465 444.027 434.004 444.191 433.223 444.012C 434.781 441.082 430.883 439.801 430.11 439.715C 428.848 439.152 427.699 439.469 427.34 440.738C 426.496 441.004 426.207 441.043 425.555 440.828C 428.481 438.988 425.289 434.969 422.34 434.953C 421.906 433.777 422.57 433.582 420.852 433.195C 423.938 427.051 429.059 425.633 436.555 421.66C 439.91 419.883 441.234 413.352 443.074 410.055C 437.559 405.961 428.676 399.555 423.16 395.461C 418.742 401.32 417.36 415.34 418.445 425.199C 418.754 428.035 409.59 430.844 404.82 433.227C 401.5 434.301 383.762 435.031 381.793 434.012C 383.102 431.473 379.16 429.754 376.789 430.918C 376.695 430.727 372.07 430.578 371.098 429.141C 369.723 429.023 369.797 426.481 369.418 426.582C 370.375 425.641 369.418 424.356 368.734 423.262C 368.926 421.899 368.5 421.43 368.152 420.645C 371.598 417.645 375.731 417.645 383.348 418.859C 385.977 418.34 388.613 412.367 384.957 409.203C 379.274 405.399 371.176 384.223 367.879 369.508C 365.399 363.598 351.297 370.641 343.156 369.863C 336.324 369.629 332.926 363.773 322.945 365.25C 323.317 384.742 319.746 402.773 315.875 420.09C 313.09 425.973 310.477 432.543 306.746 437.34C 300.797 441.688 287.445 445.102 278.82 441.625C 278.645 440.641 277.145 439.66 275.938 439.523C 273.301 439.231 273.059 438.457 272.293 437.399C 271.688 435.773 270.391 435.074 269.035 434.899C 267.973 434.246 267.192 434.231 267.035 432.832C 266.957 431.68 266.746 430.602 265.375 429.961C 265.36 429.551 265.27 428.414 264.399 428.668C 268.223 426.254 274.539 425.992 278.211 426.746C 278.969 421.418 288.547 413.297 279.242 403.727C 273.227 389.777 269.539 374.805 257.645 364.727C 247.41 353.012 244.231 361.805 226.453 344.797C 222.52 342.688 211.438 339.66 207.188 339.418C 205.809 343.852 205.004 350.977 203.625 355.414C 202.789 368.856 199.754 376.43 191.215 384.43C 187.492 389.918 187.574 393.445 183.133 398.016C 172.082 409.387 166.36 418.594 163.551 420.805C 159.285 424.16 150.969 424.805 143.942 422.414L 143.891 422.356zM 121.652 241.57C 120.613 242.219 119.57 242.227 119.203 241.305C 120.504 236.055 124.594 231.387 128.977 227.684C 133.121 225.082 135.668 224.699 138.629 226.344C 149.61 233.43 149.039 244.004 148.477 261.113C 147.34 261.66 147.164 261.949 146.027 261.211C 146.785 248.746 148.289 234.43 137.68 228.242C 135.164 227.375 134.024 227.219 130.57 229.387C 125.422 233.188 122.192 236.992 121.652 241.566L 121.652 241.57zM 75.4649 278.57C 73.5699 278.953 73.1879 280.727 73.3479 282.145C 74.9529 285.547 79.9339 285.602 82.8749 285.527C 81.1249 282.289 78.2309 277.649 75.4649 278.566"/>
</g>
</svg>